<?xml version="1.0" encoding="UTF-8"?>
<svg version="1.1" xmlns="http://www.w3.org/2000/svg" width="225" height="225">
<path d="M0 0 C74.25 0 148.5 0 225 0 C225 74.25 225 148.5 225 225 C150.75 225 76.5 225 0 225 C0 150.75 0 76.5 0 0 Z " fill="#FEFEFE" transform="translate(0,0)"/>
<path d="M0 0 C1.1034375 0.05800781 2.206875 0.11601563 3.34375 0.17578125 C19.67498421 1.8533709 35.90990868 12.42826889 46.2890625 24.77734375 C48.80743027 28.04892197 50.98515793 31.39946994 53 35 C53.52013672 35.84884766 53.52013672 35.84884766 54.05078125 36.71484375 C62.34567407 51.35100599 63.19877332 69.44785197 58.875 85.375 C54.08764568 101.51497846 44.77396778 114.26839233 31 124 C29.84757812 124.83337891 29.84757812 124.83337891 28.671875 125.68359375 C15.37236986 134.5132321 -3.47966904 137.16616167 -19.04296875 134.3515625 C-37.081317 130.51967255 -51.55768179 121.24314283 -62.4765625 106.3828125 C-65.41108132 101.79292409 -67.76418901 96.96091799 -70 92 C-70.33128906 91.26523438 -70.66257813 90.53046875 -71.00390625 89.7734375 C-76.87932766 75.52483099 -75.28220242 56.13258979 -69.8125 42.0625 C-63.62929439 28.02446634 -54.41527167 16.66899081 -41 9 C-40.08476563 8.47535156 -39.16953125 7.95070313 -38.2265625 7.41015625 C-25.84795053 0.76599313 -13.8221256 -0.73257266 0 0 Z " fill="#FDFD03" transform="translate(118,34)"/>
<path d="M0 0 C42.9 0 85.8 0 130 0 C130 10.89 130 21.78 130 33 C87.1 33 44.2 33 0 33 C0 22.11 0 11.22 0 0 Z " fill="#366898" transform="translate(17,180)"/>
<path d="M0 0 C1.155 0.144375 2.31 0.28875 3.5 0.4375 C3.93054688 1.07171875 4.36109375 1.7059375 4.8046875 2.359375 C7.21749549 5.3170106 9.42202535 5.37568286 13.125 6.125 C19.44684896 7.57750702 24.91563797 9.87007091 30.625 12.9375 C31.33479004 13.31737061 32.04458008 13.69724121 32.77587891 14.08862305 C43.62800764 20.08748905 43.62800764 20.08748905 45.5 25.4375 C46.55648973 31.87652689 45.50283222 36.87295755 42.0234375 42.3515625 C33.6841043 53.77003411 21.73055077 59.66069987 8.0703125 62.0625 C7.22210938 62.18625 6.37390625 62.31 5.5 62.4375 C5.54600342 63.14358398 5.59200684 63.84966797 5.6394043 64.57714844 C5.83871533 67.77981608 6.01336246 70.98336918 6.1875 74.1875 C6.26033203 75.29867187 6.33316406 76.40984375 6.40820312 77.5546875 C6.46298828 78.62460938 6.51777344 79.69453125 6.57421875 80.796875 C6.66062622 82.27365723 6.66062622 82.27365723 6.7487793 83.78027344 C6.45864307 86.87923588 5.56405265 88.16350371 3.5 90.4375 C0.98039553 90.08996835 -0.27302416 89.655746 -2.125 87.875 C-6.2781886 80.5125293 -5.72513586 72.64245152 -5.5 64.4375 C-6.49 64.4375 -7.48 64.4375 -8.5 64.4375 C-9.1875 61.625 -9.1875 61.625 -9.5 58.4375 C-8.77770454 57.72052193 -8.77770454 57.72052193 -8.04081726 56.98905945 C-6.34396682 55.56910165 -6.34396682 55.56910165 -6.13923645 53.55818176 C-6.14589828 52.85424789 -6.15256012 52.15031403 -6.15942383 51.42504883 C-6.15976372 50.2241436 -6.15976372 50.2241436 -6.16011047 48.99897766 C-6.17559433 48.13951035 -6.19107819 47.28004303 -6.20703125 46.39453125 C-6.21127609 45.5109343 -6.21552094 44.62733734 -6.21989441 43.71696472 C-6.23668957 40.89433339 -6.27434303 38.07241559 -6.3125 35.25 C-6.32754577 33.33659885 -6.34123436 31.42318651 -6.35351562 29.50976562 C-6.38659581 24.81873541 -6.4383837 20.12823869 -6.5 15.4375 C-8.81 14.7775 -11.12 14.1175 -13.5 13.4375 C-13.375 10.125 -13.375 10.125 -12.5 6.4375 C-9.625 4.6875 -9.625 4.6875 -6.5 3.4375 C-5.7884375 2.6021875 -5.7884375 2.6021875 -5.0625 1.75 C-3.5 0.4375 -3.5 0.4375 0 0 Z " fill="#396A96" transform="translate(119.5,60.5625)"/>
<path d="M0 0 C21.78 0 43.56 0 66 0 C66 10.89 66 21.78 66 33 C44.22 33 22.44 33 0 33 C0 22.11 0 11.22 0 0 Z " fill="#FBFC05" transform="translate(149,180)"/>
<path d="M0 0 C7.24346988 0.13788331 12.87481739 0.32158528 18.45703125 5.453125 C23.66563951 10.92262956 25.80961454 14.82949957 26.640625 22.30859375 C26.5375 23.03046875 26.434375 23.75234375 26.328125 24.49609375 C22.8929202 26.78623028 21.342794 26.67452348 17.328125 26.49609375 C17.07417969 25.83222656 16.82023437 25.16835937 16.55859375 24.484375 C14.11764303 17.60803335 14.11764303 17.60803335 10.328125 11.49609375 C7.2324143 10.60402196 7.2324143 10.60402196 4.328125 10.49609375 C1.0873438 14.90112342 0.80547711 18.53803629 0.640625 23.80859375 C0.60646484 24.54916016 0.57230469 25.28972656 0.53710938 26.05273438 C0.45518946 27.86667539 0.38996678 29.68135728 0.328125 31.49609375 C1.0394458 31.49085693 1.7507666 31.48562012 2.48364258 31.48022461 C5.70262775 31.45945357 8.92159883 31.44643317 12.140625 31.43359375 C13.26017578 31.42521484 14.37972656 31.41683594 15.53320312 31.40820312 C17.14291992 31.40336914 17.14291992 31.40336914 18.78515625 31.3984375 C20.2697937 31.39058228 20.2697937 31.39058228 21.78442383 31.38256836 C24.328125 31.49609375 24.328125 31.49609375 27.328125 32.49609375 C27.015625 34.87109375 27.015625 34.87109375 26.328125 37.49609375 C22.97692981 39.73022388 21.9103495 39.73457137 18.00390625 39.69140625 C16.46186523 39.68173828 16.46186523 39.68173828 14.88867188 39.671875 C13.81681641 39.65511719 12.74496094 39.63835937 11.640625 39.62109375 C10.55716797 39.61207031 9.47371094 39.60304687 8.35742188 39.59375 C5.6807679 39.57016715 3.00455703 39.53725501 0.328125 39.49609375 C0.44929688 40.49987061 0.57046875 41.50364746 0.6953125 42.5378418 C1.14555175 46.27414249 1.59190636 50.01089888 2.03710938 53.74780273 C2.23006537 55.36283791 2.42406428 56.97774886 2.61914062 58.5925293 C2.89990365 60.91813524 3.17687105 63.24416716 3.453125 65.5703125 C3.54062012 66.28821457 3.62811523 67.00611664 3.71826172 67.74577332 C4.14249264 71.34973553 4.42713765 74.86666129 4.328125 78.49609375 C3.338125 78.49609375 2.348125 78.49609375 1.328125 78.49609375 C1.328125 79.15609375 1.328125 79.81609375 1.328125 80.49609375 C-3.421875 79.62109375 -3.421875 79.62109375 -5.671875 78.49609375 C-6.15844727 76.60107422 -6.15844727 76.60107422 -6.48828125 74.11328125 C-6.61227295 73.19949707 -6.73626465 72.28571289 -6.86401367 71.34423828 C-6.98623291 70.36310059 -7.10845215 69.38196289 -7.234375 68.37109375 C-7.36368408 67.38093262 -7.49299316 66.39077148 -7.6262207 65.37060547 C-8.63196297 57.42376156 -9.31043086 49.49771913 -9.671875 41.49609375 C-10.37054688 41.43550781 -11.06921875 41.37492187 -11.7890625 41.3125 C-12.69914062 41.22871094 -13.60921875 41.14492187 -14.546875 41.05859375 C-15.45179687 40.97738281 -16.35671875 40.89617187 -17.2890625 40.8125 C-19.671875 40.49609375 -19.671875 40.49609375 -21.671875 39.49609375 C-21.671875 37.51609375 -21.671875 35.53609375 -21.671875 33.49609375 C-18.01180027 31.8813549 -14.61653318 31.10254397 -10.671875 30.49609375 C-10.64609375 29.37332031 -10.6203125 28.25054687 -10.59375 27.09375 C-10.06203155 11.3235441 -10.06203155 11.3235441 -5.671875 4.49609375 C-5.25164062 3.7690625 -4.83140625 3.04203125 -4.3984375 2.29296875 C-2.671875 0.49609375 -2.671875 0.49609375 0 0 Z " fill="#3A6B95" transform="translate(79.671875,68.50390625)"/>
<path d="M0 0 C9.7808688 1.39726697 21.50370331 4.00336665 29.0625 10.875 C30.44603304 14.01100822 29.96222132 15.72844751 29 19 C25.71021126 27.22447185 18.83966887 30.89848351 10.94140625 34.328125 C3.8571743 37 3.8571743 37 0 37 C0 24.79 0 12.58 0 0 Z " fill="#FAFB07" transform="translate(124,76)"/>
<path d="M0 0 C3.3125 -0.5 3.3125 -0.5 7 0 C9.9375 2.375 9.9375 2.375 12 5 C12 5.66 12 6.32 12 7 C10.68 7 9.36 7 8 7 C7.34 6.01 6.68 5.02 6 4 C3.94074861 3.27617533 3.94074861 3.27617533 2 3 C2 4.98 2 6.96 2 9 C3.27617187 8.90460938 4.55234375 8.80921875 5.8671875 8.7109375 C7.53642112 8.5984049 9.20569415 8.48645593 10.875 8.375 C11.71675781 8.31054688 12.55851562 8.24609375 13.42578125 8.1796875 C14.23144531 8.128125 15.03710938 8.0765625 15.8671875 8.0234375 C16.61081543 7.97106934 17.35444336 7.91870117 18.12060547 7.86474609 C20 8 20 8 22 10 C21.44444444 14.55555556 21.44444444 14.55555556 20 16 C23.88145188 15.76476049 25.6260367 14.55618556 28.3125 11.9375 C31.05791929 9.40373198 32.68193064 8.59182359 36.4375 8.625 C37.613125 8.74875 38.78875 8.8725 40 9 C40 9.66 40 10.32 40 11 C38.02 11 36.04 11 34 11 C34 11.66 34 12.32 34 13 C34.62648437 13.04898438 35.25296875 13.09796875 35.8984375 13.1484375 C37.12433594 13.26058594 37.12433594 13.26058594 38.375 13.375 C39.18710938 13.44460937 39.99921875 13.51421875 40.8359375 13.5859375 C43 14 43 14 45 16 C45 16.99 45 17.98 45 19 C42.23547967 20.38226016 39.9538637 20.09525387 36.875 20.0625 C35.77929688 20.05347656 34.68359375 20.04445312 33.5546875 20.03515625 C32.71164063 20.02355469 31.86859375 20.01195312 31 20 C31 19.01 31 18.02 31 17 C33.64 17 36.28 17 39 17 C35.65441902 16.40234282 32.40356872 15.94222337 29 16 C26.30566683 17.87197454 26.30566683 17.87197454 24 20 C19.80224886 20.59967873 17.75187872 20.43193033 14.0625 18.3125 C12 16 12 16 12 11 C8.7 11 5.4 11 2 11 C2.33 14.63 2.66 18.26 3 22 C1.68 21.67 0.36 21.34 -1 21 C-1.33 18.03 -1.66 15.06 -2 12 C-3.32 11.67 -4.64 11.34 -6 11 C-6 10.34 -6 9.68 -6 9 C-4.68 9 -3.36 9 -2 9 C-2.04125 8.071875 -2.0825 7.14375 -2.125 6.1875 C-2 3 -2 3 0 0 Z " fill="#F2F513" transform="translate(28,186)"/>
<path d="M0 0 C2.00390625 1.328125 2.00390625 1.328125 2.8828125 3.8359375 C3.00390625 6.328125 3.00390625 6.328125 1.50390625 8.453125 C-2.81422116 11.69172056 -6.58533011 13.328125 -11.99609375 13.328125 C-11.99609375 15.968125 -11.99609375 18.608125 -11.99609375 21.328125 C-12.98609375 20.998125 -13.97609375 20.668125 -14.99609375 20.328125 C-17.88150997 13.99787512 -16.91829384 6.9953824 -15.99609375 0.328125 C-16.98609375 0.328125 -17.97609375 0.328125 -18.99609375 0.328125 C-18.99609375 -0.661875 -18.99609375 -1.651875 -18.99609375 -2.671875 C-12.49392184 -4.83926564 -6.18246473 -2.22757508 0 0 Z " fill="#ECEFF4" transform="translate(107.99609375,187.671875)"/>
<path d="M0 0 C0.7425 0.2475 1.485 0.495 2.25 0.75 C2.25 1.41 2.25 2.07 2.25 2.75 C0.93 3.08 -0.39 3.41 -1.75 3.75 C-2.08 5.07 -2.41 6.39 -2.75 7.75 C-0.78897046 7.52211278 1.16890505 7.26694943 3.125 7 C4.21554688 6.86078125 5.30609375 6.7215625 6.4296875 6.578125 C9.36688751 6.04666196 9.36688751 6.04666196 10.5703125 3.734375 C10.90675781 2.75210938 10.90675781 2.75210938 11.25 1.75 C12.25 0.75 12.25 0.75 15.1875 0.5625 C18.25 0.75 18.25 0.75 20.25 2.75 C20.625 5.6875 20.625 5.6875 20.25 8.75 C18.13310295 11.10210784 16.80958485 11.66810953 13.6875 12.125 C10.85675742 11.68950114 9.99835273 10.95844555 8.25 8.75 C7.68539062 9.07484375 7.12078125 9.3996875 6.5390625 9.734375 C4.03573676 10.8450656 2.34698412 11.01820725 -0.375 11 C-1.15101563 11.00515625 -1.92703125 11.0103125 -2.7265625 11.015625 C-4.75 10.75 -4.75 10.75 -6.75 8.75 C-7.27588107 5.41941989 -7.03406594 4.14979651 -5.0625 1.375 C-2.75 -0.25 -2.75 -0.25 0 0 Z " fill="#437191" transform="translate(164.75,194.25)"/>
<path d="M0 0 C0.87890625 1.70703125 0.87890625 1.70703125 1.5625 3.8125 C2.5367848 6.66869282 3.55815485 9.33813202 5 12 C3.68 12.33 2.36 12.66 1 13 C-2 9.25 -2 9.25 -2 7 C-2.886875 7.825 -3.77375 8.65 -4.6875 9.5 C-6.96925434 11.41407829 -7.77043656 11.96939154 -10.8125 12.375 C-13 12 -13 12 -14 11 C-14.4375 8.75 -14.4375 8.75 -14 6 C-10.02451178 2.02451178 -5.82185131 -1.9406171 0 0 Z " fill="#E6EAF0" transform="translate(126,194)"/>
<path d="M0 0 C0.66 0.33 1.32 0.66 2 1 C2 0.34 2 -0.32 2 -1 C3.65 -1 5.3 -1 7 -1 C7.67154933 0.28913487 8.33708859 1.58140204 9 2.875 C9.37125 3.59429687 9.7425 4.31359375 10.125 5.0546875 C11 7 11 7 11 9 C9.68 8.67 8.36 8.34 7 8 C6.67 6.68 6.34 5.36 6 4 C5.34 4 4.68 4 4 4 C3.34 5.65 2.68 7.3 2 9 C0.68 8.67 -0.64 8.34 -2 8 C-2 6.35 -2 4.7 -2 3 C-2.66 3 -3.32 3 -4 3 C-4.33 4.65 -4.66 6.3 -5 8 C-6.32 8.33 -7.64 8.66 -9 9 C-9.3125 5.6875 -9.3125 5.6875 -9 2 C-5.91752731 -0.73997572 -3.86181343 -1.59799177 0 0 Z " fill="#427092" transform="translate(196,196)"/>
<path d="M0 0 C0.99 0 1.98 0 3 0 C3 3.63 3 7.26 3 11 C5.64 11 8.28 11 11 11 C10.67 11.99 10.34 12.98 10 14 C7.69 14 5.38 14 3 14 C3 16.31 3 18.62 3 21 C1.68 21 0.36 21 -1 21 C-1.33 19.02 -1.66 17.04 -2 15 C-3.65 14.67 -5.3 14.34 -7 14 C-7 13.34 -7 12.68 -7 12 C-5.35 11.67 -3.7 11.34 -2 11 C-1.93941406 10.28972656 -1.87882812 9.57945312 -1.81640625 8.84765625 C-1.73261719 7.92855469 -1.64882812 7.00945312 -1.5625 6.0625 C-1.48128906 5.14597656 -1.40007812 4.22945312 -1.31640625 3.28515625 C-1 1 -1 1 0 0 Z " fill="#EFF217" transform="translate(79,185)"/>
<path d="M0 0 C0.66 0.66 1.32 1.32 2 2 C1.01 2 0.02 2 -1 2 C-1 5.63 -1 9.26 -1 13 C-0.01 13.33 0.98 13.66 2 14 C1.34 14.66 0.68 15.32 0 16 C-0.45811675 17.97235333 -0.45811675 17.97235333 -0.625 20.125 C-0.74875 21.40375 -0.8725 22.6825 -1 24 C-1.99 23.67 -2.98 23.34 -4 23 C-6.88541622 16.66975012 -5.92220009 9.6672574 -5 3 C-5.99 3 -6.98 3 -8 3 C-8 2.01 -8 1.02 -8 0 C-4.67679974 -1.10773342 -3.30835256 -0.93312508 0 0 Z " fill="#F2F4F7" transform="translate(97,185)"/>
<path d="M0 0 C1.32 0 2.64 0 4 0 C3.54917531 1.46067199 3.08906463 2.91848032 2.625 4.375 C2.36976563 5.18710938 2.11453125 5.99921875 1.8515625 6.8359375 C1 9 1 9 -1 11 C-4.55746019 10.90638263 -5.77472849 10.22527151 -8.3125 7.6875 C-10 5 -10 5 -10 1 C-6.73045798 1.56371414 -5.17424117 2.49962266 -3 5 C-2.5875 4.175 -2.175 3.35 -1.75 2.5 C-1.1725 1.675 -0.595 0.85 0 0 Z " fill="#EEF1F5" transform="translate(140,195)"/>
<path d="M0 0 C2 2 2 2 2.375 4.9375 C2 8 2 8 0.3125 9.875 C-2.33270547 11.16185671 -4.09433826 11.24213848 -7 11 C-6.34 10.34 -5.68 9.68 -5 9 C-6.11854586 5.27385847 -6.11854586 5.27385847 -9 3 C-6.40257043 -0.46323942 -4.16948329 -0.44356205 0 0 Z " fill="#4E798D" transform="translate(183,195)"/>
<path d="M0 0 C4.95 0.99 4.95 0.99 10 2 C10.33 2.99 10.66 3.98 11 5 C8.22920113 8.80984844 4.37131855 9.06840752 0 10 C0 6.7 0 3.4 0 0 Z " fill="#3E6D9D" transform="translate(96,188)"/>
<path d="M0 0 C1.20628008 2.33214148 2.1654738 4.49642139 3 7 C1.68 7 0.36 7 -1 7 C-1.66 6.34 -2.32 5.68 -3 5 C-5.22128555 4.97691403 -5.22128555 4.97691403 -7.625 5.375 C-8.44226563 5.48585937 -9.25953125 5.59671875 -10.1015625 5.7109375 C-10.72804687 5.80632812 -11.35453125 5.90171875 -12 6 C-9.71540242 3.71540242 -7.87462656 3.02870252 -4.875 1.875 C-3.96492187 1.52179688 -3.05484375 1.16859375 -2.1171875 0.8046875 C-1.06917969 0.40636719 -1.06917969 0.40636719 0 0 Z " fill="#336798" transform="translate(176,198)"/>
<path d="M0 0 C2.875 -0.125 2.875 -0.125 6 0 C6.66 0.66 7.32 1.32 8 2 C7.8125 4.5 7.8125 4.5 7 7 C6.01 7.66 5.02 8.32 4 9 C4 8.34 4 7.68 4 7 C3.01 6.67 2.02 6.34 1 6 C1.20625 5.38125 1.4125 4.7625 1.625 4.125 C1.74875 3.42375 1.8725 2.7225 2 2 C1.34 1.34 0.68 0.68 0 0 Z " fill="#C6D33A" transform="translate(42,194)"/>
<path d="M0 0 C2.475 0.495 2.475 0.495 5 1 C5.33 1.99 5.66 2.98 6 4 C6.99 4 7.98 4 9 4 C9 4.66 9 5.32 9 6 C6.03 6 3.06 6 0 6 C0 4.02 0 2.04 0 0 Z " fill="#507B8B" transform="translate(30,189)"/>
<path d="M0 0 C-0.66 0.66 -1.32 1.32 -2 2 C-2.16687448 4.58354218 -2.16687448 4.58354218 -2 7 C-3.32 7 -4.64 7 -6 7 C-6.33 6.01 -6.66 5.02 -7 4 C-7.66 3.67 -8.32 3.34 -9 3 C-6.38997624 -0.48003168 -4.1689578 -0.27793052 0 0 Z " fill="#A3B754" transform="translate(183,195)"/>
<path d="M0 0 C4.49996683 -0.44117322 6.34611117 -0.52867608 9.9375 2.375 C12 5 12 5 12 7 C10.68 7 9.36 7 8 7 C7.34 6.01 6.68 5.02 6 4 C4.03247172 2.93753473 2.03412421 1.92862192 0 1 C0 0.67 0 0.34 0 0 Z " fill="#E4E927" transform="translate(28,186)"/>
<path d="M0 0 C0.6875 1.8125 0.6875 1.8125 1 4 C-0.3125 5.75 -0.3125 5.75 -2 7 C-2.66 7 -3.32 7 -4 7 C-4.33 6.34 -4.66 5.68 -5 5 C-5.99 5.66 -6.98 6.32 -8 7 C-6.47663111 3.31852519 -4.31953005 0 0 0 Z " fill="#B6C6D7" transform="translate(120,195)"/>
<path d="M0 0 C2.625 0.375 2.625 0.375 5 1 C5 1.66 5 2.32 5 3 C4.38125 3.0825 3.7625 3.165 3.125 3.25 C0.81562433 3.81258459 0.81562433 3.81258459 -0.25 6.0625 C-0.4975 6.701875 -0.745 7.34125 -1 8 C-1.33 7.01 -1.66 6.02 -2 5 C-2.99 5.495 -2.99 5.495 -4 6 C-2.84826645 3.53199953 -1.95216435 1.95216435 0 0 Z " fill="#4D778D" transform="translate(162,194)"/>
<path d="M0 0 C0.66 0.33 1.32 0.66 2 1 C0.515 2.485 0.515 2.485 -1 4 C-0.67 4.66 -0.34 5.32 0 6 C-7.28571429 9.42857143 -7.28571429 9.42857143 -12 9 C-11.42765625 8.74476563 -10.8553125 8.48953125 -10.265625 8.2265625 C-7.75826267 6.86912841 -5.8669544 5.28025896 -3.75 3.375 C-2.69039062 2.42753906 -2.69039062 2.42753906 -1.609375 1.4609375 C-1.07828125 0.97882813 -0.5471875 0.49671875 0 0 Z " fill="#E7EB24" transform="translate(60,195)"/>
<path d="M0 0 C1.32 0 2.64 0 4 0 C3.34 2.31 2.68 4.62 2 7 C1.34 6.34 0.68 5.68 0 5 C-1.98 5.99 -1.98 5.99 -4 7 C-2.68 4.69 -1.36 2.38 0 0 Z " fill="#E2E8EE" transform="translate(140,195)"/>
<path d="M0 0 C2 3.75 2 3.75 2 6 C0.35 6 -1.3 6 -3 6 C-2.42655063 3.13275314 -2.1385485 2.1385485 0 0 Z " fill="#FBFBFC" transform="translate(115,199)"/>
<path d="M0 0 C2.64 0.33 5.28 0.66 8 1 C7.67 1.66 7.34 2.32 7 3 C4.69 3 2.38 3 0 3 C0 2.01 0 1.02 0 0 Z " fill="#F3F514" transform="translate(59,203)"/>
<path d="M0 0 C0.33 0 0.66 0 1 0 C1 4.62 1 9.24 1 14 C0.34 14 -0.32 14 -1 14 C-2.13732426 10.59598052 -1.83989957 8.22543336 -1.0625 4.75 C-0.86785156 3.85796875 -0.67320313 2.9659375 -0.47265625 2.046875 C-0.31667969 1.37140625 -0.16070312 0.6959375 0 0 Z " fill="#6F8DA6" transform="translate(91,188)"/>
</svg>
