<?xml version="1.0" encoding="UTF-8"?>
<svg version="1.1" xmlns="http://www.w3.org/2000/svg" width="309" height="163">
<path d="M0 0 C101.97 0 203.94 0 309 0 C309 53.79 309 107.58 309 163 C207.03 163 105.06 163 0 163 C0 109.21 0 55.42 0 0 Z " fill="#FCFCFC" transform="translate(0,0)"/>
<path d="M0 0 C0.66 0 1.32 0 2 0 C2 0.66 2 1.32 2 2 C3.65 1.67 5.3 1.34 7 1 C7 1.99 7 2.98 7 4 C8.32 4 9.64 4 11 4 C10.505 3.01 10.505 3.01 10 2 C10.33 1.34 10.66 0.68 11 0 C12.32 0 13.64 0 15 0 C15.495 1.485 15.495 1.485 16 3 C16.928125 3.1546875 16.928125 3.1546875 17.875 3.3125 C20 4 20 4 21.5625 7 C22.036875 7.99 22.51125 8.98 23 10 C23.99 10.33 24.98 10.66 26 11 C27.231394 14.69418201 26.64432764 17.2056261 26 21 C26.99 20.67 27.98 20.34 29 20 C29 20.99 29 21.98 29 23 C29.66 23.33 30.32 23.66 31 24 C30.67 25.98 30.34 27.96 30 30 C29.01 30 28.02 30 27 30 C26.67 31.32 26.34 32.64 26 34 C23.69 34 21.38 34 19 34 C19 34.99 19 35.98 19 37 C20.32 36.34 21.64 35.68 23 35 C23.99 35.99 24.98 36.98 26 38 C25.67 38.99 25.34 39.98 25 41 C24.34 41 23.68 41 23 41 C22.67 42.32 22.34 43.64 22 45 C20.02 45 18.04 45 16 45 C16.495 46.98 16.495 46.98 17 49 C16.01 49.495 16.01 49.495 15 50 C14.690625 50.825 14.38125 51.65 14.0625 52.5 C13.711875 53.325 13.36125 54.15 13 55 C12.01 55.33 11.02 55.66 10 56 C10.309375 56.9075 10.61875 57.815 10.9375 58.75 C12.59798995 63.82914573 12.59798995 63.82914573 13 66 C12 67 12 67 9.86694336 67.11352539 C8.95050049 67.10828857 8.03405762 67.10305176 7.08984375 67.09765625 C6.10048828 67.09443359 5.11113281 67.09121094 4.09179688 67.08789062 C3.05087891 67.07951172 2.00996094 67.07113281 0.9375 67.0625 C-0.10728516 67.05798828 -1.15207031 67.05347656 -2.22851562 67.04882812 C-4.8190666 67.03699913 -7.40950559 67.02051689 -10 67 C-10 65.68 -10 64.36 -10 63 C-4.06 62.67 1.88 62.34 8 62 C8 61.34 8 60.68 8 60 C7.01 59.505 7.01 59.505 6 59 C5.67 59.99 5.34 60.98 5 62 C4.01 62 3.02 62 2 62 C1.67 60.68 1.34 59.36 1 58 C0.67 59.32 0.34 60.64 0 62 C-1.485 61.505 -1.485 61.505 -3 61 C-3 60.01 -3 59.02 -3 58 C-3.56589844 57.81824219 -4.13179687 57.63648438 -4.71484375 57.44921875 C-5.81505859 57.07216797 -5.81505859 57.07216797 -6.9375 56.6875 C-7.66839844 56.44386719 -8.39929688 56.20023438 -9.15234375 55.94921875 C-11 55 -11 55 -12 52 C-11.67 51.34 -11.34 50.68 -11 50 C-9.35 50.33 -7.7 50.66 -6 51 C-5.67 51.99 -5.34 52.98 -5 54 C-4.34 54 -3.68 54 -3 54 C-2.9175 53.38125 -2.835 52.7625 -2.75 52.125 C-2.5025 51.42375 -2.255 50.7225 -2 50 C-1.0409375 49.566875 -1.0409375 49.566875 -0.0625 49.125 C2.32797148 48.10657543 2.32797148 48.10657543 3.1875 45 C3.455625 44.01 3.72375 43.02 4 42 C4.33 41.34 4.66 40.68 5 40 C4.34 40 3.68 40 3 40 C3.75 35.25 3.75 35.25 6 33 C7.32 33 8.64 33 10 33 C10 32.34 10 31.68 10 31 C9.01 30.67 8.02 30.34 7 30 C7.495 28.515 7.495 28.515 8 27 C7.34 26.67 6.68 26.34 6 26 C6 26.99 6 27.98 6 29 C5.01 29.495 5.01 29.495 4 30 C4 31.32 4 32.64 4 34 C2.35 33.67 0.7 33.34 -1 33 C-1 33.99 -1 34.98 -1 36 C-1.66 36 -2.32 36 -3 36 C-3 35.01 -3 34.02 -3 33 C-4.98 33.66 -6.96 34.32 -9 35 C-8.67 35.66 -8.34 36.32 -8 37 C-7.34 37 -6.68 37 -6 37 C-6 36.34 -6 35.68 -6 35 C-5.34 35 -4.68 35 -4 35 C-3.67 35.66 -3.34 36.32 -3 37 C-1.68 37 -0.36 37 1 37 C0.67 38.32 0.34 39.64 0 41 C0.99 41 1.98 41 3 41 C3 41.99 3 42.98 3 44 C2.01 44 1.02 44 0 44 C0.33 45.32 0.66 46.64 1 48 C-0.32 48 -1.64 48 -3 48 C-3.33 48.66 -3.66 49.32 -4 50 C-4.66 50 -5.32 50 -6 50 C-6.33 49.34 -6.66 48.68 -7 48 C-8.32 48 -9.64 48 -11 48 C-11.495 46.515 -11.495 46.515 -12 45 C-12.33 45.99 -12.66 46.98 -13 48 C-13.99 47.67 -14.98 47.34 -16 47 C-16 46.34 -16 45.68 -16 45 C-18.46326712 43.3553326 -18.46326712 43.3553326 -21 42 C-20.34 40.68 -19.68 39.36 -19 38 C-16.33333333 38.66666667 -13.66666667 39.33333333 -11 40 C-11 38.68 -11 37.36 -11 36 C-13.25760857 35.21329449 -13.25760857 35.21329449 -16 35 C-16.845625 35.515625 -17.69125 36.03125 -18.5625 36.5625 C-19.366875 37.036875 -20.17125 37.51125 -21 38 C-23.3125 37.1875 -23.3125 37.1875 -25 36 C-25 34.35 -25 32.7 -25 31 C-25.66 31 -26.32 31 -27 31 C-26.67 30.4225 -26.34 29.845 -26 29.25 C-24.72924102 26.80116138 -24.72924102 26.80116138 -25 23 C-25.66 23 -26.32 23 -27 23 C-27.25 20.75 -27.25 20.75 -27 18 C-25 15.6875 -25 15.6875 -23 14 C-22.34 14.33 -21.68 14.66 -21 15 C-20.67 14.01 -20.34 13.02 -20 12 C-19.67 12.66 -19.34 13.32 -19 14 C-18.34 14 -17.68 14 -17 14 C-17.15597656 13.44570312 -17.31195313 12.89140625 -17.47265625 12.3203125 C-17.76462891 11.23363281 -17.76462891 11.23363281 -18.0625 10.125 C-18.25972656 9.40570313 -18.45695312 8.68640625 -18.66015625 7.9453125 C-19 6 -19 6 -18 4 C-15.0262656 2.90963072 -14.11592499 2.96135834 -11 4 C-11 4.66 -11 5.32 -11 6 C-10.01 5.34 -9.02 4.68 -8 4 C-7.01 4 -6.02 4 -5 4 C-5 3.01 -5 2.02 -5 1 C-2.525 1.495 -2.525 1.495 0 2 C0 1.34 0 0.68 0 0 Z " fill="#E6CEC6" transform="translate(29,1)"/>
<path d="M0 0 C5.47224147 1.89041069 8.18637633 4.94420151 11.09716797 9.84863281 C12.16216101 12.38641504 12.22879786 14.23857568 12.1953125 16.984375 C12.18886719 17.91894531 12.18242187 18.85351562 12.17578125 19.81640625 C12.15902344 20.78449219 12.14226562 21.75257812 12.125 22.75 C12.11597656 23.73355469 12.10695312 24.71710938 12.09765625 25.73046875 C12.07412785 28.15389407 12.04125368 30.57682222 12 33 C8.29193404 33.11674705 4.5843446 33.18743274 0.875 33.25 C-0.17171875 33.28351563 -1.2184375 33.31703125 -2.296875 33.3515625 C-8.55861416 33.43082502 -12.26015837 33.2311757 -17 29 C-21.53672319 23.97282025 -22.35816104 20.10864202 -22.28125 13.50390625 C-21.7247527 8.54953445 -18.97706409 5.86074694 -15.375 2.6875 C-10.46138474 -0.80375295 -5.89169408 -0.45833547 0 0 Z " fill="#231F61" transform="translate(185,92)"/>
<path d="M0 0 C1.41345703 -0.03673828 1.41345703 -0.03673828 2.85546875 -0.07421875 C8.6606128 -0.09864432 12.21574082 0.3750325 16.75 4.375 C19.42134463 8.38201694 19.57653281 11.66376296 18.75 16.375 C16.22031526 19.65675318 14.67268669 21.06743777 10.75 22.375 C11.14832031 22.81070313 11.54664063 23.24640625 11.95703125 23.6953125 C15.20799707 27.34968284 18.03124135 30.72424131 19.75 35.375 C19.4375 38.25 19.4375 38.25 18.75 40.375 C16.46875 40.6640625 16.46875 40.6640625 13.75 40.375 C11.90625 38.3984375 11.90625 38.3984375 10.25 35.75 C9.651875 34.84121094 9.05375 33.93242188 8.4375 32.99609375 C7.880625 32.13113281 7.32375 31.26617187 6.75 30.375 C5.1782795 28.02209699 3.80844795 26.38198675 1.75 24.375 C-1.84215582 23.68825647 -1.84215582 23.68825647 -5.25 23.375 C-5.23839844 24.51839844 -5.22679687 25.66179688 -5.21484375 26.83984375 C-5.20546712 28.33072754 -5.19636679 29.82161309 -5.1875 31.3125 C-5.17912109 32.06724609 -5.17074219 32.82199219 -5.16210938 33.59960938 C-5.15347559 35.52494313 -5.19775667 37.45035581 -5.25 39.375 C-6.25 40.375 -6.25 40.375 -8.75 40.5 C-11.25 40.375 -11.25 40.375 -12.25 39.375 C-12.36340974 36.65945608 -12.4141802 33.97029957 -12.41796875 31.25390625 C-12.42129715 30.43881088 -12.42462555 29.62371552 -12.42805481 28.78392029 C-12.43312742 27.05639207 -12.43546303 25.32885402 -12.43530273 23.60131836 C-12.43748792 20.95214755 -12.45563621 18.30339384 -12.47460938 15.65429688 C-12.47754344 13.9791681 -12.47952815 12.30403733 -12.48046875 10.62890625 C-12.48765427 9.83303604 -12.49483978 9.03716583 -12.50224304 8.21717834 C-12.46320411 -1.13945122 -7.86847877 0.01059015 0 0 Z " fill="#89171B" transform="translate(266.25,35.625)"/>
<path d="M0 0 C2.375 -0.1875 2.375 -0.1875 5 0 C5.66 0.99 6.32 1.98 7 3 C7.928125 2.79375 8.85625 2.5875 9.8125 2.375 C13 2 13 2 16 4 C15.67 5.98 15.34 7.96 15 10 C16.65 10 18.3 10 20 10 C20.495 12.475 20.495 12.475 21 15 C20.34 15.33 19.68 15.66 19 16 C19.350625 16.94875 19.70125 17.8975 20.0625 18.875 C21 22 21 22 20 24 C18.35 24 16.7 24 15 24 C15.33 25.98 15.66 27.96 16 30 C12.88228073 31.60339848 11.60988311 32.18974141 8.1875 31.125 C7.465625 30.75375 6.74375 30.3825 6 30 C5.67 31.32 5.34 32.64 5 34 C3.35 34 1.7 34 0 34 C-0.495 32.515 -0.495 32.515 -1 31 C-1.928125 31.20625 -2.85625 31.4125 -3.8125 31.625 C-7 32 -7 32 -10 30 C-9.67 28.02 -9.34 26.04 -9 24 C-10.65 24 -12.3 24 -14 24 C-14.33 22.35 -14.66 20.7 -15 19 C-14.01 18.67 -13.02 18.34 -12 18 C-12.495 17.608125 -12.99 17.21625 -13.5 16.8125 C-15.45593143 14.44908285 -15.24207973 12.98564997 -15 10 C-13.02 10 -11.04 10 -9 10 C-9.33 8.02 -9.66 6.04 -10 4 C-7.75 2.875 -7.75 2.875 -5 2 C-2.6875 2.875 -2.6875 2.875 -1 4 C-0.67 2.68 -0.34 1.36 0 0 Z " fill="#242062" transform="translate(252,92)"/>
<path d="M0 0 C1.98 0 3.96 0 6 0 C6.33 1.32 6.66 2.64 7 4 C8.98 3.34 10.96 2.68 13 2 C15 4 15 4 15.125 6.625 C15.08375 7.40875 15.0425 8.1925 15 9 C16.65 9 18.3 9 20 9 C20.6875 11.3125 20.6875 11.3125 21 14 C19.5625 15.8125 19.5625 15.8125 18 17 C18.99 17.66 19.98 18.32 21 19 C20.34 20.65 19.68 22.3 19 24 C17.35 24 15.7 24 14 24 C14.33 25.65 14.66 27.3 15 29 C12.64561267 30.42944945 11.51967567 31.08661261 8.75 30.625 C7.88375 30.315625 7.88375 30.315625 7 30 C6.67 30.99 6.34 31.98 6 33 C4.02 33 2.04 33 0 33 C-0.495 31.515 -0.495 31.515 -1 30 C-1.94875 30.20625 -2.8975 30.4125 -3.875 30.625 C-4.90625 30.74875 -5.9375 30.8725 -7 31 C-7.66 30.34 -8.32 29.68 -9 29 C-9 27.68 -9 26.36 -9 25 C-10.65 24.67 -12.3 24.34 -14 24 C-14.6875 21.6875 -14.6875 21.6875 -15 19 C-13.5625 17.1875 -13.5625 17.1875 -12 16 C-12.66 15.34 -13.32 14.68 -14 14 C-13.625 11.375 -13.625 11.375 -13 9 C-11.35 9 -9.7 9 -8 9 C-8.309375 7.824375 -8.309375 7.824375 -8.625 6.625 C-8.74875 5.75875 -8.8725 4.8925 -9 4 C-8.34 3.34 -7.68 2.68 -7 2 C-3.875 2.375 -3.875 2.375 -1 3 C-0.67 2.01 -0.34 1.02 0 0 Z " fill="#272363" transform="translate(104,92)"/>
<path d="M0 0 C2.55712891 0.33789062 2.55712891 0.33789062 4.13378906 1.75390625 C4.57513184 2.41068359 5.01647461 3.06746094 5.47119141 3.74414062 C5.97424805 4.47503906 6.47730469 5.2059375 6.99560547 5.95898438 C7.5109082 6.74402344 8.02621094 7.5290625 8.55712891 8.33789062 C9.08532227 9.11261719 9.61351563 9.88734375 10.15771484 10.68554688 C11.76854429 13.05734427 13.3534776 15.44457729 14.93212891 17.83789062 C15.47740234 18.6603125 16.02267578 19.48273437 16.58447266 20.33007812 C17.91084491 22.33127134 19.23502022 24.33387921 20.55712891 26.33789062 C20.58218506 25.58580322 20.60724121 24.83371582 20.63305664 24.05883789 C20.74863404 20.67249867 20.87153235 17.28646449 20.99462891 13.90039062 C21.03394531 12.71638672 21.07326172 11.53238281 21.11376953 10.3125 C21.15566406 9.18779297 21.19755859 8.06308594 21.24072266 6.90429688 C21.27738037 5.86217041 21.31403809 4.82004395 21.35180664 3.74633789 C21.55712891 1.33789062 21.55712891 1.33789062 22.55712891 0.33789062 C25.05712891 0.21289062 25.05712891 0.21289062 27.55712891 0.33789062 C29.36816877 2.14893048 28.68572828 4.63094524 28.69607544 7.04112244 C28.69405121 7.83901688 28.69202698 8.63691132 28.68994141 9.45898438 C28.69089813 10.27407974 28.69185486 11.08917511 28.69284058 11.92897034 C28.69352244 13.6565051 28.69166774 15.3840424 28.6875 17.11157227 C28.68215865 19.76063791 28.68744122 22.40953347 28.69384766 25.05859375 C28.69318674 26.73372433 28.6919053 28.40885481 28.68994141 30.08398438 C28.69196564 30.87985458 28.69398987 31.67572479 28.69607544 32.49571228 C28.67208435 38.10797974 28.67208435 38.10797974 27.55712891 40.33789062 C24.80712891 40.58789062 24.80712891 40.58789062 21.55712891 40.33789062 C18.40983438 37.66075705 16.29048426 34.61693803 14.10400391 31.13476562 C13.48525391 30.15507813 12.86650391 29.17539063 12.22900391 28.16601562 C11.59478516 27.15023437 10.96056641 26.13445313 10.30712891 25.08789062 C9.65744141 24.05664062 9.00775391 23.02539062 8.33837891 21.96289062 C6.73990598 19.42413951 5.14635752 16.88243493 3.55712891 14.33789062 C3.53207275 15.08997803 3.5070166 15.84206543 3.48120117 16.61694336 C3.36562377 20.00328258 3.24272546 23.38931676 3.11962891 26.77539062 C3.0803125 27.95939453 3.04099609 29.14339844 3.00048828 30.36328125 C2.95859375 31.48798828 2.91669922 32.61269531 2.87353516 33.77148438 C2.83687744 34.81361084 2.80021973 35.8557373 2.76245117 36.92944336 C2.55712891 39.33789062 2.55712891 39.33789062 1.55712891 40.33789062 C-0.94287109 40.46289062 -0.94287109 40.46289062 -3.44287109 40.33789062 C-5.48800162 38.29276009 -4.60691789 34.02883884 -4.61083984 31.21679688 C-4.61416824 30.40170151 -4.61749664 29.58660614 -4.6209259 28.74681091 C-4.62599851 27.01928269 -4.62833413 25.29174464 -4.62817383 23.56420898 C-4.63035901 20.91503817 -4.64850731 18.26628446 -4.66748047 15.6171875 C-4.67041453 13.94205872 -4.67239924 12.26692796 -4.67333984 10.59179688 C-4.68052536 9.79592667 -4.68771088 9.00005646 -4.69511414 8.18006897 C-4.66367562 0.64506567 -4.66367562 0.64506567 0 0 Z " fill="#871317" transform="translate(82.44287109375,35.662109375)"/>
<path d="M0 0 C2.84568095 1.84174782 5.3027736 4.23962118 6.8515625 7.24609375 C6.5390625 9.99609375 6.5390625 9.99609375 5.8515625 12.24609375 C1.33435939 12.61235346 1.33435939 12.61235346 -0.9609375 10.87109375 C-2.1484375 9.24609375 -2.1484375 9.24609375 -2.1484375 7.24609375 C-6.1990668 5.89588398 -9.91304839 5.68880571 -14.1484375 6.24609375 C-17.01873619 8.04003043 -18.63975388 9.22872651 -20.1484375 12.24609375 C-20.27205989 14.51442084 -20.32404398 16.78693162 -20.3359375 19.05859375 C-20.35720703 20.89357422 -20.35720703 20.89357422 -20.37890625 22.765625 C-20.15726701 26.11275318 -19.77327563 28.32570362 -18.1484375 31.24609375 C-15.09426937 32.26414979 -12.96906789 32.3798489 -9.7734375 32.37109375 C-8.83757812 32.37367187 -7.90171875 32.37625 -6.9375 32.37890625 C-4.24114003 32.25050816 -1.77572241 31.84798084 0.8515625 31.24609375 C0.8515625 28.93609375 0.8515625 26.62609375 0.8515625 24.24609375 C0.22507813 24.25769531 -0.40140625 24.26929687 -1.046875 24.28125 C-1.86414063 24.29027344 -2.68140625 24.29929687 -3.5234375 24.30859375 C-4.33554688 24.32019531 -5.14765625 24.33179687 -5.984375 24.34375 C-8.1484375 24.24609375 -8.1484375 24.24609375 -10.1484375 23.24609375 C-9.2734375 19.37109375 -9.2734375 19.37109375 -8.1484375 18.24609375 C-5.83850368 18.12052213 -3.52425214 18.07033646 -1.2109375 18.05859375 C0.05621094 18.04441406 1.32335937 18.03023437 2.62890625 18.015625 C5.8515625 18.24609375 5.8515625 18.24609375 7.8515625 20.24609375 C8.15234375 23.1796875 8.15234375 23.1796875 8.1640625 26.68359375 C8.18082031 27.83730469 8.19757813 28.99101563 8.21484375 30.1796875 C7.8515625 33.24609375 7.8515625 33.24609375 6.5390625 35.05078125 C-0.52849613 40.05696861 -8.79623675 40.25848172 -17.1484375 39.24609375 C-21.83765322 37.6878313 -25.01230018 35.03437269 -27.6484375 30.87109375 C-30.23598721 24.81807568 -30.09785259 17.65464559 -29.1484375 11.24609375 C-23.08899374 0.4265774 -12.20450263 -4.28267092 0 0 Z " fill="#89171B" transform="translate(210.1484375,36.75390625)"/>
<path d="M0 0 C4.28867025 2.18114774 6.62927345 5.14040147 8.8828125 9.30078125 C9.79268595 12.20909342 10.0010041 14.80842479 9.98046875 17.84765625 C9.97724609 18.69199219 9.97402344 19.53632812 9.97070312 20.40625 C9.95813477 21.71529297 9.95813477 21.71529297 9.9453125 23.05078125 C9.94080078 23.93894531 9.93628906 24.82710937 9.93164062 25.7421875 C9.91988672 27.92841441 9.90195216 30.11460653 9.8828125 32.30078125 C6.9128125 32.30078125 3.9428125 32.30078125 0.8828125 32.30078125 C0.85703125 30.975625 0.83125 29.65046875 0.8046875 28.28515625 C0.74840284 26.54033181 0.69105558 24.79554142 0.6328125 23.05078125 C0.61863281 22.17808594 0.60445312 21.30539063 0.58984375 20.40625 C0.41648957 15.22744534 0.41648957 15.22744534 -1.94140625 10.71875 C-5.12072653 8.64676928 -7.41244887 8.82926906 -11.1171875 9.30078125 C-13.2950244 10.89979947 -14.01956958 11.80938442 -14.54956055 14.47729492 C-14.57574463 15.2994751 -14.60192871 16.12165527 -14.62890625 16.96875 C-14.66435547 17.86142578 -14.69980469 18.75410156 -14.73632812 19.67382812 C-14.77016602 21.06698242 -14.77016602 21.06698242 -14.8046875 22.48828125 C-14.83884766 23.42865234 -14.87300781 24.36902344 -14.90820312 25.33789062 C-14.99065901 27.65843485 -15.05560053 29.97958942 -15.1171875 32.30078125 C-18.4171875 32.30078125 -21.7171875 32.30078125 -25.1171875 32.30078125 C-25.22599844 29.13317401 -25.30488379 25.96937004 -25.3671875 22.80078125 C-25.41746094 21.47046875 -25.41746094 21.47046875 -25.46875 20.11328125 C-25.57246873 13.06040767 -24.26946319 7.67069736 -19.36328125 2.42578125 C-13.27483904 -1.3614139 -6.90398454 -2.28009821 0 0 Z " fill="#292565" transform="translate(77.1171875,92.69921875)"/>
<path d="M0 0 C4.87569068 2.4432269 7.77072125 6.4473435 9.89453125 11.38671875 C10.4599534 15.08540704 10.37424365 18.65659607 10.20703125 22.38671875 C10.18447266 23.35222656 10.16191406 24.31773438 10.13867188 25.3125 C10.08028687 27.67125429 9.99062578 30.02919962 9.89453125 32.38671875 C6.92453125 32.38671875 3.95453125 32.38671875 0.89453125 32.38671875 C0.85714844 31.0615625 0.81976563 29.73640625 0.78125 28.37109375 C0.71558474 26.62627404 0.64913759 24.88148363 0.58203125 23.13671875 C0.55947266 22.26402344 0.53691406 21.39132813 0.51367188 20.4921875 C0.30398693 15.47120549 0.30398693 15.47120549 -1.3984375 10.8046875 C-3.45819839 9.09371907 -4.45030403 8.87378793 -7.10546875 8.94921875 C-7.78609375 8.95050781 -8.46671875 8.95179687 -9.16796875 8.953125 C-11.69609113 9.51889432 -12.49498846 10.372434 -14.10546875 12.38671875 C-14.60701897 14.60106945 -14.60701897 14.60106945 -14.6171875 17.0546875 C-14.65263672 17.94736328 -14.68808594 18.84003906 -14.72460938 19.75976562 C-14.75844727 21.15291992 -14.75844727 21.15291992 -14.79296875 22.57421875 C-14.82712891 23.51458984 -14.86128906 24.45496094 -14.89648438 25.42382812 C-14.97894026 27.74437235 -15.04388178 30.06552692 -15.10546875 32.38671875 C-18.07546875 32.38671875 -21.04546875 32.38671875 -24.10546875 32.38671875 C-24.22228687 28.84533257 -24.29292375 25.30444635 -24.35546875 21.76171875 C-24.38898438 20.76269531 -24.4225 19.76367188 -24.45703125 18.734375 C-24.53854046 12.58042961 -24.2296614 9.05830424 -20.10546875 4.38671875 C-14.0413827 -0.95545229 -7.95830581 -2.3180965 0 0 Z " fill="#242062" transform="translate(299.10546875,92.61328125)"/>
<path d="M0 0 C3.5 1.75 3.5 1.75 6 4 C6.763125 4.680625 7.52625 5.36125 8.3125 6.0625 C11.0917526 9.25349373 11.12112159 12.04596445 11.09765625 16.10546875 C11.09443359 17.08837891 11.09121094 18.07128906 11.08789062 19.08398438 C11.07532227 20.62022461 11.07532227 20.62022461 11.0625 22.1875 C11.05798828 23.22326172 11.05347656 24.25902344 11.04882812 25.32617188 C11.0370401 27.88417266 11.02058515 30.44205733 11 33 C8.03 33 5.06 33 2 33 C1.96261719 31.59105469 1.92523438 30.18210937 1.88671875 28.73046875 C1.82106503 26.88278561 1.75461749 25.03513055 1.6875 23.1875 C1.66494141 22.25873047 1.64238281 21.32996094 1.61914062 20.37304688 C1.5659668 19.0340332 1.5659668 19.0340332 1.51171875 17.66796875 C1.48553467 16.84578857 1.45935059 16.0236084 1.43237305 15.17651367 C0.90885925 12.54120848 0.09828938 11.63117902 -2 10 C-3.94204967 9.4919618 -3.94204967 9.4919618 -6 9.5625 C-7.0209375 9.53349609 -7.0209375 9.53349609 -8.0625 9.50390625 C-10.10188769 9.87875075 -10.10188769 9.87875075 -11.70703125 11.41796875 C-13.70098404 15.39985029 -13.57383295 19.352709 -13.6875 23.75 C-13.72166016 24.63816406 -13.75582031 25.52632812 -13.79101562 26.44140625 C-13.87327542 28.62716639 -13.93832034 30.81356233 -14 33 C-16.97 33 -19.94 33 -23 33 C-23.13592625 29.66527608 -23.23455198 26.33617533 -23.3125 23 C-23.35439453 22.06542969 -23.39628906 21.13085938 -23.43945312 20.16796875 C-23.55687668 13.45134151 -22.31128682 9.19881179 -18 4 C-12.82578954 -1.04801021 -6.84767932 -0.94061529 0 0 Z " fill="#252062" transform="translate(37,92)"/>
<path d="M0 0 C2.97 0 5.94 0 9 0 C9.03738281 0.79664062 9.07476562 1.59328125 9.11328125 2.4140625 C9.60845045 10.39502495 10.90715493 15.69457277 16 22 C19.37329915 20.60415208 21.04232662 19.07634389 23 16 C24.10514766 12.68455701 24.32107631 9.79589889 24.5625 6.3125 C24.64628906 5.13300781 24.73007813 3.95351562 24.81640625 2.73828125 C24.90728516 1.38283203 24.90728516 1.38283203 25 0 C28.3 0 31.6 0 35 0 C34.56643123 17.86303317 34.56643123 17.86303317 30 24 C29.43023437 24.81597656 28.86046875 25.63195312 28.2734375 26.47265625 C25.28306029 30.32678783 22.65271559 33.57370551 17.625 34.25 C11.81224688 33.65459647 8.60340933 29.13620336 5.109375 24.85546875 C-0.78421502 16.87729411 -0.32884028 9.46329252 0 0 Z " fill="#2A2665" transform="translate(126,92)"/>
<path d="M0 0 C2.97 0 5.94 0 9 0 C9.33 3.3 9.66 6.6 10 10 C12.31 10.33 14.62 10.66 17 11 C17 12.98 17 14.96 17 17 C14.36 17 11.72 17 9 17 C9.06029967 18.91752953 9.14916707 20.83417426 9.25 22.75 C9.29640625 23.81734375 9.3428125 24.8846875 9.390625 25.984375 C10.11521402 29.57016168 11.14702801 30.77636007 14 33 C16.64184541 33.79681318 16.64184541 33.79681318 19 34 C19 36.97 19 39.94 19 43 C13.57896319 43.56469133 10.29430709 42.73485544 5.80078125 39.59375 C1.59815899 35.87429256 0.14872271 32.16143679 -0.234375 26.59375 C-0.24832937 23.38424555 -0.1758424 20.20423926 0 17 C-0.99 17 -1.98 17 -3 17 C-3 14.69 -3 12.38 -3 10 C-2.01 10 -1.02 10 0 10 C0 6.7 0 3.4 0 0 Z " fill="#262263" transform="translate(203,82)"/>
<path d="M0 0 C1.29615234 -0.00128906 2.59230469 -0.00257812 3.92773438 -0.00390625 C4.60650635 -0.00181152 5.28527832 0.0002832 5.98461914 0.00244141 C8.05427414 0.0077812 10.12371125 0.00250057 12.19335938 -0.00390625 C13.49080078 -0.00261719 14.78824219 -0.00132813 16.125 0 C17.92215454 0.00169189 17.92215454 0.00169189 19.75561523 0.00341797 C22.62890625 0.1328125 22.62890625 0.1328125 24.62890625 1.1328125 C24.67162725 2.79893155 24.66954457 4.46664135 24.62890625 6.1328125 C23.62890625 7.1328125 23.62890625 7.1328125 21.125 7.23046875 C19.61099609 7.21306641 19.61099609 7.21306641 18.06640625 7.1953125 C17.05449219 7.18628906 16.04257813 7.17726563 15 7.16796875 C13.82630859 7.15056641 13.82630859 7.15056641 12.62890625 7.1328125 C12.63937988 8.0614209 12.64985352 8.9900293 12.66064453 9.94677734 C12.69469829 13.3870694 12.71979118 16.82718277 12.73876953 20.26757812 C12.74883668 21.7575157 12.76249143 23.24743347 12.77978516 24.73730469 C12.80400278 26.87700278 12.81538189 29.01644003 12.82421875 31.15625 C12.83469238 32.44450684 12.84516602 33.73276367 12.85595703 35.06005859 C12.62890625 38.1328125 12.62890625 38.1328125 10.62890625 40.1328125 C8.06640625 40.3203125 8.06640625 40.3203125 5.62890625 40.1328125 C4.62890625 39.1328125 4.62890625 39.1328125 4.51538086 36.08178711 C4.51553991 34.73289979 4.52123013 33.38400636 4.53125 32.03515625 C4.53266495 31.32629776 4.5340799 30.61743927 4.53553772 29.88710022 C4.54115182 27.61479538 4.55370662 25.34258775 4.56640625 23.0703125 C4.57141944 21.53320454 4.57598266 19.99609505 4.58007812 18.45898438 C4.59112583 14.68355608 4.60839984 10.90820079 4.62890625 7.1328125 C3.47261719 7.16761719 3.47261719 7.16761719 2.29296875 7.203125 C1.29007813 7.22117187 0.2871875 7.23921875 -0.74609375 7.2578125 C-1.74382812 7.28101563 -2.7415625 7.30421875 -3.76953125 7.328125 C-6.37109375 7.1328125 -6.37109375 7.1328125 -8.37109375 5.1328125 C-7.50350525 -0.5932716 -5.41583674 0.00510343 0 0 Z " fill="#8A1B1F" transform="translate(124.37109375,35.8671875)"/>
<path d="M0 0 C0 0.66 0 1.32 0 2 C0.99 2 1.98 2 3 2 C3 2.99 3 3.98 3 5 C2.34 5 1.68 5 1 5 C1 5.66 1 6.32 1 7 C1.99 7.33 2.98 7.66 4 8 C4 8.99 4 9.98 4 11 C4.66 11.33 5.32 11.66 6 12 C6 12.99 6 13.98 6 15 C7.32 14.67 8.64 14.34 10 14 C10 14.66 10 15.32 10 16 C9.34 16 8.68 16 8 16 C8 16.99 8 17.98 8 19 C6.35 18.67 4.7 18.34 3 18 C3.33 19.65 3.66 21.3 4 23 C3.01 23 2.02 23 1 23 C1 23.66 1 24.32 1 25 C1.99 25.33 2.98 25.66 4 26 C3.67 26.99 3.34 27.98 3 29 C2.5875 28.484375 2.175 27.96875 1.75 27.4375 C0.11182683 25.78180832 0.11182683 25.78180832 -2.0625 26 C-4.78023794 27.40270345 -4.9124398 29.21312698 -6 32 C-7.875 33.4375 -7.875 33.4375 -10 34 C-12.25 33.125 -12.25 33.125 -14 32 C-14 30.35 -14 28.7 -14 27 C-14.66 27 -15.32 27 -16 27 C-15.67 26.4225 -15.34 25.845 -15 25.25 C-13.72924102 22.80116138 -13.72924102 22.80116138 -14 19 C-14.66 19 -15.32 19 -16 19 C-16.25 16.75 -16.25 16.75 -16 14 C-14 11.6875 -14 11.6875 -12 10 C-11.34 10.33 -10.68 10.66 -10 11 C-9.67 10.01 -9.34 9.02 -9 8 C-8.67 8.66 -8.34 9.32 -8 10 C-7.34 10 -6.68 10 -6 10 C-6.15597656 9.44570312 -6.31195313 8.89140625 -6.47265625 8.3203125 C-6.76462891 7.23363281 -6.76462891 7.23363281 -7.0625 6.125 C-7.25972656 5.40570312 -7.45695313 4.68640625 -7.66015625 3.9453125 C-8 2 -8 2 -7 0 C-3.86650268 -1.04449911 -3.01031744 -0.93423645 0 0 Z " fill="#F2EFEE" transform="translate(18,5)"/>
<path d="M0 0 C0 2.64 0 5.28 0 8 C-0.97582031 8.02578125 -1.95164063 8.0515625 -2.95703125 8.078125 C-4.22933594 8.13484375 -5.50164062 8.1915625 -6.8125 8.25 C-8.07707031 8.29640625 -9.34164062 8.3428125 -10.64453125 8.390625 C-13.98231134 8.70726079 -13.98231134 8.70726079 -15.9296875 10.640625 C-17.32872503 13.72463474 -17.36287942 16.12070325 -17.3125 19.5 C-17.30863281 20.6240625 -17.30476562 21.748125 -17.30078125 22.90625 C-16.96720112 26.79261944 -16.96720112 26.79261944 -15 30 C-12.22154684 30.66918589 -12.22154684 30.66918589 -9.0625 30.6875 C-5.7259124 30.82939619 -3.17832803 30.94055732 0 32 C0 34.31 0 36.62 0 39 C-2.5850867 39.13526616 -5.16308752 39.23417653 -7.75 39.3125 C-8.47960937 39.35439453 -9.20921875 39.39628906 -9.9609375 39.43945312 C-13.69467896 39.52431089 -15.53553304 39.42783953 -18.328125 36.85546875 C-18.87984375 35.91316406 -19.4315625 34.97085938 -20 34 C-20.56976563 33.04738281 -21.13953125 32.09476563 -21.7265625 31.11328125 C-24.75159463 23.71772725 -23.944041 14.13540852 -20.9609375 6.7734375 C-19.35362326 3.80709333 -18.02071891 2.54249476 -15 1 C-10.01834766 0.04798736 -5.05813834 -0.03612956 0 0 Z " fill="#8A1A1D" transform="translate(175,37)"/>
<path d="M0 0 C0.69287109 0.02255859 1.38574219 0.04511719 2.09960938 0.06835938 C3.79651573 0.12687339 5.49229861 0.2165452 7.1875 0.3125 C7.1875 2.6225 7.1875 4.9325 7.1875 7.3125 C6.29546875 7.32667969 5.4034375 7.34085938 4.484375 7.35546875 C3.31390625 7.40316406 2.1434375 7.45085938 0.9375 7.5 C-0.80273438 7.55220703 -0.80273438 7.55220703 -2.578125 7.60546875 C-5.93091006 8.05658062 -5.93091006 8.05658062 -8.20703125 10.48828125 C-10.04615211 13.72352306 -10.32073296 15.61552402 -10.25 19.3125 C-10.24871094 20.323125 -10.24742187 21.33375 -10.24609375 22.375 C-9.73395474 25.84462644 -9.14500557 27.67183821 -6.8125 30.3125 C-3.40315404 31.13554013 -3.40315404 31.13554013 0.375 31.125 C2.28345703 31.19654297 2.28345703 31.19654297 4.23046875 31.26953125 C5.20628906 31.28371094 6.18210938 31.29789063 7.1875 31.3125 C7.1875 33.9525 7.1875 36.5925 7.1875 39.3125 C-6.03398436 40.3722373 -6.03398436 40.3722373 -10.07421875 37.96484375 C-11.65149497 36.15713423 -12.75349783 34.46126374 -13.8125 32.3125 C-14.26625 31.425625 -14.72 30.53875 -15.1875 29.625 C-16.70020505 21.60766326 -16.92096148 12.61798953 -12.8125 5.3125 C-8.98755036 0.39068981 -5.9930665 -0.37277447 0 0 Z " fill="#8A191E" transform="translate(239.8125,36.6875)"/>
<path d="M0 0 C0.66 0 1.32 0 2 0 C2 0.99 2 1.98 2 3 C3.65 2.67 5.3 2.34 7 2 C6.67 3.65 6.34 5.3 6 7 C6.99 7 7.98 7 9 7 C9 7.66 9 8.32 9 9 C8.01 9.495 8.01 9.495 7 10 C7 11.32 7 12.64 7 14 C4.525 13.505 4.525 13.505 2 13 C2 13.99 2 14.98 2 16 C1.34 16 0.68 16 0 16 C0 15.01 0 14.02 0 13 C-1.98 13.66 -3.96 14.32 -6 15 C-5.67 15.66 -5.34 16.32 -5 17 C-4.34 17 -3.68 17 -3 17 C-3 16.34 -3 15.68 -3 15 C-2.34 15 -1.68 15 -1 15 C-0.67 15.66 -0.34 16.32 0 17 C1.32 17 2.64 17 4 17 C3.67 18.32 3.34 19.64 3 21 C3.99 21 4.98 21 6 21 C6 21.99 6 22.98 6 24 C5.01 24 4.02 24 3 24 C3.33 25.32 3.66 26.64 4 28 C2.68 28 1.36 28 0 28 C-0.33 28.66 -0.66 29.32 -1 30 C-1.66 30 -2.32 30 -3 30 C-3.33 29.34 -3.66 28.68 -4 28 C-5.32 28 -6.64 28 -8 28 C-8.33 27.01 -8.66 26.02 -9 25 C-9.33 25.99 -9.66 26.98 -10 28 C-10.99 27.67 -11.98 27.34 -13 27 C-13 26.34 -13 25.68 -13 25 C-15.46326712 23.3553326 -15.46326712 23.3553326 -18 22 C-17.34 20.68 -16.68 19.36 -16 18 C-12 19 -12 19 -8 20 C-8 18.68 -8 17.36 -8 16 C-9.65 15.67 -11.3 15.34 -13 15 C-12.67 13.35 -12.34 11.7 -12 10 C-10.1875 9.3125 -10.1875 9.3125 -8 9 C-6.25 10.4375 -6.25 10.4375 -5 12 C-5 11.34 -5 10.68 -5 10 C-5.66 9.67 -6.32 9.34 -7 9 C-7 8.34 -7 7.68 -7 7 C-6.01 7 -5.02 7 -4 7 C-4.33 5.35 -4.66 3.7 -5 2 C-3.35 2.33 -1.7 2.66 0 3 C0 2.01 0 1.02 0 0 Z " fill="#F37E17" transform="translate(26,21)"/>
<path d="M0 0 C1.65 0.66 3.3 1.32 5 2 C5 2.66 5 3.32 5 4 C5.66 4 6.32 4 7 4 C7 3.34 7 2.68 7 2 C8.32 2 9.64 2 11 2 C11.33 3.32 11.66 4.64 12 6 C11.01 6.495 11.01 6.495 10 7 C9.690625 7.825 9.38125 8.65 9.0625 9.5 C8.5365625 10.7375 8.5365625 10.7375 8 12 C7.01 12.33 6.02 12.66 5 13 C5.309375 13.9075 5.61875 14.815 5.9375 15.75 C7.59798995 20.82914573 7.59798995 20.82914573 8 23 C7 24 7 24 4.86694336 24.11352539 C3.95050049 24.10828857 3.03405762 24.10305176 2.08984375 24.09765625 C1.10048828 24.09443359 0.11113281 24.09121094 -0.90820312 24.08789062 C-1.94912109 24.07951172 -2.99003906 24.07113281 -4.0625 24.0625 C-5.10728516 24.05798828 -6.15207031 24.05347656 -7.22851562 24.04882812 C-9.8190666 24.03699913 -12.40950559 24.02051689 -15 24 C-15 22.68 -15 21.36 -15 20 C-9.06 19.67 -3.12 19.34 3 19 C3 18.34 3 17.68 3 17 C2.34 16.67 1.68 16.34 1 16 C0.67 16.99 0.34 17.98 0 19 C-0.99 19 -1.98 19 -3 19 C-3.33 17.68 -3.66 16.36 -4 15 C-4.33 16.32 -4.66 17.64 -5 19 C-5.99 18.67 -6.98 18.34 -8 18 C-8 17.01 -8 16.02 -8 15 C-8.56589844 14.81824219 -9.13179687 14.63648438 -9.71484375 14.44921875 C-10.44832031 14.19785156 -11.18179687 13.94648437 -11.9375 13.6875 C-12.66839844 13.44386719 -13.39929688 13.20023438 -14.15234375 12.94921875 C-16 12 -16 12 -17 9 C-16.67 8.34 -16.34 7.68 -16 7 C-14.35 7.33 -12.7 7.66 -11 8 C-10.67 8.99 -10.34 9.98 -10 11 C-9.34 11 -8.68 11 -8 11 C-7.9175 10.38125 -7.835 9.7625 -7.75 9.125 C-7 7 -7 7 -5 5.9375 C-4.34 5.628125 -3.68 5.31875 -3 5 C-2.67 4.01 -2.34 3.02 -2 2 C-1.34 2 -0.68 2 0 2 C0 1.34 0 0.68 0 0 Z " fill="#E0CDCE" transform="translate(34,44)"/>
<path d="M0 0 C2.5625 0.1875 2.5625 0.1875 4.5625 2.1875 C4.76223733 4.88885323 4.84231573 7.48547211 4.828125 10.1875 C4.83003845 10.97898437 4.8319519 11.77046875 4.83392334 12.5859375 C4.83528518 14.2604199 4.83158882 15.93491285 4.82324219 17.609375 C4.8125424 20.17732381 4.82313725 22.74457303 4.8359375 25.3125 C4.8346159 26.93750155 4.83205351 28.56250266 4.828125 30.1875 C4.83217346 30.95835938 4.83622192 31.72921875 4.84039307 32.5234375 C4.79242132 37.95757868 4.79242132 37.95757868 2.5625 40.1875 C0 40.375 0 40.375 -2.4375 40.1875 C-4.28026509 38.34473491 -3.56624411 35.75786241 -3.57644653 33.30615234 C-3.5744223 32.48324707 -3.57239807 31.6603418 -3.5703125 30.8125 C-3.57126923 29.97283691 -3.57222595 29.13317383 -3.57321167 28.26806641 C-3.57389348 26.48925705 -3.57203917 24.71044523 -3.56787109 22.93164062 C-3.56252283 20.19916224 -3.56781605 17.46684824 -3.57421875 14.734375 C-3.57355797 13.0104163 -3.57227681 11.28645771 -3.5703125 9.5625 C-3.57233673 8.73959473 -3.57436096 7.91668945 -3.57644653 7.06884766 C-3.54816637 0.27293587 -3.54816637 0.27293587 0 0 Z " fill="#8A191D" transform="translate(64.4375,35.8125)"/>
<path d="M0 0 C2.97 0 5.94 0 9 0 C9 10.89 9 21.78 9 33 C6.03 33 3.06 33 0 33 C0 22.11 0 11.22 0 0 Z " fill="#1F1C5F" transform="translate(225,92)"/>
<path d="M0 0 C2.97 0 5.94 0 9 0 C9 10.89 9 21.78 9 33 C6.03 33 3.06 33 0 33 C0 22.11 0 11.22 0 0 Z " fill="#1F1C5F" transform="translate(1,92)"/>
<path d="M0 0 C11.55 0 23.1 0 35 0 C34.67 0.99 34.34 1.98 34 3 C33.01 3 32.02 3 31 3 C31 2.34 31 1.68 31 1 C30.34 1 29.68 1 29 1 C29 1.66 29 2.32 29 3 C26.525 2.505 26.525 2.505 24 2 C24 2.99 24 3.98 24 5 C22.02 5.66 20.04 6.32 18 7 C18 6.34 18 5.68 18 5 C15.69 5 13.38 5 11 5 C11 7.31 11 9.62 11 12 C11.99 12.33 12.98 12.66 14 13 C13.34 13 12.68 13 12 13 C12 13.66 12 14.32 12 15 C11.01 14.67 10.02 14.34 9 14 C8.67 14.66 8.34 15.32 8 16 C7.01 16.33 6.02 16.66 5 17 C2.89767656 19.8684413 2.89767656 19.8684413 2 23 C1.34 22.67 0.68 22.34 0 22 C0 14.74 0 7.48 0 0 Z " fill="#F8F9F8" transform="translate(0,0)"/>
<path d="M0 0 C0.66 0 1.32 0 2 0 C2 0.66 2 1.32 2 2 C3.65 1.67 5.3 1.34 7 1 C7 1.99 7 2.98 7 4 C8.32 4.33 9.64 4.66 11 5 C10.34 6.32 9.68 7.64 9 9 C9.99 9 10.98 9 12 9 C12 9.66 12 10.32 12 11 C11.01 11 10.02 11 9 11 C9.66 12.32 10.32 13.64 11 15 C10.01 15.495 10.01 15.495 9 16 C8.34 15.67 7.68 15.34 7 15 C7 16.32 7 17.64 7 19 C5.35 18.67 3.7 18.34 2 18 C2 18.66 2 19.32 2 20 C1.34 20 0.68 20 0 20 C0 19.34 0 18.68 0 18 C-1.65 18.33 -3.3 18.66 -5 19 C-5.66 18.01 -6.32 17.02 -7 16 C-7.66 15.34 -8.32 14.68 -9 14 C-8.67 13.34 -8.34 12.68 -8 12 C-8.66 11.67 -9.32 11.34 -10 11 C-10 10.34 -10 9.68 -10 9 C-9.34 9 -8.68 9 -8 9 C-8.33 7.68 -8.66 6.36 -9 5 C-7.68 4.67 -6.36 4.34 -5 4 C-5 3.01 -5 2.02 -5 1 C-3.35 1.33 -1.7 1.66 0 2 C0 1.34 0 0.68 0 0 Z " fill="#EB261F" transform="translate(29,1)"/>
<path d="M0 0 C0.66 0 1.32 0 2 0 C2 0.66 2 1.32 2 2 C3.32 1.67 4.64 1.34 6 1 C6 1.99 6 2.98 6 4 C6.99 3.67 7.98 3.34 9 3 C9 3.99 9 4.98 9 6 C9.66 6.33 10.32 6.66 11 7 C10.67 8.98 10.34 10.96 10 13 C9.01 13 8.02 13 7 13 C6.67 14.32 6.34 15.64 6 17 C3.03 17 0.06 17 -3 17 C-3 16.01 -3 15.02 -3 14 C-3.99 14 -4.98 14 -6 14 C-6 12.68 -6 11.36 -6 10 C-6.66 10 -7.32 10 -8 10 C-8 9.34 -8 8.68 -8 8 C-7.34 8 -6.68 8 -6 8 C-6.33 6.68 -6.66 5.36 -7 4 C-6.01 4 -5.02 4 -4 4 C-4 3.01 -4 2.02 -4 1 C-2.68 1.33 -1.36 1.66 0 2 C0 1.34 0 0.68 0 0 Z " fill="#229F99" transform="translate(49,18)"/>
<path d="M0 0 C0 0.66 0 1.32 0 2 C0.99 2 1.98 2 3 2 C3.33 2.66 3.66 3.32 4 4 C5.32 3.34 6.64 2.68 8 2 C8.99 2.99 9.98 3.98 11 5 C10.67 5.99 10.34 6.98 10 8 C9.34 8 8.68 8 8 8 C7.67 9.32 7.34 10.64 7 12 C4.69 11.67 2.38 11.34 0 11 C-0.33 11.66 -0.66 12.32 -1 13 C-1.66 12.67 -2.32 12.34 -3 12 C-3 12.66 -3 13.32 -3 14 C-3.66 14 -4.32 14 -5 14 C-5 13.34 -5 12.68 -5 12 C-5.99 12.33 -6.98 12.66 -8 13 C-10 11 -10 11 -11 9 C-10.67 8.34 -10.34 7.68 -10 7 C-10.66 7 -11.32 7 -12 7 C-11.25 2.25 -11.25 2.25 -9 0 C-5.7295226 -1.24052591 -3.35038257 -0.83759564 0 0 Z " fill="#A3CD3D" transform="translate(44,34)"/>
<path d="M0 0 C1.91015625 0.4453125 1.91015625 0.4453125 4.47265625 2.5078125 C6.35626596 6.35692799 6.11780025 8.36951401 4.91015625 12.4453125 C2.54522199 15.26504181 1.08208975 15.42382081 -2.58984375 15.8828125 C-6.08984375 15.4453125 -6.08984375 15.4453125 -8.52734375 13.8828125 C-10.69380403 10.50313446 -10.65272377 8.38547263 -10.08984375 4.4453125 C-7.53315462 0.29069266 -4.61630624 -0.25885829 0 0 Z " fill="#F8F8FA" transform="translate(182.08984375,100.5546875)"/>
<path d="M0 0 C0.99 0.33 1.98 0.66 3 1 C3 1.99 3 2.98 3 4 C3.99 4 4.98 4 6 4 C6 4.99 6 5.98 6 7 C5.01 7 4.02 7 3 7 C3 8.98 3 10.96 3 13 C3.99 13 4.98 13 6 13 C5.67 13.99 5.34 14.98 5 16 C2.525 15.505 2.525 15.505 0 15 C0 12.36 0 9.72 0 7 C-0.66 7 -1.32 7 -2 7 C-2 9.64 -2 12.28 -2 15 C-3.43410368 15.24954005 -4.87260072 15.47392642 -6.3125 15.6875 C-7.11300781 15.81511719 -7.91351563 15.94273437 -8.73828125 16.07421875 C-11 16 -11 16 -12.7734375 14.70703125 C-14.63213241 12.12024884 -14.32260928 10.09704907 -14 7 C-13.34 6.01 -12.68 5.02 -12 4 C-9.3984375 3.70703125 -9.3984375 3.70703125 -6.375 3.8125 C-4.87066406 3.85310547 -4.87066406 3.85310547 -3.3359375 3.89453125 C-2.56507813 3.92933594 -1.79421875 3.96414062 -1 4 C-0.67 2.68 -0.34 1.36 0 0 Z " fill="#1477BD" transform="translate(290,132)"/>
<path d="M0 0 C0.33 0.66 0.66 1.32 1 2 C2.32 1.67 3.64 1.34 5 1 C5 1.66 5 2.32 5 3 C5.99 3 6.98 3 8 3 C8 3.99 8 4.98 8 6 C8.66 6 9.32 6 10 6 C10 7.98 10 9.96 10 12 C9.01 12.495 9.01 12.495 8 13 C8 13.66 8 14.32 8 15 C6.68 14.67 5.36 14.34 4 14 C3.67 14.99 3.34 15.98 3 17 C2.67 16.34 2.34 15.68 2 15 C0.68 15.33 -0.64 15.66 -2 16 C-2 15.34 -2 14.68 -2 14 C-2.99 14 -3.98 14 -5 14 C-5 13.01 -5 12.02 -5 11 C-5.66 11 -6.32 11 -7 11 C-7.25 8.75 -7.25 8.75 -7 6 C-5 3.6875 -5 3.6875 -3 2 C-2.34 2.33 -1.68 2.66 -1 3 C-0.67 2.01 -0.34 1.02 0 0 Z " fill="#1B63AF" transform="translate(9,13)"/>
<path d="M0 0 C2.10388569 -0.05402274 4.20816714 -0.09280256 6.3125 -0.125 C8.07013672 -0.15980469 8.07013672 -0.15980469 9.86328125 -0.1953125 C13 0 13 0 16 2 C16.375 5.5 16.375 5.5 16 9 C12.36804504 11.42130331 10.61650652 11.21022785 6.3125 11.125 C5.13300781 11.10695313 3.95351563 11.08890625 2.73828125 11.0703125 C1.83464844 11.04710937 0.93101562 11.02390625 0 11 C0 7.37 0 3.74 0 0 Z " fill="#F8F4F4" transform="translate(261,42)"/>
<path d="M0 0 C7.51953125 -0.390625 7.51953125 -0.390625 10 0 C11.8359375 1.78515625 11.8359375 1.78515625 13 4 C12.8125 7.6875 12.8125 7.6875 12 11 C9.04335481 12.4783226 6.25770263 12.06032783 3 12 C3 13.32 3 14.64 3 16 C2.01 16 1.02 16 0 16 C0 10.72 0 5.44 0 0 Z " fill="#0C72BB" transform="translate(173,131)"/>
<path d="M0 0 C2 2 4 4 6 6 C5.1875 8.4375 5.1875 8.4375 4 11 C3.01 11.33 2.02 11.66 1 12 C1 11.34 1 10.68 1 10 C0.34 10 -0.32 10 -1 10 C-1 10.66 -1 11.32 -1 12 C-2.32 11.67 -3.64 11.34 -5 11 C-5 11.99 -5 12.98 -5 14 C-5.99 14 -6.98 14 -8 14 C-7.67 15.32 -7.34 16.64 -7 18 C-7.66 18 -8.32 18 -9 18 C-9 18.66 -9 19.32 -9 20 C-8.34 20 -7.68 20 -7 20 C-7 21.32 -7 22.64 -7 24 C-6.01 24 -5.02 24 -4 24 C-4 24.99 -4 25.98 -4 27 C-6.97 26.01 -9.94 25.02 -13 24 C-13 20.14705171 -12.6948924 19.17792326 -11 16 C-11 15.34 -11 14.68 -11 14 C-10.34 13.67 -9.68 13.34 -9 13 C-8.67 12.01 -8.34 11.02 -8 10 C-5.9375 9.3125 -5.9375 9.3125 -4 9 C-3.87625 8.195625 -3.7525 7.39125 -3.625 6.5625 C-3.41875 5.716875 -3.2125 4.87125 -3 4 C-2.34 3.67 -1.68 3.34 -1 3 C-0.67 2.01 -0.34 1.02 0 0 Z " fill="#F3F3F2" transform="translate(50,8)"/>
<path d="M0 0 C0.66 0 1.32 0 2 0 C2 0.99 2 1.98 2 3 C3.65 2.67 5.3 2.34 7 2 C6.67 3.65 6.34 5.3 6 7 C6.99 7 7.98 7 9 7 C9 7.66 9 8.32 9 9 C8.01 9.495 8.01 9.495 7 10 C7 11.32 7 12.64 7 14 C5.35 13.67 3.7 13.34 2 13 C2 13.99 2 14.98 2 16 C1.34 16 0.68 16 0 16 C0 15.01 0 14.02 0 13 C-1.65 13.33 -3.3 13.66 -5 14 C-5 12.68 -5 11.36 -5 10 C-5.66 9.67 -6.32 9.34 -7 9 C-7 8.34 -7 7.68 -7 7 C-6.01 7 -5.02 7 -4 7 C-4.33 5.35 -4.66 3.7 -5 2 C-3.35 2.33 -1.7 2.66 0 3 C0 2.01 0 1.02 0 0 Z " fill="#FAB320" transform="translate(26,21)"/>
<path d="M0 0 C0.99 0.33 1.98 0.66 3 1 C2.67 1.99 2.34 2.98 2 4 C2.66 4.33 3.32 4.66 4 5 C4 5.66 4 6.32 4 7 C1 9 1 9 -2 9 C-1.67 9.99 -1.34 10.98 -1 12 C-1.66 12 -2.32 12 -3 12 C-3 12.66 -3 13.32 -3 14 C-2.34 14 -1.68 14 -1 14 C-1 15.65 -1 17.3 -1 19 C-1.66 19.33 -2.32 19.66 -3 20 C-3 20.99 -3 21.98 -3 23 C-6.33333333 26 -6.33333333 26 -9 26 C-9 26.66 -9 27.32 -9 28 C-9.99 28.33 -10.98 28.66 -12 29 C-12.33 26.69 -12.66 24.38 -13 22 C-12.67 22.66 -12.34 23.32 -12 24 C-11.34 24 -10.68 24 -10 24 C-9.67 23.01 -9.34 22.02 -9 21 C-7.68 21.33 -6.36 21.66 -5 22 C-5.33 20.68 -5.66 19.36 -6 18 C-5.01 18 -4.02 18 -3 18 C-3 17.01 -3 16.02 -3 15 C-3.99 15 -4.98 15 -6 15 C-5.67 13.68 -5.34 12.36 -5 11 C-6.32 11.33 -7.64 11.66 -9 12 C-9.33 11.01 -9.66 10.02 -10 9 C-10.66 9 -11.32 9 -12 9 C-12 9.66 -12 10.32 -12 11 C-12.99 11.33 -13.98 11.66 -15 12 C-15.33 11.01 -15.66 10.02 -16 9 C-13.35261084 7.5393715 -12.10551666 7 -9 7 C-9 7.99 -9 8.98 -9 10 C-8.34 10 -7.68 10 -7 10 C-7 9.01 -7 8.02 -7 7 C-5.35 7.33 -3.7 7.66 -2 8 C-2.33 6.68 -2.66 5.36 -3 4 C-2.01 3.67 -1.02 3.34 0 3 C0 2.01 0 1.02 0 0 Z " fill="#FBF9F2" transform="translate(35,27)"/>
<path d="M0 0 C0 0.99 0 1.98 0 3 C-0.99 3 -1.98 3 -3 3 C-3 3.66 -3 4.32 -3 5 C-2.01 5.33 -1.02 5.66 0 6 C-0.33 6.99 -0.66 7.98 -1 9 C-1.4125 8.484375 -1.825 7.96875 -2.25 7.4375 C-3.88817317 5.78180832 -3.88817317 5.78180832 -6.0625 6 C-8.78023794 7.40270345 -8.9124398 9.21312698 -10 12 C-11.875 13.4375 -11.875 13.4375 -14 14 C-16.25 13.125 -16.25 13.125 -18 12 C-18 10.35 -18 8.7 -18 7 C-18.66 7 -19.32 7 -20 7 C-19.34 5.35 -18.68 3.7 -18 2 C-17.01 2 -16.02 2 -15 2 C-15 2.66 -15 3.32 -15 4 C-14.0409375 3.7215625 -14.0409375 3.7215625 -13.0625 3.4375 C-12.381875 3.293125 -11.70125 3.14875 -11 3 C-10.67 3.33 -10.34 3.66 -10 4 C-9.67 3.34 -9.34 2.68 -9 2 C-7.68 2.33 -6.36 2.66 -5 3 C-5.33 2.01 -5.66 1.02 -6 0 C-3 -1 -3 -1 0 0 Z " fill="#F9F3EE" transform="translate(22,25)"/>
<path d="M0 0 C1.423125 0.061875 2.84625 0.12375 4.3125 0.1875 C4.3125 4.1475 4.3125 8.1075 4.3125 12.1875 C2.9925 11.8575 1.6725 11.5275 0.3125 11.1875 C-0.533125 11.39375 -1.37875 11.6 -2.25 11.8125 C-4.6875 12.1875 -4.6875 12.1875 -6.5 11.125 C-8.20983914 8.33526246 -8.08861303 6.39640425 -7.6875 3.1875 C-5.41892307 0.09791427 -3.73545602 -0.16241113 0 0 Z " fill="#267FC0" transform="translate(199.6875,135.8125)"/>
<path d="M0 0 C1.875 1.125 1.875 1.125 3 3 C3.39365568 6.14924548 3.52854531 8.11909116 1.875 10.875 C-0.88090884 12.52854531 -2.85075452 12.39365568 -6 12 C-7.875 10.875 -7.875 10.875 -9 9 C-9.39365568 5.85075452 -9.52854531 3.88090884 -7.875 1.125 C-5.11909116 -0.52854531 -3.14924548 -0.39365568 0 0 Z " fill="#F5F5F7" transform="translate(258,103)"/>
<path d="M0 0 C2.27864583 0.06510417 4.55729167 0.13020833 6.8359375 0.1953125 C6.8359375 3.8253125 6.8359375 7.4553125 6.8359375 11.1953125 C-0.51346009 12.5206137 -0.51346009 12.5206137 -3.1640625 11.1953125 C-4.69760862 8.12822025 -4.46994036 5.55996891 -4.1640625 2.1953125 C-2.1640625 0.1953125 -2.1640625 0.1953125 0 0 Z " fill="#0F74BB" transform="translate(138.1640625,135.8046875)"/>
<path d="M0 0 C0.66 0.66 1.32 1.32 2 2 C1.8125 5.5 1.8125 5.5 1 9 C-2 11 -2 11 -5.0625 10.75 C-8 10 -8 10 -10 8 C-10.32954432 4.90228335 -10.45334601 2.82668977 -8.9375 0.0625 C-5.81651045 -1.6490104 -3.35466116 -0.79291991 0 0 Z " fill="#FCEFEE" transform="translate(34,6)"/>
<path d="M0 0 C3.5625 0.3125 3.5625 0.3125 5.5 1.5 C6.94968434 3.97299093 6.98567323 5.49134512 6.5625 8.3125 C5.4375 10.125 5.4375 10.125 3.5625 11.3125 C-0.51544425 11.73728586 -1.96826119 11.62532587 -5.4375 9.3125 C-5.75 5.8125 -5.75 5.8125 -5.4375 2.3125 C-3.4375 0.3125 -3.4375 0.3125 0 0 Z " fill="#FAFAFB" transform="translate(106.4375,102.6875)"/>
<path d="M0 0 C1.875 1.0625 1.875 1.0625 3 3 C2.66666667 9.33333333 2.66666667 9.33333333 0 12 C-2.80984248 12.36023622 -4.38241919 12.38332602 -6.8125 10.875 C-8.55198782 8.12844028 -8.39769128 6.18153026 -8 3 C-5.90534242 -0.30735407 -3.75951639 -0.56392746 0 0 Z " fill="#1E7BBF" transform="translate(260,136)"/>
<path d="M0 0 C0.6875 1.8125 0.6875 1.8125 1 4 C-0.84159673 6.48615558 -2.00470711 7.00156904 -5 8 C-5 9.32 -5 10.64 -5 12 C-5.99 11.67 -6.98 11.34 -8 11 C-8 10.01 -8 9.02 -8 8 C-8.56589844 7.81824219 -9.13179687 7.63648438 -9.71484375 7.44921875 C-10.44832031 7.19785156 -11.18179687 6.94648437 -11.9375 6.6875 C-12.66839844 6.44386719 -13.39929688 6.20023438 -14.15234375 5.94921875 C-16 5 -16 5 -17 2 C-16.67 1.34 -16.34 0.68 -16 0 C-14.35 0.33 -12.7 0.66 -11 1 C-10.67 1.99 -10.34 2.98 -10 4 C-9.34 4 -8.68 4 -8 4 C-7.896875 3.360625 -7.79375 2.72125 -7.6875 2.0625 C-7.460625 1.381875 -7.23375 0.70125 -7 0 C-3.86650268 -1.04449911 -3.01031744 -0.93423645 0 0 Z " fill="#CFBF7E" transform="translate(34,51)"/>
<path d="M0 0 C1.875 1.25 1.875 1.25 3 3 C2.6875 5.1875 2.6875 5.1875 2 7 C0.02 7 -1.96 7 -4 7 C-4 7.66 -4 8.32 -4 9 C-2.02 8.67 -0.04 8.34 2 8 C2 8.99 2 9.98 2 11 C-4.40096618 12.32850242 -4.40096618 12.32850242 -6.9375 10.9375 C-8.47555213 8.13281671 -8.39310741 6.14485925 -8 3 C-5.90534242 -0.30735407 -3.75951639 -0.56392746 0 0 Z " fill="#2B83C2" transform="translate(305,136)"/>
<path d="M0 0 C3.96 0 7.92 0 12 0 C12 2.64 12 5.28 12 8 C8.04 8 4.08 8 0 8 C0 5.36 0 2.72 0 0 Z " fill="#912B2E" transform="translate(162,53)"/>
<path d="M0 0 C3.96 0 7.92 0 12 0 C12 2.64 12 5.28 12 8 C8.04 8 4.08 8 0 8 C0 5.36 0 2.72 0 0 Z " fill="#932D32" transform="translate(234,52)"/>
<path d="M0 0 C2 2 2 2 2.125 4.625 C2.08375 5.40875 2.0425 6.1925 2 7 C0.02 7.33 -1.96 7.66 -4 8 C-2.02 8 -0.04 8 2 8 C2 8.99 2 9.98 2 11 C-0.75 11.75 -0.75 11.75 -4 12 C-6.375 10.375 -6.375 10.375 -8 8 C-8.50188668 5.06037803 -8.4519739 3.68985491 -6.8125 1.1875 C-4.3864306 -0.40199375 -2.84602594 -0.36487512 0 0 Z " fill="#5498CC" transform="translate(130,136)"/>
<path d="M0 0 C7.26 0 14.52 0 22 0 C22 1.32 22 2.64 22 4 C14.74 4 7.48 4 0 4 C0 2.68 0 1.36 0 0 Z " fill="#5E5F61" transform="translate(19,64)"/>
<path d="M0 0 C7.26 0 14.52 0 22 0 C22 1.32 22 2.64 22 4 C15.07 4 8.14 4 1 4 C0.67 2.68 0.34 1.36 0 0 Z " fill="#626365" transform="translate(19,74)"/>
<path d="M0 0 C7.26 0 14.52 0 22 0 C22 1.32 22 2.64 22 4 C15.07 4 8.14 4 1 4 C0.67 2.68 0.34 1.36 0 0 Z " fill="#606163" transform="translate(19,69)"/>
<path d="M0 0 C2.5625 0.3125 2.5625 0.3125 4.4375 1.5 C5.5625 3.3125 5.5625 3.3125 5.375 5.875 C4.5625 8.3125 4.5625 8.3125 2.5625 10.3125 C-0.30762296 10.68046448 -1.84524618 10.68759409 -4.3125 9.125 C-5.4375 7.3125 -5.4375 7.3125 -5.25 4.75 C-4.18108204 1.54324612 -3.41484064 0.43780008 0 0 Z " fill="#DBECEB" transform="translate(50.4375,21.6875)"/>
<path d="M0 0 C6.8359375 -0.1953125 6.8359375 -0.1953125 9 0 C11 2 11 2 11.1953125 4.1640625 C11.17210937 4.97617188 11.14890625 5.78828125 11.125 6.625 C11.10695312 7.44226563 11.08890625 8.25953125 11.0703125 9.1015625 C11.03550781 10.04128906 11.03550781 10.04128906 11 11 C9.68 11.33 8.36 11.66 7 12 C7 8.7 7 5.4 7 2 C5.68 2.33 4.36 2.66 3 3 C3 5.64 3 8.28 3 11 C2.01 11 1.02 11 0 11 C0 7.37 0 3.74 0 0 Z " fill="#3788C4" transform="translate(155,136)"/>
<path d="M0 0 C1.29615234 -0.00128906 2.59230469 -0.00257812 3.92773438 -0.00390625 C4.60650635 -0.00181152 5.28527832 0.0002832 5.98461914 0.00244141 C8.05427414 0.0077812 10.12371125 0.00250057 12.19335938 -0.00390625 C13.49080078 -0.00261719 14.78824219 -0.00132813 16.125 0 C17.92215454 0.00169189 17.92215454 0.00169189 19.75561523 0.00341797 C22.62890625 0.1328125 22.62890625 0.1328125 24.62890625 1.1328125 C24.62890625 2.7828125 24.62890625 4.4328125 24.62890625 6.1328125 C20.66890625 6.1328125 16.70890625 6.1328125 12.62890625 6.1328125 C12.62890625 5.8028125 12.62890625 5.4728125 12.62890625 5.1328125 C16.25890625 5.1328125 19.88890625 5.1328125 23.62890625 5.1328125 C23.62890625 4.1428125 23.62890625 3.1528125 23.62890625 2.1328125 C19.55340684 2.22643215 15.47844289 2.33254411 11.40356445 2.45019531 C10.01758718 2.488456 8.6315116 2.52331406 7.24536133 2.5546875 C5.25188985 2.60039949 3.25873711 2.65940175 1.265625 2.71875 C0.06639404 2.7501709 -1.13283691 2.7815918 -2.3684082 2.81396484 C-5.54992081 2.91710744 -5.54992081 2.91710744 -8.37109375 5.1328125 C-7.09183457 -0.53247817 -5.75208621 0.00542029 0 0 Z " fill="#932C30" transform="translate(124.37109375,35.8671875)"/>
<path d="M0 0 C0.99 0 1.98 0 3 0 C3.33 2.64 3.66 5.28 4 8 C6.89932357 5.60490662 7.50168276 3.68754757 8 0 C8.99 0.33 9.98 0.66 11 1 C10.62257767 7.16456476 8.84129692 10.17375515 5 15 C3.35 14.67 1.7 14.34 0 14 C0.99 13.67 1.98 13.34 3 13 C1.91215032 9.75016865 1.91215032 9.75016865 0 7 C-0.04092937 4.66702567 -0.04241723 2.33294775 0 0 Z " fill="#0E73BB" transform="translate(205,136)"/>
<path d="M0 0 C0.8146875 0.00257813 1.629375 0.00515625 2.46875 0.0078125 C3.2834375 0.00523437 4.098125 0.00265625 4.9375 0 C6.96875 0.1328125 6.96875 0.1328125 7.96875 1.1328125 C8.04080511 2.81890216 8.05261068 4.50781909 8.03125 6.1953125 C8.02222656 7.11441406 8.01320312 8.03351563 8.00390625 8.98046875 C7.99230469 9.69074219 7.98070312 10.40101563 7.96875 11.1328125 C6.97875 11.1328125 5.98875 11.1328125 4.96875 11.1328125 C4.96875 8.4928125 4.96875 5.8528125 4.96875 3.1328125 C3.64875 3.1328125 2.32875 3.1328125 0.96875 3.1328125 C0.96875 5.7728125 0.96875 8.4128125 0.96875 11.1328125 C-0.02125 11.4628125 -1.01125 11.7928125 -2.03125 12.1328125 C-2.22526633 10.32099845 -2.41129375 8.50832718 -2.59375 6.6953125 C-2.69816406 5.68597656 -2.80257812 4.67664063 -2.91015625 3.63671875 C-2.95011719 2.81042969 -2.99007812 1.98414063 -3.03125 1.1328125 C-2.03125 0.1328125 -2.03125 0.1328125 0 0 Z " fill="#2880C1" transform="translate(230.03125,135.8671875)"/>
<path d="M0 0 C1.32 0 2.64 0 4 0 C4 4.62 4 9.24 4 14 C6.31 14 8.62 14 11 14 C11 14.66 11 15.32 11 16 C7.37 16 3.74 16 0 16 C0 10.72 0 5.44 0 0 Z " fill="#2881C1" transform="translate(110,131)"/>
<path d="M0 0 C4.95 0 9.9 0 15 0 C14 4 14 4 11 6 C7.39767547 6.55923183 4.09466734 6.71837544 1 4.6875 C0 3 0 3 0 0 Z " fill="#58595C" transform="translate(23,79)"/>
<path d="M0 0 C3 0.25 3 0.25 5 2.25 C5.25 4.75 5.25 4.75 5 7.25 C4.34 7.91 3.68 8.57 3 9.25 C-0.625 8.875 -0.625 8.875 -4 8.25 C-4.625 5.375 -4.625 5.375 -5 2.25 C-3 0.25 -3 0.25 0 0 Z " fill="#231F61" transform="translate(5,81.75)"/>
<path d="M0 0 C6.93359375 -0.09765625 6.93359375 -0.09765625 9 0 C10 1 10 1 10.09765625 3.28515625 C10.08605469 4.20167969 10.07445312 5.11820313 10.0625 6.0625 C10.05347656 6.98160156 10.04445312 7.90070313 10.03515625 8.84765625 C10.02355469 9.55792969 10.01195312 10.26820313 10 11 C9.01 11 8.02 11 7 11 C7 8.36 7 5.72 7 3 C5.68 3 4.36 3 3 3 C3 5.64 3 8.28 3 11 C2.01 11 1.02 11 0 11 C0 7.37 0 3.74 0 0 Z " fill="#1B79BE" transform="translate(240,136)"/>
<path d="M0 0 C2.5 0.25 2.5 0.25 4.5 2.25 C4.75 4.75 4.75 4.75 4.5 7.25 C2.5 9.25 2.5 9.25 0 9.5 C-2.5 9.25 -2.5 9.25 -4.5 7.25 C-4.75 4.75 -4.75 4.75 -4.5 2.25 C-2.5 0.25 -2.5 0.25 0 0 Z " fill="#1D195F" transform="translate(229.5,81.75)"/>
<path d="M0 0 C0.66 0 1.32 0 2 0 C2.66 2.31 3.32 4.62 4 7 C4.66 6.67 5.32 6.34 6 6 C6.65772428 2.97065509 6.65772428 2.97065509 7 0 C7.99 0.33 8.98 0.66 10 1 C9.39664218 7.39559286 9.39664218 7.39559286 7.6875 10 C6 11 6 11 4 10.9375 C1.37480983 9.70694211 0.40571303 8.53028345 -1 6 C-1.25 3.3125 -1.25 3.3125 -1 1 C-0.67 0.67 -0.34 0.34 0 0 Z " fill="#0971BA" transform="translate(265,136)"/>
<path d="M0 0 C4.55555556 0.55555556 4.55555556 0.55555556 6 2 C6.1875 4.4375 6.1875 4.4375 6 7 C5.34 7.66 4.68 8.32 4 9 C0.70285207 8.67028521 -0.6226839 8.3773161 -3 6 C-2.63318342 3.06546739 -2.13562754 2.13562754 0 0 Z " fill="#F7FAF1" transform="translate(38,36)"/>
<path d="M0 0 C0.66 0 1.32 0 2 0 C2 0.99 2 1.98 2 3 C3.65 2.67 5.3 2.34 7 2 C6.67 3.65 6.34 5.3 6 7 C6.99 7 7.98 7 9 7 C9 7.66 9 8.32 9 9 C7.68 9 6.36 9 5 9 C4.34 8.01 3.68 7.02 3 6 C1.35 6.33 -0.3 6.66 -2 7 C-2 7.99 -2 8.98 -2 10 C-3.65 9.67 -5.3 9.34 -7 9 C-7 8.34 -7 7.68 -7 7 C-6.01 7 -5.02 7 -4 7 C-4.33 5.35 -4.66 3.7 -5 2 C-3.35 2.33 -1.7 2.66 0 3 C0 2.01 0 1.02 0 0 Z " fill="#FAB014" transform="translate(26,21)"/>
<path d="M0 0 C0.33 0.99 0.66 1.98 1 3 C0.67 3.66 0.34 4.32 0 5 C-0.66 5 -1.32 5 -2 5 C-2.33 6.32 -2.66 7.64 -3 9 C-5.31 8.67 -7.62 8.34 -10 8 C-9.67 7.38125 -9.34 6.7625 -9 6.125 C-7.85806765 4.08981656 -7.85806765 4.08981656 -8 2 C-3.61016949 -1.20338983 -3.61016949 -1.20338983 0 0 Z " fill="#C9D3D2" transform="translate(54,37)"/>
<path d="M0 0 C0.66 0 1.32 0 2 0 C2 0.66 2 1.32 2 2 C4.31 2.33 6.62 2.66 9 3 C9 4.65 9 6.3 9 8 C7.25 9.125 7.25 9.125 5 10 C2.75 9.125 2.75 9.125 1 8 C1 6.35 1 4.7 1 3 C0.34 3 -0.32 3 -1 3 C-0.67 2.01 -0.34 1.02 0 0 Z " fill="#CC7582" transform="translate(3,29)"/>
<path d="M0 0 C0.99 0.33 1.98 0.66 3 1 C3 2.32 3 3.64 3 5 C2.01 5 1.02 5 0 5 C-0.33 6.32 -0.66 7.64 -1 9 C-3.97 9 -6.94 9 -10 9 C-10 8.01 -10 7.02 -10 6 C-10.99 6 -11.98 6 -13 6 C-12.67 5.01 -12.34 4.02 -12 3 C-11.443125 3.33 -10.88625 3.66 -10.3125 4 C-7.56205024 5.18938368 -5.96025725 5.53132822 -3 5 C-1.1375562 2.59141286 -1.1375562 2.59141286 0 0 Z " fill="#0D9892" transform="translate(56,26)"/>
<path d="M0 0 C0.625 1.8125 0.625 1.8125 1 4 C-1 7 -1 7 -4 8 C-4.99 7.67 -5.98 7.34 -7 7 C-8.125 2.25 -8.125 2.25 -7 0 C-3.86650268 -1.04449911 -3.01031744 -0.93423645 0 0 Z " fill="#BBDA71" transform="translate(18,5)"/>
<path d="M0 0 C0.33 0 0.66 0 1 0 C1 4.29 1 8.58 1 13 C3.475 13.99 3.475 13.99 6 15 C6 15.66 6 16.32 6 17 C5.35546875 17.41894531 4.7109375 17.83789062 4.046875 18.26953125 C1.74618145 19.86199598 1.74618145 19.86199598 1.390625 22.69921875 C1.34421875 23.68535156 1.2978125 24.67148438 1.25 25.6875 C1.19328125 26.68136719 1.1365625 27.67523438 1.078125 28.69921875 C1.05234375 29.45847656 1.0265625 30.21773437 1 31 C0.67 31 0.34 31 0 31 C0 20.77 0 10.54 0 0 Z " fill="#F6F2F3" transform="translate(234,93)"/>
<path d="M0 0 C1.875 0.25 1.875 0.25 4 1 C5.125 3 5.125 3 6 5 C6.66 5.33 7.32 5.66 8 6 C7.34 7.32 6.68 8.64 6 10 C5.01 9.67 4.02 9.34 3 9 C3 8.34 3 7.68 3 7 C0.53673288 5.3553326 0.53673288 5.3553326 -2 4 C-1.34 2.68 -0.68 1.36 0 0 Z " fill="#FABB39" transform="translate(10,39)"/>
<path d="M0 0 C2.31 0 4.62 0 7 0 C7 0.99 7 1.98 7 3 C6.01 3.33 5.02 3.66 4 4 C3.67 6.64 3.34 9.28 3 12 C2.01 12 1.02 12 0 12 C0 8.04 0 4.08 0 0 Z " fill="#1A79BE" transform="translate(147,136)"/>
<path d="M0 0 C0.99 0 1.98 0 3 0 C3 5.28 3 10.56 3 16 C2.01 16 1.02 16 0 16 C0 10.72 0 5.44 0 0 Z " fill="#0A71BA" transform="translate(222,131)"/>
<path d="M0 0 C0.99 0 1.98 0 3 0 C3 5.28 3 10.56 3 16 C2.01 16 1.02 16 0 16 C0 10.72 0 5.44 0 0 Z " fill="#257EC0" transform="translate(187,131)"/>
<path d="M0 0 C0.6875 1.8125 0.6875 1.8125 1 4 C-0.125 5.8125 -0.125 5.8125 -2 7 C-4.6875 6.6875 -4.6875 6.6875 -7 6 C-8.125 2.25 -8.125 2.25 -7 0 C-3.86650268 -1.04449911 -3.01031744 -0.93423645 0 0 Z " fill="#C26388" transform="translate(34,51)"/>
<path d="M0 0 C5.28 0 10.56 0 16 0 C15.67 0.99 15.34 1.98 15 3 C14.01 3 13.02 3 12 3 C12 2.34 12 1.68 12 1 C11.34 1 10.68 1 10 1 C10 1.66 10 2.32 10 3 C8.35 2.67 6.7 2.34 5 2 C4.67 2.66 4.34 3.32 4 4 C2.35 4 0.7 4 -1 4 C-0.67 2.68 -0.34 1.36 0 0 Z " fill="#FADFDE" transform="translate(19,0)"/>
<path d="M0 0 C0.66 0.33 1.32 0.66 2 1 C5.31559516 1.03090435 8.61929772 0.93242185 11.93359375 0.83984375 C15 1 15 1 18 3 C14.30054001 4.23315333 10.85232442 4.18407267 7 4.1875 C6.27554687 4.19974609 5.55109375 4.21199219 4.8046875 4.22460938 C0.99299702 4.23515833 -0.7536304 4.1642464 -4 2 C-2.125 0.9375 -2.125 0.9375 0 0 Z " fill="#E1DCD5" transform="translate(24,83)"/>
<path d="M0 0 C1.2065625 0.0309375 1.2065625 0.0309375 2.4375 0.0625 C2.4375 0.7225 2.4375 1.3825 2.4375 2.0625 C1.4475 2.0625 0.4575 2.0625 -0.5625 2.0625 C-0.5625 4.0425 -0.5625 6.0225 -0.5625 8.0625 C0.4275 8.0625 1.4175 8.0625 2.4375 8.0625 C2.1075 9.0525 1.7775 10.0425 1.4375 11.0625 C-0.2125 10.7325 -1.8625 10.4025 -3.5625 10.0625 C-3.58939216 8.58343108 -3.60884621 7.10422517 -3.625 5.625 C-3.63660156 4.80128906 -3.64820313 3.97757813 -3.66015625 3.12890625 C-3.51340586 0.02366796 -3.12550237 0.07623177 0 0 Z " fill="#247DC0" transform="translate(293.5625,136.9375)"/>
<path d="M0 0 C1.98 0 3.96 0 6 0 C6.625 2.375 6.625 2.375 7 5 C5 7 5 7 2.375 7.125 C1.59125 7.08375 0.8075 7.0425 0 7 C0 4.69 0 2.38 0 0 Z " fill="#ECF2F8" transform="translate(176,134)"/>
<path d="M0 0 C1.2065625 0.0309375 1.2065625 0.0309375 2.4375 0.0625 C3.5625 4.8125 3.5625 4.8125 2.4375 7.0625 C0.77138095 7.105221 -0.89632885 7.10313832 -2.5625 7.0625 C-3.5625 6.0625 -3.5625 6.0625 -3.6875 3.5625 C-3.51717518 0.15600356 -3.41884482 0.08338646 0 0 Z " fill="#F8B88C" transform="translate(39.5625,48.9375)"/>
<path d="M0 0 C1.9375 0.1875 1.9375 0.1875 4 1 C5.3125 2.875 5.3125 2.875 6 5 C5.67 5.99 5.34 6.98 5 8 C2.69 7.34 0.38 6.68 -2 6 C-1.125 1.125 -1.125 1.125 0 0 Z " fill="#F6A9A4" transform="translate(15,30)"/>
<path d="M0 0 C0.66 0.33 1.32 0.66 2 1 C2 7.27 2 13.54 2 20 C1.67 20 1.34 20 1 20 C0.93941406 19.39671875 0.87882812 18.7934375 0.81640625 18.171875 C0.69072266 16.97304687 0.69072266 16.97304687 0.5625 15.75 C0.48128906 14.96109375 0.40007812 14.1721875 0.31640625 13.359375 C-0.20058309 9.50429398 -1.16204821 6.43084334 -3 3 C-2.01 2.67 -1.02 2.34 0 2 C0 1.34 0 0.68 0 0 Z " fill="#D1D0DA" transform="translate(273,105)"/>
<path d="M0 0 C2.625 0.25 2.625 0.25 4.5 1.4375 C5.625 3.25 5.625 3.25 5.3125 5.9375 C5.085625 6.700625 4.85875 7.46375 4.625 8.25 C2.975 8.58 1.325 8.91 -0.375 9.25 C0.285 8.26 0.945 7.27 1.625 6.25 C1.625 5.26 1.625 4.27 1.625 3.25 C0.635 3.25 -0.355 3.25 -1.375 3.25 C-2.035 3.91 -2.695 4.57 -3.375 5.25 C-3.375 0.35526316 -3.375 0.35526316 0 0 Z " fill="#F0F7F7" transform="translate(50.375,21.75)"/>
<path d="M0 0 C1.67542976 0.28604898 3.34385343 0.61781233 5 1 C5 2.65 5 4.3 5 6 C2.625 6.625 2.625 6.625 0 7 C-0.66 6.34 -1.32 5.68 -2 5 C-1.46428571 1.46428571 -1.46428571 1.46428571 0 0 Z " fill="#FDF1EA" transform="translate(22,40)"/>
<path d="M0 0 C0.33 1.98 0.66 3.96 1 6 C-0.98 6.99 -0.98 6.99 -3 8 C-3.99 7.34 -4.98 6.68 -6 6 C-5.625 3.5625 -5.625 3.5625 -5 1 C-3 0 -3 0 0 0 Z " fill="#A090C3" transform="translate(49,5)"/>
<path d="M0 0 C1.32 0 2.64 0 4 0 C4.66 1.65 5.32 3.3 6 5 C5.01 5.495 5.01 5.495 4 6 C3.67 6.99 3.34 7.98 3 9 C1.35 9 -0.3 9 -2 9 C-1.649375 8.21625 -1.29875 7.4325 -0.9375 6.625 C-0.628125 5.75875 -0.31875 4.8925 0 4 C-0.33 3.34 -0.66 2.68 -1 2 C-0.67 1.34 -0.34 0.68 0 0 Z " fill="#F2E3E7" transform="translate(40,1)"/>
<path d="M0 0 C1.65 0 3.3 0 5 0 C5 0.99 5 1.98 5 3 C4.01 3 3.02 3 2 3 C2.33 4.32 2.66 5.64 3 7 C1.68 7 0.36 7 -1 7 C-1.33 7.66 -1.66 8.32 -2 9 C-2.66 9 -3.32 9 -4 9 C-4.33 8.01 -4.66 7.02 -5 6 C-4.360625 5.7525 -3.72125 5.505 -3.0625 5.25 C-0.81258459 4.18437567 -0.81258459 4.18437567 -0.25 1.875 C-0.1675 1.25625 -0.085 0.6375 0 0 Z " fill="#F4862A" transform="translate(27,42)"/>
<path d="M0 0 C2.475 0.495 2.475 0.495 5 1 C5 4.3 5 7.6 5 11 C4.01 11 3.02 11 2 11 C1.93941406 10.37351563 1.87882813 9.74703125 1.81640625 9.1015625 C1.73261719 8.28429687 1.64882812 7.46703125 1.5625 6.625 C1.48128906 5.81289062 1.40007812 5.00078125 1.31640625 4.1640625 C1.10909886 1.95727195 1.10909886 1.95727195 0 0 Z " fill="#0A70BA" transform="translate(233,136)"/>
<path d="M0 0 C2.9375 0.75 2.9375 0.75 6 2 C6.875 4.125 6.875 4.125 7 6 C5.125 6.625 5.125 6.625 3 7 C2.34 6.34 1.68 5.68 1 5 C-0.32 5 -1.64 5 -3 5 C-2.67 4.01 -2.34 3.02 -2 2 C-1.34 2 -0.68 2 0 2 C0 1.34 0 0.68 0 0 Z " fill="#FCF4EF" transform="translate(12,35)"/>
<path d="M0 0 C0.99 0 1.98 0 3 0 C3 0.66 3 1.32 3 2 C3.639375 1.814375 4.27875 1.62875 4.9375 1.4375 C5.9584375 1.2209375 5.9584375 1.2209375 7 1 C7.33 1.33 7.66 1.66 8 2 C8.33 1.34 8.66 0.68 9 0 C9.66 0.33 10.32 0.66 11 1 C10.34 3.31 9.68 5.62 9 8 C8.608125 7.525625 8.21625 7.05125 7.8125 6.5625 C5.59191626 4.64820367 3.86624291 4.38733012 1 4 C0.67 2.68 0.34 1.36 0 0 Z " fill="#D6DBE7" transform="translate(4,27)"/>
<path d="M0 0 C2.0625 0.4375 2.0625 0.4375 4 1 C4 2.65 4 4.3 4 6 C2.125 6.625 2.125 6.625 0 7 C-0.66 6.34 -1.32 5.68 -2 5 C-1.46428571 1.46428571 -1.46428571 1.46428571 0 0 Z " fill="#E6EDF5" transform="translate(138,138)"/>
<path d="M0 0 C1.67542976 0.28604898 3.34385343 0.61781233 5 1 C4.67 2.65 4.34 4.3 4 6 C2.35 5.67 0.7 5.34 -1 5 C-1 1 -1 1 0 0 Z " fill="#FEFDFA" transform="translate(25,26)"/>
<path d="M0 0 C1.32 0.66 2.64 1.32 4 2 C3.67 3.32 3.34 4.64 3 6 C1.68 6.33 0.36 6.66 -1 7 C-1.625 4.625 -1.625 4.625 -2 2 C-1.34 1.34 -0.68 0.68 0 0 Z " fill="#ECF1F7" transform="translate(281,138)"/>
<path d="M0 0 C1.32 0.66 2.64 1.32 4 2 C3.67 3.32 3.34 4.64 3 6 C1.68 6.33 0.36 6.66 -1 7 C-1.625 4.625 -1.625 4.625 -2 2 C-1.34 1.34 -0.68 0.68 0 0 Z " fill="#EEF3F8" transform="translate(197,138)"/>
<path d="M0 0 C1.65 0 3.3 0 5 0 C5 1.65 5 3.3 5 5 C3.125 5.625 3.125 5.625 1 6 C0.34 5.34 -0.32 4.68 -1 4 C-0.625 1.875 -0.625 1.875 0 0 Z " fill="#ECF1F7" transform="translate(255,139)"/>
<path d="M0 0 C2.97 0.495 2.97 0.495 6 1 C4.71034824 2.37562854 3.37310707 3.70766393 2 5 C1.34 5 0.68 5 0 5 C0 5.66 0 6.32 0 7 C-0.99 7.33 -1.98 7.66 -3 8 C-3.33 5.69 -3.66 3.38 -4 1 C-3.67 1.66 -3.34 2.32 -3 3 C-2.34 3 -1.68 3 -1 3 C-0.67 2.01 -0.34 1.02 0 0 Z " fill="#F6EBE3" transform="translate(26,48)"/>
<path d="M0 0 C0.99 0 1.98 0 3 0 C3.33 0.99 3.66 1.98 4 3 C4.66 2.67 5.32 2.34 6 2 C6 2.66 6 3.32 6 4 C6.99 4 7.98 4 9 4 C9 4.99 9 5.98 9 7 C6.03 6.01 3.06 5.02 0 4 C0 2.68 0 1.36 0 0 Z " fill="#E8C6A2" transform="translate(37,28)"/>
<path d="M0 0 C0.99 0.33 1.98 0.66 3 1 C3 1.99 3 2.98 3 4 C3.99 4.33 4.98 4.66 6 5 C3.36 5.66 0.72 6.32 -2 7 C-2 8.98 -2 10.96 -2 13 C-2.33 13 -2.66 13 -3 13 C-3.125 9.625 -3.125 9.625 -3 6 C-2.34 5.34 -1.68 4.68 -1 4 C-0.3574765 1.93125966 -0.3574765 1.93125966 0 0 Z " fill="#3E8AC5" transform="translate(290,132)"/>
<path d="M0 0 C0.66 0.99 1.32 1.98 2 3 C4.58380177 3.25030977 4.58380177 3.25030977 7 3 C7 3.99 7 4.98 7 6 C5.02 6.33 3.04 6.66 1 7 C0.01 5.68 -0.98 4.36 -2 3 C-1.34 2.01 -0.68 1.02 0 0 Z " fill="#227CBF" transform="translate(278,141)"/>
<path d="M0 0 C0.99 0.33 1.98 0.66 3 1 C2.67 3.31 2.34 5.62 2 8 C-1 9 -1 9 -4 9 C-3 7 -3 7 -1 6 C-0.34227572 2.97065509 -0.34227572 2.97065509 0 0 Z " fill="#247DBF" transform="translate(272,136)"/>
<path d="M0 0 C0.99 0.33 1.98 0.66 3 1 C3.33 1.99 3.66 2.98 4 4 C3.01 4.99 2.02 5.98 1 7 C0.01 6.67 -0.98 6.34 -2 6 C-2.33 5.01 -2.66 4.02 -3 3 C-2.01 2.01 -1.02 1.02 0 0 Z " fill="#FBC453" transform="translate(52,11)"/>
<path d="M0 0 C1.67542976 0.28604898 3.34385343 0.61781233 5 1 C4.67 2.32 4.34 3.64 4 5 C2.68 5.33 1.36 5.66 0 6 C-0.38218767 4.34385343 -0.71395102 2.67542976 -1 1 C-0.67 0.67 -0.34 0.34 0 0 Z " fill="#EC312B" transform="translate(28,8)"/>
<path d="M0 0 C0.94875 0.165 1.8975 0.33 2.875 0.5 C5.80168901 1.0526635 5.80168901 1.0526635 8 1 C8 1.99 8 2.98 8 4 C5.1875 4.625 5.1875 4.625 2 5 C1.01 4.34 0.02 3.68 -1 3 C-0.67 2.01 -0.34 1.02 0 0 Z " fill="#1978BD" transform="translate(124,143)"/>
<path d="M0 0 C0.99 0.33 1.98 0.66 3 1 C2.67 3.31 2.34 5.62 2 8 C0.35 8.33 -1.3 8.66 -3 9 C-2.01 6.03 -1.02 3.06 0 0 Z " fill="#267EC0" transform="translate(213,136)"/>
<path d="M0 0 C2.64 0 5.28 0 8 0 C7.01 0.33 6.02 0.66 5 1 C5 1.99 5 2.98 5 4 C5.66 4.66 6.32 5.32 7 6 C4.03 5.505 4.03 5.505 1 5 C0.67 3.35 0.34 1.7 0 0 Z " fill="#FDF5F2" transform="translate(35,0)"/>
<path d="M0 0 C0.66 0.33 1.32 0.66 2 1 C2.73075648 3.3140622 3.40138258 5.64828869 4 8 C2.68 8 1.36 8 0 8 C-1 7 -1 7 -1.125 4 C-1 1 -1 1 0 0 Z " fill="#0B71BA" transform="translate(193,138)"/>
<path d="M0 0 C1.22589844 0.01353516 1.22589844 0.01353516 2.4765625 0.02734375 C3.41628906 0.04474609 3.41628906 0.04474609 4.375 0.0625 C3.715 1.3825 3.055 2.7025 2.375 4.0625 C1.611875 3.8975 0.84875 3.7325 0.0625 3.5625 C-2.66096236 2.97104604 -2.66096236 2.97104604 -5.625 3.0625 C-5.955 2.4025 -6.285 1.7425 -6.625 1.0625 C-4.21954362 -0.14022819 -2.67503047 -0.03821472 0 0 Z " fill="#1879BD" transform="translate(199.625,135.9375)"/>
<path d="M0 0 C2.375 -0.125 2.375 -0.125 5 0 C7 2 7 2 7 6 C6.01 5.67 5.02 5.34 4 5 C4 4.34 4 3.68 4 3 C3.01 3 2.02 3 1 3 C0.34 3.66 -0.32 4.32 -1 5 C-0.67 3.35 -0.34 1.7 0 0 Z " fill="#026DB9" transform="translate(125,136)"/>
<path d="M0 0 C0.99 0.33 1.98 0.66 3 1 C4.1875 4.0625 4.1875 4.0625 5 7 C3.68 7 2.36 7 1 7 C1 6.34 1 5.68 1 5 C0.34 4.67 -0.32 4.34 -1 4 C-0.67 2.68 -0.34 1.36 0 0 Z " fill="#96A7C1" transform="translate(36,56)"/>
<path d="M0 0 C1.65 0.33 3.3 0.66 5 1 C4.67 2.32 4.34 3.64 4 5 C2.35 4.67 0.7 4.34 -1 4 C-0.67 2.68 -0.34 1.36 0 0 Z " fill="#4982BE" transform="translate(42,13)"/>
<path d="M0 0 C2.475 0.99 2.475 0.99 5 2 C4.360625 2.2475 3.72125 2.495 3.0625 2.75 C0.80104993 3.79688294 0.80104993 3.79688294 0.4375 6.0625 C0.2209375 7.0215625 0.2209375 7.0215625 0 8 C-0.99 8.33 -1.98 8.66 -3 9 C-2.7215625 8.1028125 -2.7215625 8.1028125 -2.4375 7.1875 C-1.77906313 4.83591238 -1.77906313 4.83591238 -3 2 C-2.01 2 -1.02 2 0 2 C0 1.34 0 0.68 0 0 Z " fill="#F9F2F1" transform="translate(41,10)"/>
<path d="M0 0 C0.99 0.33 1.98 0.66 3 1 C3.33 1.99 3.66 2.98 4 4 C3.67 4.66 3.34 5.32 3 6 C1.35 5.67 -0.3 5.34 -2 5 C-2 3.68 -2 2.36 -2 1 C-1.34 0.67 -0.68 0.34 0 0 Z " fill="#F16864" transform="translate(51,36)"/>
<path d="M0 0 C0.66 0 1.32 0 2 0 C2 0.99 2 1.98 2 3 C3.32 3.33 4.64 3.66 6 4 C5.67 4.66 5.34 5.32 5 6 C0.25 5.125 0.25 5.125 -2 4 C-2 3.34 -2 2.68 -2 2 C-1.34 2 -0.68 2 0 2 C0 1.34 0 0.68 0 0 Z " fill="#EC352D" transform="translate(34,2)"/>
<path d="M0 0 C2.31 0.66 4.62 1.32 7 2 C7 2.66 7 3.32 7 4 C1.25 5.125 1.25 5.125 -1 4 C-0.67 2.68 -0.34 1.36 0 0 Z " fill="#267EC0" transform="translate(136,143)"/>
<path d="M0 0 C0.66 0 1.32 0 2 0 C2 2.64 2 5.28 2 8 C1.01 8 0.02 8 -1 8 C-1.04241723 5.66705225 -1.04092937 3.33297433 -1 1 C-0.67 0.67 -0.34 0.34 0 0 Z " fill="#0B71BA" transform="translate(156,139)"/>
<path d="M0 0 C0.66 0.33 1.32 0.66 2 1 C2 2.65 2 4.3 2 6 C1.01 6.495 1.01 6.495 0 7 C0 6.34 0 5.68 0 5 C-1.98 5.33 -3.96 5.66 -6 6 C-6.33 5.34 -6.66 4.68 -7 4 C-4.69 4 -2.38 4 0 4 C0 2.68 0 1.36 0 0 Z " fill="#CEDCEB" transform="translate(132,139)"/>
<path d="M0 0 C0 0.66 0 1.32 0 2 C-0.61875 2.2475 -1.2375 2.495 -1.875 2.75 C-4.35068687 4.20628639 -4.95125002 5.37812506 -6 8 C-6.33 8 -6.66 8 -7 8 C-6.74438677 5.6568787 -6.40729228 3.32156597 -6 1 C-4 0 -4 0 0 0 Z " fill="#056EB9" transform="translate(259,136)"/>
<path d="M0 0 C0 0.99 0 1.98 0 3 C0.66 3 1.32 3 2 3 C2 3.66 2 4.32 2 5 C1.01 4.67 0.02 4.34 -1 4 C-1 3.34 -1 2.68 -1 2 C-1.66 2 -2.32 2 -3 2 C-3 2.66 -3 3.32 -3 4 C-3.99 4.33 -4.98 4.66 -6 5 C-6.33 4.01 -6.66 3.02 -7 2 C-4.35261084 0.5393715 -3.10551666 0 0 0 Z " fill="#FDEEE4" transform="translate(26,34)"/>
<path d="M0 0 C0.99 0.33 1.98 0.66 3 1 C3 2.65 3 4.3 3 6 C2.01 6.495 2.01 6.495 1 7 C0.34 6.67 -0.32 6.34 -1 6 C-1.042721 4.33388095 -1.04063832 2.66617115 -1 1 C-0.67 0.67 -0.34 0.34 0 0 Z " fill="#D698AF" transform="translate(7,32)"/>
<path d="M0 0 C1.32 0 2.64 0 4 0 C4 1.65 4 3.3 4 5 C2.35 4.67 0.7 4.34 -1 4 C-0.67 2.68 -0.34 1.36 0 0 Z " fill="#F6F8FB" transform="translate(9,19)"/>
<path d="M0 0 C0.99 0.33 1.98 0.66 3 1 C2.979375 1.763125 2.95875 2.52625 2.9375 3.3125 C2.87057159 6.10185786 2.87057159 6.10185786 4 9 C2.68 9 1.36 9 0 9 C0.33 7.68 0.66 6.36 1 5 C0.34 5 -0.32 5 -1 5 C-0.67 3.35 -0.34 1.7 0 0 Z " fill="#A2CC3A" transform="translate(33,36)"/>
<path d="M0 0 C0.66 0.66 1.32 1.32 2 2 C1.34 2 0.68 2 0 2 C0 2.66 0 3.32 0 4 C1.32 3.67 2.64 3.34 4 3 C4 3.99 4 4.98 4 6 C2.02 6 0.04 6 -2 6 C-1.125 1.125 -1.125 1.125 0 0 Z " fill="#EC322F" transform="translate(15,30)"/>
<path d="M0 0 C1.98 0.495 1.98 0.495 4 1 C3.67 2.32 3.34 3.64 3 5 C1.68 4.67 0.36 4.34 -1 4 C-0.67 2.68 -0.34 1.36 0 0 Z " fill="#1A9D97" transform="translate(49,24)"/>
<path d="M0 0 C0.66 0 1.32 0 2 0 C2 0.66 2 1.32 2 2 C2.66 2.33 3.32 2.66 4 3 C3.34 4.32 2.68 5.64 2 7 C1.01 6.67 0.02 6.34 -1 6 C-0.67 4.02 -0.34 2.04 0 0 Z " fill="#F5A291" transform="translate(14,42)"/>
<path d="M0 0 C1.32 0 2.64 0 4 0 C4.33 1.32 4.66 2.64 5 4 C3.02 4 1.04 4 -1 4 C-0.67 2.68 -0.34 1.36 0 0 Z " fill="#CC7D99" transform="translate(19,0)"/>
<path d="M0 0 C0.33 0 0.66 0 1 0 C1 3.3 1 6.6 1 10 C0.34 10 -0.32 10 -1 10 C-1 9.34 -1 8.68 -1 8 C-1.66 7.67 -2.32 7.34 -3 7 C-2.01 4.69 -1.02 2.38 0 0 Z " fill="#036EB9" transform="translate(144,137)"/>
<path d="M0 0 C0.99 0 1.98 0 3 0 C2.67 2.31 2.34 4.62 2 7 C1.34 7 0.68 7 0 7 C0 4.69 0 2.38 0 0 Z " fill="#257DC0" transform="translate(205,136)"/>
<path d="M0 0 C1.2065625 0.0309375 1.2065625 0.0309375 2.4375 0.0625 C2.4375 0.7225 2.4375 1.3825 2.4375 2.0625 C1.1175 2.3925 -0.2025 2.7225 -1.5625 3.0625 C-1.8925 5.0425 -2.2225 7.0225 -2.5625 9.0625 C-2.8925 9.0625 -3.2225 9.0625 -3.5625 9.0625 C-3.66015625 2.91015625 -3.66015625 2.91015625 -3.5625 1.0625 C-2.5625 0.0625 -2.5625 0.0625 0 0 Z " fill="#066EB9" transform="translate(293.5625,136.9375)"/>
<path d="M0 0 C1.32 0 2.64 0 4 0 C4.33 0.99 4.66 1.98 5 3 C4.01 3.66 3.02 4.32 2 5 C1.01 4.01 0.02 3.02 -1 2 C-0.67 1.34 -0.34 0.68 0 0 Z " fill="#F7A263" transform="translate(40,1)"/>
<path d="M0 0 C0 0.99 0 1.98 0 3 C-2.31 3.33 -4.62 3.66 -7 4 C-4.83989616 0.75984424 -3.8842653 0 0 0 Z " fill="#1F7BBF" transform="translate(307,144)"/>
<path d="M0 0 C-1.32 0.99 -2.64 1.98 -4 3 C-4.66 2.67 -5.32 2.34 -6 2 C-5.67 1.34 -5.34 0.68 -5 0 C-5.99 -0.33 -6.98 -0.66 -8 -1 C-4.59745511 -2.2151946 -3.06748874 -1.86240388 0 0 Z " fill="#EBF0EE" transform="translate(52,36)"/>
<path d="M0 0 C0.33 1.32 0.66 2.64 1 4 C2.32 4.33 3.64 4.66 5 5 C5 5.66 5 6.32 5 7 C3.33388095 7.042721 1.66617115 7.04063832 0 7 C-1 6 -1 6 -1.125 3.5 C-1 1 -1 1 0 0 Z " fill="#F69A59" transform="translate(37,49)"/>
<path d="M0 0 C0 0.66 0 1.32 0 2 C-0.99 2 -1.98 2 -3 2 C-3.33 3.32 -3.66 4.64 -4 6 C-4.99 5.34 -5.98 4.68 -7 4 C-3.375 0 -3.375 0 0 0 Z " fill="#26A19B" transform="translate(59,29)"/>
</svg>
