<?xml version="1.0" encoding="UTF-8"?>
<svg version="1.1" xmlns="http://www.w3.org/2000/svg" width="400" height="400">
<path d="M0 0 C132 0 264 0 400 0 C400 132 400 264 400 400 C268 400 136 400 0 400 C0 268 0 136 0 0 Z " fill="#192D3C" transform="translate(0,0)"/>
<path d="M0 0 C1.02867187 -0.01933594 2.05734375 -0.03867188 3.1171875 -0.05859375 C6.90395495 0.56597698 8.45517708 1.7035647 11.125 4.4375 C14.8280296 11.30165243 16.67013263 19.09647228 18.46508789 26.64282227 C20.02423901 33.18265897 21.80903711 39.65220383 23.625 46.125 C23.90972168 47.14561523 24.19444336 48.16623047 24.48779297 49.21777344 C26.58111199 56.66201234 28.82254474 64.0554397 31.125 71.4375 C31.33068604 70.70974365 31.53637207 69.9819873 31.74829102 69.23217773 C36.1440656 53.70255324 40.59855451 38.19718892 45.39501953 22.78564453 C45.85015465 21.32160119 46.30219677 19.8565883 46.74951172 18.39013672 C48.88526122 11.39345865 50.87014615 5.69235385 56.125 0.4375 C58.55078125 0.06640625 58.55078125 0.06640625 61.4375 0 C62.38238281 -0.03996094 63.32726562 -0.07992187 64.30078125 -0.12109375 C68.23453007 0.65695062 69.62656362 2.36020953 72.125 5.4375 C76.94789908 14.82946137 78.8871319 25.99575358 81.45727539 36.16552734 C83.8056742 45.40397309 86.53268201 54.46185331 89.51025391 63.51367188 C90.45452813 66.46874769 91.29191455 69.44934375 92.125 72.4375 C92.28057373 71.82455078 92.43614746 71.21160156 92.59643555 70.58007812 C95.41107546 59.53222913 98.26924728 48.53918586 101.7734375 37.6875 C102.8502414 34.34761052 103.85816028 30.990625 104.8515625 27.625 C105.15521729 26.60277344 105.45887207 25.58054688 105.77172852 24.52734375 C106.36632025 22.52117128 106.95566112 20.5134323 107.53881836 18.50390625 C111.88590808 3.93022794 111.88590808 3.93022794 117.125 0.4375 C122.26619935 -0.31855873 126.68318027 -0.32581633 131.3125 2.125 C134.63325855 8.19397253 133.83571979 15.29652013 132.33862305 21.9128418 C131.27205746 25.45747891 130.10432115 28.9460738 128.875 32.4375 C128.07737209 34.79141168 127.28049351 37.1455774 126.484375 39.5 C126.08621582 40.66184814 125.68805664 41.82369629 125.27783203 43.02075195 C122.46586136 51.35483277 120.01126748 59.79873478 117.5390625 68.23828125 C117.31226807 69.01122528 117.08547363 69.78416931 116.85180664 70.58053589 C116.62227295 71.36284576 116.39273926 72.14515564 116.15625 72.95117188 C115.92421875 73.74193115 115.6921875 74.53269043 115.453125 75.34741211 C114.98610503 76.94322583 114.52092137 78.53957815 114.05761719 80.13647461 C111.59418359 88.61824723 109.03360095 97.04946997 106.0234375 105.35546875 C105.79258453 106.01299637 105.56173157 106.67052399 105.32388306 107.34797668 C103.60562638 111.9461374 101.5871928 115.2064036 97.125 117.4375 C92.72704787 118.06988527 88.12200182 118.66173126 84.20703125 116.26171875 C77.06927457 108.5734924 75.29596547 96.72787262 72.55786133 86.92260742 C70.38325144 79.17645695 67.95653185 71.52464467 65.3972168 63.8972168 C63.69502808 58.70794928 62.61183972 53.88125324 62.125 48.4375 C61.465 48.4375 60.805 48.4375 60.125 48.4375 C60.02703125 49.37851563 59.9290625 50.31953125 59.828125 51.2890625 C59.10754992 56.31041261 57.46472184 61.01026759 55.875 65.8125 C55.23543563 67.7794467 54.59742964 69.74690075 53.9609375 71.71484375 C53.64737305 72.68405762 53.33380859 73.65327148 53.01074219 74.65185547 C51.77412918 78.54098294 50.62925128 82.45361868 49.5 86.375 C47.9171317 91.81203315 46.2968279 97.23414193 44.5625 102.625 C44.18996094 103.79417969 43.81742188 104.96335937 43.43359375 106.16796875 C41.50174734 110.99470142 39.48208807 114.53277462 35.125 117.4375 C29.99628179 118.19172327 25.5819659 118.39847751 21.1875 115.5 C15.67863251 107.32016646 13.2852271 97.81183682 10.5625 88.4375 C9.97995262 86.45018539 9.3956124 84.4634141 8.80982971 82.47705078 C8.27943862 80.6757453 7.75369832 78.87307227 7.22827148 77.0703125 C6.40891192 74.3723549 5.55404429 71.70422163 4.65454102 69.03320312 C3.17878656 64.64372897 1.83584375 60.22417741 0.53125 55.78125 C0.29845337 54.99407593 0.06565674 54.20690186 -0.17419434 53.39587402 C-1.15635153 50.07465142 -2.13490311 46.75236948 -3.11376953 43.43017578 C-3.8350002 40.98432566 -4.55808977 38.53903017 -5.28125 36.09375 C-5.49696655 35.35910522 -5.71268311 34.62446045 -5.93493652 33.86755371 C-8.40504847 24.96230037 -8.40504847 24.96230037 -11.875 16.4375 C-12.22841927 11.04785609 -12.284379 7.85706538 -8.875 3.4375 C-8.46636719 2.90640625 -8.05773437 2.3753125 -7.63671875 1.828125 C-5.10671798 -0.16894878 -3.18652955 0.00397323 0 0 Z " fill="#FAFBFB" transform="translate(153.875,151.5625)"/>
<path d="M0 0 C1.36259445 -0.01418472 1.36259445 -0.01418472 2.75271606 -0.02865601 C4.21679398 -0.01954697 4.21679398 -0.01954697 5.71044922 -0.01025391 C7.2312056 -0.01455917 7.2312056 -0.01455917 8.78268433 -0.01895142 C10.92951007 -0.0209925 13.07635439 -0.01545959 15.22314453 -0.00292969 C18.4823667 0.01302319 21.74032983 -0.00272552 24.99951172 -0.02197266 C27.09066026 -0.01998828 29.18180802 -0.0161406 31.27294922 -0.01025391 C32.23685577 -0.0163266 33.20076233 -0.02239929 34.19387817 -0.02865601 C44.21053502 0.07349151 53.09818237 2.19031898 60.39013672 9.38818359 C67.39248263 17.81957969 69.91508143 26.55884363 69.76513672 37.38818359 C69.77673828 38.22607422 69.78833984 39.06396484 69.80029297 39.92724609 C69.75473652 49.73706824 66.45549541 59.8259835 59.75732422 67.18115234 C52.66922124 73.61765841 45.00631956 75.52746193 35.55810547 75.48583984 C34.26582031 75.48261719 32.97353516 75.47939453 31.64208984 75.47607422 C30.28727146 75.46772024 28.93245375 75.45925531 27.57763672 75.45068359 C26.20328937 75.44566359 24.82894027 75.44110156 23.45458984 75.43701172 C20.09972748 75.42524027 16.7449545 75.40879643 13.39013672 75.38818359 C13.41108398 76.32090088 13.43203125 77.25361816 13.45361328 78.21459961 C13.52211068 81.70168086 13.57209118 85.18803901 13.60986328 88.67553711 C13.62988035 90.17988422 13.65710298 91.68415448 13.69189453 93.18823242 C13.74085617 95.36054521 13.76320325 97.53182266 13.78076172 99.70458984 C13.80170898 101.00855713 13.82265625 102.31252441 13.84423828 103.65600586 C13.28283881 108.27004551 11.97248434 110.55724487 9.39013672 114.38818359 C5.11234635 117.54622516 -0.54619968 117.12444329 -5.60986328 116.38818359 C-9.51428483 113.59931106 -11.21666489 110.90800924 -12.60986328 106.38818359 C-12.90676389 103.26247643 -12.90362411 100.14951657 -12.90039062 97.01147461 C-12.90710785 96.07428589 -12.91382507 95.13709717 -12.92074585 94.17150879 C-12.93971949 91.07831499 -12.94364953 87.98533818 -12.94580078 84.89208984 C-12.95222837 82.73884492 -12.9589567 80.58560087 -12.9659729 78.43235779 C-12.97794352 73.92078628 -12.98165386 69.40929134 -12.98046875 64.89770508 C-12.9802654 59.11946747 -13.00758561 53.34172079 -13.04201317 47.56359959 C-13.06425849 43.11717985 -13.06830704 38.67087879 -13.0672493 34.2244091 C-13.06960812 32.09416955 -13.07844745 29.96392686 -13.09391403 27.83374214 C-13.11352877 24.85357437 -13.10775377 21.87447236 -13.09570312 18.89428711 C-13.10694214 18.01669235 -13.11818115 17.1390976 -13.12976074 16.23490906 C-13.07400855 10.80392307 -12.26910462 7.66355377 -8.60986328 3.38818359 C-5.75077596 0.69106986 -3.90302607 0.01170449 0 0 Z " fill="#FAFBFB" transform="translate(64.60986328125,152.61181640625)"/>
<path d="M0 0 C1.155 0.50273438 2.31 1.00546875 3.5 1.5234375 C4.82470404 2.08656075 6.15025302 2.64769972 7.4765625 3.20703125 C8.48251465 3.63604736 8.48251465 3.63604736 9.50878906 4.07373047 C12.59227605 5.35082942 15.73477636 6.45690531 18.875 7.5859375 C34.811891 13.45382145 50.88725419 20.20142565 65.5 28.8984375 C66.33273437 29.38570312 67.16546875 29.87296875 68.0234375 30.375 C73.50577187 33.78096853 77.66716148 37.70523919 81.5 42.8984375 C81.93570313 43.47980469 82.37140625 44.06117188 82.8203125 44.66015625 C87.78860195 52.66848295 86.27432053 63.1830068 84.36450195 72.0012207 C82.6234213 79.19392447 80.05870552 85.68758105 76.76953125 92.32421875 C75.41815873 94.91730032 75.41815873 94.91730032 74.5 97.8984375 C73.84 97.8984375 73.18 97.8984375 72.5 97.8984375 C72.28085937 97.15980469 72.06171875 96.42117187 71.8359375 95.66015625 C64.35225953 71.71847104 46.77239872 51.80895862 25.5 38.8984375 C23.66893502 37.6797774 21.8531053 36.44010593 20.03637695 35.20019531 C14.56596119 31.47452705 9.03614621 27.98734244 3.25 24.7734375 C-12.44528416 15.98051126 -12.44528416 15.98051126 -16.5 9.8984375 C-16.9375 6.4609375 -16.9375 6.4609375 -16.5 2.8984375 C-12.05067594 -2.5241762 -6.15489973 -1.93714478 0 0 Z " fill="#F1A217" transform="translate(264.5,96.1015625)"/>
<path d="M0 0 C8.30149215 7.93628268 14.98645316 19.34421129 16 31 C16.144375 32.216875 16.28875 33.43375 16.4375 34.6875 C16.40909349 39.61129513 13.98119932 43.25843302 11.5078125 47.38671875 C9.97710336 49.89532367 9.97710336 49.89532367 9.0703125 52.33203125 C7.57880069 56.04992383 5.68314675 59.49576743 3.75 63 C3.38003906 63.69867188 3.01007813 64.39734375 2.62890625 65.1171875 C0.021342 69.83394195 -2.55368 72.91128971 -7 76 C-10.95154536 76.61317083 -12.98442348 76.59892975 -16.4375 74.5625 C-18.76196281 70.750381 -18.52606641 67.30140976 -18 63 C-16.6733919 57.84940076 -14.9742296 52.83969183 -13.25 47.8125 C-12.3544459 45.15398553 -11.46577852 42.4931928 -10.578125 39.83203125 C-10.35900452 39.17752991 -10.13988403 38.52302856 -9.91412354 37.84869385 C-6.66492665 28.07749909 -3.88742729 18.19894009 -1.75 8.125 C-1.57726562 7.32964844 -1.40453125 6.53429687 -1.2265625 5.71484375 C-0.81363199 3.81077529 -0.40616588 1.90552291 0 0 Z " fill="#F0A218" transform="translate(316,169)"/>
<path d="M0 0 C3.34125 -0.061875 6.6825 -0.12375 10.125 -0.1875 C11.68758545 -0.22846802 11.68758545 -0.22846802 13.28173828 -0.27026367 C20.0327541 -0.33064494 24.33949123 0.41474689 29.34765625 5.28125 C31.36220837 8.59597406 31.50507213 10.64388378 31.4375 14.5 C31.43621094 15.6034375 31.43492188 16.706875 31.43359375 17.84375 C30.94384023 21.40880265 30.26206475 23.2070913 28 26 C22.62819858 29.9059944 16.97332405 29.34599771 10.625 29.1875 C5.365625 29.0946875 5.365625 29.0946875 0 29 C0 19.43 0 9.86 0 0 Z " fill="#1D303D" transform="translate(78,176)"/>
<path d="M0 0 C0.66 0 1.32 0 2 0 C2.49644996 9.70835475 1.01172782 18.56403855 -1 28 C-1.66 28 -2.32 28 -3 28 C-2.65582031 29.51980469 -2.65582031 29.51980469 -2.3046875 31.0703125 C-1.94188785 35.74949777 -2.87720196 37.80262949 -5.125 41.875 C-5.72570312 43.00679687 -6.32640625 44.13859375 -6.9453125 45.3046875 C-9 48 -9 48 -11.7421875 48.8828125 C-12.48726563 48.92148438 -13.23234375 48.96015625 -14 49 C-14.38218767 50.65614657 -14.71395102 52.32457024 -15 54 C-14.67 54.33 -14.34 54.66 -14 55 C-13.6875 57.3125 -13.6875 57.3125 -14 60 C-15.875 62.3125 -15.875 62.3125 -18 64 C-18.66 64 -19.32 64 -20 64 C-19.7525 63.2575 -19.7525 63.2575 -19.5 62.5 C-17.24010861 51.20054305 -21.4873186 38.7823432 -27.73681641 29.38964844 C-29.47050182 26.91070968 -31.22235243 24.44756043 -33 22 C-33.21765015 22.97102661 -33.21765015 22.97102661 -33.43969727 23.96166992 C-36.83475351 38.96102049 -40.8494047 53.5082363 -46 68 C-47.91814142 60.84809942 -46.2497612 54.4995224 -43 48 C-42.34 47.01 -41.68 46.02 -41 45 C-39.85748402 40.9059844 -39.08648602 36.72857422 -38.25 32.5625 C-37.88068359 30.84450195 -37.88068359 30.84450195 -37.50390625 29.09179688 C-37.28089844 27.99029297 -37.05789063 26.88878906 -36.828125 25.75390625 C-36.5172998 24.24292358 -36.5172998 24.24292358 -36.20019531 22.70141602 C-35.98121571 19.74652667 -36.42228125 18.46069923 -38 16 C-37.34 15.67 -36.68 15.34 -36 15 C-35.49615665 12.25396533 -35.49615665 12.25396533 -36 9 C-37.80053619 6.66246179 -39.7607802 4.95931733 -42 3 C-41.67 2.34 -41.34 1.68 -41 1 C-28.52286853 12.51240481 -14.18711378 28.19329332 -13 46 C-12.34 46 -11.68 46 -11 46 C-10.88269531 45.27425781 -10.76539063 44.54851562 -10.64453125 43.80078125 C-9.98849261 40.94999516 -9.01028685 38.78802524 -7.6875 36.1875 C-2.32798901 24.62959803 -0.3951249 12.64399668 0 0 Z " fill="#313222" transform="translate(350,148)"/>
<path d="M0 0 C7.55379848 1.99561584 14.42200198 4.83320991 21.4375 8.25 C22.95537109 8.98524902 22.95537109 8.98524902 24.50390625 9.73535156 C36.81309986 15.77464907 49.15655039 22.01990516 55.1171875 35.0859375 C59.56583133 49.77039898 53.78960111 66.27009598 47.26953125 79.42578125 C45.91815873 82.01886282 45.91815873 82.01886282 45 85 C44.34 85 43.68 85 43 85 C41 79 39 73 37 67 C37.66 67 38.32 67 39 67 C41.04169485 69.90548882 42 71.40142046 42 75 C42.66 75 43.32 75 44 75 C44 73.35 44 71.7 44 70 C45.65 70.66 47.3 71.32 49 72 C49.13277344 71.21753906 49.26554687 70.43507813 49.40234375 69.62890625 C49.57894531 68.61699219 49.75554687 67.60507813 49.9375 66.5625 C50.11152344 65.55316406 50.28554688 64.54382813 50.46484375 63.50390625 C51 61 51 61 52 60 C52.29289936 57.24260403 52.51609871 54.51527408 52.6875 51.75 C52.74744141 50.98558594 52.80738281 50.22117188 52.86914062 49.43359375 C53.14688602 45.02771476 52.93613646 42.06514475 51 38 C51 37.01 51 36.02 51 35 C50.34 35 49.68 35 49 35 C48.87625 33.865625 48.7525 32.73125 48.625 31.5625 C48.41875 30.386875 48.2125 29.21125 48 28 C47.34 27.67 46.68 27.34 46 27 C46 26.34 46 25.68 46 25 C44.68 24.34 43.36 23.68 42 23 C42 22.34 42 21.68 42 21 C41.05125 20.87625 40.1025 20.7525 39.125 20.625 C35.41260114 19.88252023 34.60914848 18.60914848 32 16 C30.989375 15.835 29.97875 15.67 28.9375 15.5 C27.968125 15.335 26.99875 15.17 26 15 C25.67 14.34 25.34 13.68 25 13 C20.70281375 10.44215104 16.95621512 9.49562151 12 9 C12 8.34 12 7.68 12 7 C11.01 7 10.02 7 9 7 C9 6.01 9 5.02 9 4 C4.545 3.01 4.545 3.01 0 2 C0 1.34 0 0.68 0 0 Z " fill="#DCA032" transform="translate(294,109)"/>
<path d="M0 0 C2 3.75 2 3.75 2 6 C3.32 5.67 4.64 5.34 6 5 C5.34 6.65 4.68 8.3 4 10 C3.34 10 2.68 10 2 10 C2 11.32 2 12.64 2 14 C2.45375 13.505 2.9075 13.01 3.375 12.5 C5 11 5 11 7 11 C8.45035633 13.4427054 9.13999776 15.20414319 8.640625 18.04296875 C7.51369168 21.48011536 6.734818 23.50350135 3.6875 25.5625 C0.45430963 26.08883332 -1.85253902 25.9092665 -5 25 C-7.45666765 21.31499853 -7.58547939 18.28186418 -7 14 C-5.625 11.9375 -5.625 11.9375 -4 10 C-3.26739841 7.68652128 -2.588562 5.354248 -2 3 C-1.34 3 -0.68 3 0 3 C0 2.01 0 1.02 0 0 Z " fill="#EFA11A" transform="translate(307,218)"/>
<path d="M0 0 C1.32 0 2.64 0 4 0 C4.53625 0.61875 5.0725 1.2375 5.625 1.875 C8.77152525 4.69031207 11.56769198 4.94698202 15.66015625 5.60546875 C18 6 18 6 21 7 C21 7.66 21 8.32 21 9 C21.66 9 22.32 9 23 9 C23.103125 9.639375 23.20625 10.27875 23.3125 10.9375 C23.539375 11.618125 23.76625 12.29875 24 13 C24.99 13.33 25.98 13.66 27 14 C27.6875 16.0625 27.6875 16.0625 28 18 C28.969375 18.12375 29.93875 18.2475 30.9375 18.375 C32.4534375 18.684375 32.4534375 18.684375 34 19 C34.495 19.99 34.495 19.99 35 21 C35.99 21 36.98 21 38 21 C38 21.66 38 22.32 38 23 C38.66 23 39.32 23 40 23 C40.33 22.34 40.66 21.68 41 21 C40.97679687 21.62648437 40.95359375 22.25296875 40.9296875 22.8984375 C40.91164063 23.71570313 40.89359375 24.53296875 40.875 25.375 C40.85179687 26.18710938 40.82859375 26.99921875 40.8046875 27.8359375 C40.78629949 30.21342243 40.78629949 30.21342243 43 32 C42.67 32.99 42.34 33.98 42 35 C41.54786133 34.52691406 41.09572266 34.05382812 40.62988281 33.56640625 C31.94313224 24.53183343 23.75111993 16.50499943 13 10 C10.56130799 8.38564511 8.15438614 6.72737706 5.75 5.0625 C5.17604492 4.67191406 4.60208984 4.28132812 4.01074219 3.87890625 C2.65519808 2.94577201 1.32469746 1.97643022 0 1 C0 0.67 0 0.34 0 0 Z " fill="#DFA02D" transform="translate(277,125)"/>
<path d="M0 0 C1.32 0 2.64 0 4 0 C4 0.66 4 1.32 4 2 C4.66 2 5.32 2 6 2 C6 3.98 6 5.96 6 8 C6.66 8 7.32 8 8 8 C8 8.99 8 9.98 8 11 C8.66 11 9.32 11 10 11 C11.40944604 17.14115777 12.11442967 22.70636827 12 29 C12.33 29.33 12.66 29.66 13 30 C13.3125 32.3125 13.3125 32.3125 13 35 C11.125 37.3125 11.125 37.3125 9 39 C8.34 39 7.68 39 7 39 C7.165 38.505 7.33 38.01 7.5 37.5 C9.13772176 29.31139122 7.49296696 22.04103805 4 14.625 C1.78527237 9.88978011 0.81569762 5.14104159 0 0 Z " fill="#1E2C2F" transform="translate(323,173)"/>
<path d="M0 0 C1.65 0.33 3.3 0.66 5 1 C4.01 1.7734375 4.01 1.7734375 3 2.5625 C0.71661832 4.93019475 0.71661832 4.93019475 0.4375 8.4375 C1.20634157 13.30682995 3.68202392 15.30413425 7.61010742 18.17797852 C9.34421885 19.34296362 11.10068247 20.45980592 12.875 21.5625 C13.46152344 21.93568359 14.04804688 22.30886719 14.65234375 22.69335938 C18.70132176 25.25177954 22.82838442 27.64746487 27 30 C24.39417629 30.93065133 23.35801776 31.14917407 20.75 30.0625 C19.88375 29.5365625 19.88375 29.5365625 19 29 C19 28.34 19 27.68 19 27 C18.236875 27.04125 17.47375 27.0825 16.6875 27.125 C14 27 14 27 11 25 C9.824375 25 8.64875 25 7.4375 25 C6.303125 25 5.16875 25 4 25 C1.24433749 22.24433749 1.54065767 19.78460367 1 16 C0.34 15.34 -0.32 14.68 -1 14 C-1.23046875 11.25 -1.23046875 11.25 -1.1875 8 C-1.18105469 6.9275 -1.17460937 5.855 -1.16796875 4.75 C-1 2 -1 2 0 0 Z " fill="#1E353D" transform="translate(248,94)"/>
<path d="M0 0 C0.33 0 0.66 0 1 0 C1.2012567 11.31509887 1.2012567 11.31509887 0 16 C-0.66 16.33 -1.32 16.66 -2 17 C-2.68939809 19.32671854 -3.35466922 21.66067594 -4 24 C-4.66 24.99 -5.32 25.98 -6 27 C-6.5465899 30.52089079 -6.56591271 33.83280503 -5 37.0625 C-1.63210163 38.64120236 1.40064052 37.64906482 5 37 C3.9375 38.5 3.9375 38.5 2 40 C-1.82540234 40.48686939 -4.08477323 40.53974912 -7.4375 38.5625 C-9.75175217 34.76712645 -9.51488997 31.28401916 -9 27 C-7.75538856 22.2199913 -6.14789155 17.59168019 -4.5 12.9375 C-3.85611328 11.06674805 -3.85611328 11.06674805 -3.19921875 9.15820312 C-2.14500931 6.10099575 -1.07838929 3.0487442 0 0 Z " fill="#CF9833" transform="translate(307,205)"/>
<path d="M0 0 C1.32 0.33 2.64 0.66 4 1 C2.75170722 6.20121992 1.07698535 9.5554656 -2 14 C-4.05531853 17.63710779 -6.03272694 21.3146418 -8 25 C-9.04449911 21.86650268 -8.93423645 21.01031744 -8 18 C-8.33 18 -8.66 18 -9 18 C-9.3125 15.3125 -9.3125 15.3125 -9 12 C-6.625 9.125 -6.625 9.125 -4 7 C-3.34 7 -2.68 7 -2 7 C-1.34 4.69 -0.68 2.38 0 0 Z " fill="#EFA11E" transform="translate(323,215)"/>
<path d="M0 0 C0.33 0 0.66 0 1 0 C1.33 31.02 1.66 62.04 2 94 C1.01 94 0.02 94 -1 94 C-0.67 62.98 -0.34 31.96 0 0 Z " fill="#162632" transform="translate(50,168)"/>
<path d="M0 0 C2 2 2 2 2.5 5.0625 C2.665 6.031875 2.83 7.00125 3 8 C3.66 8.33 4.32 8.66 5 9 C4.55187982 11.1479894 4.09121652 13.29336561 3.625 15.4375 C3.36976563 16.63246094 3.11453125 17.82742187 2.8515625 19.05859375 C2.43003906 20.51458984 2.43003906 20.51458984 2 22 C1.34 22.33 0.68 22.66 0 23 C-0.69969682 20.75376301 -1.38435043 18.50283586 -2.0625 16.25 C-2.44535156 14.99703125 -2.82820312 13.7440625 -3.22265625 12.453125 C-4.25467264 7.86869036 -3.70286448 6.23704149 -1.4375 2.25 C-0.7259375 1.13625 -0.7259375 1.13625 0 0 Z " fill="#2B3940" transform="translate(184,201)"/>
<path d="M0 0 C7.6153431 6.71942038 11.63336681 15.24282808 14 25 C12.02 24.01 10.04 23.02 8 22 C8 20.68 8 19.36 8 18 C7.34 18 6.68 18 6 18 C5.67 17.01 5.34 16.02 5 15 C4.01 15.495 4.01 15.495 3 16 C2.67 12.37 2.34 8.74 2 5 C1.01 6.32 0.02 7.64 -1 9 C-0.67 6.03 -0.34 3.06 0 0 Z " fill="#ECA124" transform="translate(316,169)"/>
<path d="M0 0 C1.171875 3.6640625 1.171875 3.6640625 -0.375 6.6875 C-1.91714008 9.83109323 -2.19831721 11.26250566 -2.375 14.625 C-2.70355093 18.71135222 -2.70355093 18.71135222 -5.375 21.3125 C-6.24125 21.869375 -7.1075 22.42625 -8 23 C-9.02028865 24.31787285 -10.01971384 25.65210653 -11 27 C-12.64740076 28.6857124 -14.31066078 30.3563186 -16 32 C-16.66 31.67 -17.32 31.34 -18 31 C-17.63648438 30.55011719 -17.27296875 30.10023438 -16.8984375 29.63671875 C-9.83191952 20.5951996 -5.04691338 10.25489847 0 0 Z " fill="#362F1E" transform="translate(329,212)"/>
<path d="M0 0 C0.33 0 0.66 0 1 0 C2.04896695 16.52122949 -4.63810824 32.64898527 -10 48 C-11.91814142 40.84809942 -10.2497612 34.4995224 -7 28 C-6.34 27.01 -5.68 26.02 -5 25 C-4.50422596 23.09541611 -4.08369055 21.17071154 -3.7109375 19.23828125 C-3.38222656 17.56088867 -3.38222656 17.56088867 -3.046875 15.84960938 C-2.82515625 14.68236328 -2.6034375 13.51511719 -2.375 12.3125 C-2.14554687 11.13365234 -1.91609375 9.95480469 -1.6796875 8.74023438 C-1.11373519 5.82793809 -0.55410083 2.91457036 0 0 Z " fill="#332E1B" transform="translate(314,168)"/>
<path d="M0 0 C1.03613937 0.00565979 2.07227875 0.01131958 3.13981628 0.01715088 C6.44134183 0.03949834 9.74177256 0.08969322 13.04296875 0.140625 C15.28448951 0.16069204 17.52602732 0.17894245 19.76757812 0.1953125 C25.25558035 0.23935767 30.74294632 0.30625382 36.23046875 0.390625 C36.23046875 0.720625 36.23046875 1.050625 36.23046875 1.390625 C34.91852539 1.39473389 33.60658203 1.39884277 32.25488281 1.40307617 C27.38664477 1.42485023 22.51921696 1.47912232 17.65136719 1.54321289 C15.54467535 1.56640791 13.43786731 1.58079212 11.33105469 1.58618164 C8.30199642 1.59546009 5.27476971 1.63642677 2.24609375 1.68359375 C1.3042926 1.6796611 0.36249146 1.67572845 -0.60784912 1.67167664 C-6.08830484 1.72381074 -6.08830484 1.72381074 -10.39550781 4.93481445 C-10.84893555 5.74523193 -11.30236328 6.55564941 -11.76953125 7.390625 C-13.08953125 6.400625 -14.40953125 5.410625 -15.76953125 4.390625 C-11.08367993 -0.67658185 -6.43895892 -0.13263331 0 0 Z " fill="#E6EEF3" transform="translate(70.76953125,152.609375)"/>
<path d="M0 0 C2.66666667 0.66666667 5.33333333 1.33333333 8 2 C8 2.66 8 3.32 8 4 C8.66 4 9.32 4 10 4 C10.33 3.34 10.66 2.68 11 2 C10.96519531 2.93972656 10.96519531 2.93972656 10.9296875 3.8984375 C10.91164063 4.71570313 10.89359375 5.53296875 10.875 6.375 C10.85179687 7.18710938 10.82859375 7.99921875 10.8046875 8.8359375 C10.78629949 11.21342243 10.78629949 11.21342243 13 13 C12.67 13.99 12.34 14.98 12 16 C10.53238987 14.61392377 9.07625811 13.21568805 7.625 11.8125 C6.81289063 11.03519531 6.00078125 10.25789062 5.1640625 9.45703125 C2.99344872 6.99256182 2.02681698 5.08563688 1 2 C0.67 1.34 0.34 0.68 0 0 Z " fill="#F0A11F" transform="translate(307,144)"/>
<path d="M0 0 C1.28536388 3.85609164 0.39503318 5.32929943 -0.9375 9.125 C-2.74855234 14.75938506 -3.66494904 19.11045135 -3 25 C-1.84278144 26.81871993 -1.84278144 26.81871993 0 28 C2.28330101 28.36146457 2.28330101 28.36146457 4.6875 28.1875 C5.49574219 28.16042969 6.30398438 28.13335937 7.13671875 28.10546875 C8.05904297 28.05326172 8.05904297 28.05326172 9 28 C8.34 28.99 7.68 29.98 7 31 C0.875 31.4375 0.875 31.4375 -2 30 C-2 29.34 -2 28.68 -2 28 C-2.66 28 -3.32 28 -4 28 C-5.50930882 24.98138236 -5.18438844 21.87008697 -5.1875 18.5625 C-5.19974609 17.88123047 -5.21199219 17.19996094 -5.22460938 16.49804688 C-5.23555848 12.77170191 -5.12005619 11.18008429 -3 8 C-2.31744011 5.67126625 -1.64949225 3.33817209 -1 1 C-0.67 0.67 -0.34 0.34 0 0 Z " fill="#372E14" transform="translate(302,216)"/>
<path d="M0 0 C4.45407065 1.51824254 8.04103165 3.94154353 11.8125 6.6875 C12.42689941 7.13013184 13.04129883 7.57276367 13.67431641 8.02880859 C18.3474051 11.43357546 22.78016266 15.04226436 27 19 C26.34 19.33 25.68 19.66 25 20 C24.566875 19.525625 24.13375 19.05125 23.6875 18.5625 C21.97690387 16.76313043 21.97690387 16.76313043 19 16 C18.360625 15.34 17.72125 14.68 17.0625 14 C14.94325285 11.94497246 13.86252086 11.40893155 11 11 C11 10.01 11 9.02 11 8 C9.68 8 8.36 8 7 8 C7 7.01 7 6.02 7 5 C4.69 4.67 2.38 4.34 0 4 C0 2.68 0 1.36 0 0 Z " fill="#36351E" transform="translate(281,129)"/>
<path d="M0 0 C4 0 4 0 6 1 C6.625 3.0625 6.625 3.0625 7 5 C8.65 5.33 10.3 5.66 12 6 C12 6.99 12 7.98 12 9 C13.32 9.33 14.64 9.66 16 10 C16 10.66 16 11.32 16 12 C17.5778125 12.061875 17.5778125 12.061875 19.1875 12.125 C24.18472055 13.27190308 25.12285398 14.90224658 28 19 C18.25708152 15.26346854 8.90149773 9.83727387 1 3 C0.67 2.01 0.34 1.02 0 0 Z " fill="#D29F3C" transform="translate(249,106)"/>
<path d="M0 0 C0.66 0 1.32 0 2 0 C2.49644996 9.70835475 1.01172782 18.56403855 -1 28 C-1.66 28 -2.32 28 -3 28 C-3 29.65 -3 31.3 -3 33 C-3.99 33 -4.98 33 -6 33 C-5.80664062 32.46632812 -5.61328125 31.93265625 -5.4140625 31.3828125 C-1.78364286 20.99478008 -0.60078196 10.97217571 0 0 Z " fill="#403A20" transform="translate(350,148)"/>
<path d="M0 0 C0.66 0 1.32 0 2 0 C2.99 5.28 3.98 10.56 5 16 C3.35 16 1.7 16 0 16 C0 15.01 0 14.02 0 13 C-0.66 13 -1.32 13 -2 13 C-1.34 8.71 -0.68 4.42 0 0 Z " fill="#192A35" transform="translate(214,200)"/>
<path d="M0 0 C0.99 0 1.98 0 3 0 C3 0.99 3 1.98 3 3 C2.01 3.495 2.01 3.495 1 4 C1.61488281 4.19335938 2.22976563 4.38671875 2.86328125 4.5859375 C4.07564453 4.97652344 4.07564453 4.97652344 5.3125 5.375 C6.11300781 5.63023438 6.91351563 5.88546875 7.73828125 6.1484375 C10 7 10 7 13 9 C13 9.66 13 10.32 13 11 C5.55697903 8.60309494 -1.71837152 5.84737559 -9 3 C-9 2.67 -9 2.34 -9 2 C-6.94921875 1.77213542 -4.8984375 1.54427083 -2.84765625 1.31640625 C-0.98859771 1.18113386 -0.98859771 1.18113386 0 0 Z " fill="#454224" transform="translate(285,99)"/>
<path d="M0 0 C7.06512428 1.9826089 13.83726835 4.407044 20.625 7.1875 C21.53378906 7.55552734 22.44257813 7.92355469 23.37890625 8.30273438 C25.58759559 9.19783479 27.79455048 10.0969535 30 11 C30 11.33 30 11.66 30 12 C25.78121808 12.19622241 22.82989106 11.80230168 19 10 C19 9.34 19 8.68 19 8 C17.35 8 15.7 8 14 8 C14 7.34 14 6.68 14 6 C13.40832031 5.87882812 12.81664062 5.75765625 12.20703125 5.6328125 C7.96196415 4.73255357 3.97560339 3.79543379 0 2 C0 1.34 0 0.68 0 0 Z " fill="#D89E3B" transform="translate(264,97)"/>
<path d="M0 0 C1.65 0.33 3.3 0.66 5 1 C4.01 1.7734375 4.01 1.7734375 3 2.5625 C0.71661832 4.93019475 0.71661832 4.93019475 0.4375 8.4375 C1.15143198 12.95906921 2.47063096 14.16115968 6 17 C7.96602371 18.40890692 9.94934265 19.71237794 12 21 C10.68 21.33 9.36 21.66 8 22 C8 21.34 8 20.68 8 20 C6.02 20 4.04 20 2 20 C1.690625 19.195625 1.38125 18.39125 1.0625 17.5625 C0.23664655 15.10919595 0.23664655 15.10919595 -1 14 C-1.09900199 12.02287193 -1.12970773 10.04209962 -1.125 8.0625 C-1.12757813 6.98097656 -1.13015625 5.89945312 -1.1328125 4.78515625 C-1 2 -1 2 0 0 Z " fill="#3B3921" transform="translate(248,94)"/>
<path d="M0 0 C0.8723412 2.99480917 1.10829766 5.63575911 1.0625 8.75 C1.05347656 9.54921875 1.04445313 10.3484375 1.03515625 11.171875 C1.01775391 12.07679688 1.01775391 12.07679688 1 13 C0.34 13 -0.32 13 -1 13 C-1.66 17.29 -2.32 21.58 -3 26 C-3.99 25.67 -4.98 25.34 -6 25 C-5.73445313 23.94941406 -5.46890625 22.89882812 -5.1953125 21.81640625 C-3.36816609 14.56308403 -1.56747641 7.31488991 0 0 Z " fill="#C69435" transform="translate(314,178)"/>
<path d="M0 0 C-1.77945087 4.04420651 -4.39529673 7.46078487 -7 11 C-7.33 9.68 -7.66 8.36 -8 7 C-8.66 7 -9.32 7 -10 7 C-9.67 5.02 -9.34 3.04 -9 1 C-8.34 1.33 -7.68 1.66 -7 2 C-4 0 -4 0 0 0 Z " fill="#20323F" transform="translate(58,153)"/>
<path d="M0 0 C2.11626861 3.4389365 2.47116864 5.9950666 2 10 C0.90376113 12.63529344 -0.36042932 14.6109113 -2 17 C-2.99 17.33 -3.98 17.66 -5 18 C-3.36959185 11.98922864 -1.72852643 5.98336072 0 0 Z " fill="#323E47" transform="translate(266,234)"/>
<path d="M0 0 C0.66 0.33 1.32 0.66 2 1 C1.719172 2.98073365 1.42503386 4.95958448 1.125 6.9375 C0.96257812 8.03964844 0.80015625 9.14179688 0.6328125 10.27734375 C0.42398438 11.17582031 0.21515625 12.07429687 0 13 C-0.99 13.495 -0.99 13.495 -2 14 C-4.42857143 5.57142857 -4.42857143 5.57142857 -3 1 C-2.01 0.67 -1.02 0.34 0 0 Z " fill="#24323B" transform="translate(247,211)"/>
<path d="M0 0 C2.40820361 2.40820361 2.68097423 3.65022937 3 7 C2.0625 9.3125 2.0625 9.3125 1 11 C0.01 10.67 -0.98 10.34 -2 10 C-2.33 10.99 -2.66 11.98 -3 13 C-4.07763474 8.50985524 -4.37757467 6.66989054 -2.0625 2.5625 C-1.381875 1.716875 -0.70125 0.87125 0 0 Z " fill="#213543" transform="translate(184,201)"/>
<path d="M0 0 C0.66 0 1.32 0 2 0 C2.98669759 1.89192475 3.9640602 3.78871978 4.9375 5.6875 C5.48277344 6.74324219 6.02804687 7.79898438 6.58984375 8.88671875 C7.8470576 11.66234047 8.56069569 14.00272126 9 17 C7.02 16.01 5.04 15.02 3 14 C3.020625 12.9275 3.04125 11.855 3.0625 10.75 C3.0142016 7.85209576 2.86844115 5.71387859 2 3 C1.01 3.33 0.02 3.66 -1 4 C-0.67 2.68 -0.34 1.36 0 0 Z " fill="#D19A38" transform="translate(321,177)"/>
<path d="M0 0 C1.32 0 2.64 0 4 0 C4 0.66 4 1.32 4 2 C4.66 2.33 5.32 2.66 6 3 C5.01 3 4.02 3 3 3 C3 4.32 3 5.64 3 7 C3.66 7.33 4.32 7.66 5 8 C5.70491267 10.32206525 6.37212429 12.65593068 7 15 C7.33 15.33 7.66 15.66 8 16 C8.04063832 17.66617115 8.042721 19.33388095 8 21 C2.55716321 15.55716321 1.16454327 7.3396872 0 0 Z " fill="#2A2E24" transform="translate(323,173)"/>
<path d="M0 0 C6.61242722 1.82221376 12.80520671 4.05223604 19 7 C19 7.66 19 8.32 19 9 C16.69 9 14.38 9 12 9 C12 8.34 12 7.68 12 7 C11.01 7 10.02 7 9 7 C9 6.01 9 5.02 9 4 C4.545 3.01 4.545 3.01 0 2 C0 1.34 0 0.68 0 0 Z " fill="#D99E37" transform="translate(294,109)"/>
<path d="M0 0 C0.66 0 1.32 0 2 0 C3.1875 1.5 3.1875 1.5 4 4 C3.27101296 6.78824238 2.1843275 9.37665092 1 12 C-1.17854707 8.7321794 -2.49760034 5.61941735 -4 2 C-2.68 2 -1.36 2 0 2 C0 1.34 0 0.68 0 0 Z " fill="#26353E" transform="translate(228,153)"/>
<path d="M0 0 C0.33 0 0.66 0 1 0 C1.03738281 0.68707031 1.07476562 1.37414062 1.11328125 2.08203125 C1.17902344 2.98308594 1.24476563 3.88414062 1.3125 4.8125 C1.37050781 5.70582031 1.42851562 6.59914062 1.48828125 7.51953125 C2.07530319 10.36501926 2.59662489 11.38318401 5 13 C7.07060488 13.14787017 7.07060488 13.14787017 9.1875 12.6875 C10.445625 12.460625 11.70375 12.23375 13 12 C11.9375 13.5 11.9375 13.5 10 15 C6.17459766 15.48686939 3.91522677 15.53974912 0.5625 13.5625 C-1.71978996 9.81954446 -1.50455052 6.28454373 -1 2 C-0.67 1.34 -0.34 0.68 0 0 Z " fill="#C79842" transform="translate(299,230)"/>
<path d="M0 0 C3.3 0.33 6.6 0.66 10 1 C10.33 1.99 10.66 2.98 11 4 C13.09719872 5.02281518 13.09719872 5.02281518 15.5625 5.6875 C16.38878906 5.93886719 17.21507812 6.19023438 18.06640625 6.44921875 C18.70449219 6.63097656 19.34257812 6.81273438 20 7 C20 7.66 20 8.32 20 9 C13.06001352 6.83836487 6.56882431 4.1063786 0 1 C0 0.67 0 0.34 0 0 Z " fill="#3B381F" transform="translate(299,110)"/>
<path d="M0 0 C2.49505962 2.49505962 2.35948376 3.67328888 2.625 7.125 C2.69976562 8.03507813 2.77453125 8.94515625 2.8515625 9.8828125 C2.90054687 10.58148438 2.94953125 11.28015625 3 12 C2.01 12 1.02 12 0 12 C-0.39063507 10.56666979 -0.76198474 9.12807321 -1.125 7.6875 C-1.33382813 6.88699219 -1.54265625 6.08648437 -1.7578125 5.26171875 C-2 3 -2 3 0 0 Z " fill="#F2A30D" transform="translate(309,212)"/>
<path d="M0 0 C0.33 0 0.66 0 1 0 C1.09688221 5.44693314 1.12862175 10.63904667 0 16 C-0.99 16.33 -1.98 16.66 -3 17 C-2.88506243 15.10353002 -2.75760358 13.20781668 -2.625 11.3125 C-2.55539062 10.25675781 -2.48578125 9.20101562 -2.4140625 8.11328125 C-2.01239911 5.09322731 -1.25930981 2.75921946 0 0 Z " fill="#EBA321" transform="translate(307,205)"/>
<path d="M0 0 C2.0625 0.4375 2.0625 0.4375 4 1 C2.75696561 6.17930997 1.14512215 9.70166639 -2 14 C-3.11742945 10.64771164 -2.84727505 9.26870332 -2.125 5.875 C-1.94195312 4.98554688 -1.75890625 4.09609375 -1.5703125 3.1796875 C-1 1 -1 1 0 0 Z " fill="#D79C33" transform="translate(323,215)"/>
<path d="M0 0 C0.99 0.66 1.98 1.32 3 2 C-0.96 2 -4.92 2 -9 2 C-9.99 4.97 -10.98 7.94 -12 11 C-12.33 11 -12.66 11 -13 11 C-13.60247445 4.73426573 -13.60247445 4.73426573 -11 1.5625 C-6.92234607 -0.56127809 -4.57125835 -0.44237984 0 0 Z " fill="#C19B44" transform="translate(261,95)"/>
<path d="M0 0 C2.3221027 6.96630811 -2.99265225 15.67999001 -6 22 C-6.33 22 -6.66 22 -7 22 C-7 20.02 -7 18.04 -7 16 C-6.34 16 -5.68 16 -5 16 C-4.89042969 15.26394531 -4.78085937 14.52789062 -4.66796875 13.76953125 C-3.09314587 4.07732865 -3.09314587 4.07732865 0 0 Z " fill="#CB9A3A" transform="translate(348,165)"/>
<path d="M0 0 C0.99 0 1.98 0 3 0 C3 0.66 3 1.32 3 2 C3.66 2.33 4.32 2.66 5 3 C4.1875 5.9375 4.1875 5.9375 3 9 C2.01 9.33 1.02 9.66 0 10 C-1.125 3.375 -1.125 3.375 0 0 Z " fill="#273844" transform="translate(241,202)"/>
<path d="M0 0 C3.53647504 1.67517239 4.7911563 2.49280817 6.3125 6.1875 C6.539375 7.115625 6.76625 8.04375 7 9 C5.35 9 3.7 9 2 9 C0.14223235 5.86501708 -0.20140476 3.62528568 0 0 Z " fill="#212E3D" transform="translate(318,163)"/>
<path d="M0 0 C0 3.99904969 -1.72586967 5.80200422 -4 9 C-6.15377564 6.37801226 -7.40072174 4.35595828 -8 1 C-5.07175348 0.02391783 -3.04386724 -0.08226668 0 0 Z " fill="#263A47" transform="translate(145,153)"/>
<path d="M0 0 C0.33 0 0.66 0 1 0 C2.75876545 8.79382724 2.56320239 14.34033884 -2 22 C-3.13583456 18.28272326 -2.66670026 16.52948291 -1 13 C-0.34 13 0.32 13 1 13 C0.835 12.34 0.67 11.68 0.5 11 C-0.12183299 7.26900206 -0.06408926 3.78126622 0 0 Z " fill="#CF9C3B" transform="translate(330,194)"/>
<path d="M0 0 C1.32 0.33 2.64 0.66 4 1 C4 2.32 4 3.64 4 5 C4.99 5 5.98 5 7 5 C7.69965443 6.26418246 8.38434763 7.53665402 9.0625 8.8125 C9.44535156 9.52019531 9.82820313 10.22789062 10.22265625 10.95703125 C11 13 11 13 10 16 C8.3305554 13.52266346 6.66433808 11.04326339 5 8.5625 C4.28457031 7.50192383 4.28457031 7.50192383 3.5546875 6.41992188 C3.10351562 5.74638672 2.65234375 5.07285156 2.1875 4.37890625 C1.76855469 3.7557251 1.34960938 3.13254395 0.91796875 2.49047852 C0 1 0 1 0 0 Z " fill="#D2A338" transform="translate(320,160)"/>
<path d="M0 0 C1.65 0 3.3 0 5 0 C4.67 0.99 4.34 1.98 4 3 C3.01 3 2.02 3 1 3 C0.40267181 5.76264289 0 8.16032769 0 11 C-0.99 10.34 -1.98 9.68 -3 9 C-2.44271087 5.65626525 -1.64826111 2.96687001 0 0 Z " fill="#EBA223" transform="translate(252,97)"/>
<path d="M0 0 C2.375 -0.1875 2.375 -0.1875 5 0 C5.66 0.99 6.32 1.98 7 3 C6.67 3.33 6.34 3.66 6 4 C6.99 4.66 7.98 5.32 9 6 C6.03 6 3.06 6 0 6 C-0.33 5.01 -0.66 4.02 -1 3 C-0.34 2.67 0.32 2.34 1 2 C0.67 1.34 0.34 0.68 0 0 Z " fill="#314554" transform="translate(149,146)"/>
<path d="M0 0 C0.66 0 1.32 0 2 0 C1.67 3.3 1.34 6.6 1 10 C-2 10 -2 10 -5 8 C-4.21718695 6.66144944 -3.42348123 5.32926356 -2.625 4 C-2.18414062 3.2575 -1.74328125 2.515 -1.2890625 1.75 C-0.86367187 1.1725 -0.43828125 0.595 0 0 Z " fill="#2B3741" transform="translate(196,259)"/>
<path d="M0 0 C0.99 0 1.98 0 3 0 C3 1.65 3 3.3 3 5 C3.66 5 4.32 5 5 5 C4.67 7.31 4.34 9.62 4 12 C1.49484216 9.49484216 0.94900914 7.38931835 0 4 C0 2.68 0 1.36 0 0 Z " fill="#1D2E39" transform="translate(326,176)"/>
<path d="M0 0 C0.66 0 1.32 0 2 0 C4.47272727 7.56363636 4.47272727 7.56363636 3 11 C2.01 12.485 2.01 12.485 1 14 C0.34 14 -0.32 14 -1 14 C-0.83628906 13.44828125 -0.67257812 12.8965625 -0.50390625 12.328125 C0.05760414 9.73385993 0.09739008 7.40164589 0.0625 4.75 C0.05347656 3.85796875 0.04445313 2.9659375 0.03515625 2.046875 C0.02355469 1.37140625 0.01195312 0.6959375 0 0 Z " fill="#3E3C21" transform="translate(331,198)"/>
<path d="M0 0 C5.67276511 -0.29341888 8.99067246 -0.00559652 14 3 C14 3.66 14 4.32 14 5 C9.38 4.01 4.76 3.02 0 2 C0 1.34 0 0.68 0 0 Z " fill="#37381F" transform="translate(254,93)"/>
<path d="M0 0 C0.66 0.33 1.32 0.66 2 1 C1.50769231 8.38461538 1.50769231 8.38461538 -1.0625 11.5 C-1.701875 11.995 -2.34125 12.49 -3 13 C-2.52060632 8.28596212 -2.03165952 4.33420699 0 0 Z " fill="#ECA325" transform="translate(317,173)"/>
<path d="M0 0 C4.29 2.31 8.58 4.62 13 7 C9 8 9 8 6.75 7.0625 C5.88375 6.5365625 5.88375 6.5365625 5 6 C5 5.34 5 4.68 5 4 C3.35 4 1.7 4 0 4 C0 2.68 0 1.36 0 0 Z " fill="#3E381E" transform="translate(262,117)"/>
<path d="M0 0 C0 0.66 0 1.32 0 2 C-2.31 2 -4.62 2 -7 2 C-7 2.66 -7 3.32 -7 4 C-8.32 3.67 -9.64 3.34 -11 3 C-10.34 3 -9.68 3 -9 3 C-9.33 2.01 -9.66 1.02 -10 0 C-6.30581799 -1.231394 -3.7943739 -0.64432764 0 0 Z " fill="#253337" transform="translate(261,91)"/>
<path d="M0 0 C1.54571278 2.31856917 2.79618552 4.50638429 4 7 C2.02 7.33 0.04 7.66 -2 8 C-2.6875 5.6875 -2.6875 5.6875 -3 3 C-1.5625 1.1875 -1.5625 1.1875 0 0 Z " fill="#263541" transform="translate(52,259)"/>
<path d="M0 0 C2.22984785 1.76529621 2.93915901 2.65233722 3.4375 5.5 C3 8 3 8 1 9.8125 C0.34 10.204375 -0.32 10.59625 -1 11 C-2.60080151 6.99799622 -1.29279692 3.95443764 0 0 Z " fill="#2D3943" transform="translate(203,236)"/>
<path d="M0 0 C0.99 0 1.98 0 3 0 C3 0.99 3 1.98 3 3 C2.34 3.66 1.68 4.32 1 5 C-2.75561867 4.67342446 -5.73602552 3.8830622 -9 2 C-6.94921875 1.77213542 -4.8984375 1.54427083 -2.84765625 1.31640625 C-0.98859771 1.18113386 -0.98859771 1.18113386 0 0 Z " fill="#32362A" transform="translate(285,99)"/>
<path d="M0 0 C0 1.65 0 3.3 0 5 C-0.99 5 -1.98 5 -3 5 C-3.33 6.32 -3.66 7.64 -4 9 C-4.66 9 -5.32 9 -6 9 C-5.66666667 7.66666667 -5.33333333 6.33333333 -5 5 C-4.855625 4.278125 -4.71125 3.55625 -4.5625 2.8125 C-4.376875 2.214375 -4.19125 1.61625 -4 1 C-2 0 -2 0 0 0 Z " fill="#1B344D" transform="translate(246,97)"/>
<path d="M0 0 C0.14824219 0.6084375 0.29648438 1.216875 0.44921875 1.84375 C0.84946704 3.41067947 1.3126335 4.96194924 1.8125 6.5 C2 9 2 9 0.0625 11.3125 C-0.618125 11.869375 -1.29875 12.42625 -2 13 C-3.18414294 9.44757118 -2.69535532 8.30169438 -1.5625 4.8125 C-1.27503906 3.91144531 -0.98757812 3.01039063 -0.69140625 2.08203125 C-0.46324219 1.39496094 -0.23507813 0.70789063 0 0 Z " fill="#D9E3E6" transform="translate(196,185)"/>
<path d="M0 0 C0.33 0 0.66 0 1 0 C1.99 4.29 2.98 8.58 4 13 C3.34 13 2.68 13 2 13 C0.04677487 10.68506651 -1.01430369 8.96728675 -0.96875 5.88671875 C-0.71648561 3.91415138 -0.3644814 1.95494569 0 0 Z " fill="#E6EBF0" transform="translate(171,177)"/>
<path d="M0 0 C0.33 0.66 0.66 1.32 1 2 C-2.625 7.75 -2.625 7.75 -6 10 C-5.58578031 5.16743695 -3.53586014 3.17320782 0 0 Z " fill="#E8F0F2" transform="translate(271,152)"/>
<path d="M0 0 C4.43458973 1.3937282 6.87378374 3.60582235 10 7 C9.67 7.99 9.34 8.98 9 10 C7.49702124 8.52386015 5.99768715 7.04400843 4.5 5.5625 C3.6646875 4.73878906 2.829375 3.91507813 1.96875 3.06640625 C0 1 0 1 0 0 Z " fill="#C7993B" transform="translate(310,150)"/>
<path d="M0 0 C0.763125 0.0825 1.52625 0.165 2.3125 0.25 C1.3225 2.23 0.3325 4.21 -0.6875 6.25 C-3.1625 5.26 -3.1625 5.26 -5.6875 4.25 C-3.34903846 0.31153846 -3.34903846 0.31153846 0 0 Z " fill="#EEF4F6" transform="translate(60.6875,153.75)"/>
<path d="M0 0 C2 2 2 2 2.25 4.375 C1.99345272 7.06874642 1.36770587 8.69199635 0 11 C-0.66 10.67 -1.32 10.34 -2 10 C-1.34 6.7 -0.68 3.4 0 0 Z " fill="#34424B" transform="translate(282,182)"/>
<path d="M0 0 C4.49092377 2.37754788 7.52235713 5.3606063 11 9 C10.67 9.66 10.34 10.32 10 11 C8 9.625 8 9.625 6 8 C6 7.34 6 6.68 6 6 C4.68 5.34 3.36 4.68 2 4 C2 3.34 2 2.68 2 2 C1.34 2 0.68 2 0 2 C0 1.34 0 0.68 0 0 Z " fill="#C0943D" transform="translate(334,128)"/>
<path d="M0 0 C0.99 0.33 1.98 0.66 3 1 C3 1.66 3 2.32 3 3 C1.68 2.67 0.36 2.34 -1 2 C-1 2.66 -1 3.32 -1 4 C0.32 4.33 1.64 4.66 3 5 C2 6 2 6 -0.5625 6.0625 C-1.7690625 6.0315625 -1.7690625 6.0315625 -3 6 C-3 5.34 -3 4.68 -3 4 C-3.66 3.67 -4.32 3.34 -5 3 C-4.01 3 -3.02 3 -2 3 C-2 2.34 -2 1.68 -2 1 C-1.34 0.67 -0.68 0.34 0 0 Z " fill="#22353B" transform="translate(301,104)"/>
<path d="M0 0 C9.59453303 2.70615034 9.59453303 2.70615034 13 7 C12.67 7.66 12.34 8.32 12 9 C9.997193 7.69161864 7.99773901 6.37857806 6 5.0625 C5.42765625 4.68931641 4.8553125 4.31613281 4.265625 3.93164062 C2.82614271 2.98055411 1.41085511 1.99305724 0 1 C0 0.67 0 0.34 0 0 Z " fill="#C69B3A" transform="translate(290,134)"/>
<path d="M0 0 C1.0209375 0.2165625 1.0209375 0.2165625 2.0625 0.4375 C5.36273082 1.06945909 8.67144426 1.54313941 12 2 C11.01 2.495 11.01 2.495 10 3 C10.33 3.99 10.66 4.98 11 6 C7.2089881 4.55049545 3.6125362 2.84827434 0 1 C0 0.67 0 0.34 0 0 Z " fill="#3B3A1F" transform="translate(319,119)"/>
<path d="M0 0 C0.66 0.33 1.32 0.66 2 1 C2.75 3.875 2.75 3.875 3 7 C2.01 8.485 2.01 8.485 1 10 C0.34 9.67 -0.32 9.34 -1 9 C-1.09765625 2.84765625 -1.09765625 2.84765625 -1 1 C-0.67 0.67 -0.34 0.34 0 0 Z " fill="#26333C" transform="translate(155,212)"/>
<path d="M0 0 C0.66 0 1.32 0 2 0 C2 0.66 2 1.32 2 2 C3.32 1.67 4.64 1.34 6 1 C5.34 3.31 4.68 5.62 4 8 C3.34 8 2.68 8 2 8 C1.34 5.36 0.68 2.72 0 0 Z " fill="#C1984F" transform="translate(335,186)"/>
<path d="M0 0 C2.4375 0.8125 2.4375 0.8125 5 2 C5.33 2.99 5.66 3.98 6 5 C3.69 4.67 1.38 4.34 -1 4 C-0.67 2.68 -0.34 1.36 0 0 Z " fill="#EBA328" transform="translate(331,128)"/>
<path d="M0 0 C0.66 0 1.32 0 2 0 C2.625 3.375 2.625 3.375 3 7 C2.34 7.66 1.68 8.32 1 9 C1 8.34 1 7.68 1 7 C0.34 7 -0.32 7 -1 7 C-0.67 4.69 -0.34 2.38 0 0 Z " fill="#41484D" transform="translate(214,200)"/>
<path d="M0 0 C1.65 1.65 3.3 3.3 5 5 C4.34 5.66 3.68 6.32 3 7 C2.67 6.34 2.34 5.68 2 5 C1.01 6.32 0.02 7.64 -1 9 C-0.67 6.03 -0.34 3.06 0 0 Z " fill="#CA9F47" transform="translate(316,169)"/>
<path d="M0 0 C0.66 0.33 1.32 0.66 2 1 C2 2.32 2 3.64 2 5 C1.34 5 0.68 5 0 5 C-0.33 5.99 -0.66 6.98 -1 8 C-1.33 8 -1.66 8 -2 8 C-2.125 5.125 -2.125 5.125 -2 2 C-1.34 1.34 -0.68 0.68 0 0 Z " fill="#F79C20" transform="translate(332,165)"/>
<path d="M0 0 C1.28571429 8.42857143 1.28571429 8.42857143 0 13 C-0.33 13 -0.66 13 -1 13 C-1.12375 11.906875 -1.2475 10.81375 -1.375 9.6875 C-1.75464801 5.92618198 -1.75464801 5.92618198 -4 3 C-1.125 0 -1.125 0 0 0 Z " fill="#394140" transform="translate(316,161)"/>
<path d="M0 0 C5.01113235 1.4317521 6.94469549 3.98445693 10 8 C8.0625 7.625 8.0625 7.625 6 7 C5.67 6.34 5.34 5.68 5 5 C4.01 4.67 3.02 4.34 2 4 C0.8125 1.9375 0.8125 1.9375 0 0 Z " fill="#393412" transform="translate(298,141)"/>
<path d="M0 0 C1.98 0.495 1.98 0.495 4 1 C4 1.66 4 2.32 4 3 C5.65 3 7.3 3 9 3 C9.33 3.66 9.66 4.32 10 5 C6.37 4.34 2.74 3.68 -1 3 C-0.67 2.01 -0.34 1.02 0 0 Z " fill="#24312C" transform="translate(252,113)"/>
<path d="M0 0 C0.99 0 1.98 0 3 0 C1.6302836 3.99500618 -0.25722422 6.80009492 -3 10 C-2.67 8.02 -2.34 6.04 -2 4 C-1.34 4 -0.68 4 0 4 C0 2.68 0 1.36 0 0 Z " fill="#C6993A" transform="translate(317,230)"/>
<path d="M0 0 C1.80330533 3.60661066 2.46599103 6.08393425 3 10 C2.01 10 1.02 10 0 10 C0 6.7 0 3.4 0 0 Z " fill="#3C474F" transform="translate(161,228)"/>
<path d="M0 0 C0.33 0.66 0.66 1.32 1 2 C-1.31 2.33 -3.62 2.66 -6 3 C-6 2.34 -6 1.68 -6 1 C-6.99 0.67 -7.98 0.34 -9 0 C-5.67032582 -0.83241855 -3.24733335 -1.2757381 0 0 Z " fill="#343F47" transform="translate(111,228)"/>
<path d="M0 0 C4.875 4.75 4.875 4.75 6 7 C3.03 6.505 3.03 6.505 0 6 C0 4 0 2 0 0 Z " fill="#E2E7EB" transform="translate(122,160)"/>
<path d="M0 0 C3.00617269 3.00617269 2.59585316 5.82381598 3 10 C2.67 9.01 2.34 8.02 2 7 C1.01 6.67 0.02 6.34 -1 6 C-0.67 4.02 -0.34 2.04 0 0 Z " fill="#2E3E49" transform="translate(284,176)"/>
<path d="M0 0 C2.29633824 3.44450737 2.54016485 5.93812283 3 10 C2.67 9.34 2.34 8.68 2 8 C1.34 8 0.68 8 0 8 C-0.98120464 4.94736336 -0.98120464 3.05263664 0 0 Z " fill="#DAE2E4" transform="translate(231,176)"/>
<path d="M0 0 C0.66 0.66 1.32 1.32 2 2 C1.67028521 5.29714793 1.3773161 6.6226839 -1 9 C-1.625 5.625 -1.625 5.625 -2 2 C-1.34 1.34 -0.68 0.68 0 0 Z " fill="#2B3A44" transform="translate(171,166)"/>
<path d="M0 0 C0.33 1.65 0.66 3.3 1 5 C-1.02045442 4.39816251 -3.02111039 3.72693904 -5 3 C-5.33 2.34 -5.66 1.68 -6 1 C-3 0 -3 0 0 0 Z " fill="#393925" transform="translate(336,124)"/>
<path d="M0 0 C2 3 2 3 2 7 C1.01 7.33 0.02 7.66 -1 8 C-1.125 2.25 -1.125 2.25 0 0 Z " fill="#38454D" transform="translate(164,238)"/>
<path d="M0 0 C0.66 0.33 1.32 0.66 2 1 C1.67 2.32 1.34 3.64 1 5 C0.01 5 -0.98 5 -2 5 C-2.33 6.32 -2.66 7.64 -3 9 C-3.33 7.02 -3.66 5.04 -4 3 C-3.01 2.67 -2.02 2.34 -1 2 C-0.67 1.34 -0.34 0.68 0 0 Z " fill="#E7A425" transform="translate(319,225)"/>
<path d="M0 0 C0.66 1.32 1.32 2.64 2 4 C1.34 4 0.68 4 0 4 C0 4.99 0 5.98 0 7 C0.66 7.33 1.32 7.66 2 8 C0.02 8.99 0.02 8.99 -2 10 C-1.54177532 6.53058454 -1.10868317 3.32604951 0 0 Z " fill="#D3DADE" transform="translate(250,209)"/>
<path d="M0 0 C2 2 2 2 2.1953125 4.1640625 C2.16050781 5.38222656 2.16050781 5.38222656 2.125 6.625 C2.10695312 7.44226563 2.08890625 8.25953125 2.0703125 9.1015625 C2.04710937 9.72804687 2.02390625 10.35453125 2 11 C0.22575769 7.66152773 -0.57998612 4.78012495 -1 1 C-0.67 0.67 -0.34 0.34 0 0 Z " fill="#D3DBE0" transform="translate(158,213)"/>
<path d="M0 0 C0.33 0 0.66 0 1 0 C1 2.64 1 5.28 1 8 C0.01 8.33 -0.98 8.66 -2 9 C-1.51421457 5.87709365 -1.0013988 3.00419641 0 0 Z " fill="#C2993B" transform="translate(307,205)"/>
<path d="M0 0 C0.66 0 1.32 0 2 0 C4.5393228 3.41831915 5.3636198 5.75776898 5 10 C2.35534962 6.8745041 1.15585285 3.91211733 0 0 Z " fill="#DEA33E" transform="translate(331,176)"/>
<path d="M0 0 C0.66 0.33 1.32 0.66 2 1 C1.071875 2.1446875 1.071875 2.1446875 0.125 3.3125 C-2.05597052 5.99625809 -2.05597052 5.99625809 -4 9 C-4.33 8.01 -4.66 7.02 -5 6 C-3.59554165 3.7363436 -1.8032087 1.9791315 0 0 Z " fill="#D7E0E1" transform="translate(210,152)"/>
<path d="M0 0 C1.32 1.32 2.64 2.64 4 4 C3.01 5.485 3.01 5.485 2 7 C0.4375 5.75 0.4375 5.75 -1 4 C-0.6875 1.8125 -0.6875 1.8125 0 0 Z " fill="#253740" transform="translate(202,153)"/>
<path d="M0 0 C-0.33 1.32 -0.66 2.64 -1 4 C-3.46800047 2.84826645 -5.04783565 1.95216435 -7 0 C-3.86650268 -1.04449911 -3.01031744 -0.93423645 0 0 Z " fill="#EDA527" transform="translate(295,131)"/>
<path d="M0 0 C0.99 0.33 1.98 0.66 3 1 C2.67 1.99 2.34 2.98 2 4 C0.35 4 -1.3 4 -3 4 C-2.67 3.01 -2.34 2.02 -2 1 C-1.34 0.67 -0.68 0.34 0 0 Z " fill="#ECA223" transform="translate(311,118)"/>
<path d="M0 0 C2.29633824 3.44450737 2.54016485 5.93812283 3 10 C2.01 10.495 2.01 10.495 1 11 C0.4254048 7.26513121 0 3.78706732 0 0 Z " fill="#404D54" transform="translate(218,210)"/>
<path d="M0 0 C0.99 0 1.98 0 3 0 C5.125 4.625 5.125 4.625 4 8 C0 2.25 0 2.25 0 0 Z " fill="#303112" transform="translate(320,172)"/>
<path d="M0 0 C1.32 0 2.64 0 4 0 C2.70700306 2.88437779 1.34058637 4.87219421 -1 7 C-0.67 4.69 -0.34 2.38 0 0 Z " fill="#2C3C46" transform="translate(54,153)"/>
<path d="M0 0 C2.91517292 1.07401108 4.77810176 1.77810176 7 4 C6.67 4.99 6.34 5.98 6 7 C4.02 4.69 2.04 2.38 0 0 Z " fill="#C99C40" transform="translate(303,143)"/>
</svg>
