<?xml version="1.0" encoding="UTF-8"?>
<svg version="1.1" xmlns="http://www.w3.org/2000/svg" width="512" height="512">
<path d="M0 0 C168.96 0 337.92 0 512 0 C512 168.96 512 337.92 512 512 C343.04 512 174.08 512 0 512 C0 343.04 0 174.08 0 0 Z " fill="#070A13" transform="translate(0,0)"/>
<path d="M0 0 C42.57486702 -0.09152105 85.1497227 -0.1620212 127.72466857 -0.20426132 C132.74906306 -0.20926425 137.77345736 -0.21444153 142.79785156 -0.21972656 C143.79813365 -0.2207758 144.79841573 -0.22182505 145.8290094 -0.22290608 C162.03333467 -0.24031949 178.23760327 -0.27186233 194.4418949 -0.30861118 C211.06440275 -0.34599457 227.68688089 -0.36823034 244.30942905 -0.37635398 C254.56951381 -0.38184715 264.82943842 -0.39920757 275.08947389 -0.43166587 C282.12162439 -0.45278163 289.15369188 -0.45920671 296.18587179 -0.45400551 C300.24535917 -0.45143914 304.30456636 -0.45542066 308.36400414 -0.4768219 C312.08011645 -0.49627033 315.79575983 -0.49728147 319.51189362 -0.48359558 C321.4937971 -0.48110208 323.47569498 -0.49836946 325.4575187 -0.51632524 C336.43450941 -0.4421679 336.43450941 -0.4421679 341 4 C345.37582844 8.98014148 345.57313306 13.0105769 345.50793457 19.33018494 C345.51729451 20.72704123 345.51729451 20.72704123 345.52684355 22.15211684 C345.54278075 25.26825511 345.53016614 28.38361197 345.51757812 31.49975586 C345.52299894 33.73556474 345.53012137 35.97137004 345.53881836 38.20716858 C345.55706033 44.27742664 345.54998012 50.34741289 345.53730202 56.41767573 C345.52717773 62.76987744 345.53656623 69.12205581 345.54284668 75.47425842 C345.55059155 86.82643467 345.53815644 98.17847289 345.51780933 109.53062154 C345.49994306 119.81694375 345.50303935 130.10308535 345.52148438 140.3894043 C345.54290661 152.34159372 345.5508496 164.29367348 345.53903532 176.24588877 C345.53280004 182.57017354 345.53196575 188.89433399 345.54518127 195.21861076 C345.55673965 201.16535886 345.54871378 207.11176611 345.52560425 213.0584774 C345.52031692 215.2405516 345.52183131 217.42265449 345.53065491 219.60471725 C345.54159281 222.58447538 345.52786724 225.56314271 345.50793457 228.54283142 C345.5213189 229.83681183 345.5213189 229.83681183 345.53497362 231.15693325 C345.46038116 236.90959988 344.36010179 240.28960465 341 245 C335.25193988 250.28168301 327.07396131 249.57228844 319.77856445 249.53344727 C318.46869568 249.54206284 317.1588269 249.55067841 315.80926514 249.55955505 C312.23706907 249.58194716 308.66531813 249.57913481 305.09307885 249.57023358 C302.10575388 249.56510599 299.11851125 249.57242996 296.13119477 249.57970566 C289.08502914 249.59666984 282.03908031 249.59317127 274.99291992 249.57641602 C267.72970669 249.55946795 260.46709329 249.57537338 253.20394546 249.6076389 C246.95742807 249.63433419 240.71109743 249.64161192 234.46452874 249.63312382 C230.73807611 249.62819802 227.01198494 249.63039197 223.28557777 249.65091133 C219.13442071 249.67267921 214.98440352 249.65387102 210.83325195 249.63110352 C209.60144699 249.64279572 208.36964203 249.65448792 207.10050964 249.66653442 C198.75996341 249.57323632 198.75996341 249.57323632 194.84049988 246.61680603 C193.92945244 245.32148705 193.92945244 245.32148705 193 244 C192.2471875 243.175 191.494375 242.35 190.71875 241.5 C188.5 239 188.5 239 186.28125 236.5 C183.92499497 233.91780271 181.47899204 231.46493266 179 229 C177.89280001 227.89813434 176.78562378 226.7962448 175.6784668 225.69433594 C175.07822189 225.09731873 174.47797699 224.50030151 173.85954285 223.88519287 C171.17303356 221.21205229 168.4891669 218.53626507 165.80541992 215.86035156 C164.38540039 214.44540645 162.96449148 213.0313534 161.54272461 211.61816406 C159.48839745 209.57588644 157.43724645 207.53046648 155.38671875 205.484375 C154.74619064 204.84900818 154.10566254 204.21364136 153.44572449 203.559021 C151.94471781 202.05820829 150.46940033 200.53177104 149 199 C149 198.67 149 198.34 149 198 C149.74121566 197.99576806 150.48243132 197.99153612 151.24610806 197.98717594 C169.25544 197.8840122 187.26473144 197.77539618 205.27399349 197.66066074 C213.98302283 197.6053087 222.69205625 197.55182351 231.40112305 197.50268555 C238.98916313 197.45986791 246.5771728 197.41359614 254.16516596 197.36312145 C258.18545333 197.33650093 262.20573459 197.31164746 266.22605705 197.29092598 C270.00576939 197.27139018 273.78542375 197.24725578 277.56508446 197.21950912 C278.9562907 197.21012243 280.34750968 197.20245301 281.7387352 197.19658089 C283.63016497 197.1883472 285.5215625 197.17348157 287.41294861 197.15821838 C288.47393233 197.15176583 289.53491606 197.14531328 290.6280508 197.1386652 C292.95528636 197.26625839 292.95528636 197.26625839 294 196 C294.1030597 194.14440567 294.13521861 192.28485361 294.14044189 190.42640686 C294.14615204 189.21628433 294.15186218 188.0061618 294.15774536 186.7593689 C294.15899084 185.406067 294.16011591 184.05276498 294.16113281 182.69946289 C294.16575862 181.28385793 294.17078296 179.86825422 294.17617798 178.45265198 C294.18932588 174.59732845 294.19575144 170.74202235 294.20018864 166.88667989 C294.2031152 164.48071445 294.20721917 162.07475384 294.21169281 159.66879082 C294.22537333 152.14883605 294.23503757 144.62889223 294.2388947 137.10892588 C294.24337858 128.41363956 294.26093935 119.7185102 294.2898953 111.02327162 C294.31147388 104.31159517 294.32159691 97.59996299 294.32293582 90.8882522 C294.3239865 86.87514278 294.32994986 82.86218079 294.34775543 78.84910774 C294.36417055 75.07590297 294.3664239 71.30295748 294.35761642 67.52972984 C294.35684254 66.1421502 294.36123479 64.75455699 294.37107468 63.36701202 C294.38368723 61.47824201 294.37616495 59.589369 294.36749268 57.70057678 C294.36969252 56.11243211 294.36969252 56.11243211 294.3719368 54.49220371 C294.24919765 53.66977649 294.12645851 52.84734926 294 52 C290.92734998 49.95156665 290.32618668 49.75031046 286.8670702 49.75390434 C285.59886298 49.7479312 285.59886298 49.7479312 284.30503541 49.74183738 C282.91156539 49.75057591 282.91156539 49.75057591 281.48994446 49.75949097 C280.50324506 49.75778212 279.51654567 49.75607327 278.4999463 49.75431263 C275.17868369 49.75100649 271.85762109 49.76204 268.53637695 49.77294922 C266.16158045 49.77351309 263.7867836 49.77319725 261.4119873 49.77206421 C255.62310215 49.77154857 249.83428299 49.78023794 244.04541294 49.79293953 C237.31044463 49.80722382 230.57548577 49.81022874 223.84050443 49.81251587 C211.82944667 49.8168947 199.81841606 49.8302089 187.80737305 49.84912109 C176.13875464 49.86747503 164.4701436 49.88163391 152.80151367 49.89013672 C151.72289703 49.89092489 151.72289703 49.89092489 150.62249015 49.89172898 C147.01514092 49.89433903 143.40779165 49.89686645 139.80044234 49.89935279 C109.86693783 49.92009115 79.93348313 49.95696406 50 50 C49.67 65.84 49.34 81.68 49 98 C44.26938568 95.63469284 41.38287031 92.81203696 38.1875 88.625 C34.30682485 83.96818982 29.64766861 80.14914687 24.72338867 76.62939453 C2.22950495 60.44995785 2.22950495 60.44995785 -0.70243835 48.02265167 C-1.65144822 40.16604893 -1.23783995 32.33506174 -0.84375 24.453125 C-0.77587982 22.07260087 -0.71430999 19.6918884 -0.65917969 17.31103516 C-0.51195105 11.53651001 -0.28741702 5.76915976 0 0 Z " fill="#FDFDFD" transform="translate(83,132)"/>
<path d="M0 0 C56.76 0 113.52 0 172 0 C172 16.5 172 33 172 50 C131.41 50 90.82 50 49 50 C49 83 49 116 49 150 C32.83 150 16.66 150 0 150 C0 100.5 0 51 0 0 Z " fill="#FDFEFD" transform="translate(157,231)"/>
<path d="M0 0 C0.33 0.66 0.66 1.32 1 2 C1.66 2 2.32 2 3 2 C3 2.66 3 3.32 3 4 C5.90542736 5.45271368 8.44751352 5.14148203 11.69436646 5.15821838 C12.39027921 5.16315636 13.08619196 5.16809434 13.80319297 5.17318195 C16.14629935 5.1885989 18.48937823 5.19692888 20.83251953 5.20532227 C22.50767256 5.2148975 24.18282316 5.22490736 25.85797119 5.23532104 C30.41554311 5.26241466 34.97312543 5.28340005 39.53073359 5.30332303 C44.29002954 5.32515515 49.04929326 5.35255738 53.80856323 5.37937927 C62.82538429 5.42934376 71.8422232 5.47426863 80.85907924 5.51740164 C91.12255499 5.56674196 101.38599841 5.62167195 111.64944291 5.67708123 C132.76626517 5.79095892 153.88311828 5.89778532 175 6 C175 6.33 175 6.66 175 7 C118.24 7 61.48 7 3 7 C3 56.5 3 106 3 157 C1.68 157 0.36 157 -1 157 C-1 156.34 -1 155.68 -1 155 C-0.34 155 0.32 155 1 155 C1 154.240013 1 153.480026 1 152.69700909 C1 4 1 4 2 3 C0.68 2.67 -0.64 2.34 -2 2 C-1.34 2 -0.68 2 0 2 C0 1.34 0 0.68 0 0 Z " fill="#373A3E" transform="translate(154,224)"/>
<path d="M0 0 C2.93230193 1.32120828 4.98664899 2.74638197 7.234375 5.0390625 C8.09482422 5.90917969 8.09482422 5.90917969 8.97265625 6.796875 C9.55917969 7.40015625 10.14570313 8.0034375 10.75 8.625 C11.35199219 9.23601562 11.95398438 9.84703125 12.57421875 10.4765625 C14.05405305 11.97988624 15.52764676 13.48934856 17 15 C15.68 15.33 14.36 15.66 13 16 C11.79557292 14.4375 10.59114583 12.875 9.38671875 11.3125 C7.95508863 9.65629795 7.95508863 9.65629795 5 10 C3.95107762 8.36368108 2.95093297 6.69514137 2 5 C1.34 4.67 0.68 4.34 0 4 C-0.33 3.01 -0.66 2.02 -1 1 C-0.67 0.67 -0.34 0.34 0 0 Z " fill="#17191F" transform="translate(233,333)"/>
<path d="M0 0 C1.12894876 0.93274109 2.25300876 1.87140122 3.375 2.8125 C4.00148437 3.33457031 4.62796875 3.85664063 5.2734375 4.39453125 C7 6 7 6 9 9 C6.33333333 9 3.66666667 9 1 9 C-0.66670026 5.47051709 -1.13583456 3.71727674 0 0 Z " fill="#11131A" transform="translate(250,349)"/>
<path d="M0 0 C1.17539996 0.92652701 2.34010577 1.86663387 3.5 2.8125 C4.1496875 3.33457031 4.799375 3.85664063 5.46875 4.39453125 C7 6 7 6 7 9 C6.01 9 5.02 9 4 9 C3.01 9.495 3.01 9.495 2 10 C1.855625 9.360625 1.71125 8.72125 1.5625 8.0625 C1.18992819 6.02454854 1.18992819 6.02454854 0 5 C-0.04063832 3.33382885 -0.042721 1.66611905 0 0 Z " fill="#15171E" transform="translate(88,188)"/>
<path d="M0 0 C1.32 0.99 2.64 1.98 4 3 C3 6 3 6 1 7 C1 7.99 1 8.98 1 10 C0.01 9.67 -0.98 9.34 -2 9 C-1.125 2.25 -1.125 2.25 0 0 Z " fill="#181A22" transform="translate(267,366)"/>
<path d="M0 0 C3.67420866 0.30618405 4.78135513 0.75771784 7.3125 3.5625 C8.1478125 4.7690625 8.1478125 4.7690625 9 6 C8.34 6 7.68 6 7 6 C7 6.66 7 7.32 7 8 C5.68 7.34 4.36 6.68 3 6 C3.33 5.34 3.66 4.68 4 4 C2.68 3.34 1.36 2.68 0 2 C0 1.34 0 0.68 0 0 Z " fill="#161820" transform="translate(274,376)"/>
<path d="M0 0 C1.65 1.65 3.3 3.3 5 5 C4.34 5 3.68 5 3 5 C2.67 5.99 2.34 6.98 2 8 C0.35 7.01 -1.3 6.02 -3 5 C-2 3 -2 3 0 2 C0 1.34 0 0.68 0 0 Z " fill="#12121A" transform="translate(100,200)"/>
<path d="M0 0 C1.65 1.65 3.3 3.3 5 5 C4.67 5.99 4.34 6.98 4 8 C2 6.625 2 6.625 0 5 C0 4.34 0 3.68 0 3 C-0.66 2.67 -1.32 2.34 -2 2 C-1.34 1.34 -0.68 0.68 0 0 Z " fill="#0D0F17" transform="translate(108,208)"/>
<path d="M0 0 C0.99 0.33 1.98 0.66 3 1 C3.33 1.99 3.66 2.98 4 4 C2.02 4.99 2.02 4.99 0 6 C-0.99 4.68 -1.98 3.36 -3 2 C-2.01 1.34 -1.02 0.68 0 0 Z " fill="#E3E5E3" transform="translate(124,218)"/>
<path d="M0 0 C0.66 0.33 1.32 0.66 2 1 C1 4 1 4 -1 5 C-1 5.99 -1 6.98 -1 8 C-1.99 7.67 -2.98 7.34 -4 7 C-4 5.35 -4 3.7 -4 2 C-3.01 2 -2.02 2 -1 2 C-0.67 1.34 -0.34 0.68 0 0 Z " fill="#161922" transform="translate(125,224)"/>
<path d="M0 0 C2.89932357 2.39509338 3.50168276 4.31245243 4 8 C2.02 6.35 0.04 4.7 -2 3 C-1.34 2.01 -0.68 1.02 0 0 Z " fill="#F6F7F9" transform="translate(250,344)"/>
<path d="M0 0 C2.375 -0.1875 2.375 -0.1875 5 0 C5.66 0.99 6.32 1.98 7 3 C6.01 3.66 5.02 4.32 4 5 C2.68 3.35 1.36 1.7 0 0 Z " fill="#F1F5F4" transform="translate(233,331)"/>
<path d="M0 0 C0 1.98 0 3.96 0 6 C-3.875 4.25 -3.875 4.25 -5 2 C-2 0 -2 0 0 0 Z " fill="#DBDEE1" transform="translate(132,224)"/>
<path d="M0 0 C1.98 1.65 3.96 3.3 6 5 C5.34 5.66 4.68 6.32 4 7 C2 5.75 2 5.75 0 4 C0 2.68 0 1.36 0 0 Z " fill="#27292E" transform="translate(253,352)"/>
</svg>
