<?xml version="1.0" encoding="UTF-8"?>
<svg version="1.1" xmlns="http://www.w3.org/2000/svg" width="400" height="400">
<path d="M0 0 C132 0 264 0 400 0 C400 132 400 264 400 400 C268 400 136 400 0 400 C0 268 0 136 0 0 Z " fill="#FEFEFE" transform="translate(0,0)"/>
<path d="M0 0 C0.33 22.44 0.66 44.88 1 68 C4.3 65.03 7.6 62.06 11 59 C13.18577716 57.22190712 15.39165112 55.46796068 17.625 53.75 C22.80708438 49.73417186 27.92252569 45.64727807 33 41.5 C35.66498669 39.33126113 38.33212967 37.16519015 41 35 C41.99290039 34.19272461 41.99290039 34.19272461 43.00585938 33.36914062 C44.91476748 31.82203939 46.83111586 30.28470077 48.75 28.75 C49.32234375 28.28400391 49.8946875 27.81800781 50.484375 27.33789062 C53.22899247 25.15737121 55.46279325 23.44644357 59 23 C59.48726562 23.54785156 59.97453125 24.09570312 60.4765625 24.66015625 C67.53809639 32.55623505 74.76573037 40.24899683 82 48 C82.33 32.16 82.66 16.32 83 0 C88.82251828 1.45562957 93.82964717 3.39199435 97.84790039 7.96502686 C102.37791783 15.96647374 100.116172 28.24385775 99.75 37.0625 C99.68976446 39.5747429 99.63501907 42.08712381 99.5859375 44.59960938 C99.4541262 50.73609757 99.2537525 56.86740828 99 63 C93.73605741 59.71003588 89.8201484 56.21762985 85 52 C84.67 66.85 84.34 81.7 84 97 C85.65 97.66 87.3 98.32 89 99 C92.3 100.65 95.6 102.3 99 104 C99 90.8 99 77.6 99 64 C107.93548387 70.7016129 107.93548387 70.7016129 111.5 74.4375 C114.79454301 77.87776319 118.2681556 81.0025213 121.86328125 84.11938477 C125.40942085 87.24049004 128.82405594 90.49822294 132.25 93.75 C138.09275327 99.27347021 143.97430165 104.74504781 149.9140625 110.1640625 C153.61879944 113.55620463 157.27672424 116.99806543 160.9375 120.4375 C165.87988851 125.07992372 170.8304451 129.71264042 175.8125 134.3125 C176.33352295 134.79444824 176.8545459 135.27639648 177.39135742 135.77294922 C179.97809903 138.15964513 182.58123637 140.52444063 185.21484375 142.859375 C185.72619873 143.31530029 186.23755371 143.77122559 186.7644043 144.2409668 C188.15639894 145.47923582 189.55454748 146.71057719 190.953125 147.94140625 C193 150 193 150 194 153 C186.37891872 150.74160628 179.68928784 147.41946928 172.6875 143.6875 C170.28717495 142.42192577 167.88396991 141.16187367 165.48046875 139.90234375 C164.86626068 139.5798465 164.25205261 139.25734924 163.61923218 138.92507935 C156.96034338 135.43760699 150.23285549 132.09177793 143.5 128.75 C134.73788033 124.3940024 126.01601507 119.98062301 117.38476562 115.37011719 C111.30638822 112.12734647 105.17204646 109.08602323 99 106 C99.33 138.34 99.66 170.68 100 204 C109.24 206.97 118.48 209.94 128 213 C134.08766068 215.00892802 140.17225783 217.02420931 146.25 219.0625 C147.76784952 219.57014885 149.28575426 220.0776326 150.80371094 220.58496094 C153.79646812 221.58537235 156.7889739 222.58652953 159.78125 223.58837891 C165.93545542 225.64838677 172.09278543 227.69900605 178.25 229.75 C180.17189039 230.39057882 182.09376726 231.03119821 184.015625 231.671875 C184.79196289 231.9306543 185.56830078 232.18943359 186.36816406 232.45605469 C187.17592285 232.72530762 187.17592285 232.72530762 188 233 C188 233.99 188 234.98 188 236 C186.16986409 237.79973498 184.36459006 239.39337204 182.375 241 C181.79105469 241.48275391 181.20710938 241.96550781 180.60546875 242.46289062 C175.88225058 246.34519469 171.06899299 250.11362131 166.24267578 253.86645508 C161.59451888 257.49294684 157.08742246 261.26474536 152.60449219 265.0925293 C148.75053475 268.37941783 144.82870734 271.56140023 140.859375 274.70703125 C137.04238825 277.76792089 133.27246186 280.88450775 129.5 284 C124.89747264 287.79960981 120.292135 291.59221187 115.625 295.3125 C114.92980759 295.88070969 114.23461517 296.44891937 113.51835632 297.03434753 C111 299 111 299 108.17024231 300.86152649 C102.32370708 304.89198302 102.32370708 304.89198302 99.09213257 310.98422241 C98.86485668 314.47242472 98.97015611 317.80502067 99.19921875 321.29296875 C99.25380141 323.88866045 99.30782011 326.48436405 99.36132812 329.08007812 C99.47796764 332.45883743 99.6233299 335.83618185 99.78369141 339.21313477 C101.0652703 366.30000947 101.0652703 366.30000947 94.04267883 374.03938293 C86.56018 381 86.56018 381 83 381 C83 362.52 83 344.04 83 325 C74.29914565 332.10630126 74.29914565 332.10630126 65.6875 339.3125 C65.15970947 339.75835449 64.63191895 340.20420898 64.08813477 340.66357422 C61.10145653 343.19207632 58.14130737 345.74729757 55.203125 348.33203125 C54.57446533 348.88141357 53.94580566 349.4307959 53.2980957 349.99682617 C52.08307909 351.06006535 50.87302753 352.12901276 49.66870117 353.2043457 C44.31109414 357.88003282 44.31109414 357.88003282 41 358 C38.63745117 356.22094727 38.63745117 356.22094727 36.04296875 353.56640625 C35.57691727 353.0956517 35.11086578 352.62489716 34.63069153 352.13987732 C33.13757635 350.62539471 31.66288847 349.09423593 30.1875 347.5625 C29.20618245 346.56466795 28.22377106 345.5679104 27.24023438 344.57226562 C22.51383001 339.76427301 17.92788592 334.86263728 13.53100586 329.74926758 C11.18885774 327.07322049 8.70587594 324.57383153 6.1875 322.0625 C5.47303711 321.34223633 5.47303711 321.34223633 4.74414062 320.60742188 C2.12210532 317.97189805 2.12210532 317.97189805 -1 316 C-1 338.11 -1 360.22 -1 383 C-3.31 381.02 -5.62 379.04 -8 377 C-8.93613129 376.2737442 -9.87226257 375.5474884 -10.83676147 374.79922485 C-14.89306059 371.3555063 -17.5947439 368.67791499 -18.86651611 363.41229248 C-19.1554525 359.14032575 -19.12869166 354.98446233 -18.9765625 350.7109375 C-18.95787421 349.1558592 -18.9436571 347.60072137 -18.9336853 346.04556274 C-18.89578795 341.98334635 -18.79783123 337.92479659 -18.68664551 333.86401367 C-18.58371394 329.70802405 -18.53854322 325.5514324 -18.48828125 321.39453125 C-18.38154038 313.26135168 -18.21124183 305.13113387 -18 297 C-16.88347369 297.95214375 -15.76764129 298.90510126 -14.65209961 299.85839844 C-14.0306456 300.38898865 -13.40919159 300.91957886 -12.76890564 301.46624756 C-10.62625177 303.32406322 -8.57747863 305.25466054 -6.5625 307.25 C-5.88316406 307.91515625 -5.20382813 308.5803125 -4.50390625 309.265625 C-3 311 -3 311 -3 313 C-2.34 313 -1.68 313 -1 313 C-1.495 292.21 -1.495 292.21 -2 271 C-6.62 269.02 -11.24 267.04 -16 265 C-16.04898438 267.07023437 -16.09796875 269.14046875 -16.1484375 271.2734375 C-16.20405689 273.27573559 -16.25974397 275.27803246 -16.31738281 277.28027344 C-16.35569327 278.67308572 -16.39054259 280.06599765 -16.421875 281.45898438 C-16.46747907 283.45986308 -16.52651623 285.46042146 -16.5859375 287.4609375 C-16.63306885 289.26763916 -16.63306885 289.26763916 -16.68115234 291.11083984 C-17 294 -17 294 -19 296 C-25.94984706 289.92868891 -32.52925954 283.57026637 -39.01953125 277.015625 C-39.53080566 276.49935547 -40.04208008 275.98308594 -40.56884766 275.45117188 C-41.80561207 274.19710711 -43.03442177 272.93520661 -44.26171875 271.671875 C-46.51621573 269.47205198 -48.81046881 267.39387655 -51.171875 265.3125 C-58.64233524 258.62286622 -65.70803558 251.51503403 -72.80566406 244.43457031 C-75.25138943 241.99861612 -77.70759376 239.57355123 -80.1640625 237.1484375 C-81.74024104 235.57878516 -83.31578394 234.00849423 -84.890625 232.4375 C-85.6157428 231.724729 -86.3408606 231.01195801 -87.08795166 230.27758789 C-91.77364634 225.57145442 -95.52381209 220.65755622 -99 215 C-94.1714037 217.39099995 -89.57487661 220.13437149 -84.9375 222.875 C-83.46627686 223.74402954 -83.46627686 223.74402954 -81.96533203 224.63061523 C-74.92078613 228.81263897 -67.97302727 233.12661554 -61.06860352 237.53515625 C-54.43445334 241.75999991 -47.70638857 245.81577952 -40.93505859 249.81665039 C-36.2736842 252.58334226 -31.75618346 255.47127879 -27.32275391 258.59228516 C-24.38308552 260.37388364 -21.15947242 261.64594039 -18 263 C-18.33 236.93 -18.66 210.86 -19 184 C-22.63 182.02 -26.26 180.04 -30 178 C-33.15941443 176.14335646 -36.30461661 174.27481964 -39.4375 172.375 C-41.17964963 171.32415597 -42.92183828 170.27337662 -44.6640625 169.22265625 C-45.54481445 168.69043457 -46.42556641 168.15821289 -47.33300781 167.60986328 C-51.65401731 165.00159373 -55.98350211 162.4074817 -60.3125 159.8125 C-64.96907297 157.02045649 -69.62520168 154.22778244 -74.2734375 151.421875 C-80.78441007 147.49494963 -87.30585679 143.61012059 -94 140 C-94 139.34 -94 138.68 -94 138 C-92.07467233 136.47397663 -90.14818182 135.07426399 -88.125 133.6875 C-86.83680338 132.78577909 -85.54906541 131.8834027 -84.26171875 130.98046875 C-83.2260376 130.25802979 -83.2260376 130.25802979 -82.16943359 129.52099609 C-78.40215695 126.87974767 -74.66884674 124.191671 -70.9375 121.5 C-70.16881592 120.94602539 -69.40013184 120.39205078 -68.6081543 119.82128906 C-64.15649043 116.6000702 -59.77276525 113.31358782 -55.4375 109.9375 C-49.86069462 105.59842191 -44.12556261 101.52729038 -38.32958984 97.48706055 C-32.54327911 93.43532647 -26.96736353 89.16425933 -21.44140625 84.765625 C-19 83 -19 83 -17 83 C-17 92.24 -17 101.48 -17 111 C-12.15108556 108.37174261 -12.15108556 108.37174261 -7.30712891 105.734375 C-2.22222222 103 -2.22222222 103 0 103 C0 92.11 0 81.22 0 70 C-5.22255583 73.94661035 -5.22255583 73.94661035 -10.44116211 77.8984375 C-11.08835205 78.38570313 -11.73554199 78.87296875 -12.40234375 79.375 C-13.06741943 79.87773438 -13.73249512 80.38046875 -14.41772461 80.8984375 C-16 82 -16 82 -17 82 C-17.35024651 73.52414027 -17.61536058 65.051382 -17.77718258 56.57003689 C-17.85492656 52.62975512 -17.9599748 48.69447913 -18.1315918 44.75708008 C-19.36133517 15.81101259 -19.36133517 15.81101259 -11.66468811 7.28517151 C-3.77502471 0 -3.77502471 0 0 0 Z " fill="#D4D4D4" transform="translate(158,11)"/>
<path d="M0 0 C11.9946532 -0.90026095 20.96042023 2.23986289 32.0625 6.375 C33.82816237 7.01583431 35.59452849 7.65473273 37.36157227 8.29174805 C40.89883515 9.56989012 44.43192855 10.85863717 47.96191406 12.15673828 C52.5641837 13.84622482 57.1801576 15.49366333 61.8046875 17.12109375 C63.11971947 17.58477213 64.43474258 18.04847564 65.74975586 18.51220703 C66.96671143 18.94130371 68.18366699 19.37040039 69.4375 19.8125 C71.68745972 20.60711327 73.93630152 21.40490495 76.18359375 22.20703125 C77.09681396 22.5316333 78.01003418 22.85623535 78.95092773 23.19067383 C81 24 81 24 82 25 C82.08861992 27.8116338 82.11522355 30.59858255 82.09765625 33.41015625 C82.0962413 34.25219101 82.09482635 35.09422577 82.09336853 35.96177673 C82.08775263 38.66205335 82.07519748 41.36224828 82.0625 44.0625 C82.05748705 45.88867068 82.05292379 47.71484266 82.04882812 49.54101562 C82.03777804 54.02737542 82.02050279 58.51367384 82 63 C74.73664992 60.27169491 67.90751603 57.0180879 61.0625 53.375 C59.55381348 52.58005127 59.55381348 52.58005127 58.01464844 51.76904297 C55.00745813 50.18368418 52.00354941 48.59224306 49 47 C45.91779365 45.37285772 42.83396097 43.74881366 39.75 42.125 C39.01394531 41.73683105 38.27789062 41.34866211 37.51953125 40.94873047 C30.21637803 37.10197279 22.89040908 33.29930493 15.5625 29.5 C14.96538208 29.19032288 14.36826416 28.88064575 13.75305176 28.56158447 C6.39626393 24.74206495 6.39626393 24.74206495 -1 21 C-1.17087417 30.77115895 -1.27110012 40.54028913 -1.28240681 50.31301117 C-1.28985129 54.8518027 -1.3211539 59.38775872 -1.40795898 63.92578125 C-1.49092751 68.30996641 -1.50994524 72.69029341 -1.48558617 77.07514954 C-1.48737128 78.74337141 -1.51178077 80.41173457 -1.55968666 82.07926941 C-1.70173833 87.33194896 -1.62552827 91.97014906 0 97 C3.94021493 100.8590425 7.91967589 102.8251752 13 105 C14.69604686 105.90075473 16.3855493 106.81417396 18.0625 107.75 C18.93132812 108.21277344 19.80015625 108.67554688 20.6953125 109.15234375 C26.254627 112.26056569 31.67353294 115.60980085 37.09594727 118.95019531 C37.92924561 119.45776367 38.76254395 119.96533203 39.62109375 120.48828125 C40.3680249 120.94759033 41.11495605 121.40689941 41.88452148 121.88012695 C44.02265691 123.01199391 45.58961416 123.76457941 48 124 C50.06450345 123.10958009 50.06450345 123.10958009 52.0546875 121.60546875 C52.82828613 121.06623779 53.60188477 120.52700684 54.39892578 119.97143555 C55.21603027 119.38273682 56.03313477 118.79403809 56.875 118.1875 C57.71401855 117.59815674 58.55303711 117.00881348 59.41748047 116.40161133 C61.95487246 114.61452861 64.4790194 112.81014016 67 111 C68.44263529 109.96864783 69.8853383 108.93739036 71.328125 107.90625 C73.18929205 106.57594963 75.04821867 105.24337845 76.89794922 103.8972168 C80.89549003 101 80.89549003 101 82 101 C82.30631251 107.77574617 82.51521701 114.54968857 82.65917969 121.33081055 C82.71923054 123.63292123 82.8009054 125.93457987 82.90527344 128.23510742 C83.79657087 148.39852728 83.79657087 148.39852728 79.4621582 153.875 C76.62558796 156.7394822 73.41566483 158.86564416 70 161 C68.21181391 162.43700289 66.43787943 163.89217882 64.6875 165.375 C63.80320312 166.08398438 62.91890625 166.79296875 62.0078125 167.5234375 C59.66814757 169.44986291 57.38556614 171.40618866 55.1171875 173.4140625 C54.44598877 174.00654785 53.77479004 174.5990332 53.08325195 175.20947266 C51.75886266 176.38297406 50.43947971 177.56215545 49.12573242 178.74755859 C48.51834229 179.28461426 47.91095215 179.82166992 47.28515625 180.375 C46.47896851 181.09816406 46.47896851 181.09816406 45.65649414 181.8359375 C43.62357366 183.2645248 42.50972554 183.9298325 40 184 C37.63745117 182.22094727 37.63745117 182.22094727 35.04296875 179.56640625 C34.57691727 179.0956517 34.11086578 178.62489716 33.63069153 178.13987732 C32.13757635 176.62539471 30.66288847 175.09423593 29.1875 173.5625 C28.20618245 172.56466795 27.22377106 171.5679104 26.24023438 170.57226562 C21.51383001 165.76427301 16.92788592 160.86263728 12.53100586 155.74926758 C10.18885774 153.07322049 7.70587594 150.57383153 5.1875 148.0625 C4.71119141 147.58232422 4.23488281 147.10214844 3.74414062 146.60742188 C1.12210532 143.97189805 1.12210532 143.97189805 -2 142 C-2 164.11 -2 186.22 -2 209 C-4.31 207.02 -6.62 205.04 -9 203 C-10.40419693 201.9106163 -10.40419693 201.9106163 -11.83676147 200.79922485 C-15.89306059 197.3555063 -18.5947439 194.67791499 -19.86651611 189.41229248 C-20.1554525 185.14032575 -20.12869166 180.98446233 -19.9765625 176.7109375 C-19.95787421 175.1558592 -19.9436571 173.60072137 -19.9336853 172.04556274 C-19.89578795 167.98334635 -19.79783123 163.92479659 -19.68664551 159.86401367 C-19.58371394 155.70802405 -19.53854322 151.5514324 -19.48828125 147.39453125 C-19.38154038 139.26135168 -19.21124183 131.13113387 -19 123 C-17.88347369 123.95214375 -16.76764129 124.90510126 -15.65209961 125.85839844 C-15.0306456 126.38898865 -14.40919159 126.91957886 -13.76890564 127.46624756 C-11.62625177 129.32406322 -9.57747863 131.25466054 -7.5625 133.25 C-6.54349609 134.24773437 -6.54349609 134.24773437 -5.50390625 135.265625 C-4 137 -4 137 -4 139 C-3.34 139 -2.68 139 -2 139 C-2.03552979 138.09540039 -2.07105957 137.19080078 -2.10766602 136.25878906 C-3.09636109 109.26196656 -2.95963967 82.31799778 -2.5625 55.3125 C-2.54968616 54.44051468 -2.53687233 53.56852936 -2.5236702 52.67012024 C-2.36240638 41.77985471 -2.18748777 30.88984505 -2 20 C-1.34 20 -0.68 20 0 20 C0 13.4 0 6.8 0 0 Z " fill="#323232" transform="translate(159,185)"/>
<path d="M0 0 C0 9.24 0 18.48 0 28 C4.84891444 25.37174261 4.84891444 25.37174261 9.69287109 22.734375 C14.77777778 20 14.77777778 20 17 20 C17 42.11 17 64.22 17 87 C20.63 87.99 24.26 88.98 28 90 C28.33 90.66 28.66 91.32 29 92 C23.555 91.505 23.555 91.505 18 91 C18.08378906 92.19238281 18.16757813 93.38476562 18.25390625 94.61328125 C18.35708136 96.17966708 18.45992889 97.74607451 18.5625 99.3125 C18.64661133 100.49102539 18.64661133 100.49102539 18.73242188 101.69335938 C18.78076172 102.45068359 18.82910156 103.20800781 18.87890625 103.98828125 C18.94960327 105.03302612 18.94960327 105.03302612 19.02172852 106.09887695 C19 108 19 108 18 111 C17.34 111 16.68 111 16 111 C16 136.08 16 161.16 16 187 C11.5554372 186.25923953 8.98542425 185.75072957 5.125 183.9375 C4.34382813 183.57527344 3.56265625 183.21304688 2.7578125 182.83984375 C2.17773438 182.56269531 1.59765625 182.28554688 1 182 C0.98018066 182.86802246 0.96036133 183.73604492 0.93994141 184.63037109 C0.86190128 187.84726267 0.77521119 191.06377045 0.68261719 194.28027344 C0.64430673 195.67308572 0.60945741 197.06599765 0.578125 198.45898438 C0.53252093 200.45986308 0.47348377 202.46042146 0.4140625 204.4609375 C0.36693115 206.26763916 0.36693115 206.26763916 0.31884766 208.11083984 C0 211 0 211 -2 213 C-8.94984706 206.92868891 -15.52925954 200.57026637 -22.01953125 194.015625 C-22.78644287 193.2412207 -22.78644287 193.2412207 -23.56884766 192.45117188 C-24.80561207 191.19710711 -26.03442177 189.93520661 -27.26171875 188.671875 C-29.51621573 186.47205198 -31.81046881 184.39387655 -34.171875 182.3125 C-41.64233524 175.62286622 -48.70803558 168.51503403 -55.80566406 161.43457031 C-58.25138943 158.99861612 -60.70759376 156.57355123 -63.1640625 154.1484375 C-64.74024104 152.57878516 -66.31578394 151.00849423 -67.890625 149.4375 C-68.6157428 148.724729 -69.3408606 148.01195801 -70.08795166 147.27758789 C-74.77364634 142.57145442 -78.52381209 137.65755622 -82 132 C-77.1714037 134.39099995 -72.57487661 137.13437149 -67.9375 139.875 C-66.46627686 140.74402954 -66.46627686 140.74402954 -64.96533203 141.63061523 C-57.92078613 145.81263897 -50.97302727 150.12661554 -44.06860352 154.53515625 C-37.43445334 158.75999991 -30.70638857 162.81577952 -23.93505859 166.81665039 C-19.2736842 169.58334226 -14.75618346 172.47127879 -10.32275391 175.59228516 C-7.38308552 177.37388364 -4.15947242 178.64594039 -1 180 C-1.33 153.93 -1.66 127.86 -2 101 C-5.63 99.02 -9.26 97.04 -13 95 C-16.15941443 93.14335646 -19.30461661 91.27481964 -22.4375 89.375 C-24.17964963 88.32415597 -25.92183828 87.27337662 -27.6640625 86.22265625 C-28.54481445 85.69043457 -29.42556641 85.15821289 -30.33300781 84.60986328 C-34.65401731 82.00159373 -38.98350211 79.4074817 -43.3125 76.8125 C-47.96907297 74.02045649 -52.62520168 71.22778244 -57.2734375 68.421875 C-63.78441007 64.49494963 -70.30585679 60.61012059 -77 57 C-77 56.34 -77 55.68 -77 55 C-75.07467233 53.47397663 -73.14818182 52.07426399 -71.125 50.6875 C-69.83680338 49.78577909 -68.54906541 48.8834027 -67.26171875 47.98046875 C-66.57126465 47.49884277 -65.88081055 47.0172168 -65.16943359 46.52099609 C-61.40215695 43.87974767 -57.66884674 41.191671 -53.9375 38.5 C-53.16881592 37.94602539 -52.40013184 37.39205078 -51.6081543 36.82128906 C-47.15649043 33.6000702 -42.77276525 30.31358782 -38.4375 26.9375 C-32.86069462 22.59842191 -27.12556261 18.52729038 -21.32958984 14.48706055 C-15.54327911 10.43532647 -9.96736353 6.16425933 -4.44140625 1.765625 C-2 0 -2 0 0 0 Z " fill="#313131" transform="translate(141,94)"/>
<path d="M0 0 C0.96421875 0.48404297 1.9284375 0.96808594 2.921875 1.46679688 C3.911875 1.97404297 4.901875 2.48128906 5.921875 3.00390625 C6.92734375 3.50728516 7.9328125 4.01066406 8.96875 4.52929688 C16.39056122 8.28509247 16.39056122 8.28509247 18.671875 10.56640625 C18.91797066 12.40547371 18.91797066 12.40547371 18.91238403 14.67922974 C18.91513336 15.54022278 18.91788269 16.40121582 18.92071533 17.28829956 C18.9099295 18.70817673 18.9099295 18.70817673 18.89892578 20.15673828 C18.89921783 21.15189453 18.89950989 22.14705078 18.89981079 23.17236328 C18.8984136 26.47306941 18.88283404 29.77355188 18.8671875 33.07421875 C18.86345876 35.35822425 18.86061113 37.64223135 18.85861206 39.92623901 C18.8509647 45.94655755 18.83130674 51.96678004 18.8092041 57.98706055 C18.7887694 64.12677715 18.77961543 70.26650922 18.76953125 76.40625 C18.74806189 88.45967768 18.71391267 100.51303399 18.671875 112.56640625 C17.24813329 112.25958647 15.82496516 111.95010448 14.40203857 111.63952637 C13.60945019 111.46747429 12.8168618 111.29542221 12.00025558 111.11815643 C8.70385021 110.33701598 5.5615803 109.24279318 2.375 108.09765625 C1.71131912 107.86111328 1.04763824 107.62457031 0.36384583 107.38085938 C-1.78517822 106.61403835 -3.93158888 105.84016076 -6.078125 105.06640625 C-9.11506191 103.98076076 -12.15330297 102.89878268 -15.19140625 101.81640625 C-15.95534195 101.54364868 -16.71927765 101.27089111 -17.50636292 100.98986816 C-26.23762526 97.87609811 -35.00429982 94.86752787 -43.77441406 91.86523438 C-44.87366211 91.48818359 -45.97291016 91.11113281 -47.10546875 90.72265625 C-48.04640381 90.40103516 -48.98733887 90.07941406 -49.95678711 89.74804688 C-54.76246436 88.06367597 -59.54240389 86.30666847 -64.328125 84.56640625 C-64.328125 62.45640625 -64.328125 40.34640625 -64.328125 17.56640625 C-34.15637586 4.99484411 -34.15637586 4.99484411 -22.87109375 1.4453125 C-19.5866214 0.3101262 -16.53208115 -1.17699727 -13.4609375 -2.796875 C-8.7030799 -4.21726106 -4.23754631 -2.13861477 0 0 Z " fill="#FDFDFD" transform="translate(222.328125,96.43359375)"/>
<path d="M0 0 C3.00428934 0.64551986 5.50291992 1.63744564 8.23583984 3.03442383 C9.06546234 3.45609329 9.89508484 3.87776276 10.74984741 4.31221008 C11.64450714 4.77250107 12.53916687 5.23279205 13.4609375 5.70703125 C14.40192291 6.18766525 15.34290833 6.66829926 16.31240845 7.16349792 C18.31573851 8.18797805 20.31802013 9.21451052 22.31933594 10.24291992 C25.29876665 11.77334179 28.28185926 13.29641024 31.265625 14.81835938 C42.07631762 20.34874578 52.80850129 25.99465949 63.41244507 31.91352844 C68.78118192 34.88623937 74.20776888 37.50004888 79.85507202 39.90608215 C82 41 82 41 83 43 C83.13533755 45.65186925 83.21264544 48.27624969 83.23828125 50.9296875 C83.246353 51.71642853 83.25442474 52.50316956 83.26274109 53.31375122 C83.27657904 54.97981564 83.2873025 56.64590839 83.29516602 58.31201172 C83.31238701 60.858294 83.35627417 63.40328037 83.40039062 65.94921875 C83.41051702 67.56769878 83.41903329 69.18618985 83.42578125 70.8046875 C83.44328934 71.5652243 83.46079742 72.32576111 83.47883606 73.10934448 C83.46435182 76.64424625 83.32553119 78.58620268 81.10644531 81.40698242 C80.41131836 81.93267822 79.71619141 82.45837402 79 83 C78.29746094 83.55558594 77.59492188 84.11117187 76.87109375 84.68359375 C74.55303715 86.35423165 72.2256783 88.01076032 69.88867188 89.65478516 C67.66334971 91.23978065 65.46668642 92.86196423 63.265625 94.48046875 C61.57376233 95.69648995 59.88104997 96.9113298 58.1875 98.125 C57.37531006 98.73013428 56.56312012 99.33526855 55.72631836 99.95874023 C54.5527478 100.78740601 54.5527478 100.78740601 53.35546875 101.6328125 C52.66090576 102.13699707 51.96634277 102.64118164 51.25073242 103.16064453 C47.93390073 104.39757558 46.18366805 103.38743907 43 102 C41.25455723 101.08539918 39.5362661 100.11727009 37.84765625 99.1015625 C36.90599609 98.53953125 35.96433594 97.9775 34.99414062 97.3984375 C34.02669922 96.81320312 33.05925781 96.22796875 32.0625 95.625 C30.13695451 94.4709607 28.2111784 93.31730611 26.28515625 92.1640625 C24.91472168 91.34047241 24.91472168 91.34047241 23.51660156 90.50024414 C21.43554193 89.25964349 19.34573092 88.0425626 17.23828125 86.84765625 C13.82259329 84.8987776 10.47408041 82.87377005 7.125 80.8125 C6.25488281 80.27979492 6.25488281 80.27979492 5.3671875 79.73632812 C1.12397891 77.12397891 1.12397891 77.12397891 0 76 C-0.09494733 73.62699131 -0.12559319 71.28321297 -0.11352539 68.90991211 C-0.11367142 68.16849472 -0.11381744 67.42707733 -0.1139679 66.66319275 C-0.11326865 64.20121379 -0.10547574 61.73930957 -0.09765625 59.27734375 C-0.09579211 57.57483461 -0.09436819 55.87232493 -0.09336853 54.16981506 C-0.08954302 49.68006927 -0.07971247 45.19035562 -0.06866455 40.70062256 C-0.05845113 36.12268509 -0.05387106 31.54474244 -0.04882812 26.96679688 C-0.03809022 17.97785043 -0.02101341 8.98892788 0 0 Z " fill="#FDFDFD" transform="translate(158,206)"/>
<path d="M0 0 C0.33 22.44 0.66 44.88 1 68 C4.3 65.03 7.6 62.06 11 59 C13.18577716 57.22190712 15.39165112 55.46796068 17.625 53.75 C22.80708438 49.73417186 27.92252569 45.64727807 33 41.5 C35.66498669 39.33126113 38.33212967 37.16519015 41 35 C41.99290039 34.19272461 41.99290039 34.19272461 43.00585938 33.36914062 C44.91476748 31.82203939 46.83111586 30.28470077 48.75 28.75 C49.60851562 28.05100586 49.60851562 28.05100586 50.484375 27.33789062 C53.22899247 25.15737121 55.46279325 23.44644357 59 23 C59.47566406 23.53625 59.95132813 24.0725 60.44140625 24.625 C61.14136719 25.40875 61.84132813 26.1925 62.5625 27 C63.34294678 27.89783203 64.12339355 28.79566406 64.92749023 29.72070312 C67.06941976 32.09976702 69.32757131 34.1683767 71.77929688 36.22460938 C78.99214423 42.5574467 83.74538526 47.87220979 84.42588806 57.73803711 C84.49204625 63.01244916 84.25550668 68.2366894 83.9375 73.5 C83.86208207 75.69117468 83.79367215 77.88260228 83.73242188 80.07421875 C83.56887338 85.38842881 83.31949229 90.69299886 83 96 C81.91678467 95.45802979 80.83356934 94.91605957 79.7175293 94.35766602 C78.27392917 93.63557266 76.83032546 92.91348645 75.38671875 92.19140625 C74.67543823 91.83550415 73.96415771 91.47960205 73.23132324 91.11291504 C61.45815207 84.23723836 61.45815207 84.23723836 48.6418457 84.78100586 C47.82804443 85.08917236 47.01424316 85.39733887 46.17578125 85.71484375 C45.2412915 86.06683838 44.30680176 86.41883301 43.34399414 86.78149414 C41.84340454 87.35371704 41.84340454 87.35371704 40.3125 87.9375 C38.75486938 88.52615845 38.75486938 88.52615845 37.16577148 89.12670898 C27.79940232 92.67426931 18.45337799 96.27584605 9.11645508 99.90014648 C8.06868896 100.30563721 7.02092285 100.71112793 5.94140625 101.12890625 C4.54450562 101.67140015 4.54450562 101.67140015 3.11938477 102.22485352 C1 103 1 103 0 103 C0 92.11 0 81.22 0 70 C-5.22255583 73.94661035 -5.22255583 73.94661035 -10.44116211 77.8984375 C-11.08835205 78.38570313 -11.73554199 78.87296875 -12.40234375 79.375 C-13.06741943 79.87773438 -13.73249512 80.38046875 -14.41772461 80.8984375 C-16 82 -16 82 -17 82 C-17.35024651 73.52414027 -17.61536058 65.051382 -17.77718258 56.57003689 C-17.85492656 52.62975512 -17.9599748 48.69447913 -18.1315918 44.75708008 C-19.36133517 15.81101259 -19.36133517 15.81101259 -11.66468811 7.28517151 C-3.77502471 0 -3.77502471 0 0 0 Z " fill="#323232" transform="translate(158,11)"/>
<path d="M0 0 C20.37326656 6.23671425 40.60387601 12.79807756 60.79736328 19.58837891 C66.94413761 21.65456743 73.09718486 23.70187949 79.25 25.75 C81.17190579 26.39053264 83.09378453 27.03114641 85.015625 27.671875 C85.79196289 27.9306543 86.56830078 28.18943359 87.36816406 28.45605469 C87.90666992 28.63555664 88.44517578 28.81505859 89 29 C89 29.99 89 30.98 89 32 C87.16986409 33.79973498 85.36459006 35.39337204 83.375 37 C82.79105469 37.48275391 82.20710938 37.96550781 81.60546875 38.46289062 C76.88225058 42.34519469 72.06899299 46.11362131 67.24267578 49.86645508 C62.59451888 53.49294684 58.08742246 57.26474536 53.60449219 61.0925293 C49.75053475 64.37941783 45.82870734 67.56140023 41.859375 70.70703125 C38.04238825 73.76792089 34.27246186 76.88450775 30.5 80 C25.15228286 84.41480016 19.7879558 88.8028225 14.35546875 93.11328125 C10.58389351 96.13429425 6.87012083 99.22565002 3.15234375 102.3125 C1 104 1 104 0 104 C-0.37343084 97.7933879 -0.64406612 91.59341245 -0.82397461 85.37817383 C-0.89899871 83.26959312 -1.00107258 81.16178236 -1.1315918 79.0559082 C-2.16376002 61.96239286 -2.16376002 61.96239286 1.52069092 56.91802979 C5.51612103 53.05662155 10.03471068 50.43207745 15 48 C14.1802771 47.48228027 14.1802771 47.48228027 13.34399414 46.95410156 C12.04052734 46.13085938 10.73706055 45.30761719 9.43359375 44.484375 C6.32833159 42.59031462 3.15808065 40.80461752 0 39 C0 26.13 0 13.26 0 0 Z " fill="#313131" transform="translate(257,215)"/>
<path d="M0 0 C8.93548387 6.7016129 8.93548387 6.7016129 12.5 10.4375 C15.79454301 13.87776319 19.2681556 17.0025213 22.86328125 20.11938477 C26.40942085 23.24049004 29.82405594 26.49822294 33.25 29.75 C39.09275327 35.27347021 44.97430165 40.74504781 50.9140625 46.1640625 C54.61879944 49.55620463 58.27672424 52.99806543 61.9375 56.4375 C66.87988851 61.07992372 71.8304451 65.71264042 76.8125 70.3125 C77.59403442 71.03542236 77.59403442 71.03542236 78.39135742 71.77294922 C80.97809903 74.15964513 83.58123637 76.52444063 86.21484375 78.859375 C86.72619873 79.31530029 87.23755371 79.77122559 87.7644043 80.2409668 C89.15639894 81.47923582 90.55454748 82.71057719 91.953125 83.94140625 C94 86 94 86 95 89 C87.37891872 86.74160628 80.68928784 83.41946928 73.6875 79.6875 C71.28717495 78.42192577 68.88396991 77.16187367 66.48046875 75.90234375 C65.86626068 75.5798465 65.25205261 75.25734924 64.61923218 74.92507935 C57.96034338 71.43760699 51.23285549 68.09177793 44.5 64.75 C35.73788033 60.3940024 27.01601507 55.98062301 18.38476562 51.37011719 C12.30638822 48.12734647 6.17204646 45.08602323 0 42 C0 74.01 0 106.02 0 139 C-8 138 -8 138 -15 135 C-15 101.34 -15 67.68 -15 33 C-9.87699202 35.04920319 -4.93513481 37.5324326 0 40 C0 26.8 0 13.6 0 0 Z " fill="#323232" transform="translate(257,75)"/>
<path d="M0 0 C0.33 16.83 0.66 33.66 1 51 C5.95 52.98 10.9 54.96 16 57 C16 64.92 16 72.84 16 81 C13.73125 79.88625 11.4625 78.7725 9.125 77.625 C8.41230957 77.27775879 7.69961914 76.93051758 6.96533203 76.57275391 C4.29175738 75.24781686 2.123419 74.123419 0 72 C-0.31884766 69.93701172 -0.31884766 69.93701172 -0.4140625 67.4296875 C-0.45273438 66.53378906 -0.49140625 65.63789063 -0.53125 64.71484375 C-0.5621875 63.77769531 -0.593125 62.84054688 -0.625 61.875 C-0.66367188 60.93011719 -0.70234375 59.98523438 -0.7421875 59.01171875 C-0.83661346 56.67467625 -0.92218394 54.33764499 -1 52 C-15.65168475 46.42656062 -30.35740869 41.06646005 -45.18212891 35.97167969 C-49.93974795 34.3311214 -54.68844501 32.66515339 -59.4375 31 C-61.10286163 30.41665824 -62.76822591 29.83332403 -64.43359375 29.25 C-65.61050781 28.8375 -66.78742188 28.425 -68 28 C-68 27.34 -68 26.68 -68 26 C-67.29319092 25.72438232 -66.58638184 25.44876465 -65.8581543 25.16479492 C-50.15383822 19.0344628 -34.49902066 12.80091617 -18.8984375 6.41015625 C-17.90682617 6.00555176 -16.91521484 5.60094727 -15.89355469 5.18408203 C-13.96445593 4.39466852 -12.03800205 3.59876058 -10.11425781 2.79638672 C-9.22319336 2.42916504 -8.33212891 2.06194336 -7.4140625 1.68359375 C-6.24157959 1.19524048 -6.24157959 1.19524048 -5.04541016 0.69702148 C-3 0 -3 0 0 0 Z " fill="#F9F9F9" transform="translate(141,123)"/>
<path d="M0 0 C0 29.7 0 59.4 0 90 C-0.33 90 -0.66 90 -1 90 C-1 82.08 -1 74.16 -1 66 C-2.32 65.67 -3.64 65.34 -5 65 C-6.90297812 64.35401026 -8.7985649 63.68596842 -10.6875 63 C-12.14736328 62.4740625 -12.14736328 62.4740625 -13.63671875 61.9375 C-16 61 -16 61 -17 60 C-17.10328232 58.59459193 -17.13849727 57.18408413 -17.14526367 55.77490234 C-17.15164352 54.87661713 -17.15802338 53.97833191 -17.16459656 53.05282593 C-17.16626579 51.58421616 -17.16626579 51.58421616 -17.16796875 50.0859375 C-17.17129715 49.0829361 -17.17462555 48.07993469 -17.17805481 47.04653931 C-17.18313083 44.91628479 -17.18546293 42.78602228 -17.18530273 40.65576172 C-17.18747676 37.40969494 -17.20559077 34.16397476 -17.22460938 30.91796875 C-17.22754572 28.8489595 -17.2295289 26.77994863 -17.23046875 24.7109375 C-17.23765427 23.7440097 -17.24483978 22.77708191 -17.25224304 21.78085327 C-17.23446191 16.47997965 -16.9560061 11.95872216 -15 7 C-12.03125 4.78515625 -12.03125 4.78515625 -8.5 3.0625 C-6.75203125 2.18271484 -6.75203125 2.18271484 -4.96875 1.28515625 C-2 0 -2 0 0 0 Z " fill="#313131" transform="translate(158,114)"/>
<path d="M0 0 C0.32713979 7.31905075 0.57446387 14.6364825 0.72537041 21.96141243 C0.79788139 25.36479262 0.8958076 28.7631101 1.05615234 32.16357422 C2.15028503 57.19990458 2.15028503 57.19990458 -5.02194214 65.04611206 C-12.54544455 72 -12.54544455 72 -15 72 C-15.11600357 64.52426726 -15.20476984 57.04872951 -15.25906086 49.57227802 C-15.28512227 46.10035151 -15.32045387 42.62904208 -15.37719727 39.1574707 C-15.44206834 35.16351501 -15.46620862 31.17020442 -15.48828125 27.17578125 C-15.51408768 25.93290848 -15.5398941 24.69003571 -15.56648254 23.40950012 C-15.56929699 14.75851741 -15.56929699 14.75851741 -12.62084961 10.83007812 C-11.75596924 10.22615234 -10.89108887 9.62222656 -10 9 C-9.20078125 8.18917969 -8.4015625 7.37835938 -7.578125 6.54296875 C-6.80984375 5.76566406 -6.0415625 4.98835938 -5.25 4.1875 C-4.47140625 3.39730469 -3.6928125 2.60710937 -2.890625 1.79296875 C-1 0 -1 0 0 0 Z " fill="#2F2F2F" transform="translate(257,320)"/>
<path d="M0 0 C0.90421944 0.46418335 0.90421944 0.46418335 1.82670593 0.93774414 C4.06173005 2.07931818 4.06173005 2.07931818 6.77270508 2.99609375 C10.39790089 4.77687053 13.0510149 6.44325786 15 10 C16.95927898 18.75685717 16.02491508 28.10451156 15.6875 37 C15.63229378 39.51682086 15.58210883 42.03375721 15.53710938 44.55078125 C15.41618811 50.70304805 15.23242774 56.85099011 15 63 C11.38196861 60.61313221 7.9406643 58.24283804 4.6875 55.375 C4.01074219 54.78460938 3.33398438 54.19421875 2.63671875 53.5859375 C0.65051945 51.66136252 0.03544738 50.63042453 -0.12025452 47.86129761 C-0.11803391 46.9774942 -0.11581329 46.0936908 -0.11352539 45.18310547 C-0.11344986 44.18221893 -0.11337433 43.1813324 -0.11329651 42.15011597 C-0.10813522 41.06674957 -0.10297394 39.98338318 -0.09765625 38.8671875 C-0.0962413 37.76021515 -0.09482635 36.6532428 -0.09336853 35.51272583 C-0.08775772 31.96679007 -0.07520337 28.42091677 -0.0625 24.875 C-0.05748639 22.47526133 -0.05292325 20.07552167 -0.04882812 17.67578125 C-0.03778478 11.78383275 -0.0210361 5.89192084 0 0 Z " fill="#323232" transform="translate(242,11)"/>
<path d="M0 0 C7 1 7 1 14 4 C14 16.54 14 29.08 14 42 C7 41 7 41 0 38 C0 25.46 0 12.92 0 0 Z " fill="#FCFCFC" transform="translate(242,211)"/>
<path d="M0 0 C0.66 0 1.32 0 2 0 C2 10.89 2 21.78 2 33 C-0.43375 34.32 -2.8675 35.64 -5.375 37 C-6.13989746 37.41765625 -6.90479492 37.8353125 -7.69287109 38.265625 C-12.77777778 41 -12.77777778 41 -15 41 C-18.15258851 15.86264185 -18.15258851 15.86264185 -14.70556641 9.67724609 C-11.09782434 5.91278196 -6.75913292 3.97026974 -2 2 C-1.34 1.34 -0.68 0.68 0 0 Z " fill="#F4F4F4" transform="translate(156,81)"/>
<path d="M0 0 C13 4 13 4 14 5 C15.08846929 11.79834313 16.59271504 21.77569103 12.85009766 27.87353516 C9.75286871 31.10998876 6.10104416 33.21076328 2 35 C1.34 35 0.68 35 0 35 C0 23.45 0 11.9 0 0 Z " fill="#313131" transform="translate(242,249)"/>
<path d="M0 0 C4.84188283 2.35930744 9.42829249 5.13611792 14.0625 7.875 C15.03678955 8.45072754 16.0110791 9.02645508 17.01489258 9.61962891 C25.77006652 14.81887933 34.39256158 20.21190082 42.96875 25.70019531 C44.85193207 26.90525076 46.73770546 28.1060862 48.625 29.3046875 C51.08496021 30.86726427 53.54338027 32.43217977 56 34 C54.19921875 35.078125 54.19921875 35.078125 52 36 C46.40243902 33.80487805 46.40243902 33.80487805 45 31 C43.06669397 29.90833725 43.06669397 29.90833725 41 29 C40.34 28.67 39.68 28.34 39 28 C38.67 28.66 38.34 29.32 38 30 C37.34 30 36.68 30 36 30 C36 29.01 36 28.02 36 27 C35.34 27 34.68 27 34 27 C34 27.66 34 28.32 34 29 C33.34 29 32.68 29 32 29 C32 29.99 32 30.98 32 32 C32.66 32 33.32 32 34 32 C34.66 33.32 35.32 34.64 36 36 C32.2389215 36 31.28748774 34.65731328 28.69743347 32.11427307 C28.14114761 31.55191452 27.58486176 30.98955597 27.01171875 30.41015625 C26.43090042 29.8322081 25.85008209 29.25425995 25.25166321 28.65879822 C24.01995604 27.42913569 22.79204195 26.19566399 21.56762695 24.95874023 C19.71550825 23.09074829 17.8482017 21.23905988 15.97851562 19.38867188 C9.93451792 13.35382204 4.23060861 7.50327324 0 0 Z " fill="#393939" transform="translate(59,226)"/>
<path d="M0 0 C0.66 0 1.32 0 2 0 C2.33 13.2 2.66 26.4 3 40 C7.95 42.64 12.9 45.28 18 48 C13.71579302 52.28420698 12.65747544 53.18150397 7.7578125 55.34765625 C4.87849948 57.31830295 3.29894372 58.80956224 2.43591309 62.24627686 C1.53705501 69.28089655 1.75192233 76.3621257 1.875 83.4375 C1.87694285 85.62174548 1.87438701 87.8059999 1.8671875 89.99023438 C1.859378 95.3280275 1.90788852 100.66304579 2 106 C1.67 106 1.34 106 1 106 C0.2423213 79.89434165 -0.09508844 53.80306479 -0.0625 27.6875 C-0.06164398 26.99659397 -0.06078796 26.30568794 -0.05990601 25.59384537 C-0.04854759 17.06253921 -0.02851882 8.53126627 0 0 Z " fill="#D3D3D3" transform="translate(255,214)"/>
<path d="M0 0 C1.82291667 0.52083333 3.64583333 1.04166667 5.46875 1.5625 C8.93086239 2.1608898 12.48655546 2 16 2 C16 7.94 16 13.88 16 20 C15.34 20.33 14.68 20.66 14 21 C11.31791438 19.6812831 8.76809321 18.30846276 6.1875 16.8125 C5.47529297 16.41224609 4.76308594 16.01199219 4.02929688 15.59960938 C0.07448855 13.3423321 -3.52481242 10.96995402 -7 8 C-6.34 8 -5.68 8 -5 8 C-5 7.34 -5 6.68 -5 6 C-3.68 5.67 -2.36 5.34 -1 5 C-0.67 3.35 -0.34 1.7 0 0 Z " fill="#333333" transform="translate(123,173)"/>
<path d="M0 0 C0 29.7 0 59.4 0 90 C-0.33 90 -0.66 90 -1 90 C-1.02505615 89.28344238 -1.0501123 88.56688477 -1.07592773 87.82861328 C-1.19169751 84.59388486 -1.31450969 81.35946159 -1.4375 78.125 C-1.47681641 76.99707031 -1.51613281 75.86914062 -1.55664062 74.70703125 C-1.61948242 73.09248047 -1.61948242 73.09248047 -1.68359375 71.4453125 C-1.72025146 70.45031738 -1.75690918 69.45532227 -1.79467773 68.43017578 C-1.84959532 65.99220499 -1.84959532 65.99220499 -3 64 C-3.09101612 62.1514292 -3.11753146 60.29953621 -3.11352539 58.44873047 C-3.11344986 57.28767792 -3.11337433 56.12662537 -3.11329651 54.9303894 C-3.10813522 53.67203278 -3.10297394 52.41367615 -3.09765625 51.1171875 C-3.0962413 49.83264679 -3.09482635 48.54810608 -3.09336853 47.22463989 C-3.08954911 43.80843158 -3.07972373 40.39226574 -3.06866455 36.97607422 C-3.05843807 33.49056574 -3.05386826 30.0050504 -3.04882812 26.51953125 C-3.03810096 19.67967005 -3.02103142 12.83983706 -3 6 C-3.66 6 -4.32 6 -5 6 C-5.33 6.66 -5.66 7.32 -6 8 C-7.66666667 8.33333333 -9.33333333 8.66666667 -11 9 C-11.33 9.66 -11.66 10.32 -12 11 C-13.32 11 -14.64 11 -16 11 C-15.90234375 9.234375 -15.90234375 9.234375 -15 7 C-12.84823392 5.55963414 -10.86019848 4.39516309 -8.5625 3.25 C-7.96373047 2.93417969 -7.36496094 2.61835937 -6.74804688 2.29296875 C-2.31596659 0 -2.31596659 0 0 0 Z " fill="#4A4A4A" transform="translate(158,114)"/>
<path d="M0 0 C0 2 0 2 -1.25 3.375 C-2.11625 4.179375 -2.11625 4.179375 -3 5 C-3.9590625 6.0209375 -3.9590625 6.0209375 -4.9375 7.0625 C-6.91584458 8.92094491 -8.60560555 9.80280277 -11 11 C-11.66 11.99 -12.32 12.98 -13 14 C-14.30518475 15.03647024 -15.63461347 16.04422943 -17 17 C-17.66 16.67 -18.32 16.34 -19 16 C-19.33 16.66 -19.66 17.32 -20 18 C-21.42341735 19.06898076 -22.88832034 20.08340838 -24.375 21.0625 C-25.16648437 21.58972656 -25.95796875 22.11695313 -26.7734375 22.66015625 C-29 24 -29 24 -32 25 C-32.12375 25.639375 -32.2475 26.27875 -32.375 26.9375 C-32.684375 27.9584375 -32.684375 27.9584375 -33 29 C-35.5 30.125 -35.5 30.125 -38 31 C-38.33 31.66 -38.66 32.32 -39 33 C-39.33 32.67 -39.66 32.34 -40 32 C-40.5878125 32.61875 -40.5878125 32.61875 -41.1875 33.25 C-43.34059374 35.32884913 -45.64563841 37.15468957 -48 39 C-48.66 38.67 -49.32 38.34 -50 38 C-47.51211989 32.61622745 -43.35778731 30.07274552 -38.625 26.8125 C-36.98580764 25.65791144 -35.34779331 24.50164869 -33.7109375 23.34375 C-32.90624023 22.7765625 -32.10154297 22.209375 -31.27246094 21.625 C-28.20352476 19.43045346 -25.22029131 17.13791004 -22.25 14.8125 C-17.66041699 11.25191904 -13.02265392 7.77469678 -8.3125 4.375 C-7.71147461 3.93647705 -7.11044922 3.4979541 -6.49121094 3.04614258 C-2.23632064 0 -2.23632064 0 0 0 Z " fill="#242424" transform="translate(125,106)"/>
<path d="M0 0 C0 23.1 0 46.2 0 70 C-0.99 70.495 -0.99 70.495 -2 71 C-1.67 69.35 -1.34 67.7 -1 66 C-1.66 66 -2.32 66 -3 66 C-3 65.34 -3 64.68 -3 64 C-2.34 64 -1.68 64 -1 64 C-1 44.86 -1 25.72 -1 6 C-1.99 6 -2.98 6 -4 6 C-4 7.65 -4 9.3 -4 11 C-4.8353125 11.12375 -4.8353125 11.12375 -5.6875 11.25 C-8.68448323 12.22199456 -10.57606101 14.02257608 -13 16 C-13.66 16 -14.32 16 -15 16 C-14.75552124 16.82902832 -14.75552124 16.82902832 -14.50610352 17.67480469 C-13.94455523 20.25473034 -13.8869974 22.56355224 -13.90234375 25.203125 C-13.90556641 26.1828125 -13.90878906 27.1625 -13.91210938 28.171875 C-13.92048828 29.18765625 -13.92886719 30.2034375 -13.9375 31.25 C-13.94201172 32.28125 -13.94652344 33.3125 -13.95117188 34.375 C-13.96293912 36.91672573 -13.97937989 39.45833319 -14 42 C-14.99 42.495 -14.99 42.495 -16 43 C-18.60504155 17.47593649 -18.60504155 17.47593649 -12.6953125 9.80078125 C-3.45950823 0 -3.45950823 0 0 0 Z " fill="#1F1F1F" transform="translate(157,11)"/>
<path d="M0 0 C1.98 0.66 3.96 1.32 6 2 C6 2.66 6 3.32 6 4 C6.66 4 7.32 4 8 4 C8 4.66 8 5.32 8 6 C8.66 5.67 9.32 5.34 10 5 C10.65213292 2.97536745 10.65213292 2.97536745 11 1 C11.66 1.33 12.32 1.66 13 2 C13.33 2.99 13.66 3.98 14 5 C14.66 5.33 15.32 5.66 16 6 C16 6.66 16 7.32 16 8 C17.0725 8.144375 18.145 8.28875 19.25 8.4375 C21.91662949 8.83749442 24.41399729 9.27591924 27 10 C26.33333333 11.33333333 25.66666667 12.66666667 25 14 C25.969375 14.28875 26.93875 14.5775 27.9375 14.875 C31 16 31 16 32 18 C31.0625 20.125 31.0625 20.125 30 22 C8.39260417 9.11811831 8.39260417 9.11811831 -1 3 C-0.67 2.01 -0.34 1.02 0 0 Z " fill="#383838" transform="translate(78,155)"/>
<path d="M0 0 C5.25630694 0.49960937 9.08235645 3.24979555 13.4375 6 C14.61771729 6.73343628 14.61771729 6.73343628 15.82177734 7.48168945 C22.92887769 11.91267715 29.98153684 16.43010035 37 21 C35.19921875 22.078125 35.19921875 22.078125 33 23 C27.40243902 20.80487805 27.40243902 20.80487805 26 18 C24.06669397 16.90833725 24.06669397 16.90833725 22 16 C21.34 15.67 20.68 15.34 20 15 C19.67 15.66 19.34 16.32 19 17 C18.34 17 17.68 17 17 17 C17 16.01 17 15.02 17 14 C15.68 13.67 14.36 13.34 13 13 C13 12.01 13 11.02 13 10 C12.34 10 11.68 10 11 10 C10.67 10.66 10.34 11.32 10 12 C8.88625 10.8553125 8.88625 10.8553125 7.75 9.6875 C5.5736677 7.5606298 3.47832204 5.7440044 1 4 C1.66 4 2.32 4 3 4 C2.34 3.34 1.68 2.68 1 2 C0.67 1.34 0.34 0.68 0 0 Z " fill="#282828" transform="translate(78,239)"/>
<path d="M0 0 C1.98 1.65 3.96 3.3 6 5 C5.67 5.99 5.34 6.98 5 8 C5 7.34 5 6.68 5 6 C4.34 6 3.68 6 3 6 C2.67 27.12 2.34 48.24 2 70 C1.34 70 0.68 70 0 70 C0 46.9 0 23.8 0 0 Z " fill="#3B3B3B" transform="translate(140,308)"/>
<path d="M0 0 C0.66 0.33 1.32 0.66 2 1 C2 2.65 2 4.3 2 6 C1.34 6 0.68 6 0 6 C0 6.66 0 7.32 0 8 C0.56847656 8.10957031 1.13695313 8.21914062 1.72265625 8.33203125 C6.82316758 9.37938166 11.284442 10.79271753 16 13 C15.67 14.65 15.34 16.3 15 18 C14.34 18 13.68 18 13 18 C13 17.34 13 16.68 13 16 C12.34 16 11.68 16 11 16 C11 15.34 11 14.68 11 14 C7.57936088 13.06037376 7.57936088 13.06037376 4.1875 13.65625 C0.87772908 14.17635686 -0.90902679 12.71973437 -3.75 11.0625 C-4.73484375 10.49660156 -5.7196875 9.93070313 -6.734375 9.34765625 C-7.48203125 8.90292969 -8.2296875 8.45820313 -9 8 C-9 7.34 -9 6.68 -9 6 C-7.03125 4.4921875 -7.03125 4.4921875 -4.5 2.875 C-3.6646875 2.33617187 -2.829375 1.79734375 -1.96875 1.2421875 C-1.3190625 0.83226562 -0.669375 0.42234375 0 0 Z " fill="#2D2D2D" transform="translate(73,143)"/>
<path d="M0 0 C0.33 0 0.66 0 1 0 C2.27224564 17.85490979 2.1538899 35.72430831 2.13037109 53.61328125 C2.12471887 57.96700513 2.12802326 62.32066721 2.13382339 66.67438889 C2.15713152 87.47140741 1.88152003 108.22002985 1 129 C0.67 129 0.34 129 0 129 C-0.90631076 106.81940685 -1.15954083 84.66806744 -1.13037109 62.47045898 C-1.12461736 58.03505265 -1.1280099 53.59970614 -1.13394356 49.16430187 C-1.13759346 45.66794907 -1.13639144 42.17160999 -1.13381577 38.67525673 C-1.13316168 37.04060165 -1.13391986 35.40594521 -1.13629532 33.77129173 C-1.14914292 22.48105133 -0.73116749 11.26659788 0 0 Z " fill="#5A5A5A" transform="translate(140,176)"/>
<path d="M0 0 C5.445 1.485 5.445 1.485 11 3 C11.33 3.66 11.66 4.32 12 5 C8.37 4.67 4.74 4.34 1 4 C1.08378906 5.19238281 1.16757813 6.38476562 1.25390625 7.61328125 C1.35708136 9.17966708 1.45992889 10.74607451 1.5625 12.3125 C1.61857422 13.09818359 1.67464844 13.88386719 1.73242188 14.69335938 C1.78076172 15.45068359 1.82910156 16.20800781 1.87890625 16.98828125 C1.9260376 17.68477783 1.97316895 18.38127441 2.02172852 19.09887695 C2 21 2 21 1 24 C0.34 24 -0.32 24 -1 24 C-1 49.08 -1 74.16 -1 100 C-1.33 100 -1.66 100 -2 100 C-2 74.59 -2 49.18 -2 23 C-1.34 23 -0.68 23 0 23 C0 15.41 0 7.82 0 0 Z " fill="#151515" transform="translate(158,181)"/>
<path d="M0 0 C4.063125 1.258125 8.12625 2.51625 12.3125 3.8125 C13.59036377 4.20284424 14.86822754 4.59318848 16.18481445 4.99536133 C17.69628052 5.47138794 17.69628052 5.47138794 19.23828125 5.95703125 C20.26993408 6.27647705 21.30158691 6.59592285 22.36450195 6.92504883 C24.93756205 7.97453318 26.24488198 8.88701684 28 11 C25 11 25 11 22.875 10.0625 C19.54780792 8.83288554 16.505287 8.53572952 12.98828125 8.24609375 C11 8 11 8 9 7 C8.67 7.66 8.34 8.32 8 9 C7.67 8.34 7.34 7.68 7 7 C3.97065509 6.34227572 3.97065509 6.34227572 1 6 C1.03552979 6.82201904 1.07105957 7.64403809 1.10766602 8.4909668 C1.26548001 12.22291218 1.41408627 15.95516946 1.5625 19.6875 C1.61857422 20.98107422 1.67464844 22.27464844 1.73242188 23.60742188 C1.78076172 24.85458984 1.82910156 26.10175781 1.87890625 27.38671875 C1.9260376 28.53358154 1.97316895 29.68044434 2.02172852 30.86206055 C2.00181135 33.73841192 1.6777202 36.21381694 1 39 C0.67 39 0.34 39 0 39 C0 26.13 0 13.26 0 0 Z " fill="#292929" transform="translate(257,215)"/>
<path d="M0 0 C4.75 0.75 4.75 0.75 7 3 C7.18848472 6.10417418 7.25160454 9.11853901 7.22705078 12.22314453 C7.22734283 13.1792865 7.22763489 14.13542847 7.22793579 15.12054443 C7.22653876 18.29139172 7.21095999 21.46200609 7.1953125 24.6328125 C7.1915837 26.82713696 7.1887361 29.02146308 7.18673706 31.21578979 C7.17909015 36.99937514 7.15943259 42.78286049 7.1373291 48.56640625 C7.11689343 54.46482999 7.10774023 60.36326984 7.09765625 66.26171875 C7.07618769 77.84118984 7.04203902 89.42058661 7 101 C6.01 100.67 5.02 100.34 4 100 C4.99 99.505 4.99 99.505 6 99 C6 67.98 6 36.96 6 5 C4.35 4.67 2.7 4.34 1 4 C0.67 2.68 0.34 1.36 0 0 Z " fill="#191919" transform="translate(249,113)"/>
<path d="M0 0 C0 19.14 0 38.28 0 58 C-0.99 57.67 -1.98 57.34 -3 57 C-2.67 39.51 -2.34 22.02 -2 4 C-2.66 3.67 -3.32 3.34 -4 3 C-1.125 0 -1.125 0 0 0 Z " fill="#373737" transform="translate(257,320)"/>
<path d="M0 0 C0.66 0.33 1.32 0.66 2 1 C0.33859061 4.50741983 -0.38961807 5.78026251 -4.125 7.125 C-5.07375 7.41375 -6.0225 7.7025 -7 8 C-7.33 8.99 -7.66 9.98 -8 11 C-9.72129497 12.62004233 -11.54925478 14.03875786 -13.40625 15.5 C-15.26844491 17.01516837 -15.26844491 17.01516837 -16 20 C-18.92079805 22.07530387 -20.37546731 23 -24 23 C-24.08378906 23.61230469 -24.16757813 24.22460938 -24.25390625 24.85546875 C-25 27 -25 27 -26.77734375 28.30078125 C-27.49019531 28.63464844 -28.20304688 28.96851563 -28.9375 29.3125 C-29.64777344 29.65925781 -30.35804688 30.00601562 -31.08984375 30.36328125 C-32.03537109 30.67845703 -32.03537109 30.67845703 -33 31 C-33.66 30.67 -34.32 30.34 -35 30 C-29.15373605 24.63564067 -23.19499077 19.47512524 -17.02734375 14.484375 C-11.2666692 9.75690531 -5.64208982 4.86784684 0 0 Z " fill="#E8E8E8" transform="translate(239,336)"/>
<path d="M0 0 C3.40013186 0.5765441 4.92670485 1.60997661 7.25 4.125 C9.75540534 6.74843301 12.30966969 9.19917149 15.0625 11.5625 C18.54343736 14.57524111 21.86260341 17.62729867 25 21 C25 21.66 25 22.32 25 23 C23.68 23 22.36 23 21 23 C20.67 22.34 20.34 21.68 20 21 C18.7625 20.566875 18.7625 20.566875 17.5 20.125 C15 19 15 19 14.1875 16.875 C14.125625 16.25625 14.06375 15.6375 14 15 C13.34 15.66 12.68 16.32 12 17 C11.67 16.01 11.34 15.02 11 14 C10.34 14.66 9.68 15.32 9 16 C7.68 14.68 6.36 13.36 5 12 C5.99 12 6.98 12 8 12 C7.01 11.34 6.02 10.68 5 10 C5.33 9.34 5.66 8.68 6 8 C3.45395403 4.47618313 3.45395403 4.47618313 0 2 C0 1.34 0 0.68 0 0 Z " fill="#2A2A2A" transform="translate(319,134)"/>
<path d="M0 0 C0.99 0.33 1.98 0.66 3 1 C2.01 1.33 1.02 1.66 0 2 C0 2.99 0 3.98 0 5 C-0.99 5.66 -1.98 6.32 -3 7 C-3 7.99 -3 8.98 -3 10 C-4.1446875 10.1546875 -4.1446875 10.1546875 -5.3125 10.3125 C-8.27544506 11.07046269 -9.19104648 11.58806197 -11 14 C-11.185625 14.845625 -11.37125 15.69125 -11.5625 16.5625 C-13 19 -13 19 -15.34765625 19.765625 C-17.89436487 20.26708661 -20.42437625 20.68161109 -23 21 C-21.43857788 16.93282263 -18.77414752 14.89346574 -15.4375 12.1875 C-14.90390869 11.7546167 -14.37031738 11.3217334 -13.82055664 10.87573242 C-12.7358273 9.99825141 -11.64851575 9.12395248 -10.55859375 8.25292969 C-9.12982704 7.10436597 -7.72012188 5.93219471 -6.3125 4.7578125 C-5.52875 4.11585937 -4.745 3.47390625 -3.9375 2.8125 C-3.24527344 2.24144531 -2.55304688 1.67039063 -1.83984375 1.08203125 C-1.23269531 0.72496094 -0.62554687 0.36789063 0 0 Z " fill="#202020" transform="translate(193,51)"/>
<path d="M0 0 C-0.33 0.99 -0.66 1.98 -1 3 C-4.0625 4.1875 -4.0625 4.1875 -7 5 C-7 5.66 -7 6.32 -7 7 C-7.66 7 -8.32 7 -9 7 C-9.66 8.98 -10.32 10.96 -11 13 C-11.99 13 -12.98 13 -14 13 C-14.33 26.53 -14.66 40.06 -15 54 C-15.33 54 -15.66 54 -16 54 C-16.32296747 47.75659923 -16.55792635 41.51811238 -16.71411133 35.26831055 C-16.77923569 33.14635511 -16.86777356 31.02497759 -16.98071289 28.9050293 C-17.8703505 11.76843524 -17.8703505 11.76843524 -14.73040771 7.12078857 C-10.74493765 3.15074753 -5.72310418 0 0 0 Z " fill="#191919" transform="translate(273,265)"/>
<path d="M0 0 C0 9.24 0 18.48 0 28 C-0.66 27.67 -1.32 27.34 -2 27 C-1.96519531 25.79601562 -1.93039063 24.59203125 -1.89453125 23.3515625 C-1.8663972 21.77605558 -1.83909663 20.20053362 -1.8125 18.625 C-1.78736328 17.8309375 -1.76222656 17.036875 -1.73632812 16.21875 C-1.70995595 14.14413852 -1.84513538 12.06899135 -2 10 C-2.99 9.34 -3.98 8.68 -5 8 C-5.515625 8.28875 -6.03125 8.5775 -6.5625 8.875 C-9.62356725 10.28780027 -12.74944918 11.1248517 -16 12 C-4.72727273 0 -4.72727273 0 0 0 Z " fill="#262626" transform="translate(141,94)"/>
<path d="M0 0 C13 4 13 4 14 5 C14.08685603 6.56172745 14.10702219 8.12729344 14.09765625 9.69140625 C14.09443359 10.63564453 14.09121094 11.57988281 14.08789062 12.55273438 C14.07951172 13.54595703 14.07113281 14.53917969 14.0625 15.5625 C14.05798828 16.55958984 14.05347656 17.55667969 14.04882812 18.58398438 C14.03700007 21.05604849 14.02051849 23.52799518 14 26 C13.34 25.67 12.68 25.34 12 25 C12.495 16.09 12.495 16.09 13 7 C10.69 6.67 8.38 6.34 6 6 C5.67 5.34 5.34 4.68 5 4 C4.01 4 3.02 4 2 4 C1.67 13.57 1.34 23.14 1 33 C0.67 33 0.34 33 0 33 C0 22.11 0 11.22 0 0 Z " fill="#111111" transform="translate(242,249)"/>
<path d="M0 0 C8.49163085 1.4897598 16.0894839 4.68571262 24 8 C24 8.33 24 8.66 24 9 C21.9163691 8.85848172 19.83310062 8.71162064 17.75 8.5625 C16.58984375 8.48128906 15.4296875 8.40007812 14.234375 8.31640625 C11.69022624 8.06752213 9.44046752 7.71885058 7 7 C6.67 7.66 6.34 8.32 6 9 C6 8.34 6 7.68 6 7 C5.01 6.67 4.02 6.34 3 6 C3.33 5.34 3.66 4.68 4 4 C3.01 3.67 2.02 3.34 1 3 C0.67 2.01 0.34 1.02 0 0 Z " fill="#252525" transform="translate(90,157)"/>
<path d="M0 0 C1.1055189 0.93590504 2.20935453 1.87379858 3.3125 2.8125 C3.92738281 3.33457031 4.54226562 3.85664062 5.17578125 4.39453125 C5.77777344 4.92433594 6.37976563 5.45414063 7 6 C7.52560013 6.43210281 8.05120026 6.86420563 8.59272766 7.30940247 C10.44318702 9.53241357 10.36364366 10.7869717 10.34057617 13.6550293 C10.34034958 14.59577805 10.34012299 15.53652679 10.33988953 16.50578308 C10.32440567 17.51836685 10.30892181 18.53095062 10.29296875 19.57421875 C10.28872391 20.61318802 10.28447906 21.65215729 10.28010559 22.72261047 C10.26329849 26.04450276 10.22564196 29.36579075 10.1875 32.6875 C10.17245582 34.93814229 10.15876695 37.18879407 10.14648438 39.43945312 C10.11338836 44.95984197 10.06316869 50.47987782 10 56 C9.67 56 9.34 56 9 56 C8.99191315 55.45320587 8.98382629 54.90641174 8.97549438 54.3430481 C8.88961231 48.66546886 8.79011675 42.9882454 8.68261719 37.31103516 C8.64427158 35.1906531 8.60942867 33.07020474 8.578125 30.94970703 C8.53259534 27.90633402 8.47458161 24.86341968 8.4140625 21.8203125 C8.40251129 20.86818878 8.39096008 19.91606506 8.37905884 18.93508911 C8.35918915 18.05432709 8.33931946 17.17356506 8.31884766 16.26611328 C8.30552399 15.48889923 8.29220032 14.71168518 8.2784729 13.91091919 C8.15960424 11.7611053 8.15960424 11.7611053 6 10 C5.67 9.67 5.34 9.34 5 9 C4.01 8.34 3.02 7.68 2 7 C0.25 5.0625 0.25 5.0625 -1 3 C-0.67 2.01 -0.34 1.02 0 0 Z " fill="#161616" transform="translate(231,51)"/>
<path d="M0 0 C4.91589414 1.74434953 11.25486512 4.25486512 15 8 C15.0883967 10.3756852 15.11530305 12.72208674 15.09765625 15.09765625 C15.0962413 15.80651474 15.09482635 16.51537323 15.09336853 17.24571228 C15.08775443 19.51801712 15.07519963 21.79022475 15.0625 24.0625 C15.05748681 25.59960796 15.05292359 27.13671745 15.04882812 28.67382812 C15.03778042 32.44925642 15.02050641 36.22461171 15 40 C14.01 39.01 13.02 38.02 12 37 C12.66 37 13.32 37 14 37 C13.67 27.76 13.34 18.52 13 9 C11.68 9 10.36 9 9 9 C9 8.34 9 7.68 9 7 C7.68 7.33 6.36 7.66 5 8 C4.67 6.68 4.34 5.36 4 4 C3.01 4 2.02 4 1 4 C0.67 2.68 0.34 1.36 0 0 Z " fill="#121212" transform="translate(125,267)"/>
<path d="M0 0 C3.3674681 1.68373405 5.83584191 3.31081564 8.75 5.625 C9.94882813 6.57246094 9.94882813 6.57246094 11.171875 7.5390625 C11.77515625 8.02117188 12.3784375 8.50328125 13 9 C9.85154896 9 9.02613983 8.63357515 6.4375 7.0625 C5.83808594 6.70285156 5.23867187 6.34320312 4.62109375 5.97265625 C4.08613281 5.65167969 3.55117187 5.33070312 3 5 C2.34 4.67 1.68 4.34 1 4 C1 18.52 1 33.04 1 48 C0.67 48 0.34 48 0 48 C0 32.16 0 16.32 0 0 Z " fill="#121212" transform="translate(242,11)"/>
<path d="M0 0 C0.99 0 1.98 0 3 0 C3.33 17.16 3.66 34.32 4 52 C1.69 51.34 -0.62 50.68 -3 50 C-1.25 46.125 -1.25 46.125 1 45 C1.33 30.48 1.66 15.96 2 1 C1.34 0.67 0.68 0.34 0 0 Z " fill="#EAEAEA" transform="translate(138,123)"/>
<path d="M0 0 C0.59240479 0.20447754 1.18480957 0.40895508 1.79516602 0.61962891 C1.46516602 1.60962891 1.13516602 2.59962891 0.79516602 3.61962891 C-0.19483398 3.94962891 -1.18483398 4.27962891 -2.20483398 4.61962891 C-3.78862597 5.60710543 -5.34977762 6.63140211 -6.89233398 7.68212891 C-7.70057617 8.22998047 -8.50881836 8.77783203 -9.34155273 9.34228516 C-9.95643555 9.76380859 -10.57131836 10.18533203 -11.20483398 10.61962891 C-11.86483398 10.28962891 -12.52483398 9.95962891 -13.20483398 9.61962891 C-13.20483398 10.60962891 -13.20483398 11.59962891 -13.20483398 12.61962891 C-15.16949811 13.68738115 -17.17338758 14.68516356 -19.20483398 15.61962891 C-19.86483398 15.28962891 -20.52483398 14.95962891 -21.20483398 14.61962891 C-17.46943292 10.69285056 -13.53050565 7.41825889 -9.14233398 4.24462891 C-8.53067383 3.78185547 -7.91901367 3.31908203 -7.28881836 2.84228516 C-2.71751928 -0.46881796 -2.71751928 -0.46881796 0 0 Z " fill="#1F1F1F" transform="translate(236.204833984375,290.38037109375)"/>
<path d="M0 0 C0.66 0 1.32 0 2 0 C2 0.66 2 1.32 2 2 C2.99 1.67 3.98 1.34 5 1 C4.34 2.65 3.68 4.3 3 6 C3.825 6.433125 4.65 6.86625 5.5 7.3125 C6.7375 8.1478125 6.7375 8.1478125 8 9 C8 9.99 8 10.98 8 12 C2.52067211 10.45454854 -2.11429181 7.84456788 -7 5 C-6.67 4.34 -6.34 3.68 -6 3 C-5.34 3 -4.68 3 -4 3 C-4 3.66 -4 4.32 -4 5 C-3.01 5 -2.02 5 -1 5 C-1.33 4.01 -1.66 3.02 -2 2 C-1.34 1.34 -0.68 0.68 0 0 Z " fill="#363636" transform="translate(225,232)"/>
<path d="M0 0 C5.72160285 1.67128787 10.14199846 4.49438252 15.09765625 7.734375 C17.9238924 9.32984311 17.9238924 9.32984311 20.7265625 8.2421875 C21.47679687 7.83226562 22.22703125 7.42234375 23 7 C24.32676508 6.64141484 25.65835921 6.2981424 27 6 C26.06788763 8.33028092 25.30996602 9.75891532 23.3125 11.3125 C20.0239998 12.29016222 17.32480873 11.63938629 14 11 C14 10.34 14 9.68 14 9 C12.9275 8.731875 11.855 8.46375 10.75 8.1875 C6.09582192 6.71367694 3.25216525 4.57738178 0 1 C0 0.67 0 0.34 0 0 Z " fill="#1F1F1F" transform="translate(187,300)"/>
<path d="M0 0 C2.63044301 1.28475305 5.1657438 2.65174195 7.671875 4.1640625 C8.66767578 4.76347656 8.66767578 4.76347656 9.68359375 5.375 C10.36550781 5.7875 11.04742187 6.2 11.75 6.625 C12.44738281 7.04523438 13.14476563 7.46546875 13.86328125 7.8984375 C15.57632572 8.93095746 17.28827213 9.96529882 19 11 C17 13 17 13 15.1171875 13.109375 C8.24828169 12.00843539 5.47316559 8.70330685 1.43359375 3.21484375 C0 1 0 1 0 0 Z " fill="#313131" transform="translate(59,226)"/>
<path d="M0 0 C1.71045375 0.42913519 3.41827882 0.86875249 5.125 1.3125 C6.55199219 1.67794922 6.55199219 1.67794922 8.0078125 2.05078125 C11 3 11 3 17 6 C16.67 12.27 16.34 18.54 16 25 C15.34 24.67 14.68 24.34 14 24 C14 18.39 14 12.78 14 7 C11.69 6.67 9.38 6.34 7 6 C1.38961039 2.77922078 1.38961039 2.77922078 0 0 Z " fill="#1B1B1B" transform="translate(124,169)"/>
<path d="M0 0 C-0.66 1.32 -1.32 2.64 -2 4 C-2.66 4 -3.32 4 -4 4 C-4.33 4.66 -4.66 5.32 -5 6 C-5.66 6 -6.32 6 -7 6 C-7.33 7.32 -7.66 8.64 -8 10 C-9.66666667 10 -11.33333333 10 -13 10 C-13.33 10.99 -13.66 11.98 -14 13 C-14.66 13 -15.32 13 -16 13 C-16.66 14.32 -17.32 15.64 -18 17 C-18.66 16.67 -19.32 16.34 -20 16 C-18.65173475 12.90562073 -17.25203513 11.09473565 -14.62890625 8.984375 C-13.97212891 8.45585938 -13.31535156 7.92734375 -12.63867188 7.3828125 C-11.95353516 6.84398437 -11.26839844 6.30515625 -10.5625 5.75 C-9.88123047 5.19570313 -9.19996094 4.64140625 -8.49804688 4.0703125 C-7.51094727 3.28527344 -7.51094727 3.28527344 -6.50390625 2.484375 C-5.60393921 1.76846191 -5.60393921 1.76846191 -4.68579102 1.03808594 C-3 0 -3 0 0 0 Z " fill="#202020" transform="translate(216,35)"/>
<path d="M0 0 C4.13574827 -0.0984702 7.93631321 0.22596442 12 1 C11.01 1.495 11.01 1.495 10 2 C10.99 2.66 11.98 3.32 13 4 C12.67 5.32 12.34 6.64 12 8 C10.265625 8.7421875 10.265625 8.7421875 8 9 C5.859375 7.3828125 5.859375 7.3828125 3.75 5.125 C3.04359375 4.38507813 2.3371875 3.64515625 1.609375 2.8828125 C0 1 0 1 0 0 Z " fill="#333333" transform="translate(68,237)"/>
<path d="M0 0 C0.556875 0.185625 1.11375 0.37125 1.6875 0.5625 C4.399133 1.07551165 6.34371039 0.6640724 9 0 C9.28875 0.94875 9.5775 1.8975 9.875 2.875 C10.76825109 6.05211578 10.76825109 6.05211578 13 8 C12.625 10.125 12.625 10.125 12 12 C7.47384007 8.32167983 3.60575001 4.58913637 0 0 Z " fill="#373737" transform="translate(141,378)"/>
<path d="M0 0 C6.32532275 4.39497902 11.67248457 9.45050476 17 15 C16.67 15.99 16.34 16.98 16 18 C15.67 17.01 15.34 16.02 15 15 C14.34 15 13.68 15 13 15 C11.375 13.625 11.375 13.625 10 12 C10 11.34 10 10.68 10 10 C9.01 10.33 8.02 10.66 7 11 C6.566875 10.195625 6.13375 9.39125 5.6875 8.5625 C4.19525998 5.72153646 4.19525998 5.72153646 1 5 C0.67 5.66 0.34 6.32 0 7 C0 4.69 0 2.38 0 0 Z " fill="#1D1D1D" transform="translate(257,75)"/>
<path d="M0 0 C2.64 0.99 5.28 1.98 8 3 C8 3.33 8 3.66 8 4 C5.69 3.67 3.38 3.34 1 3 C1.03552979 3.91289795 1.07105957 4.8257959 1.10766602 5.76635742 C1.23721994 9.16741842 1.36147011 12.56858866 1.48217773 15.9699707 C1.53540449 17.43944976 1.59071749 18.90885484 1.64819336 20.37817383 C1.73064713 22.49544326 1.80548711 24.61286908 1.87890625 26.73046875 C1.9260376 28.00301514 1.97316895 29.27556152 2.02172852 30.58666992 C2.00270869 33.57449241 1.71659169 36.11191832 1 39 C0.67 39 0.34 39 0 39 C0 26.13 0 13.26 0 0 Z " fill="#141414" transform="translate(257,215)"/>
<path d="M0 0 C0.66 0.33 1.32 0.66 2 1 C-1.75 4 -1.75 4 -4 4 C-6.31058985 7.64829977 -6.34281599 11.20068395 -6.4140625 15.390625 C-6.43342865 16.09523865 -6.4527948 16.79985229 -6.4727478 17.52581787 C-6.53232735 19.76709039 -6.57884123 22.00841489 -6.625 24.25 C-6.66319979 25.77345938 -6.70225269 27.29689762 -6.7421875 28.8203125 C-6.83801018 32.54668106 -6.92212107 36.27320835 -7 40 C-7.33 40 -7.66 40 -8 40 C-8.12391876 35.24952648 -8.21448561 30.50000039 -8.2746582 25.74829102 C-8.29974959 24.13321539 -8.33383126 22.51825274 -8.37719727 20.90356445 C-8.43809286 18.57735294 -8.46626124 16.25264641 -8.48828125 13.92578125 C-8.51408768 13.20787918 -8.5398941 12.48997711 -8.56648254 11.75032043 C-8.56865914 7.82928522 -8.1346032 6.16848893 -5.65698242 3.06713867 C-3 1 -3 1 0 0 Z " fill="#141414" transform="translate(166,74)"/>
<path d="M0 0 C0.33 0.99 0.66 1.98 1 3 C-1.17384564 5.17384564 -3.31270474 6.52198761 -6 8 C-6.66 8 -7.32 8 -8 8 C-8.33 8.66 -8.66 9.32 -9 10 C-10.32 10 -11.64 10 -13 10 C-12.87890625 8.203125 -12.87890625 8.203125 -12 6 C-9.27734375 4.296875 -9.27734375 4.296875 -5.9375 2.75 C-4.83277344 2.22921875 -3.72804687 1.7084375 -2.58984375 1.171875 C-1.73519531 0.78515625 -0.88054687 0.3984375 0 0 Z " fill="#202020" transform="translate(155,115)"/>
<path d="M0 0 C4.91935902 4.11619836 9.52647956 8.40410362 14 13 C13.67 13.99 13.34 14.98 13 16 C8.2 13.53846154 8.2 13.53846154 7.1875 10.8125 C7.0946875 9.9153125 7.0946875 9.9153125 7 9 C6.01 9 5.02 9 4 9 C2 6 2 6 2 4 C1.36525925 2.65117592 0.70151152 1.3153341 0 0 Z " fill="#222222" transform="translate(217,36)"/>
<path d="M0 0 C0.99 0 1.98 0 3 0 C3 0.66 3 1.32 3 2 C3.78375 1.7525 4.5675 1.505 5.375 1.25 C10.54213825 0.89364564 14.36798208 2.86707475 19 5 C19 5.33 19 5.66 19 6 C16.95775363 5.88485851 14.91619841 5.75742674 12.875 5.625 C11.73804688 5.55539063 10.60109375 5.48578125 9.4296875 5.4140625 C6.04606384 5.00556124 3.18387559 4.19032431 0 3 C0 2.01 0 1.02 0 0 Z " fill="#1F1F1F" transform="translate(286,226)"/>
<path d="M0 0 C0 2 0 2 -1.25 3.375 C-1.8275 3.91125 -2.405 4.4475 -3 5 C-3.639375 5.680625 -4.27875 6.36125 -4.9375 7.0625 C-8.18818498 10.11617377 -11.8807015 11.39805058 -16 13 C-16 12.01 -16 11.02 -16 10 C-13.74326922 8.12921143 -11.53296304 6.46414588 -9.125 4.8125 C-8.14853516 4.11737305 -8.14853516 4.11737305 -7.15234375 3.40820312 C-2.28348214 0 -2.28348214 0 0 0 Z " fill="#222222" transform="translate(125,106)"/>
<path d="M0 0 C2.25 2.625 2.25 2.625 4 5 C3.01 5.495 3.01 5.495 2 6 C-0.8203125 4.78515625 -0.8203125 4.78515625 -4.125 3.0625 C-5.22070312 2.49660156 -6.31640625 1.93070313 -7.4453125 1.34765625 C-8.28835938 0.90292969 -9.13140625 0.45820313 -10 0 C-10 -0.33 -10 -0.66 -10 -1 C-3.40694006 -2.49842271 -3.40694006 -2.49842271 0 0 Z " fill="#373737" transform="translate(348,158)"/>
<path d="M0 0 C0.66 0.33 1.32 0.66 2 1 C2.33 0.67 2.66 0.34 3 0 C3.99 0 4.98 0 6 0 C5.67 1.65 5.34 3.3 5 5 C1.7 5.66 -1.6 6.32 -5 7 C-3.38262276 3.76524552 -2.52370777 2.29427979 0 0 Z " fill="#282828" transform="translate(175,65)"/>
<path d="M0 0 C4.83628305 0.99043705 9.47618873 1.95698846 14 4 C13.67 4.99 13.34 5.98 13 7 C11.88625 6.67 10.7725 6.34 9.625 6 C6.30540283 4.911357 6.30540283 4.911357 4 5 C2.33034549 4.68197057 0.66321482 4.35015049 -1 4 C-0.67 2.68 -0.34 1.36 0 0 Z " fill="#1E1E1E" transform="translate(171,186)"/>
<path d="M0 0 C0.99 0.33 1.98 0.66 3 1 C2.34 1 1.68 1 1 1 C1.165 1.86625 1.33 2.7325 1.5 3.625 C1 7 1 7 -0.78125 8.734375 C-2.81240083 10.2362823 -4.86244329 11.65448439 -7 13 C-7.33 12.01 -7.66 11.02 -8 10 C-5.92529292 7.03613275 -3.54868718 4.54868718 -1 2 C-0.67 1.34 -0.34 0.68 0 0 Z " fill="#383838" transform="translate(229,338)"/>
<path d="M0 0 C5.80342274 1.48805711 10.17590879 4.59097555 15 8 C13.19921875 9.078125 13.19921875 9.078125 11 10 C5.40243902 7.80487805 5.40243902 7.80487805 4 5 C3.319375 4.505 2.63875 4.01 1.9375 3.5 C1.298125 3.005 0.65875 2.51 0 2 C0 1.34 0 0.68 0 0 Z " fill="#191919" transform="translate(100,252)"/>
<path d="M0 0 C4.455 0.99 4.455 0.99 9 2 C9.33 3.65 9.66 5.3 10 7 C9.01 7.33 8.02 7.66 7 8 C7 7.34 7 6.68 7 6 C6.34 6 5.68 6 5 6 C5 5.34 5 4.68 5 4 C3.35 3.67 1.7 3.34 0 3 C0 2.01 0 1.02 0 0 Z " fill="#222222" transform="translate(79,153)"/>
<path d="M0 0 C2.475 0.99 2.475 0.99 5 2 C5 8.93 5 15.86 5 23 C4.34 22.67 3.68 22.34 3 22 C3.495 13.09 3.495 13.09 4 4 C1.69 3.67 -0.62 3.34 -3 3 C-2.01 2.01 -1.02 1.02 0 0 Z " fill="#161616" transform="translate(251,252)"/>
<path d="M0 0 C5.02692063 0.45699278 8.14896261 2.99241748 12 6 C10.25 7.125 10.25 7.125 8 8 C5.34031367 7.03284133 3.37077638 5.58051758 1 4 C1.66 4 2.32 4 3 4 C2.34 3.34 1.68 2.68 1 2 C0.67 1.34 0.34 0.68 0 0 Z " fill="#212121" transform="translate(78,239)"/>
<path d="M0 0 C6.18160604 0.53753096 11.326858 2.54582388 17 5 C17 5.33 17 5.66 17 6 C15.06183265 5.8858134 13.12444901 5.75826577 11.1875 5.625 C10.10855469 5.55539063 9.02960938 5.48578125 7.91796875 5.4140625 C5 5 5 5 2 3 C1.34 2.67 0.68 2.34 0 2 C0 1.34 0 0.68 0 0 Z " fill="#1A1A1A" transform="translate(97,160)"/>
<path d="M0 0 C0.66 0.33 1.32 0.66 2 1 C2 2.65 2 4.3 2 6 C-1.01031744 6.93423645 -1.86650268 7.04449911 -5 6 C-5 6.66 -5 7.32 -5 8 C-6.32 8 -7.64 8 -9 8 C-9 7.34 -9 6.68 -9 6 C-7.03125 4.4921875 -7.03125 4.4921875 -4.5 2.875 C-3.6646875 2.33617187 -2.829375 1.79734375 -1.96875 1.2421875 C-1.3190625 0.83226562 -0.669375 0.42234375 0 0 Z " fill="#252525" transform="translate(73,143)"/>
<path d="M0 0 C6.18160604 0.53753096 11.326858 2.54582388 17 5 C13.30581799 6.231394 10.7943739 5.64432764 7 5 C7 4.34 7 3.68 7 3 C5.02 3 3.04 3 1 3 C0.67 2.01 0.34 1.02 0 0 Z " fill="#191919" transform="translate(330,240)"/>
<path d="M0 0 C7.48291572 6.15034169 7.48291572 6.15034169 10 10 C9.34 10.66 8.68 11.32 8 12 C7 11 6 10 5 9 C4.01 8.34 3.02 7.68 2 7 C0.25 5.0625 0.25 5.0625 -1 3 C-0.67 2.01 -0.34 1.02 0 0 Z " fill="#252525" transform="translate(231,51)"/>
<path d="M0 0 C4.49797113 1.68673918 8.72886302 3.81673892 13 6 C12.01 7.485 12.01 7.485 11 9 C10.34 9 9.68 9 9 9 C9 8.34 9 7.68 9 7 C7.68 7.33 6.36 7.66 5 8 C4.67 6.68 4.34 5.36 4 4 C3.01 4 2.02 4 1 4 C0.67 2.68 0.34 1.36 0 0 Z " fill="#242424" transform="translate(125,267)"/>
<path d="M0 0 C4.21912747 0.4794463 6.79663178 1.16625119 10 4 C8 6 8 6 5.375 6.125 C4.59125 6.08375 3.8075 6.0425 3 6 C3 5.34 3 4.68 3 4 C2.01 3.67 1.02 3.34 0 3 C0 2.01 0 1.02 0 0 Z " fill="#202020" transform="translate(186,191)"/>
<path d="M0 0 C6.2686895 0.55721684 12.35640913 2.16844057 18 5 C18.33 5.99 18.66 6.98 19 8 C14.65328707 6.58632741 10.3864361 5.02739359 6.125 3.375 C4.97257812 2.92898437 3.82015625 2.48296875 2.6328125 2.0234375 C1.76398438 1.68570313 0.89515625 1.34796875 0 1 C0 0.67 0 0.34 0 0 Z " fill="#161616" transform="translate(266,219)"/>
<path d="M0 0 C2.31 0.33 4.62 0.66 7 1 C7 2.98 7 4.96 7 7 C5.02 6.34 3.04 5.68 1 5 C0.67 3.35 0.34 1.7 0 0 Z " fill="#2C2C2C" transform="translate(233,208)"/>
<path d="M0 0 C2.625 -0.1875 2.625 -0.1875 5 0 C5.33 0.66 5.66 1.32 6 2 C5.67 2.66 5.34 3.32 5 4 C6.32 4.66 7.64 5.32 9 6 C7.4375 6.75 7.4375 6.75 5 7 C2.49713591 5.86915563 0.32992278 4.47860484 -2 3 C-1.34 2.01 -0.68 1.02 0 0 Z " fill="#393939" transform="translate(174,210)"/>
<path d="M0 0 C4.05281712 1.22527029 7.44360764 2.69880494 11 5 C10.67 6.32 10.34 7.64 10 9 C7.0625 7.6875 7.0625 7.6875 4 6 C3.67 5.01 3.34 4.02 3 3 C2.01 2.67 1.02 2.34 0 2 C0 1.34 0 0.68 0 0 Z " fill="#232323" transform="translate(144,198)"/>
<path d="M0 0 C5.69139902 1.09698167 10.74567937 2.54053077 16 5 C10.82903389 6.62746924 6.32012523 5.04405635 1.5 2.875 C1.005 2.58625 0.51 2.2975 0 2 C0 1.34 0 0.68 0 0 Z " fill="#181818" transform="translate(197,195)"/>
<path d="M0 0 C0.99 0.33 1.98 0.66 3 1 C2.375 2.875 2.375 2.875 1 5 C-1.875 6.1875 -1.875 6.1875 -5 7 C-6.175625 7.309375 -6.175625 7.309375 -7.375 7.625 C-7.91125 7.74875 -8.4475 7.8725 -9 8 C-2.92207792 1.75324675 -2.92207792 1.75324675 0 0 Z " fill="#202020" transform="translate(134,98)"/>
<path d="M0 0 C1.98 0.66 3.96 1.32 6 2 C6 2.66 6 3.32 6 4 C6.66 4 7.32 4 8 4 C8 4.66 8 5.32 8 6 C8.66 6.33 9.32 6.66 10 7 C7 8 7 8 4.95703125 7.00390625 C4.24933594 6.52824219 3.54164062 6.05257812 2.8125 5.5625 C2.09707031 5.08941406 1.38164063 4.61632812 0.64453125 4.12890625 C0.10183594 3.75636719 -0.44085938 3.38382813 -1 3 C-0.67 2.01 -0.34 1.02 0 0 Z " fill="#383838" transform="translate(78,155)"/>
<path d="M0 0 C3.35250701 0.57575664 4.93818629 1.59306263 7.25 4.0625 C8.03117187 4.88427734 8.03117187 4.88427734 8.828125 5.72265625 C9.21484375 6.14417969 9.6015625 6.56570312 10 7 C9.67 7.99 9.34 8.98 9 10 C6.9375 10.6875 6.9375 10.6875 5 11 C5.33 10.01 5.66 9.02 6 8 C3.52948271 4.4131585 3.52948271 4.4131585 0 2 C0 1.34 0 0.68 0 0 Z " fill="#202020" transform="translate(319,134)"/>
<path d="M0 0 C4.55737263 0.43820891 7.57653445 0.85041169 11 4 C8.25 5.1875 8.25 5.1875 5 6 C1.80036151 4.3569424 1.14950951 3.44852854 0 0 Z " fill="#1F1F1F" transform="translate(214,201)"/>
<path d="M0 0 C1.32 0.66 2.64 1.32 4 2 C4.99 1.34 5.98 0.68 7 0 C7 2.31 7 4.62 7 7 C3.54074837 5.7508258 0.85306797 4.32472205 -2 2 C-1.34 1.34 -0.68 0.68 0 0 Z " fill="#3B3B3B" transform="translate(324,147)"/>
<path d="M0 0 C2.64 0 5.28 0 8 0 C7.67 0.99 7.34 1.98 7 3 C7.66 3.33 8.32 3.66 9 4 C6 6 6 6 2 6 C1.34 4.02 0.68 2.04 0 0 Z M2 2 C2 2.66 2 3.32 2 4 C2.66 4 3.32 4 4 4 C4 3.34 4 2.68 4 2 C3.34 2 2.68 2 2 2 Z " fill="#2B2B2B" transform="translate(207,200)"/>
<path d="M0 0 C0.33 0.66 0.66 1.32 1 2 C1.66 2.33 2.32 2.66 3 3 C0.53846154 6.81538462 0.53846154 6.81538462 -2.1875 7.75 C-2.785625 7.8325 -3.38375 7.915 -4 8 C-4.25 5.6875 -4.25 5.6875 -4 3 C-2 1.1875 -2 1.1875 0 0 Z " fill="#252525" transform="translate(261,271)"/>
<path d="M0 0 C0.66 0.33 1.32 0.66 2 1 C2 1.99 2 2.98 2 4 C0.51882199 3.71872579 -0.95993249 3.42466268 -2.4375 3.125 C-3.26121094 2.96257812 -4.08492188 2.80015625 -4.93359375 2.6328125 C-5.61550781 2.42398438 -6.29742187 2.21515625 -7 2 C-7.33 1.34 -7.66 0.68 -8 0 C-5.11541362 -1.44229319 -3.09360585 -0.64450122 0 0 Z " fill="#1D1D1D" transform="translate(121,167)"/>
<path d="M0 0 C3.2826932 1.49076434 5.93077441 3.38620321 8.75 5.625 C9.94882813 6.57246094 9.94882813 6.57246094 11.171875 7.5390625 C11.77515625 8.02117188 12.3784375 8.50328125 13 9 C8.2894287 9 4.58797564 6.33185054 1.0625 3.375 C0 2 0 2 0 0 Z " fill="#1F1F1F" transform="translate(242,11)"/>
<path d="M0 0 C0 3.65351863 -0.88942301 5.06026776 -3 8 C-5.1875 9.3125 -5.1875 9.3125 -7 10 C-7 6 -7 6 -5.46875 4.296875 C-4.8190625 3.78640625 -4.169375 3.2759375 -3.5 2.75 C-2.8503125 2.22921875 -2.200625 1.7084375 -1.53125 1.171875 C-0.77328125 0.59179688 -0.77328125 0.59179688 0 0 Z " fill="#1D1D1D" transform="translate(252,324)"/>
<path d="M0 0 C0.66 0.33 1.32 0.66 2 1 C2.625 4.0625 2.625 4.0625 3 7 C0.69 6.34 -1.62 5.68 -4 5 C-2.25 1.125 -2.25 1.125 0 0 Z " fill="#E1E1E1" transform="translate(139,168)"/>
<path d="M0 0 C0 3.13751221 -0.35179805 4.39757586 -2 7 C-2.99 7.33 -3.98 7.66 -5 8 C-5.99 7.34 -6.98 6.68 -8 6 C-6.68 5.34 -5.36 4.68 -4 4 C-4 3.34 -4 2.68 -4 2 C-2.68 1.34 -1.36 0.68 0 0 Z " fill="#2A2A2A" transform="translate(129,104)"/>
<path d="M0 0 C3.41021743 0.78697325 6.68885166 1.87119943 10 3 C10 3.99 10 4.98 10 6 C5.56909529 4.79157144 3.01887244 3.48331435 0 0 Z " fill="#424242" transform="translate(223,238)"/>
<path d="M0 0 C3.68754757 0.49831724 5.60490662 1.10067643 8 4 C5.45297384 5.27351308 4.5717055 4.80191925 1.875 4.0625 C1.15054688 3.86785156 0.42609375 3.67320312 -0.3203125 3.47265625 C-0.87460938 3.31667969 -1.42890625 3.16070312 -2 3 C-1.34 2.01 -0.68 1.02 0 0 Z " fill="#1E1E1E" transform="translate(70,234)"/>
<path d="M0 0 C1.49739583 1.26953125 2.99479167 2.5390625 4.4921875 3.80859375 C6.00594079 5.0878152 6.00594079 5.0878152 8 6 C8 6.66 8 7.32 8 8 C5.03 7.01 2.06 6.02 -1 5 C-0.67 3.35 -0.34 1.7 0 0 Z " fill="#2C2C2C" transform="translate(123,168)"/>
<path d="M0 0 C4.29238623 1.65091778 6.8793915 4.73754566 10 8 C9.67 8.66 9.34 9.32 9 10 C8.401875 9.38125 7.80375 8.7625 7.1875 8.125 C4.99188856 5.86323046 4.99188856 5.86323046 2 4 C0.8125 1.875 0.8125 1.875 0 0 Z " fill="#191919" transform="translate(307,122)"/>
<path d="M0 0 C3.35250701 0.57575664 4.93818629 1.59306263 7.25 4.0625 C8.03117187 4.88427734 8.03117187 4.88427734 8.828125 5.72265625 C9.21484375 6.14417969 9.6015625 6.56570312 10 7 C9.67 7.66 9.34 8.32 9 9 C8.21625 8.360625 7.4325 7.72125 6.625 7.0625 C4.20460719 5.01857687 4.20460719 5.01857687 2 4 C2.33 3.34 2.66 2.68 3 2 C2.01 1.67 1.02 1.34 0 1 C0 0.67 0 0.34 0 0 Z " fill="#1B1B1B" transform="translate(279,97)"/>
<path d="M0 0 C4.50802601 1.25805377 7.4912812 2.90407165 11 6 C10.01 6.33 9.02 6.66 8 7 C8 6.34 8 5.68 8 5 C7.05125 4.9175 6.1025 4.835 5.125 4.75 C2 4 2 4 0.625 1.9375 C0.41875 1.298125 0.2125 0.65875 0 0 Z " fill="#1D1D1D" transform="translate(161,285)"/>
<path d="M0 0 C3.36591866 1.44253657 5.51047079 3.33264727 8 6 C7.67 6.99 7.34 7.98 7 9 C5.62437146 7.71034824 4.29233607 6.37310707 3 5 C3 4.34 3 3.68 3 3 C2.01 3 1.02 3 0 3 C0 2.01 0 1.02 0 0 Z " fill="#1F1F1F" transform="translate(293,109)"/>
<path d="M0 0 C0.66 0.33 1.32 0.66 2 1 C-1.75 4 -1.75 4 -4 4 C-4.28875 4.639375 -4.5775 5.27875 -4.875 5.9375 C-6 8 -6 8 -8 9 C-7.45712148 5.19985035 -5.88535357 3.46103687 -3 1 C-2.01 0.67 -1.02 0.34 0 0 Z " fill="#1D1D1D" transform="translate(166,74)"/>
<path d="M0 0 C2.64 0.99 5.28 1.98 8 3 C8 3.33 8 3.66 8 4 C4.37 3.67 0.74 3.34 -3 3 C-2.01 2.01 -1.02 1.02 0 0 Z " fill="#1C1C1C" transform="translate(162,182)"/>
<path d="M0 0 C3.48670834 1.1094072 6.77484237 2.26337666 10 4 C9.67 4.66 9.34 5.32 9 6 C7.68397477 5.38245741 6.37226444 4.75571258 5.0625 4.125 C4.33160156 3.77695313 3.60070312 3.42890625 2.84765625 3.0703125 C1 2 1 2 0 0 Z M0 2 C0.33 2.66 0.66 3.32 1 4 C0.01 3.67 -0.98 3.34 -2 3 C-1.34 2.67 -0.68 2.34 0 2 Z " fill="#3C3C3C" transform="translate(208,89)"/>
<path d="M0 0 C5.75 0.875 5.75 0.875 8 2 C7.67 2.99 7.34 3.98 7 5 C4.69 4.34 2.38 3.68 0 3 C0 2.01 0 1.02 0 0 Z " fill="#181818" transform="translate(177,188)"/>
<path d="M0 0 C1.98 0.495 1.98 0.495 4 1 C4 2.65 4 4.3 4 6 C3.34 5.67 2.68 5.34 2 5 C1.01 5 0.02 5 -1 5 C-0.67 3.35 -0.34 1.7 0 0 Z " fill="#282828" transform="translate(258,80)"/>
<path d="M0 0 C0.99 0 1.98 0 3 0 C3 0.99 3 1.98 3 3 C3.99 3.33 4.98 3.66 6 4 C5.01 4.99 4.02 5.98 3 7 C0 3.375 0 3.375 0 0 Z " fill="#383838" transform="translate(195,361)"/>
<path d="M0 0 C0.66 0 1.32 0 2 0 C1.67 0.66 1.34 1.32 1 2 C0.67 1.34 0.34 0.68 0 0 Z M-1 2 C-0.01 2.33 0.98 2.66 2 3 C2.6875 5.0625 2.6875 5.0625 3 7 C1.68 7.33 0.36 7.66 -1 8 C-1 6.02 -1 4.04 -1 2 Z " fill="#393939" transform="translate(282,290)"/>
<path d="M0 0 C3.57575896 0 5.05295935 1.08840607 8 3 C6.375 4.1875 6.375 4.1875 4 5 C0.75 3.625 0.75 3.625 -2 2 C-1.34 1.34 -0.68 0.68 0 0 Z " fill="#212121" transform="translate(107,257)"/>
<path d="M0 0 C2.475 0.495 2.475 0.495 5 1 C5.33 2.32 5.66 3.64 6 5 C4.35 4.67 2.7 4.34 1 4 C0.67 2.68 0.34 1.36 0 0 Z " fill="#202020" transform="translate(249,113)"/>
<path d="M0 0 C0 2 0 2 -1.25 3.5 C-3.07013782 5.06011813 -4.81977934 6.0226597 -7 7 C-6.61402985 4.20171644 -6.19863427 3.1794116 -4.0625 1.25 C-2 0 -2 0 0 0 Z " fill="#1C1C1C" transform="translate(125,106)"/>
<path d="M0 0 C2.02045442 0.60183749 4.02111039 1.27306096 6 2 C6.33 2.66 6.66 3.32 7 4 C5.02 4.33 3.04 4.66 1 5 C0.34 3.68 -0.32 2.36 -1 1 C-0.67 0.67 -0.34 0.34 0 0 Z " fill="#292929" transform="translate(249,18)"/>
<path d="M0 0 C1.98 1.65 3.96 3.3 6 5 C5.01 6.485 5.01 6.485 4 8 C4 7.34 4 6.68 4 6 C3.34 6 2.68 6 2 6 C2 5.34 2 4.68 2 4 C1.34 4 0.68 4 0 4 C0 2.68 0 1.36 0 0 Z " fill="#2A2A2A" transform="translate(146,314)"/>
<path d="M0 0 C6.875 3.625 6.875 3.625 8 7 C4.66272214 5.82744291 2.22562513 4.81131596 0 2 C0 1.34 0 0.68 0 0 Z " fill="#1A1A1A" transform="translate(116,261)"/>
<path d="M0 0 C2.86697492 1.28519565 4.97607712 2.57129254 7 5 C7 5.66 7 6.32 7 7 C5.68 7 4.36 7 3 7 C2.690625 6.21625 2.38125 5.4325 2.0625 4.625 C1.07124962 2.07669872 1.07124962 2.07669872 0 0 Z " fill="#191919" transform="translate(337,150)"/>
<path d="M0 0 C0.99 0.33 1.98 0.66 3 1 C2.67 2.32 2.34 3.64 2 5 C-0.97 4.505 -0.97 4.505 -4 4 C-3.34 3.67 -2.68 3.34 -2 3 C-2 2.34 -2 1.68 -2 1 C-1.34 0.67 -0.68 0.34 0 0 Z " fill="#363636" transform="translate(70,148)"/>
<path d="M0 0 C2.52588702 2.36292656 3.88820837 3.66462511 5 7 C3.35 6.67 1.7 6.34 0 6 C-1.125 2.25 -1.125 2.25 0 0 Z " fill="#2C2C2C" transform="translate(321,136)"/>
<path d="M0 0 C-0.8125 1.9375 -0.8125 1.9375 -2 4 C-2.99 4.33 -3.98 4.66 -5 5 C-4.67 5.99 -4.34 6.98 -4 8 C-4.99 8.495 -4.99 8.495 -6 9 C-6.25 6.75 -6.25 6.75 -6 4 C-2.75675676 0 -2.75675676 0 0 0 Z " fill="#1C1C1C" transform="translate(147,22)"/>
<path d="M0 0 C3.37503669 1.1858237 5.64722731 2.27573689 8 5 C7.01 5.33 6.02 5.66 5 6 C4.67 5.34 4.34 4.68 4 4 C3.01 4 2.02 4 1 4 C0.67 2.68 0.34 1.36 0 0 Z " fill="#1E1E1E" transform="translate(125,267)"/>
<path d="M0 0 C2.1875 0.3125 2.1875 0.3125 4 1 C4 1.99 4 2.98 4 4 C1.69 3.67 -0.62 3.34 -3 3 C-1.75 1.4375 -1.75 1.4375 0 0 Z " fill="#202020" transform="translate(251,252)"/>
<path d="M0 0 C2.31 0.33 4.62 0.66 7 1 C6.67 1.99 6.34 2.98 6 4 C4.02 3.34 2.04 2.68 0 2 C0 1.34 0 0.68 0 0 Z " fill="#F4F4F4" transform="translate(242,211)"/>
<path d="M0 0 C2 1 2 1 2.8125 2.875 C3 5 3 5 1.5625 6.75 C1.046875 7.1625 0.53125 7.575 0 8 C-0.99 7.67 -1.98 7.34 -3 7 C-2.34 6.67 -1.68 6.34 -1 6 C-0.34227572 2.97065509 -0.34227572 2.97065509 0 0 Z " fill="#2D2D2D" transform="translate(89,156)"/>
<path d="M0 0 C0.66 0.33 1.32 0.66 2 1 C0.77065985 4.68802044 -0.93859378 5.72356973 -4 8 C-4 4.09161134 -2.49432124 2.88405893 0 0 Z " fill="#F7F7F7" transform="translate(254,384)"/>
<path d="M0 0 C2.475 0.495 2.475 0.495 5 1 C4.67 2.32 4.34 3.64 4 5 C3.34 5 2.68 5 2 5 C1.34 3.35 0.68 1.7 0 0 Z " fill="#212121" transform="translate(174,293)"/>
<path d="M0 0 C0.66 0 1.32 0 2 0 C2 0.66 2 1.32 2 2 C2.66 2.33 3.32 2.66 4 3 C-1.2734375 6.22265625 -1.2734375 6.22265625 -3 7 C-3.66 6.67 -4.32 6.34 -5 6 C-4.175 5.195625 -3.35 4.39125 -2.5 3.5625 C0.11638731 1.47736982 0.11638731 1.47736982 0 0 Z " fill="#D7D7D7" transform="translate(346,244)"/>
<path d="M0 0 C2.31 0.33 4.62 0.66 7 1 C6.67 1.66 6.34 2.32 6 3 C4.35 3 2.7 3 1 3 C0.67 2.01 0.34 1.02 0 0 Z " fill="#202020" transform="translate(233,208)"/>
<path d="M0 0 C3.77545388 1.09068668 6.47043472 1.9083091 9 5 C6.625 5.125 6.625 5.125 4 5 C3.34 4.34 2.68 3.68 2 3 C1.34 2.67 0.68 2.34 0 2 C0 1.34 0 0.68 0 0 Z " fill="#141414" transform="translate(144,198)"/>
<path d="M0 0 C3.26954202 0.56371414 4.82575883 1.49962266 7 4 C6.34 4.66 5.68 5.32 5 6 C3.35 4.02 1.7 2.04 0 0 Z " fill="#3B3B3B" transform="translate(248,66)"/>
<path d="M0 0 C1.98 1.65 3.96 3.3 6 5 C4.1875 5.6875 4.1875 5.6875 2 6 C0.25 4.5625 0.25 4.5625 -1 3 C-0.67 2.01 -0.34 1.02 0 0 Z " fill="#1D1D1D" transform="translate(231,51)"/>
</svg>
