<?xml version="1.0" encoding="UTF-8"?>
<svg version="1.1" xmlns="http://www.w3.org/2000/svg" width="225" height="225">
<path d="M0 0 C74.25 0 148.5 0 225 0 C225 74.25 225 148.5 225 225 C150.75 225 76.5 225 0 225 C0 150.75 0 76.5 0 0 Z " fill="#315C77" transform="translate(0,0)"/>
<path d="M0 0 C1.22456909 -0.00671722 2.44913818 -0.01343445 3.71081543 -0.02035522 C7.0201067 -0.03592775 10.32924608 -0.04269928 13.63856936 -0.0439868 C15.71078188 -0.04541984 17.7829689 -0.0497103 19.85517502 -0.05498123 C27.0958496 -0.07338087 34.33645124 -0.08166215 41.57714844 -0.08007812 C48.31327898 -0.07887048 55.0490924 -0.10011954 61.78514254 -0.13156545 C67.59097468 -0.15769839 73.3967027 -0.16844711 79.20259321 -0.16716731 C82.66118396 -0.16665799 86.11949024 -0.17232782 89.578022 -0.19352341 C93.42193429 -0.21645032 97.26540539 -0.20740348 101.109375 -0.1953125 C102.25119232 -0.20655151 103.39300964 -0.21779053 104.56942749 -0.22937012 C105.61487732 -0.22098114 106.66032715 -0.21259216 107.73745728 -0.20394897 C109.09840232 -0.20558328 109.09840232 -0.20558328 110.4868412 -0.2072506 C113.71082924 0.45566303 114.90599622 1.72395401 116.90771484 4.29052734 C117.40380859 7.82177734 117.40380859 7.82177734 117.34521484 11.79052734 C117.34328125 13.75505859 117.34328125 13.75505859 117.34130859 15.75927734 C116.898898 19.36233301 116.49266793 20.80897238 113.90771484 23.29052734 C110.94246107 24.27894527 108.99393041 24.42203488 105.8999939 24.43528748 C104.34828491 24.44563522 104.34828491 24.44563522 102.76522827 24.45619202 C101.06337875 24.46011208 101.06337875 24.46011208 99.32714844 24.46411133 C97.53401215 24.47414185 97.53401215 24.47414185 95.70465088 24.484375 C92.42334151 24.50212097 89.14204278 24.51566269 85.86070967 24.52798724 C82.42156723 24.54243953 78.98247141 24.56395318 75.54336548 24.58522034 C63.82908974 24.65636151 52.11476961 24.71607184 40.40039062 24.76733398 C33.93107111 24.7957189 27.46182701 24.83114763 20.99258673 24.87398773 C17.57234974 24.89628462 14.15218209 24.9148361 10.731884 24.92443657 C6.90936495 24.93662994 3.08708946 24.96079883 -0.73535156 24.98754883 C-2.418983 24.98843254 -2.418983 24.98843254 -4.1366272 24.98933411 C-12.24339858 25.06426739 -20.18659536 25.38890661 -27.02978516 30.16552734 C-27.76068359 30.65794922 -28.49158203 31.15037109 -29.24462891 31.65771484 C-31.85947406 33.96850824 -32.91302889 35.68889823 -33.3059082 39.19921875 C-33.43473761 41.52534805 -33.4635217 43.83594497 -33.46728516 46.16552734 C-33.49177734 46.95572266 -33.51626953 47.74591797 -33.54150391 48.56005859 C-33.5683833 53.94489664 -32.73790611 57.07527811 -29.09228516 61.29052734 C-18.25144567 69.65462073 -2.35934808 68.57182239 10.65343475 68.53435707 C13.21363109 68.52864909 15.77339316 68.53810612 18.33355713 68.55155945 C25.60211342 68.58821171 32.87051341 68.60729642 40.13916016 68.59594727 C44.61652379 68.59002237 49.0932664 68.6086995 53.57050323 68.64183617 C55.25258902 68.64966738 56.93474479 68.64868477 58.61681366 68.63781166 C75.60962552 68.53267055 93.59506633 71.29438715 106.84521484 82.85302734 C107.52583984 83.65740234 108.20646484 84.46177734 108.90771484 85.29052734 C109.60896484 86.11552734 110.31021484 86.94052734 111.03271484 87.79052734 C118.99999968 98.4135738 118.96464219 110.48852719 117.90771484 123.29052734 C116.73626126 130.86842346 113.98997347 137.53955048 108.90771484 143.29052734 C108.24771484 143.29052734 107.58771484 143.29052734 106.90771484 143.29052734 C106.57771484 144.28052734 106.24771484 145.27052734 105.90771484 146.29052734 C94.09162969 156.30137726 76.0996846 158.42803378 61.26708984 158.49365234 C60.26309143 158.49935242 59.25909302 158.50505249 58.22467041 158.51092529 C56.1134953 158.52033093 54.0023058 158.52689152 51.89111328 158.53076172 C48.65420508 158.54053794 45.41791373 158.57163105 42.18115234 158.60302734 C40.1264686 158.60955142 38.07178034 158.61480422 36.01708984 158.61865234 C34.56396393 158.63717255 34.56396393 158.63717255 33.08148193 158.65606689 C32.18334778 158.6530658 31.28521362 158.6500647 30.35986328 158.64697266 C29.57045349 158.65061829 28.7810437 158.65426392 27.9677124 158.65802002 C25.35714992 158.19230947 24.51082757 157.36921773 22.90771484 155.29052734 C21.06494504 149.76221794 20.92754727 143.51818093 23.28271484 138.16552734 C24.90771484 136.29052734 24.90771484 136.29052734 26.90771484 135.29052734 C29.1162496 135.15881553 31.32848827 135.08752526 33.54052734 135.04443359 C34.91081628 135.01333313 36.28109598 134.98182351 37.65136719 134.94995117 C38.3678241 134.93461334 39.08428101 134.91927551 39.82244873 134.9034729 C63.86577449 135.67257615 63.86577449 135.67257615 84.90771484 126.29052734 C87.65036406 122.5961702 87.23905093 118.26443831 87.22021484 113.85302734 C87.23632812 113.10214844 87.25244141 112.35126953 87.26904297 111.57763672 C87.273081 106.98639411 86.85951973 104.02021964 83.90771484 100.29052734 C73.58493412 92.66064594 60.2540077 92.86906175 47.95846367 92.94096756 C45.33470034 92.95495835 42.71167258 92.94812059 40.08790588 92.93612671 C32.63740851 92.90552854 25.1870929 92.90986578 17.73657227 92.93017578 C13.15016555 92.94124657 8.56431366 92.92758423 3.97798347 92.90028 C2.25567008 92.89493007 0.53329794 92.89866433 -1.18896675 92.91267776 C-19.77175829 93.06208336 -39.46809192 90.23653941 -53.91259766 77.62255859 C-55.09228516 76.29052734 -55.09228516 76.29052734 -55.09228516 74.29052734 C-55.75228516 74.29052734 -56.41228516 74.29052734 -57.09228516 74.29052734 C-57.90665384 72.5205526 -58.71871456 70.74951582 -59.52978516 68.97802734 C-60.20847656 67.49882812 -60.20847656 67.49882812 -60.90087891 65.98974609 C-63.71481917 59.61455684 -63.35220158 53.60946522 -63.40478516 46.72802734 C-63.43378906 45.48988281 -63.46279297 44.25173828 -63.49267578 42.97607422 C-63.56732075 32.12958629 -61.24136892 23.80383885 -54.25634766 15.39208984 C-40.21493354 1.75620393 -18.54506099 -0.01498672 0 0 Z " fill="#FAFDFC" transform="translate(85.09228515625,32.70947265625)"/>
<path d="M0 0 C1.34039833 -0.00067521 2.68079654 -0.00164703 4.02119446 -0.00289917 C6.81402771 -0.00436442 9.60682873 -0.00225858 12.3996582 0.00244141 C15.96698649 0.00815468 19.53423978 0.00484216 23.10156536 -0.00113106 C25.86316996 -0.00475429 28.62475693 -0.00359027 31.38636208 -0.00100327 C33.33722101 -0.00001906 35.28808065 -0.00303703 37.23893738 -0.00613403 C38.43070084 -0.00298187 39.62246429 0.00017029 40.8503418 0.00341797 C41.89353073 0.00421356 42.93671967 0.00500916 44.01152039 0.00582886 C47.07527496 0.13652351 49.97704747 0.56666184 52.98828125 1.1328125 C49.35314727 4.76794648 45.27857602 4.26558913 40.32373047 4.29394531 C39.33280899 4.30139267 39.33280899 4.30139267 38.3218689 4.30899048 C36.14555814 4.32354848 33.9693201 4.33040078 31.79296875 4.3359375 C30.27890013 4.34169094 28.76483153 4.34744865 27.25076294 4.35321045 C24.08172263 4.36370001 20.91270756 4.36955712 17.74365234 4.37304688 C13.67682033 4.37855003 9.61032002 4.40262491 5.54359245 4.43101883 C2.4192709 4.44960336 -0.70496972 4.45484839 -3.82934189 4.45638275 C-5.32931217 4.45941557 -6.82928081 4.4674652 -8.32919693 4.48056793 C-10.42171186 4.4975538 -12.51340185 4.49576808 -14.60595703 4.48925781 C-15.79746368 4.49290344 -16.98897034 4.49654907 -18.21658325 4.50030518 C-19.13897797 4.37903259 -20.06137268 4.25776001 -21.01171875 4.1328125 C-21.67171875 3.1428125 -22.33171875 2.1528125 -23.01171875 1.1328125 C-15.32009078 0.08930029 -7.75549842 -0.01237084 0 0 Z " fill="#4F6E83" transform="translate(101.01171875,97.8671875)"/>
<path d="M0 0 C1.32 0.33 2.64 0.66 4 1 C-10.33803629 12.3509454 -34.62702307 8.20546643 -52 8 C-52 7.34 -52 6.68 -52 6 C-50.38158203 5.97812622 -50.38158203 5.97812622 -48.73046875 5.95581055 C-44.69710459 5.89749062 -40.66427919 5.82026207 -36.63134766 5.73754883 C-34.89152828 5.70445707 -33.15160561 5.67637693 -31.41162109 5.65356445 C-28.89896959 5.61972645 -26.38725134 5.56739974 -23.875 5.51171875 C-23.10696045 5.50532883 -22.3389209 5.4989389 -21.54760742 5.49235535 C-16.10325815 5.34675738 -12.02582887 4.10030093 -7 2 C-2.4 0.8 -2.4 0.8 0 2 C0 1.34 0 0.68 0 0 Z " fill="#39586B" transform="translate(164,160)"/>
<path d="M0 0 C0.70744354 0.00141495 1.41488708 0.0028299 2.14376831 0.00428772 C4.40578419 0.00989025 6.66770148 0.02244307 8.9296875 0.03515625 C10.46223815 0.04017093 11.99479036 0.04473389 13.52734375 0.04882812 C17.28649638 0.05986048 21.04557522 0.07712673 24.8046875 0.09765625 C24.8046875 0.42765625 24.8046875 0.75765625 24.8046875 1.09765625 C8.9646875 1.59265625 8.9646875 1.59265625 -7.1953125 2.09765625 C-7.98592287 6.84131848 -8.21129418 10.38432111 -7.9375 15.046875 C-8.26451042 17.64809422 -9.21259328 18.46269145 -11.1953125 20.09765625 C-13.0380823 14.56934684 -13.17548008 8.32530984 -10.8203125 2.97265625 C-7.71253613 -0.61323957 -4.42272329 -0.03309987 0 0 Z " fill="#E4F1F4" transform="translate(119.1953125,167.90234375)"/>
<path d="M0 0 C0.33 0 0.66 0 1 0 C0.125 7.875 0.125 7.875 -1 9 C-1.15971977 11.37338639 -1.2592433 13.72118272 -1.31640625 16.09765625 C-1.33718735 16.80651474 -1.35796844 17.51537323 -1.37937927 18.24571228 C-1.44494598 20.51787305 -1.5037923 22.79015264 -1.5625 25.0625 C-1.60567849 26.59962183 -1.64929255 28.1367315 -1.69335938 29.67382812 C-1.80063449 33.4490959 -1.90188137 37.2244836 -2 41 C-5.32487886 36.01268171 -4.36903016 30.2969001 -4.375 24.4375 C-4.39949219 23.19935547 -4.42398437 21.96121094 -4.44921875 20.68554688 C-4.47381968 12.94035451 -3.55071915 6.92138768 0 0 Z " fill="#D4E3E8" transform="translate(26,55)"/>
<path d="M0 0 C0.99 0.33 1.98 0.66 3 1 C2.51402344 1.64195313 2.02804688 2.28390625 1.52734375 2.9453125 C-0.51163136 7.02326272 -0.47809223 10.38033353 -0.4375 14.875 C-0.45748047 15.65230469 -0.47746094 16.42960937 -0.49804688 17.23046875 C-0.49324235 22.9478489 0.80990373 26.26223326 4 31 C0 31 0 31 -2.3125 28.8125 C-4.41857116 25.30238141 -3.79295612 24.88703979 -3 21 C-2.92219335 16.89581545 -3.07455385 12.78750147 -3.21484375 8.68554688 C-3.22902344 7.85732422 -3.24320313 7.02910156 -3.2578125 6.17578125 C-3.2798877 5.42208252 -3.30196289 4.66838379 -3.32470703 3.8918457 C-3.21755371 3.26753662 -3.11040039 2.64322754 -3 2 C-2.01 1.34 -1.02 0.68 0 0 Z " fill="#E8F6F9" transform="translate(52,64)"/>
<path d="M0 0 C4 0 4 0 6.5625 2.3125 C7.83012213 3.71013465 9.09221917 5.11612784 10.265625 6.59375 C12.75389804 8.61126868 15.04405116 8.74809317 18.1875 9.1875 C19.27417969 9.34605469 20.36085938 9.50460938 21.48046875 9.66796875 C22.31191406 9.77753906 23.14335938 9.88710937 24 10 C24 10.66 24 11.32 24 12 C15.20745626 11.79421706 7.59150843 9.76253264 1.375 3.25 C0 1 0 1 0 0 Z " fill="#425F70" transform="translate(52,89)"/>
<path d="M0 0 C2.64 0 5.28 0 8 0 C8 1.98 8 3.96 8 6 C1.4 5.34 -5.2 4.68 -12 4 C-8.38863788 2.19431894 -7.455469 1.75148437 -3.75 1.875 C-1.89375 1.936875 -1.89375 1.936875 0 2 C0 1.34 0 0.68 0 0 Z " fill="#315369" transform="translate(160,98)"/>
<path d="M0 0 C5.63689034 1.32632714 7.93185683 5.46631765 11 10 C10.01 10.495 10.01 10.495 9 11 C9 11.66 9 12.32 9 13 C8.01 13 7.02 13 6 13 C5.34 10.69 4.68 8.38 4 6 C2.68 5.67 1.36 5.34 0 5 C-0.5625 3.0625 -0.5625 3.0625 -1 1 C-0.67 0.67 -0.34 0.34 0 0 Z " fill="#EAF4F7" transform="translate(187,113)"/>
<path d="M0 0 C0.66 0 1.32 0 2 0 C1.54979057 5.85272256 -1.03839227 10.08220119 -4 15 C-4.99 15 -5.98 15 -7 15 C-6.34 12.69 -5.68 10.38 -5 8 C-4.34 8 -3.68 8 -3 8 C-2.690625 7.05125 -2.38125 6.1025 -2.0625 5.125 C-1 2 -1 2 0 0 Z " fill="#E5F2F7" transform="translate(199,160)"/>
<path d="M0 0 C1.77669223 3.06156654 2.24050818 5.24036215 2.1953125 8.765625 C2.18886719 9.65507812 2.18242187 10.54453125 2.17578125 11.4609375 C2.15902344 12.38132813 2.14226562 13.30171875 2.125 14.25 C2.11597656 15.18585938 2.10695312 16.12171875 2.09765625 17.0859375 C2.07413636 19.39088657 2.04126853 21.6953116 2 24 C1.67 24 1.34 24 1 24 C0.63307884 21.50129725 0.2812901 19.00190475 -0.0625 16.5 C-0.16626953 15.80390625 -0.27003906 15.1078125 -0.37695312 14.390625 C-1.05235795 9.36002357 -0.80733869 5.01340391 0 0 Z " fill="#BECED5" transform="translate(201,132)"/>
<path d="M0 0 C3.875 1.75 3.875 1.75 5 4 C5.07194869 6.88370333 5.09291708 9.74239664 5.0625 12.625 C5.05798828 13.42679688 5.05347656 14.22859375 5.04882812 15.0546875 C5.03703168 17.03649006 5.01909605 19.01825433 5 21 C4.01 21 3.02 21 2 21 C2.33 20.34 2.66 19.68 3 19 C3.76082218 12.21112518 2.2343819 6.3706484 0 0 Z " fill="#34505F" transform="translate(168,134)"/>
<path d="M0 0 C0.391875 0.639375 0.78375 1.27875 1.1875 1.9375 C3.41265194 4.46956945 4.74947058 4.49991855 8 5 C8.66 5.66 9.32 6.32 10 7 C9.67 7.99 9.34 8.98 9 10 C7.39218107 9.2368139 5.78886862 8.46412942 4.1875 7.6875 C3.29417969 7.25824219 2.40085937 6.82898438 1.48046875 6.38671875 C-0.78931933 5.11778211 -2.29248171 3.93443102 -4 2 C-2.68 1.34 -1.36 0.68 0 0 Z " fill="#DFEDF1" transform="translate(38,110)"/>
<path d="M0 0 C0.99 0 1.98 0 3 0 C3.78118882 9.47041213 4.16656743 18.52388303 3 28 C2.67 28 2.34 28 2 28 C1.97494385 27.43603516 1.9498877 26.87207031 1.92407227 26.29101562 C1.80681699 23.69385118 1.68468734 21.0969369 1.5625 18.5 C1.50352539 17.1696875 1.50352539 17.1696875 1.44335938 15.8125 C1.18915913 10.49384873 0.73323663 5.2743744 0 0 Z " fill="#324D5E" transform="translate(201,128)"/>
<path d="M0 0 C-0.804375 0.28875 -1.60875 0.5775 -2.4375 0.875 C-5.1326468 1.73262568 -5.1326468 1.73262568 -6 4 C-7.11375 3.95875 -8.2275 3.9175 -9.375 3.875 C-13.04366025 3.58878141 -13.04366025 3.58878141 -15 6 C-17.125 5.625 -17.125 5.625 -19 5 C-16.4156782 2.4156782 -14.10624423 1.89598837 -10.625 0.8125 C-9.48289062 0.44769531 -8.34078125 0.08289062 -7.1640625 -0.29296875 C-4.18525347 -0.95860385 -2.79128097 -1.07938697 0 0 Z " fill="#DDEBF1" transform="translate(62,36)"/>
<path d="M0 0 C0.33 0 0.66 0 1 0 C2.70159453 15.74487472 2.70159453 15.74487472 -1 23 C-3 23 -5 23 -7 23 C-5.09570312 20.75390625 -5.09570312 20.75390625 -3.19140625 18.5078125 C-0.495735 15.09624167 -0.67241584 11.54957002 -0.4375 7.375 C-0.37272461 6.31539062 -0.37272461 6.31539062 -0.30664062 5.234375 C-0.20055249 3.48981463 -0.09977111 1.74493303 0 0 Z " fill="#BFCED4" transform="translate(173,140)"/>
<path d="M0 0 C5.61 0 11.22 0 17 0 C17 0.66 17 1.32 17 2 C15.10507254 2.19644384 13.20899097 2.38177288 11.3125 2.5625 C9.72888672 2.71912109 9.72888672 2.71912109 8.11328125 2.87890625 C5.18573914 2.99277552 2.82868856 2.70848415 0 2 C0 1.34 0 0.68 0 0 Z " fill="#3F5D6A" transform="translate(55,32)"/>
<path d="M0 0 C0 0.66 0 1.32 0 2 C-5.01986699 5.01667085 -8.71323804 5.38714622 -14.375 5.1875 C-15.11105469 5.17396484 -15.84710938 5.16042969 -16.60546875 5.14648438 C-18.40396743 5.11144869 -20.20208422 5.05765288 -22 5 C-22 4.67 -22 4.34 -22 4 C-20.33710938 3.81824219 -20.33710938 3.81824219 -18.640625 3.6328125 C-17.17703766 3.46393704 -15.71349843 3.29464428 -14.25 3.125 C-13.52039063 3.04636719 -12.79078125 2.96773437 -12.0390625 2.88671875 C-7.90467115 2.39810886 -3.89733169 0 0 0 Z " fill="#C8D8E1" transform="translate(166,163)"/>
<path d="M0 0 C3.00250341 -0.25020862 4.61322124 -0.22562095 7.25 1.3125 C9.64247733 3.61953171 9.98628183 5.4101186 10.0625 8.6875 C10.041875 9.450625 10.02125 10.21375 10 11 C9.4225 10.2575 8.845 9.515 8.25 8.75 C6.27434044 6.33530498 4.24000841 4.16534146 2 2 C1.34 1.34 0.68 0.68 0 0 Z " fill="#DEEDF2" transform="translate(164,129)"/>
<path d="M0 0 C4.31392226 0.4793247 6.16569547 1.7457985 9 5 C6.1875 5.625 6.1875 5.625 3 6 C2.01 5.34 1.02 4.68 0 4 C0 2.68 0 1.36 0 0 Z " fill="#3D5C6E" transform="translate(161,129)"/>
<path d="M0 0 C0.91007812 0.00902344 1.82015625 0.01804688 2.7578125 0.02734375 C3.45648438 0.03894531 4.15515625 0.05054688 4.875 0.0625 C2.74533995 2.19216005 1.83431796 2.53874662 -1 3.25 C-1.67804687 3.42917969 -2.35609375 3.60835937 -3.0546875 3.79296875 C-5.35318556 4.09220718 -6.93050964 3.75627386 -9.125 3.0625 C-8.465 3.0625 -7.805 3.0625 -7.125 3.0625 C-7.125 2.4025 -7.125 1.7425 -7.125 1.0625 C-4.60024538 -0.19987731 -2.81299534 -0.03606404 0 0 Z " fill="#375769" transform="translate(55.125,33.9375)"/>
<path d="M0 0 C3.465 1.485 3.465 1.485 7 3 C7 3.99 7 4.98 7 6 C4 7 4 7 1.8125 6.0625 C1.214375 5.711875 0.61625 5.36125 0 5 C0 3.35 0 1.7 0 0 Z " fill="#EAF4F9" transform="translate(56,95)"/>
<path d="M0 0 C0.66 0.33 1.32 0.66 2 1 C1.67 1.99 1.34 2.98 1 4 C0.01 4 -0.98 4 -2 4 C-2 4.66 -2 5.32 -2 6 C-4.31 6.33 -6.62 6.66 -9 7 C-6.25604436 4.05278838 -3.61662784 1.80831392 0 0 Z " fill="#DFE8ED" transform="translate(41,41)"/>
<path d="M0 0 C0.33 0.99 0.66 1.98 1 3 C1.66 3 2.32 3 3 3 C3 2.34 3 1.68 3 1 C5.64 0.67 8.28 0.34 11 0 C7.4912812 3.09592835 4.50802601 4.74194623 0 6 C-1.125 2.25 -1.125 2.25 0 0 Z " fill="#DAE9EC" transform="translate(177,180)"/>
<path d="M0 0 C0.66 0.33 1.32 0.66 2 1 C1.360625 1.763125 0.72125 2.52625 0.0625 3.3125 C-2.14232781 5.88246713 -2.14232781 5.88246713 -3 9 C-4.65 8.67 -6.3 8.34 -8 8 C-3.375 2.25 -3.375 2.25 0 0 Z " fill="#335466" transform="translate(195,174)"/>
<path d="M0 0 C1.98 0.99 3.96 1.98 6 3 C5.34 4.32 4.68 5.64 4 7 C1.525 6.01 1.525 6.01 -1 5 C-0.67 3.35 -0.34 1.7 0 0 Z " fill="#406176" transform="translate(35,113)"/>
<path d="M0 0 C0.33 0 0.66 0 1 0 C1.24954005 1.43410368 1.47392642 2.87260072 1.6875 4.3125 C1.87892578 5.51326172 1.87892578 5.51326172 2.07421875 6.73828125 C2 9 2 9 0.51953125 10.79296875 C0.01808594 11.19128906 -0.48335937 11.58960937 -1 12 C-1.02698189 10.37509046 -1.04638757 8.75005367 -1.0625 7.125 C-1.07410156 6.22007813 -1.08570313 5.31515625 -1.09765625 4.3828125 C-1 2 -1 2 0 0 Z " fill="#365564" transform="translate(52,73)"/>
<path d="M0 0 C0.99 0.495 0.99 0.495 2 1 C2 1.99 2 2.98 2 4 C2.66 4 3.32 4 4 4 C3.67 7.63 3.34 11.26 3 15 C2.67 15 2.34 15 2 15 C1.34 10.05 0.68 5.1 0 0 Z " fill="#355364" transform="translate(201,34)"/>
<path d="M0 0 C2.9375 0.8125 2.9375 0.8125 6 2 C6.33 2.99 6.66 3.98 7 5 C6.01 6.485 6.01 6.485 5 8 C4.67 7.01 4.34 6.02 4 5 C3.34 5 2.68 5 2 5 C1.34 3.35 0.68 1.7 0 0 Z " fill="#DBECF2" transform="translate(26,102)"/>
<path d="M0 0 C-0.33 0.66 -0.66 1.32 -1 2 C-3.31 2 -5.62 2 -8 2 C-8 2.66 -8 3.32 -8 4 C-8.99 4 -9.98 4 -11 4 C-10.67 3.01 -10.34 2.02 -10 1 C-6.78548731 -0.60725635 -3.56387464 -0.05748185 0 0 Z " fill="#E7F7FA" transform="translate(120,168)"/>
<path d="M0 0 C0.33 0 0.66 0 1 0 C0.38461538 7.50769231 0.38461538 7.50769231 -1.5625 10 C-2.036875 10.33 -2.51125 10.66 -3 11 C-2.53199289 6.94393835 -2.12046792 3.53411321 0 0 Z " fill="#DAE6EB" transform="translate(26,55)"/>
<path d="M0 0 C2.64 0.33 5.28 0.66 8 1 C8 1.33 8 1.66 8 2 C4.7 2.66 1.4 3.32 -2 4 C-1.34 2.68 -0.68 1.36 0 0 Z " fill="#DFF0F4" transform="translate(64,56)"/>
<path d="M0 0 C0 0.66 0 1.32 0 2 C-2.31 2.33 -4.62 2.66 -7 3 C-7.33 2.34 -7.66 1.68 -8 1 C-5.07175348 0.02391783 -3.04386724 -0.08226668 0 0 Z " fill="#4C6A79" transform="translate(71,58)"/>
<path d="M0 0 C5.95703125 -0.29296875 5.95703125 -0.29296875 8 0 C8.99 0.99 9.98 1.98 11 3 C7.37 2.67 3.74 2.34 0 2 C0 1.34 0 0.68 0 0 Z " fill="#4E6C7D" transform="translate(55,32)"/>
</svg>
