<?xml version="1.0" encoding="UTF-8"?>
<svg version="1.1" xmlns="http://www.w3.org/2000/svg" width="225" height="225">
<path d="M0 0 C74.25 0 148.5 0 225 0 C225 74.25 225 148.5 225 225 C150.75 225 76.5 225 0 225 C0 150.75 0 76.5 0 0 Z " fill="#201F32" transform="translate(0,0)"/>
<path d="M0 0 C1.45823212 -0.0270043 2.91660675 -0.04639787 4.375 -0.0625 C5.18710938 -0.07410156 5.99921875 -0.08570312 6.8359375 -0.09765625 C9 0 9 0 11 1 C10.67 1.99 10.34 2.98 10 4 C11.31605225 4.01401855 11.31605225 4.01401855 12.65869141 4.02832031 C15.93567422 4.07251603 19.21138143 4.13420652 22.48779297 4.20751953 C23.90173448 4.23562392 25.31583002 4.25689067 26.72998047 4.27099609 C28.77130384 4.29257456 30.81079599 4.33929086 32.8515625 4.390625 C34.07697754 4.41157227 35.30239258 4.43251953 36.56494141 4.45410156 C41.36701778 5.21724604 44.42099669 7.23144888 47.64405823 10.84141541 C49.22829593 13.36343454 49.39469084 14.79231682 49.43579102 17.74926758 C49.46450035 19.15641777 49.46450035 19.15641777 49.49378967 20.59199524 C49.49712814 21.59933212 49.50046661 22.60666901 49.50390625 23.64453125 C49.51389145 24.6876799 49.52387665 25.73082855 49.53416443 26.80558777 C49.54934576 29.01203447 49.55639022 31.21854996 49.5559082 33.42504883 C49.56245697 36.79038978 49.61690591 40.15276083 49.67382812 43.51757812 C49.68263307 45.66405244 49.68858536 47.81054073 49.69140625 49.95703125 C49.7129628 50.95829544 49.73451935 51.95955963 49.75672913 52.99116516 C49.69800194 59.02020107 48.79264966 62.36324498 44.5811615 66.75932312 C41.73068496 68.99598291 39.01309518 69.13375653 35.53198242 69.17700195 C34.63062057 69.18983719 33.72925873 69.20267242 32.80058289 69.21589661 C31.34275139 69.22697701 31.34275139 69.22697701 29.85546875 69.23828125 C28.85292557 69.246353 27.85038239 69.25442474 26.81745911 69.26274109 C24.69497402 69.27657363 22.57246676 69.2872995 20.44995117 69.29516602 C17.21034439 69.31237862 13.97175825 69.35627275 10.73242188 69.40039062 C8.66927833 69.41051787 6.60612612 69.41903387 4.54296875 69.42578125 C3.57715378 69.44328934 2.61133881 69.46079742 1.61625671 69.47883606 C-4.07820106 69.46054534 -7.59465414 68.98254835 -12 65 C-15.93186612 60.5046598 -15.43496779 55.51533489 -15.3984375 49.84375 C-15.40130768 48.86386108 -15.40417786 47.88397217 -15.40713501 46.87438965 C-15.40917263 44.80671611 -15.40366391 42.73902317 -15.39111328 40.67138672 C-15.37505565 37.51095373 -15.39097254 34.35179958 -15.41015625 31.19140625 C-15.40817377 29.17968468 -15.40432998 27.16796391 -15.3984375 25.15625 C-15.40451019 24.21342163 -15.41058289 23.27059326 -15.4168396 22.29919434 C-15.34957172 16.00796445 -14.20683437 12.75854296 -10.25 7.8125 C-7.35715855 5.4821555 -4.58616317 4.82757612 -1 4 C-0.67 2.68 -0.34 1.36 0 0 Z " fill="#A38CF0" transform="translate(101,93)"/>
<path d="M0 0 C4.95 0 9.9 0 15 0 C21.42418434 6.42418434 21.20229046 8.35001986 21.25 16.8125 C21.270625 17.71548828 21.29125 18.61847656 21.3125 19.54882812 C21.34253456 24.65845774 21.07168714 27.72634832 18 32 C18.6501992 34.21734114 18.6501992 34.21734114 20 36 C21.3308911 38.66178221 21.11268993 40.68739396 21.09765625 43.6640625 C21.09443359 44.78554687 21.09121094 45.90703125 21.08789062 47.0625 C21.07951172 48.238125 21.07113281 49.41375 21.0625 50.625 C21.05798828 51.80835938 21.05347656 52.99171875 21.04882812 54.2109375 C21.03701467 57.14067507 21.02054258 60.07031272 21 63 C18.69 63 16.38 63 14 63 C13.67 54.42 13.34 45.84 13 37 C10.69 36.67 8.38 36.34 6 36 C6 44.91 6 53.82 6 63 C4.02 63 2.04 63 0 63 C0 42.21 0 21.42 0 0 Z " fill="#93CBD1" transform="translate(157,98)"/>
<path d="M0 0 C2.5 0.1875 2.5 0.1875 5 1 C7.1519437 4.22791555 7.20086443 5.28400809 7 9 C8.65 9 10.3 9 12 9 C12.495 9.99 12.495 9.99 13 11 C11.02 11.33 9.04 11.66 7 12 C6.731875 13.093125 6.46375 14.18625 6.1875 15.3125 C4.4925816 20.57566766 4.4925816 20.57566766 2 22 C-1.1875 21.6875 -1.1875 21.6875 -4 21 C-4 24.3 -4 27.6 -4 31 C-5.32 31 -6.64 31 -8 31 C-8.495 26.545 -8.495 26.545 -9 22 C-9.33 22.66 -9.66 23.32 -10 24 C-12.875 24.125 -12.875 24.125 -16 24 C-16.66 23.34 -17.32 22.68 -18 22 C-18.66 23.32 -19.32 24.64 -20 26 C-22.375 26.125 -22.375 26.125 -25 26 C-25.66 25.34 -26.32 24.68 -27 24 C-28.32 25.65 -29.64 27.3 -31 29 C-33.02045442 28.39816251 -35.02111039 27.72693904 -37 27 C-38.60725635 23.78548731 -38.05748185 20.56387464 -38 17 C-40.03165952 21.33420699 -40.52060632 25.28596212 -41 30 C-42.65 29.67 -44.3 29.34 -46 29 C-46 23.06 -46 17.12 -46 11 C-44.35 11 -42.7 11 -41 11 C-41 12.65 -41 14.3 -41 16 C-39.68 13.36 -38.36 10.72 -37 8 C-35.35 8.33 -33.7 8.66 -32 9 C-32 13.95 -32 18.9 -32 24 C-29.22030303 18.4555861 -29.22030303 18.4555861 -27.9375 12.8125 C-27.38563736 9.39095161 -26.98363641 7.97545461 -25 5 C-20.68299599 4.67418838 -17.27723376 5.14455325 -13 6 C-13.33 10.95 -13.66 15.9 -14 21 C-10.43309893 17.43309893 -10.07363929 14.57481957 -9.3125 9.8125 C-9.18294922 9.06291016 -9.05339844 8.31332031 -8.91992188 7.54101562 C-8.60259462 5.69581641 -8.29986709 3.848117 -8 2 C-7.05125 2.04125 -6.1025 2.0825 -5.125 2.125 C-1.89755144 2.34973818 -1.89755144 2.34973818 0 0 Z " fill="#C5C5C5" transform="translate(93,63)"/>
<path d="M0 0 C2.8100346 1.79363911 4.50940468 3.01880935 6 6 C6.0716735 8.55157655 6.09308442 11.07472971 6.0625 13.625 C6.05798828 14.33140625 6.05347656 15.0378125 6.04882812 15.765625 C6.03703875 17.51045275 6.01910324 19.255237 6 21 C4.02 21 2.04 21 0 21 C-0.06058594 20.07316406 -0.12117188 19.14632812 -0.18359375 18.19140625 C-0.26738281 16.99386719 -0.35117187 15.79632813 -0.4375 14.5625 C-0.51871094 13.36753906 -0.59992187 12.17257813 -0.68359375 10.94140625 C-0.67656114 8.11429756 -0.67656114 8.11429756 -2 7 C-3.66617115 6.95936168 -5.33388095 6.957279 -7 7 C-8.07435119 15.35606485 -8.49104009 22.00054921 -3.16333008 28.93701172 C-1.6738643 30.69241132 -0.15391967 32.40945343 1.3984375 34.109375 C5.91122919 39.12358799 6.38593224 42.70556973 6.4375 49.375 C6.48680664 50.48875 6.48680664 50.48875 6.53710938 51.625 C6.57689054 55.71884339 6.22260747 58.2448144 3.59765625 61.4765625 C0.54917952 64.43793989 -0.11615576 64.91661847 -4.3125 65.3125 C-8.61926041 64.9475203 -10.02483986 64.06016472 -13 61 C-15.43762972 57.35620748 -15.20455537 54.04598999 -15.125 49.75 C-15.10695312 48.48671875 -15.08890625 47.2234375 -15.0703125 45.921875 C-15.03550781 44.47554687 -15.03550781 44.47554687 -15 43 C-12.69 43 -10.38 43 -8 43 C-7.67 47.62 -7.34 52.24 -7 57 C-3.36380344 58.08084521 -3.36380344 58.08084521 -1 58 C0.07124646 47.80494843 0.07124646 47.80494843 -3.5625 38.6875 C-4.70093843 37.45148113 -5.8473673 36.22279295 -7 35 C-8.29763919 33.24871459 -9.56808143 31.47699447 -10.8125 29.6875 C-11.39644531 28.86636719 -11.98039062 28.04523438 -12.58203125 27.19921875 C-15.25030075 23.06082831 -15.19310405 19.45167346 -15.25 14.625 C-15.27578125 13.31789063 -15.3015625 12.01078125 -15.328125 10.6640625 C-14.98624294 6.84637947 -14.28329701 5.02382577 -12 2 C-8.5453253 -0.68696921 -4.19474138 -0.69912356 0 0 Z " fill="#DD1F77" transform="translate(53,97)"/>
<path d="M0 0 C5.13308791 2.61320839 8.1797908 5.53937241 10 11 C10.54030113 16.72719196 9.6516353 19.55882194 6 24 C3.63762287 26.72031306 2.0240123 27.84655473 -1.5546875 28.3828125 C-6.14035177 28.56922162 -9.30110965 28.3244848 -13.5 26.375 C-17.40776637 22.66262195 -19.14050214 19.3099038 -19.3125 13.9375 C-19.03095603 10.39004601 -18.53178626 8.1536776 -17 5 C-16.67 4.01 -16.34 3.02 -16 2 C-14.0625 1.375 -14.0625 1.375 -12 1 C-8.29018719 -0.85490641 -4.04876607 -0.4540091 0 0 Z " fill="#9B84E4" transform="translate(123,108)"/>
<path d="M0 0 C5.61 0 11.22 0 17 0 C17 1.65 17 3.3 17 5 C13.37 5 9.74 5 6 5 C6 12.59 6 20.18 6 28 C9.3 28 12.6 28 16 28 C16 29.98 16 31.96 16 34 C12.7 34 9.4 34 6 34 C6 41.59 6 49.18 6 57 C9.96 57 13.92 57 18 57 C18 58.98 18 60.96 18 63 C12.06 63 6.12 63 0 63 C0 42.21 0 21.42 0 0 Z " fill="#AEF1D0" transform="translate(183,98)"/>
<path d="M0 0 C7.59 0 15.18 0 23 0 C23 1.98 23 3.96 23 6 C20.36 6 17.72 6 15 6 C15 24.81 15 43.62 15 63 C12.69 63 10.38 63 8 63 C8 44.19 8 25.38 8 6 C5.36 6 2.72 6 0 6 C0 4.02 0 2.04 0 0 Z " fill="#E8683B" transform="translate(62,98)"/>
<path d="M0 0 C2.65466372 1.58175357 4.47147912 3.194838 6.546875 5.46875 C7.26617187 6.22671875 7.26617187 6.22671875 8 7 C8.66 7 9.32 7 10 7 C9.505 4.525 9.505 4.525 9 2 C12.875 3.875 12.875 3.875 14 5 C14.46311368 10.3258073 14.46311368 10.3258073 12.8515625 12.671875 C10.23943588 14.54555232 8.31163561 14.39884017 5.125 14.375 C4.09632813 14.38273438 3.06765625 14.39046875 2.0078125 14.3984375 C-1.34135977 13.95478091 -3.18713365 12.7984703 -6 11 C-8.08235826 11.6237206 -8.08235826 11.6237206 -10 13 C-14.13584015 15.01203035 -17.40707765 15.41008235 -22 15 C-24.875 13.9375 -24.875 13.9375 -27 12 C-27.8125 8.3125 -27.8125 8.3125 -28 5 C-26.68 4.01 -25.36 3.02 -24 2 C-23.34 2.33 -22.68 2.66 -22 3 C-22.33 4.32 -22.66 5.64 -23 7 C-22.34 7 -21.68 7 -21 7 C-19.65080468 5.34614767 -18.31866272 3.678298 -17 2 C-11.87960397 -1.41359736 -5.95119807 -0.9008996 0 0 Z " fill="#222134" transform="translate(125,140)"/>
<path d="M0 0 C3.08227803 1.84936682 4.6298702 3.0978086 6 6.4375 C6 9.72181508 4.88200051 11.36519929 3 14 C1.68 13.67 0.36 13.34 -1 13 C-0.34 10.03 0.32 7.06 1 4 C-4.12448212 5.02586862 -4.12448212 5.02586862 -8 8.3125 C-9.1510953 11.40606861 -9.03315571 12.90053287 -8 16 C-5.96473721 18.03526279 -2.10725794 17.86791601 0.65234375 18.3046875 C3 19 3 19 5 22 C5 25.36178673 4.87043759 27.87063478 2.765625 30.6015625 C0.39397633 32.78983627 -1.2936405 34 -4.5625 34 C-7.23478175 32.90367928 -9.58765163 31.5852575 -12 30 C-11.67 28.02 -11.34 26.04 -11 24 C-10.01 23.67 -9.02 23.34 -8 23 C-8 25.31 -8 27.62 -8 30 C-6.02 29.34 -4.04 28.68 -2 28 C-1.67 26.02 -1.34 24.04 -1 22 C-2.26457031 21.61908203 -2.26457031 21.61908203 -3.5546875 21.23046875 C-4.65039062 20.88628906 -5.74609375 20.54210937 -6.875 20.1875 C-7.96554688 19.85105469 -9.05609375 19.51460937 -10.1796875 19.16796875 C-13 18 -13 18 -15 15 C-14.92022219 10.05377601 -14.80200932 7.97085339 -11.625 4.125 C-7.48639853 0.77470357 -5.36950135 -0.64434016 0 0 Z " fill="#C0C0C1" transform="translate(39,63)"/>
<path d="M0 0 C2.46111244 0.62751691 3.50724798 1.32353129 5.22265625 3.17578125 C7.327632 6.84251321 7.86329128 8.41986295 7.16015625 12.55078125 C5.88326779 15.35993586 4.84915808 17.05184889 2.34765625 18.86328125 C-0.60617299 19.79162758 -2.75562575 19.9284406 -5.83984375 19.55078125 C-8.53975037 17.75084351 -10.38173025 16.46700825 -11.83984375 13.55078125 C-12.52272581 6.60814701 -12.52272581 6.60814701 -9.90234375 2.55078125 C-6.34443401 0.22724836 -4.18718848 -0.24466043 0 0 Z " fill="#212033" transform="translate(120.83984375,112.44921875)"/>
<path d="M0 0 C2.1519437 3.22791555 2.20086443 4.28400809 2 8 C3.65 8 5.3 8 7 8 C7.33 8.66 7.66 9.32 8 10 C6.02 10.33 4.04 10.66 2 11 C1.731875 12.093125 1.46375 13.18625 1.1875 14.3125 C-0.5074184 19.57566766 -0.5074184 19.57566766 -3 21 C-6.1875 20.6875 -6.1875 20.6875 -9 20 C-7.92598892 17.08482708 -7.22189824 15.22189824 -5 13 C-5.99 13 -6.98 13 -8 13 C-9.3271261 9.0186217 -9.06915913 5.14954773 -9 1 C-5.68199515 -1.08911416 -3.72082137 -1.27291258 0 0 Z " fill="#ADADB0" transform="translate(98,64)"/>
<path d="M0 0 C2.31 0 4.62 0 7 0 C9.35955511 2.35955511 8.18542405 8.26752826 8.1875 11.4375 C8.19974609 12.41783203 8.21199219 13.39816406 8.22460938 14.40820312 C8.22750977 15.81295898 8.22750977 15.81295898 8.23046875 17.24609375 C8.23457764 18.10904053 8.23868652 18.9719873 8.24291992 19.86108398 C8 22 8 22 6 24 C4.02 24 2.04 24 0 24 C0 16.08 0 8.16 0 0 Z " fill="#1F1D31" transform="translate(163,104)"/>
<path d="M0 0 C3.625 -0.1875 3.625 -0.1875 7 0 C7.09437755 4.81325487 7.115287 9.29101044 6 14 C5.65596692 16.33177975 5.32050798 18.66487041 5 21 C2.625 21.125 2.625 21.125 0 21 C-0.66 20.34 -1.32 19.68 -2 19 C-2.66 19.33 -3.32 19.66 -4 20 C-5.39443927 16.19102829 -4.61779005 13.3129737 -3.6875 9.4375 C-3.42324219 8.30183594 -3.15898438 7.16617188 -2.88671875 5.99609375 C-2 3 -2 3 0 0 Z " fill="#C2C2C3" transform="translate(68,68)"/>
<path d="M0 0 C0.721875 0.103125 1.44375 0.20625 2.1875 0.3125 C1.3125 7.0625 1.3125 7.0625 0.1875 9.3125 C1.115625 9.3125 2.04375 9.3125 3 9.3125 C5.0625 9.3125 7.125 9.3125 9.1875 9.3125 C9.1875 14.2625 9.1875 19.2125 9.1875 24.3125 C8.8575 24.3125 8.5275 24.3125 8.1875 24.3125 C7.8575 22.3325 7.5275 20.3525 7.1875 18.3125 C6.5275 18.3125 5.8675 18.3125 5.1875 18.3125 C4.81625 17.838125 4.445 17.36375 4.0625 16.875 C1.88170198 15.05766832 0.95412379 15.0506526 -1.8125 14.8125 C-4.32972985 14.56680353 -5.65604113 14.40258238 -7.875 13.125 C-8.8125 11.3125 -8.8125 11.3125 -8.8125 8.4375 C-7.32444346 3.78732332 -5.05732282 0.56192476 0 0 Z " fill="#262538" transform="translate(37.8125,66.6875)"/>
<path d="M0 0 C5.13308791 2.61320839 8.1797908 5.53937241 10 11 C10.54030113 16.72719196 9.6516353 19.55882194 6 24 C3.63762287 26.72031306 2.0240123 27.84655473 -1.5546875 28.3828125 C-6.14035177 28.56922162 -9.30110965 28.3244848 -13.5 26.375 C-17.40776637 22.66262195 -19.14050214 19.3099038 -19.3125 13.9375 C-19.03095603 10.39004601 -18.53178626 8.1536776 -17 5 C-16.67 4.01 -16.34 3.02 -16 2 C-14.0625 1.375 -14.0625 1.375 -12 1 C-8.29018719 -0.85490641 -4.04876607 -0.4540091 0 0 Z M-16.3125 7.75 C-17.36660859 11.19980993 -17.56469439 14.46215565 -17 18 C-14.98497111 21.75212276 -13.54533858 23.63644095 -10 26 C-5.7761743 26.76796831 -1.75241291 26.82744092 2.17578125 24.97265625 C5.72891415 22.31700205 7.42867916 19.89669723 8.1875 15.5 C8.35599346 10.95067651 7.0328167 8.4426568 4 5 C0.18239455 1.59664536 -2.62205709 1.49088836 -7.58984375 1.64453125 C-11.8257677 2.26927854 -13.83982213 4.45309617 -16.3125 7.75 Z " fill="#25243A" transform="translate(123,108)"/>
<path d="M0 0 C1.98 0 3.96 0 6 0 C5.67 4.95 5.34 9.9 5 15 C7.50816459 12.49183541 8.61410019 11.09162264 10 8 C10 8.66 10 9.32 10 10 C10.66 10 11.32 10 12 10 C11.37240135 12.92879371 10.41377341 15.36095629 9 18 C5.31226332 18.41906099 3.58821349 18.43738952 0.5625 16.1875 C-1.79388106 11.38048263 -0.76532252 7.16592703 0 2 C0 1.34 0 0.68 0 0 Z " fill="#C2C2C3" transform="translate(74,69)"/>
<path d="M0 0 C4.63502331 0.52471962 6.10759541 2.01748091 9.3125 5.375 C9.3125 6.695 9.3125 8.015 9.3125 9.375 C7.33340602 9.40186553 5.35421029 9.42133375 3.375 9.4375 C2.27285156 9.44910156 1.17070312 9.46070312 0.03515625 9.47265625 C-2.6875 9.375 -2.6875 9.375 -3.6875 8.375 C-3.8125 4.875 -3.8125 4.875 -3.6875 1.375 C-2.6875 0.375 -2.6875 0.375 0 0 Z " fill="#1D1D2E" transform="translate(136.6875,101.625)"/>
<path d="M0 0 C0.33 0.66 0.66 1.32 1 2 C0.67 2.66 0.34 3.32 0 4 C-0.61975955 9.91689778 -0.61975955 9.91689778 2.125 15 C5.56967557 17.39629605 6.88753314 17.6579947 11 17 C13.43219093 16.13696451 15.66585337 15.12039038 18 14 C16.63016497 17.16115776 16.0109362 17.9927092 13 20 C8.20310209 20.69920885 4.22540718 20.71482085 0 18.25 C-3.58705953 14.21455803 -4.43585653 11.26191009 -4.3359375 5.90625 C-3.82688375 3.01766591 -2.28218629 1.71163972 0 0 Z " fill="#9C86E6" transform="translate(110,114)"/>
<path d="M0 0 C1.98 0 3.96 0 6 0 C4.68 0.33 3.36 0.66 2 1 C2 7.93 2 14.86 2 22 C3.65 22 5.3 22 7 22 C6.67 22.66 6.34 23.32 6 24 C4.02 24 2.04 24 0 24 C0 16.08 0 8.16 0 0 Z " fill="#303748" transform="translate(163,104)"/>
<path d="M0 0 C1.32 0 2.64 0 4 0 C2 4 2 4 0.875 5.75 C-1.03138429 10.65213102 -0.50451284 14.82280337 1.5 19.5 C1.995 20.325 2.49 21.15 3 22 C2.01 22 1.02 22 0 22 C-3.02584887 16.95691856 -3.45458358 13.72775311 -3 8 C-2.0625 5.1875 -2.0625 5.1875 -1 3 C-0.67 2.01 -0.34 1.02 0 0 Z " fill="#1D1D2E" transform="translate(107,110)"/>
<path d="M0 0 C0.99 0 1.98 0 3 0 C2.58846263 4.97093824 2.20399168 9.44508386 0 14 C-0.66 14 -1.32 14 -2 14 C-2.05410687 12.22950311 -2.09284119 10.45853151 -2.125 8.6875 C-2.14820312 7.70136719 -2.17140625 6.71523437 -2.1953125 5.69921875 C-2 3 -2 3 0 0 Z " fill="#28273B" transform="translate(72,71)"/>
<path d="M0 0 C-0.11442461 1.60495567 -0.24194694 3.20898119 -0.375 4.8125 C-0.44460937 5.70582031 -0.51421875 6.59914063 -0.5859375 7.51953125 C-1 10 -1 10 -3 13 C-3.66 13 -4.32 13 -5 13 C-5.02712066 11.56260487 -5.04645067 10.12506137 -5.0625 8.6875 C-5.07410156 7.88699219 -5.08570312 7.08648437 -5.09765625 6.26171875 C-5 4 -5 4 -4 1 C-2 0 -2 0 0 0 Z " fill="#28273A" transform="translate(84,71)"/>
<path d="M0 0 C0 3 0 3 -1.5 4.6875 C-5.1214174 6.58874414 -7.93757827 6.20312109 -12 6 C-12 5.34 -12 4.68 -12 4 C-10.7625 3.71125 -9.525 3.4225 -8.25 3.125 C-5.27551258 2.38665206 -2.666144 1.55525067 0 0 Z " fill="#A68EF4" transform="translate(127,128)"/>
<path d="M0 0 C0.66 0 1.32 0 2 0 C2.3125 2.8125 2.3125 2.8125 2 6 C-0.5 7.875 -0.5 7.875 -3 9 C-2.5020163 5.26512223 -2.12508244 3.18762365 0 0 Z " fill="#19182E" transform="translate(93,68)"/>
<path d="M0 0 C0.33 0 0.66 0 1 0 C0.67 2.97 0.34 5.94 0 9 C-1.32 9.33 -2.64 9.66 -4 10 C-2.66666667 6.66666667 -1.33333333 3.33333333 0 0 Z " fill="#907BD4" transform="translate(130,119)"/>
<path d="M0 0 C2.71675995 0.36712972 4.61063713 0.72744599 6.875 2.3125 C8 4 8 4 7.6875 6.1875 C7.460625 6.785625 7.23375 7.38375 7 8 C6.6596875 7.071875 6.6596875 7.071875 6.3125 6.125 C4.62070165 3.38589791 3.00755839 2.94975528 0 2 C0 1.34 0 0.68 0 0 Z " fill="#9882DF" transform="translate(118,114)"/>
<path d="M0 0 C1.5625 1.1875 1.5625 1.1875 3 3 C2.6875 5.6875 2.6875 5.6875 2 8 C1.34 8 0.68 8 0 8 C0 5.36 0 2.72 0 0 Z " fill="#16152E" transform="translate(70,77)"/>
</svg>
