<?xml version="1.0" encoding="UTF-8"?>
<svg version="1.1" xmlns="http://www.w3.org/2000/svg" width="200" height="200">
<path d="M0 0 C2.6015625 -0.29296875 2.6015625 -0.29296875 5.625 -0.1875 C7.12933594 -0.14689453 7.12933594 -0.14689453 8.6640625 -0.10546875 C9.43492188 -0.07066406 10.20578125 -0.03585938 11 0 C11.33 0.99 11.66 1.98 12 3 C12.66 3.33 13.32 3.66 14 4 C14.60265805 6.14534731 15.10952625 8.3181369 15.5625 10.5 C16.10668442 14.5695459 16.10668442 14.5695459 18 18 C18.556875 16.88625 19.11375 15.7725 19.6875 14.625 C23.34375 7.3125 23.34375 7.3125 27 0 C28.43489809 -0.13536774 29.87347107 -0.23217143 31.3125 -0.3125 C32.11300781 -0.37050781 32.91351563 -0.42851563 33.73828125 -0.48828125 C36 0 36 0 37.62890625 2.10546875 C39.11234037 5.23716301 40.40898188 8.37979828 41.625 11.625 C42.26308594 13.31496094 42.26308594 13.31496094 42.9140625 15.0390625 C43.63891433 17.01545707 44.33430144 19.00290433 45 21 C44.97679687 19.98679687 44.95359375 18.97359375 44.9296875 17.9296875 C44.9109159 16.57813242 44.8927172 15.22656931 44.875 13.875 C44.85824219 13.20984375 44.84148437 12.5446875 44.82421875 11.859375 C44.78152722 7.50483944 45.40003783 4.04399886 47 0 C50.375 -0.125 50.375 -0.125 54 0 C56 2 56 2 56.125 4.625 C56.08375 5.40875 56.0425 6.1925 56 7 C58.7839183 5.60804085 58.97898997 3.84424221 60 1 C61.41543415 0.80341192 62.83244031 0.61812454 64.25 0.4375 C65.03890625 0.33308594 65.8278125 0.22867188 66.640625 0.12109375 C69.00532874 -0.00027349 70.7511037 0.30366743 73 1 C71.63439827 5.36992554 69.23951393 8.49761366 66.4375 12.03515625 C65.03445453 13.95290591 63.9969187 15.84799761 63 18 C64.89755144 20.34973818 64.89755144 20.34973818 68.125 20.125 C69.07375 20.08375 70.0225 20.0425 71 20 C74.51919364 13.46236754 77.05419294 7.16876285 79 0 C82.63 0 86.26 0 90 0 C93.92717402 6.45178589 98 13.31224447 98 21 C99.11375 20.7215625 99.11375 20.7215625 100.25 20.4375 C102.94990963 20.00796892 104.44631077 20.14877026 107 21 C105.8553125 19.6078125 105.8553125 19.6078125 104.6875 18.1875 C104.23375 17.63320312 103.78 17.07890625 103.3125 16.5078125 C102.00789658 14.91621804 102.00789658 14.91621804 100.1875 13.5625 C98.09063195 10.80346309 98.59384665 8.3072487 99 5 C101.02602157 2.39228408 102.24416869 1.16491401 105.50195312 0.45410156 C106.41912109 0.4331543 107.33628906 0.41220703 108.28125 0.390625 C109.28800781 0.35839844 110.29476562 0.32617188 111.33203125 0.29296875 C112.37746094 0.27878906 113.42289062 0.26460938 114.5 0.25 C115.54542969 0.22035156 116.59085937 0.19070312 117.66796875 0.16015625 C121.78014424 0.04958559 125.88627713 0 130 0 C130.5745952 3.73486879 131 7.21293268 131 11 C132.98 11 134.96 11 137 11 C137 7.7 137 4.4 137 1 C140.73059699 0.04070363 143.26798075 0.15323933 147 1 C146.98259766 2.42892578 146.98259766 2.42892578 146.96484375 3.88671875 C146.95582031 5.14097656 146.94679687 6.39523438 146.9375 7.6875 C146.92009766 9.54955078 146.92009766 9.54955078 146.90234375 11.44921875 C147.00626176 15.22767755 147.49606804 18.48820412 148.6875 22.0625 C149.10034074 24.62211261 148.25336209 25.78818455 147 28 C147 28.66 147 29.32 147 30 C143.30458414 30.95024979 140.69541586 30.95024979 137 30 C136.67 27.03 136.34 24.06 136 21 C134.35 21 132.7 21 131 21 C131 23.97 131 26.94 131 30 C126.99998285 31.00000429 124.94476647 30.80688405 121 30 C120.67 28.35 120.34 26.7 120 25 C119.21625 25.804375 118.4325 26.60875 117.625 27.4375 C114.00090484 30.97530718 114.00090484 30.97530718 110.83276367 31.0534668 C107.95045385 30.94070946 105.06890023 30.82173243 102.1875 30.6875 C101.18912109 30.65205078 100.19074219 30.61660156 99.16210938 30.58007812 C97.71094727 30.51530273 97.71094727 30.51530273 96.23046875 30.44921875 C94.90631958 30.39254028 94.90631958 30.39254028 93.55541992 30.3347168 C90.76578864 29.96932227 88.580726 29.09619308 86 28 C84.0075675 27.62406934 82.0081326 27.28020455 80 27 C79.505 28.485 79.505 28.485 79 30 C75.91684615 30.08733513 72.83401173 30.14050127 69.75 30.1875 C68.87730469 30.21263672 68.00460938 30.23777344 67.10546875 30.26367188 C60.58401668 30.33834499 60.58401668 30.33834499 57.390625 28.48828125 C56.93171875 27.99714844 56.4728125 27.50601563 56 27 C56 27.99 56 28.98 56 30 C53.08379545 30.24901747 50.16888923 30.47485086 47.25 30.6875 C46.425 30.76033203 45.6 30.83316406 44.75 30.90820312 C38.55052726 31.33316698 38.55052726 31.33316698 35.5859375 29.5390625 C35.06257813 29.03117187 34.53921875 28.52328125 34 28 C31.41537838 27.58282721 31.41537838 27.58282721 29 28 C28.34 28.66 27.68 29.32 27 30 C24.33201435 30.19936596 21.79093272 30.27831079 19.125 30.25 C18.40441406 30.25773437 17.68382813 30.26546875 16.94140625 30.2734375 C13.0480905 30.25909748 10.37464258 29.91075653 7 28 C3.66283062 28.23836924 0.92983938 28.52099183 -2.0625 30.0625 C-4.74173845 31.3589057 -7.06820212 31.13326354 -10 31 C-11.32349294 27.02952119 -10.99547052 24.07626709 -9.1796875 20.2890625 C-8.49381604 18.96592465 -7.80480945 17.64440895 -7.11328125 16.32421875 C-5.42218695 12.79368854 -4.19301522 9.11920574 -2.9296875 5.41796875 C-2 3 -2 3 0 0 Z M112 10 C113.3553326 12.53673288 113.3553326 12.53673288 115 15 C115.66 15 116.32 15 117 15 C117 15.66 117 16.32 117 17 C117.66 17 118.32 17 119 17 C119.33 17.99 119.66 18.98 120 20 C121.19695276 19.02089415 121.19695276 19.02089415 121.1328125 17.1875 C121.13023437 16.465625 121.12765625 15.74375 121.125 15 C121.12757813 14.278125 121.13015625 13.55625 121.1328125 12.8125 C121.19695276 10.97910585 121.19695276 10.97910585 120 10 C117.32941149 9.85884839 114.67567762 9.95752893 112 10 Z M31 15 C32 18 32 18 32 18 Z M85 15 C84.67 16.32 84.34 17.64 84 19 C84.66 18.67 85.32 18.34 86 18 C85.67 17.01 85.34 16.02 85 15 Z M4 16 C3.67 16.99 3.34 17.98 3 19 C3.66 19 4.32 19 5 19 C5.33 18.01 5.66 17.02 6 16 C5.34 16 4.68 16 4 16 Z M120 20 C120 23 120 23 120 23 Z " fill="#454545" transform="translate(31,81)"/>
<path d="M0 0 C3.63 0 7.26 0 11 0 C14.92717402 6.45178589 19 13.31224447 19 21 C19.7425 20.814375 20.485 20.62875 21.25 20.4375 C23.94990963 20.00796892 25.44631077 20.14877026 28 21 C27.236875 20.071875 26.47375 19.14375 25.6875 18.1875 C25.23375 17.63320312 24.78 17.07890625 24.3125 16.5078125 C23.00789658 14.91621804 23.00789658 14.91621804 21.1875 13.5625 C19.09063195 10.80346309 19.59384665 8.3072487 20 5 C22.02602157 2.39228408 23.24416869 1.16491401 26.50195312 0.45410156 C27.87770508 0.42268066 27.87770508 0.42268066 29.28125 0.390625 C30.28800781 0.35839844 31.29476562 0.32617188 32.33203125 0.29296875 C33.37746094 0.27878906 34.42289063 0.26460938 35.5 0.25 C36.54542969 0.22035156 37.59085938 0.19070312 38.66796875 0.16015625 C42.78014424 0.04958559 46.88627713 0 51 0 C51.5745952 3.73486879 52 7.21293268 52 11 C53.98 11 55.96 11 58 11 C58 7.7 58 4.4 58 1 C61.73059699 0.04070363 64.26798075 0.15323933 68 1 C67.98839844 1.95261719 67.97679687 2.90523438 67.96484375 3.88671875 C67.95582031 5.14097656 67.94679688 6.39523438 67.9375 7.6875 C67.92589844 8.92886719 67.91429687 10.17023438 67.90234375 11.44921875 C68.00626176 15.22767755 68.49606804 18.48820412 69.6875 22.0625 C70.10034074 24.62211261 69.25336209 25.78818455 68 28 C68 28.66 68 29.32 68 30 C64.30458414 30.95024979 61.69541586 30.95024979 58 30 C57.505 25.545 57.505 25.545 57 21 C55.35 21 53.7 21 52 21 C52 23.97 52 26.94 52 30 C47.99998285 31.00000429 45.94476647 30.80688405 42 30 C41.67 28.35 41.34 26.7 41 25 C40.21625 25.804375 39.4325 26.60875 38.625 27.4375 C35.00090484 30.97530718 35.00090484 30.97530718 31.83276367 31.0534668 C28.95045385 30.94070946 26.06890023 30.82173243 23.1875 30.6875 C22.18912109 30.65205078 21.19074219 30.61660156 20.16210938 30.58007812 C18.71094727 30.51530273 18.71094727 30.51530273 17.23046875 30.44921875 C15.90631958 30.39254028 15.90631958 30.39254028 14.55541992 30.3347168 C11.76578864 29.96932227 9.580726 29.09619308 7 28 C5.0075675 27.62406934 3.0081326 27.28020455 1 27 C0.67 27.99 0.34 28.98 0 30 C-3.3 30 -6.6 30 -10 30 C-8.72057218 22.74990901 -5.88568222 16.04869837 -3.21875 9.21875 C-2.06372898 6.16830986 -1.00890205 3.10143963 0 0 Z M33 10 C34.3553326 12.53673288 34.3553326 12.53673288 36 15 C36.66 15 37.32 15 38 15 C38 15.66 38 16.32 38 17 C38.66 17 39.32 17 40 17 C40.33 17.99 40.66 18.98 41 20 C42.19695276 19.02089415 42.19695276 19.02089415 42.1328125 17.1875 C42.13023437 16.465625 42.12765625 15.74375 42.125 15 C42.12757813 14.278125 42.13015625 13.55625 42.1328125 12.8125 C42.19695276 10.97910585 42.19695276 10.97910585 41 10 C38.32941149 9.85884839 35.67567762 9.95752893 33 10 Z M6 15 C5.67 16.32 5.34 17.64 5 19 C5.66 18.67 6.32 18.34 7 18 C6.67 17.01 6.34 16.02 6 15 Z M41 20 C41 23 41 23 41 23 Z " fill="#585758" transform="translate(110,81)"/>
<path d="M0 0 C0.99 0.495 0.99 0.495 2 1 C1.59111399 4.43464248 1.09090533 6.83916749 -0.625 9.875 C-2.48255887 14.09672471 -1.84993723 16.51851277 -1 21 C-0.443125 21.061875 0.11375 21.12375 0.6875 21.1875 C4.10386271 22.38784365 5.70636608 24.22349578 8 27 C8.69356423 29.32548007 9.36149212 31.65880445 10 34 C10.70125 34.639375 11.4025 35.27875 12.125 35.9375 C14.26339216 38.28973138 14.33135647 38.98992416 14.4375 42.0625 C14 46 14 46 12.5 48 C12.005 48.33 11.51 48.66 11 49 C12.06201737 51.22739701 12.06201737 51.22739701 14 54 C13.625 56.6875 13.625 56.6875 13 59 C12.01 59 11.02 59 10 59 C9.67 58.01 9.34 57.02 9 56 C-15.09 56 -39.18 56 -64 56 C-64.33 56.99 -64.66 57.98 -65 59 C-68.28696233 59.79953138 -69.71023192 60.09658936 -73 59 C-73.680625 57.9790625 -73.680625 57.9790625 -74.375 56.9375 C-75.86943434 54.69436512 -75.86943434 54.69436512 -78.6875 54.75 C-79.450625 54.8325 -80.21375 54.915 -81 55 C-81 55.99 -81 56.98 -81 58 C-82.65 58.66 -84.3 59.32 -86 60 C-86.495 58.515 -86.495 58.515 -87 57 C-85.58511552 54.23760649 -84.19636905 52.19636905 -82 50 C-75.02857143 49.31428571 -75.02857143 49.31428571 -71 52 C-70.34 52.66 -69.68 53.32 -69 54 C-68.34 53.01 -67.68 52.02 -67 51 C-65.515 50.505 -65.515 50.505 -64 50 C-65.485 49.505 -65.485 49.505 -67 49 C-67 48.34 -67 47.68 -67 47 C-67.66 47 -68.32 47 -69 47 C-71.0088583 42.85672976 -71.40215934 39.58461644 -71 35 C-69.26348526 30.33882885 -67.18637476 27.69124092 -63 25 C-62.154375 24.9175 -61.30875 24.835 -60.4375 24.75 C-57.89815806 24.25066026 -57.89815806 24.25066026 -56.83203125 22.23828125 C-55.81039206 20.18393818 -54.88318223 18.11703975 -54 16 C-53.67 15.34 -53.34 14.68 -53 14 C-53.9294904 11.93545882 -55.05496578 10.02989473 -56.1875 8.0703125 C-57.15673298 5.60063232 -56.88080989 4.45525756 -56 2 C-55.34 2 -54.68 2 -54 2 C-51.525 6.95 -51.525 6.95 -49 12 C-43.0473582 11.6498446 -40.9914244 10.29845705 -37 6 C-31.33618004 1.89373053 -24.70357518 2.13755173 -18 3 C-13.43918626 4.60550158 -9.4342121 6.5657879 -6 10 C-5.34 10 -4.68 10 -4 10 C-3.896875 9.278125 -3.79375 8.55625 -3.6875 7.8125 C-2.94013068 4.75508007 -1.71954811 2.61670365 0 0 Z M-41.4375 14.6875 C-43 16 -43 16 -45.9375 16.4375 C-49.67669906 17.12429166 -50.80884568 17.91615318 -53 21 C-53.80765878 24.64721696 -53.80765878 24.64721696 -54 28 C-55.216875 28.04125 -56.43375 28.0825 -57.6875 28.125 C-61.03393185 28.54033729 -62.71021098 29.19516848 -64.9375 31.75 C-67.48744464 35.60676828 -67.48744464 35.60676828 -68 40 C-66.51209453 42.57903614 -65.11387131 44.88612869 -63 47 C-60.80760906 47.1101425 -58.61162705 47.14914253 -56.41650391 47.16113281 C-55.72867325 47.16609772 -55.04084259 47.17106262 -54.33216858 47.17617798 C-52.04695653 47.19083421 -49.76181391 47.1976075 -47.4765625 47.203125 C-45.89334103 47.20887388 -44.3101196 47.21463164 -42.72689819 47.22039795 C-39.40288975 47.23091798 -36.07890557 47.23675398 -32.75488281 47.24023438 C-28.49189315 47.24571941 -24.22922286 47.26974316 -19.96633339 47.29820633 C-16.69441792 47.31681509 -13.42257962 47.32203737 -10.15061569 47.32357025 C-8.57890452 47.32660162 -7.00719486 47.33464645 -5.43553543 47.34775543 C-3.23753725 47.36477881 -1.0403222 47.36294521 1.15771484 47.35644531 C3.03515884 47.36191376 3.03515884 47.36191376 4.95053101 47.36749268 C8.0046807 47.26828851 8.0046807 47.26828851 9.92764282 45.47772217 C10.45845963 44.74624969 10.45845963 44.74624969 11 44 C10.3045656 40.99615946 10.3045656 40.99615946 9 38 C6.96756452 37.03122943 6.96756452 37.03122943 5 37 C5.020625 35.906875 5.04125 34.81375 5.0625 33.6875 C5.18544452 30.05615809 5.18544452 30.05615809 4 27 C2.865625 26.525625 1.73125 26.05125 0.5625 25.5625 C-3 24 -3 24 -4.25 22.1875 C-4.4975 21.465625 -4.745 20.74375 -5 20 C-7.63649707 13.80423187 -11.23674668 10.742051 -16.875 7.1875 C-26.19188105 3.6470852 -35.11246366 7.26245734 -41.4375 14.6875 Z M-59 50 C-59 50.33 -59 50.66 -59 51 C-57.02 51 -55.04 51 -53 51 C-53 50.67 -53 50.34 -53 50 C-54.98 50 -56.96 50 -59 50 Z M8 50 C7.67 50.66 7.34 51.32 7 52 C7.99 51.67 8.98 51.34 10 51 C9.34 50.67 8.68 50.34 8 50 Z " fill="#385581" transform="translate(127,17)"/>
<path d="M0 0 C1.11375 1.0209375 1.11375 1.0209375 2.25 2.0625 C4.73877536 4.2423114 4.73877536 4.2423114 7.1875 3.875 C9.18733041 3.03225102 9.18733041 3.03225102 11 1 C13.32275177 0.59952556 15.65739357 0.2602896 18 0 C19.05496286 3.65720457 20.07671407 7.30685628 21 11 C25.29 11.33 29.58 11.66 34 12 C35.03639548 18.21837287 35.05648415 24.25517385 34.875 30.5390625 C34.84373151 32.3595833 34.91467923 34.18121082 35 36 C36.83883881 38.28728734 36.83883881 38.28728734 39.625 38.125 C40.800625 38.063125 40.800625 38.063125 42 38 C44.64403784 33.0644627 44.18982571 28.18256371 44.0625 22.75 C44.02822901 20.93236803 43.99805167 19.11465264 43.97265625 17.296875 C43.94570679 16.09562988 43.94570679 16.09562988 43.91821289 14.87011719 C44 13 44 13 45 12 C46.70772358 11.91286169 48.41898649 11.89299993 50.12890625 11.90234375 C51.68061523 11.90717773 51.68061523 11.90717773 53.26367188 11.91210938 C54.35228516 11.92048828 55.44089844 11.92886719 56.5625 11.9375 C58.2012207 11.94426758 58.2012207 11.94426758 59.87304688 11.95117188 C62.58208495 11.96300174 65.29101599 11.97948457 68 12 C69.77385592 15.54771183 69.03353145 19.87847848 68.9609375 23.79492188 C68.91053756 28.29311627 69.17846911 32.55574608 70 37 C71.18424326 38.41577477 71.18424326 38.41577477 74.5625 38.0625 C76.2640625 38.0315625 76.2640625 38.0315625 78 38 C77.99476318 37.28344238 77.98952637 36.56688477 77.98413086 35.82861328 C77.96339333 32.59408438 77.95035016 29.35956944 77.9375 26.125 C77.92912109 24.99707031 77.92074219 23.86914062 77.91210938 22.70703125 C77.90888672 21.63066406 77.90566406 20.55429688 77.90234375 19.4453125 C77.89710693 18.45031738 77.89187012 17.45532227 77.88647461 16.43017578 C78 14 78 14 79 12 C82.16015625 11.5859375 82.16015625 11.5859375 86.0625 11.375 C87.35285156 11.30023438 88.64320313 11.22546875 89.97265625 11.1484375 C90.97167969 11.09945312 91.97070312 11.05046875 93 11 C93 8.03 93 5.06 93 2 C94.32 1.34 95.64 0.68 97 0 C97.25002209 1.74714233 97.47423194 3.49799141 97.6875 5.25 C97.81511719 6.22453125 97.94273437 7.1990625 98.07421875 8.203125 C97.98585568 11.53301746 97.33338062 12.67195892 95 15 C92.24921116 15.91692961 90.64051087 16.10886083 87.8125 16.0625 C85.9253125 16.0315625 85.9253125 16.0315625 84 16 C83.99589111 16.67579102 83.99178223 17.35158203 83.98754883 18.04785156 C83.95461055 21.116118 83.8839674 24.18239926 83.8125 27.25 C83.80379883 28.84521484 83.80379883 28.84521484 83.79492188 30.47265625 C83.5725605 38.32942491 83.5725605 38.32942491 80.6953125 41.69921875 C77.12767309 43.42099255 73.80698635 44.10836312 70 43 C65.76361524 40.51342633 65.76361524 40.51342633 64 38 C63.29544435 34.57230147 63.47644135 31.29124313 63.6875 27.8125 C63.75749434 26.00664592 63.82407091 24.20065511 63.88671875 22.39453125 C63.93014404 21.59893799 63.97356934 20.80334473 64.01831055 19.98364258 C64.14441833 17.92305445 64.14441833 17.92305445 63 16 C56.565 16.495 56.565 16.495 50 17 C49.4519641 22.89138588 48.93159784 28.58777758 49.1875 34.5 C49.19759282 37.63886765 49.10534057 38.80763897 47.5625 41.625 C42.86329548 44.14652438 38.0066152 43.58526277 33 42.125 C31 41 31 41 30 39 C29.84777027 37.33434251 29.75082785 35.66343504 29.68359375 33.9921875 C29.64169922 33.00605469 29.59980469 32.01992187 29.55664062 31.00390625 C29.51732422 29.97136719 29.47800781 28.93882812 29.4375 27.875 C29.39431641 26.83472656 29.35113281 25.79445312 29.30664062 24.72265625 C29.2003712 22.14857472 29.09833417 19.57439492 29 17 C28.18619873 16.89800293 27.37239746 16.79600586 26.53393555 16.69091797 C18.58241755 15.63380733 18.58241755 15.63380733 15.875 12.6875 C15.04013069 10.12325856 14.38141783 7.66992478 14 5 C13.01 6.485 13.01 6.485 12 8 C9.02351905 8.97656644 6.12003681 9.18860326 3 9 C-0.53724365 6.93660787 -1.70419522 5.88741435 -3 2 C-2.01 1.34 -1.02 0.68 0 0 Z " fill="#35527B" transform="translate(43,132)"/>
<path d="M0 0 C3.63 0 7.26 0 11 0 C16.38873202 8.85291689 20.58988746 17.3514514 19 28 C17 30 17 30 14.6875 30.25 C11.76605203 29.9782374 9.70031074 29.11964104 7 28 C5.0075675 27.62406934 3.0081326 27.28020455 1 27 C0.67 27.99 0.34 28.98 0 30 C-3.3 30 -6.6 30 -10 30 C-8.72057218 22.74990901 -5.88568222 16.04869837 -3.21875 9.21875 C-2.06372898 6.16830986 -1.00890205 3.10143963 0 0 Z M6 15 C5.67 16.32 5.34 17.64 5 19 C5.66 18.67 6.32 18.34 7 18 C6.67 17.01 6.34 16.02 6 15 Z " fill="#335E9C" transform="translate(110,81)"/>
<path d="M0 0 C3.63 0 7.26 0 11 0 C11.33 0.99 11.66 1.98 12 3 C12.66 3.33 13.32 3.66 14 4 C14.60265805 6.14534731 15.10952625 8.3181369 15.5625 10.5 C16.10668442 14.5695459 16.10668442 14.5695459 18 18 C18.13568319 21.66344611 18.16461426 24.50615721 17 28 C15.35 28.33 13.7 28.66 12 29 C11.67 28.34 11.34 27.68 11 27 C8.67843403 26.59270772 6.3431213 26.25561323 4 26 C3.34 24.02 2.68 22.04 2 20 C1.34 20 0.68 20 0 20 C-0.185625 21.11375 -0.37125 22.2275 -0.5625 23.375 C-1.2740625 25.169375 -1.2740625 25.169375 -2 27 C-5.625 28.4375 -5.625 28.4375 -9 29 C-8.855625 28.484375 -8.71125 27.96875 -8.5625 27.4375 C-7.93504453 24.9127759 -7.93504453 24.9127759 -7.625 21.9375 C-6.35230499 13.91952141 -4.41450018 6.85008648 0 0 Z M4 16 C3.34 17.32 2.68 18.64 2 20 C3.32 20 4.64 20 6 20 C6 18.68 6 17.36 6 16 C5.34 16 4.68 16 4 16 Z " fill="#505357" transform="translate(31,81)"/>
<path d="M0 0 C-1.36560173 4.36992554 -3.76048607 7.49761366 -6.5625 11.03515625 C-7.96554547 12.95290591 -9.0030813 14.84799761 -10 17 C-7.4345406 19.5654594 -5.52313332 19.54046087 -2 20 C-2.5881668 23.02485781 -3.24070528 26.01386614 -4 29 C-12.17933131 29.4718845 -12.17933131 29.4718845 -15.5 27.5625 C-15.995 27.046875 -16.49 26.53125 -17 26 C-17.33 25.67 -17.66 25.34 -18 25 C-18.33 25.99 -18.66 26.98 -19 28 C-20.98 28 -22.96 28 -25 28 C-26.29776917 25.40446166 -26.12950035 23.49294473 -26.1328125 20.58984375 C-26.13410156 19.51798828 -26.13539062 18.44613281 -26.13671875 17.34179688 C-26.13285156 16.21837891 -26.12898438 15.09496094 -26.125 13.9375 C-26.12886719 12.81021484 -26.13273437 11.68292969 -26.13671875 10.52148438 C-26.13542969 9.45091797 -26.13414063 8.38035156 -26.1328125 7.27734375 C-26.13168457 6.28984131 -26.13055664 5.30233887 -26.12939453 4.28491211 C-26 2 -26 2 -25 1 C-23.00041636 0.95919217 -20.99954746 0.95745644 -19 1 C-19 4.63 -19 8.26 -19 12 C-14.95000562 8.96250422 -14.06106381 7.40318178 -12 3 C-8.6463584 -0.3536416 -4.57608788 0 0 0 Z " fill="#555555" transform="translate(104,82)"/>
<path d="M0 0 C1.38294718 0.01329757 2.76582404 0.03715018 4.1484375 0.0703125 C4.85484375 0.07933594 5.56125 0.08835937 6.2890625 0.09765625 C8.03399848 0.12123647 9.77876045 0.15710789 11.5234375 0.1953125 C11.5234375 1.5153125 11.5234375 2.8353125 11.5234375 4.1953125 C10.8634375 4.1953125 10.2034375 4.1953125 9.5234375 4.1953125 C9.5234375 4.8553125 9.5234375 5.5153125 9.5234375 6.1953125 C7.5434375 6.1953125 5.5634375 6.1953125 3.5234375 6.1953125 C3.1934375 7.1853125 2.8634375 8.1753125 2.5234375 9.1953125 C4.39541204 11.88964567 4.39541204 11.88964567 6.5234375 14.1953125 C5.8634375 15.8453125 5.2034375 17.4953125 4.5234375 19.1953125 C5.5134375 19.1953125 6.5034375 19.1953125 7.5234375 19.1953125 C7.8534375 18.5353125 8.1834375 17.8753125 8.5234375 17.1953125 C7.8634375 16.8653125 7.2034375 16.5353125 6.5234375 16.1953125 C7.5134375 16.1953125 8.5034375 16.1953125 9.5234375 16.1953125 C10.1834375 19.1653125 10.8434375 22.1353125 11.5234375 25.1953125 C7.1845172 28.77180272 4.54462391 29.62522944 -1.046875 29.19140625 C-1.80742187 29.11019531 -2.56796875 29.02898437 -3.3515625 28.9453125 C-4.1353125 28.87957031 -4.9190625 28.81382813 -5.7265625 28.74609375 C-7.64502459 28.5823226 -9.5611487 28.39154643 -11.4765625 28.1953125 C-10.8165625 25.2253125 -10.1565625 22.2553125 -9.4765625 19.1953125 C-6.09838825 18.35076894 -3.80191007 18.08686331 -0.4765625 19.1953125 C-1.0953125 18.4940625 -1.7140625 17.7928125 -2.3515625 17.0703125 C-5.33510631 13.03375323 -6.61467172 9.99073242 -6.2265625 4.9453125 C-5.09635194 0.80120711 -4.32085246 0.24274452 0 0 Z " fill="#656767" transform="translate(138.4765625,82.8046875)"/>
<path d="M0 0 C2.05078125 0.03255208 4.1015625 0.06510417 6.15234375 0.09765625 C7.50190027 4.14632581 7.17480431 7.85243601 7.08984375 12.08984375 C7.16386909 15.65231315 7.71545656 18.78699467 8.83984375 22.16015625 C9.25268449 24.71976886 8.40570584 25.8858408 7.15234375 28.09765625 C7.15234375 28.75765625 7.15234375 29.41765625 7.15234375 30.09765625 C3.45692789 31.04790604 0.84775961 31.04790604 -2.84765625 30.09765625 C-3.17765625 27.12765625 -3.50765625 24.15765625 -3.84765625 21.09765625 C-5.49765625 21.09765625 -7.14765625 21.09765625 -8.84765625 21.09765625 C-9.17765625 22.74765625 -9.50765625 24.39765625 -9.84765625 26.09765625 C-10.50765625 25.43765625 -11.16765625 24.77765625 -11.84765625 24.09765625 C-10.85765625 20.63265625 -10.85765625 20.63265625 -9.84765625 17.09765625 C-7.86765625 16.76765625 -5.88765625 16.43765625 -3.84765625 16.09765625 C-3.51765625 14.77765625 -3.18765625 13.45765625 -2.84765625 12.09765625 C-3.83765625 11.76765625 -4.82765625 11.43765625 -5.84765625 11.09765625 C-4.85765625 11.09765625 -3.86765625 11.09765625 -2.84765625 11.09765625 C-2.85925781 10.38738281 -2.87085938 9.67710938 -2.8828125 8.9453125 C-2.89634766 7.56666016 -2.89634766 7.56666016 -2.91015625 6.16015625 C-2.92175781 5.24363281 -2.93335938 4.32710938 -2.9453125 3.3828125 C-2.82618856 0.59531224 -2.79215837 0.14757708 0 0 Z " fill="#525253" transform="translate(170.84765625,80.90234375)"/>
<path d="M0 0 C0.66 0 1.32 0 2 0 C2.25002209 1.74714233 2.47423194 3.49799141 2.6875 5.25 C2.81511719 6.22453125 2.94273437 7.1990625 3.07421875 8.203125 C2.98585568 11.53301746 2.33338062 12.67195892 0 15 C-2.75078884 15.91692961 -4.35948913 16.10886083 -7.1875 16.0625 C-9.0746875 16.0315625 -9.0746875 16.0315625 -11 16 C-11.00616333 17.01368652 -11.00616333 17.01368652 -11.01245117 18.04785156 C-11.04538945 21.116118 -11.1160326 24.18239926 -11.1875 27.25 C-11.19330078 28.31347656 -11.19910156 29.37695312 -11.20507812 30.47265625 C-11.42709413 38.31722177 -11.42709413 38.31722177 -14.28125 41.71875 C-18.23131954 43.58027703 -20.68487921 43.29255056 -25 43 C-25 42.67 -25 42.34 -25 42 C-22.03 41.505 -22.03 41.505 -19 41 C-19.99 40.34 -20.98 39.68 -22 39 C-19.525 38.505 -19.525 38.505 -17 38 C-17.00523682 37.28344238 -17.01047363 36.56688477 -17.01586914 35.82861328 C-17.03660667 32.59408438 -17.04964984 29.35956944 -17.0625 26.125 C-17.07506836 24.43310547 -17.07506836 24.43310547 -17.08789062 22.70703125 C-17.09111328 21.63066406 -17.09433594 20.55429688 -17.09765625 19.4453125 C-17.10289307 18.45031738 -17.10812988 17.45532227 -17.11352539 16.43017578 C-17 14 -17 14 -16 12 C-12.83984375 11.5859375 -12.83984375 11.5859375 -8.9375 11.375 C-7.64714844 11.30023438 -6.35679687 11.22546875 -5.02734375 11.1484375 C-4.02832031 11.09945312 -3.02929688 11.05046875 -2 11 C-2.02320313 10.37351563 -2.04640625 9.74703125 -2.0703125 9.1015625 C-2.08835938 8.28429687 -2.10640625 7.46703125 -2.125 6.625 C-2.14820313 5.81289062 -2.17140625 5.00078125 -2.1953125 4.1640625 C-2 2 -2 2 0 0 Z " fill="#39577C" transform="translate(138,132)"/>
<path d="M0 0 C0.66 0 1.32 0 2 0 C5.69791097 7.56751065 8.45313057 14.46476991 7 23 C5 25 5 25 2.6875 25.25 C-0.23394797 24.9782374 -2.29968926 24.11964104 -5 23 C-6.9924325 22.62406934 -8.9918674 22.28020455 -11 22 C-11.33 22.99 -11.66 23.98 -12 25 C-15.3 25 -18.6 25 -22 25 C-20.83311322 18.38764157 -18.37208587 12.25368094 -16 6 C-15.67 6 -15.34 6 -15 6 C-15 9.3 -15 12.6 -15 16 C-15.66 16 -16.32 16 -17 16 C-17.33 18.31 -17.66 20.62 -18 23 C-13.92035719 21.69844994 -13.92035719 21.69844994 -10 20 C-10.33 18.68 -10.66 17.36 -11 16 C-10.34 15.67 -9.68 15.34 -9 15 C-8.67 16.98 -8.34 18.96 -8 21 C-4.04 20.505 -4.04 20.505 0 20 C0.99 16.535 0.99 16.535 2 13 C2.66 13 3.32 13 4 13 C3.65555119 10.52733235 3.65555119 10.52733235 3 8 C2.34 7.67 1.68 7.34 1 7 C0.59270772 4.67843403 0.25561323 2.3431213 0 0 Z " fill="#31548A" transform="translate(122,86)"/>
<path d="M0 0 C2.125 6.75 2.125 6.75 1 9 C1.66 8.67 2.32 8.34 3 8 C2.95875 6.88625 2.9175 5.7725 2.875 4.625 C3 1 3 1 5 -1 C6.32 -1 7.64 -1 9 -1 C9.33 0.65 9.66 2.3 10 4 C9.34 4 8.68 4 8 4 C8.99 5.485 8.99 5.485 10 7 C9.8125 9.5625 9.8125 9.5625 9 12 C8.01 12.66 7.02 13.32 6 14 C4.68 13.01 3.36 12.02 2 11 C1.01 11.66 0.02 12.32 -1 13 C-4.1875 13.125 -4.1875 13.125 -7 13 C-7.96661363 9.87819599 -7.98988909 7.47916205 -7.5625 4.25 C-7.46066406 3.45078125 -7.35882813 2.6515625 -7.25390625 1.828125 C-7.17011719 1.22484375 -7.08632812 0.6215625 -7 0 C-3.86650268 -1.04449911 -3.01031744 -0.93423645 0 0 Z " fill="#314871" transform="translate(154,116)"/>
<path d="M0 0 C0.33 -0.33 0.66 -0.66 1 -1 C2.66617115 -1.04063832 4.33388095 -1.042721 6 -1 C6.35729936 0.32711192 6.68325425 1.66262906 7 3 C7.2475 3.99 7.495 4.98 7.75 6 C8 9 8 9 6.5625 11.375 C6.046875 11.91125 5.53125 12.4475 5 13 C4.0925 12.62875 3.185 12.2575 2.25 11.875 C-1.4739723 10.87239207 -1.81531823 11.30150305 -5 13 C-7.1875 12.5 -7.1875 12.5 -9 11 C-10.25564319 6.75013074 -9.91996675 3.29317818 -9 -1 C-3.375 -2.25 -3.375 -2.25 0 0 Z M-5 2 C-2.28395285 4.87420123 -2.28395285 4.87420123 1 7 C0.67 5.68 0.34 4.36 0 3 C-1.65 2.67 -3.3 2.34 -5 2 Z M-5 7 C-4 9 -4 9 -4 9 Z M-3 7 C-3 7.66 -3 8.32 -3 9 C-2.34 8.67 -1.68 8.34 -1 8 C-1.66 7.67 -2.32 7.34 -3 7 Z " fill="#2B4C6D" transform="translate(54,117)"/>
<path d="M0 0 C1.38294718 0.01329757 2.76582404 0.03715018 4.1484375 0.0703125 C4.85484375 0.07933594 5.56125 0.08835937 6.2890625 0.09765625 C8.03399848 0.12123647 9.77876045 0.15710789 11.5234375 0.1953125 C11.5234375 1.5153125 11.5234375 2.8353125 11.5234375 4.1953125 C10.8634375 4.1953125 10.2034375 4.1953125 9.5234375 4.1953125 C9.5234375 4.8553125 9.5234375 5.5153125 9.5234375 6.1953125 C7.5434375 6.1953125 5.5634375 6.1953125 3.5234375 6.1953125 C3.1934375 7.1853125 2.8634375 8.1753125 2.5234375 9.1953125 C4.39541204 11.88964567 4.39541204 11.88964567 6.5234375 14.1953125 C5.8634375 15.8453125 5.2034375 17.4953125 4.5234375 19.1953125 C3.05503386 18.31608316 1.5990201 17.41614261 0.1484375 16.5078125 C-0.66367188 16.00894531 -1.47578125 15.51007813 -2.3125 14.99609375 C-4.85121586 12.88355221 -5.59591767 11.35178105 -6.4765625 8.1953125 C-6.06607055 2.96154014 -5.72272729 0.32150153 0 0 Z " fill="#676767" transform="translate(138.4765625,82.8046875)"/>
<path d="M0 0 C1.62418745 -0.08090971 3.24951745 -0.13914995 4.875 -0.1875 C5.77992187 -0.22230469 6.68484375 -0.25710937 7.6171875 -0.29296875 C8.79667969 -0.14794922 8.79667969 -0.14794922 10 0 C10.66 0.99 11.32 1.98 12 3 C11.34 3 10.68 3 10 3 C10.28875 3.66 10.5775 4.32 10.875 5 C12.23437299 8.62499465 13.10624639 12.23346693 14 16 C13.34 16 12.68 16 12 16 C11.67 17.98 11.34 19.96 11 22 C11.66 22.33 12.32 22.66 13 23 C10.24921116 23.91692961 8.64051087 24.10886083 5.8125 24.0625 C3.9253125 24.0315625 3.9253125 24.0315625 2 24 C2.33 22.35 2.66 20.7 3 19 C4.32 18.67 5.64 18.34 7 18 C7.33 14.7 7.66 11.4 8 8 C6.68 8.33 5.36 8.66 4 9 C4 7.02 4 5.04 4 3 C2.68 3 1.36 3 0 3 C0 2.01 0 1.02 0 0 Z " fill="#3463AE" transform="translate(112,83)"/>
<path d="M0 0 C3.77126791 1.01180358 4.78414572 1.67621858 7 5 C7.19850603 8.70544587 7.17664871 11.47005387 6 15 C4.35 15.33 2.7 15.66 1 16 C0.67 15.34 0.34 14.68 0 14 C-2.32156597 13.59270772 -4.6568787 13.25561323 -7 13 C-7.66 11.02 -8.32 9.04 -9 7 C-7.68 7 -6.36 7 -5 7 C-4.731875 6.21625 -4.46375 5.4325 -4.1875 4.625 C-3 2 -3 2 0 0 Z " fill="#5F5F5F" transform="translate(42,94)"/>
<path d="M0 0 C0.99 0.33 1.98 0.66 3 1 C3.73046875 2.84765625 3.73046875 2.84765625 4.1875 5.0625 C4.34605469 5.79597656 4.50460938 6.52945313 4.66796875 7.28515625 C4.77753906 7.85105469 4.88710938 8.41695312 5 9 C4.01 9.33 3.02 9.66 2 10 C1.67 12.31 1.34 14.62 1 17 C0.34 17 -0.32 17 -1 17 C-1.185625 18.11375 -1.37125 19.2275 -1.5625 20.375 C-2.2740625 22.169375 -2.2740625 22.169375 -3 24 C-6.625 25.4375 -6.625 25.4375 -10 26 C-9.855625 25.484375 -9.71125 24.96875 -9.5625 24.4375 C-8.91982899 21.81874845 -8.91982899 21.81874845 -8.5 18.375 C-7.9945421 14.96315916 -7.31447591 13.51956889 -5.5625 10.625 C-4.26778419 8.44987743 -3.0971353 6.27866562 -2 4 C-1.34 4 -0.68 4 0 4 C-0.33 3.01 -0.66 2.02 -1 1 C-0.67 0.67 -0.34 0.34 0 0 Z " fill="#606061" transform="translate(32,84)"/>
<path d="M0 0 C0.66 0 1.32 0 2 0 C2 2.97 2 5.94 2 9 C3.65 9 5.3 9 7 9 C8.32 6.03 9.64 3.06 11 0 C15 1 15 1 16.265625 2.9609375 C16.75289062 4.15589844 16.75289062 4.15589844 17.25 5.375 C17.58515625 6.16648437 17.9203125 6.95796875 18.265625 7.7734375 C19 10 19 10 19 13 C18.01 13 17.02 13 16 13 C15.34 12.01 14.68 11.02 14 10 C13.01 9.67 12.02 9.34 11 9 C10.67 9.99 10.34 10.98 10 12 C6.7 12.33 3.4 12.66 0 13 C-1.25069801 10.49860398 -1.13302467 8.72607309 -1.125 5.9375 C-1.12757812 5.03902344 -1.13015625 4.14054687 -1.1328125 3.21484375 C-1 1 -1 1 0 0 Z " fill="#314B6C" transform="translate(127,116)"/>
<path d="M0 0 C3.15836293 3.15836293 2.4489066 6.93725726 2.65625 11.25 C2.73185778 14.14115152 2.73185778 14.14115152 5 16 C7.5 16.41666667 7.5 16.41666667 10 16 C10.66 15.01 11.32 14.02 12 13 C12.99 13 13.98 13 15 13 C14.690625 13.5775 14.38125 14.155 14.0625 14.75 C13.07416636 16.84294184 12.4831387 18.74535275 12 21 C3.21276596 21.29787234 3.21276596 21.29787234 -1 19 C-2.34116414 16.31767173 -2.16904021 14.18167741 -2.1875 11.1875 C-2.20167969 10.14980469 -2.21585937 9.11210937 -2.23046875 8.04296875 C-1.99714427 4.96229467 -1.30118886 2.78238408 0 0 Z " fill="#395077" transform="translate(75,154)"/>
<path d="M0 0 C4.95 0 9.9 0 15 0 C13.02 0.99 13.02 0.99 11 2 C11 4.31 11 6.62 11 9 C12.65 9 14.3 9 16 9 C16.33 10.32 16.66 11.64 17 13 C13.30458414 13.95024979 10.69541586 13.95024979 7 13 C6.67 10.03 6.34 7.06 6 4 C4.35 4 2.7 4 1 4 C0.67 5.65 0.34 7.3 0 9 C-0.66 8.34 -1.32 7.68 -2 7 C-1.34 4.69 -0.68 2.38 0 0 Z " fill="#535353" transform="translate(161,98)"/>
<path d="M0 0 C3.33936804 0.06703111 5.15064329 0.7144478 7.75 2.8125 C10.25 5.4375 10.25 5.4375 10.25 7.4375 C11.24 7.4375 12.23 7.4375 13.25 7.4375 C13.25 8.0975 13.25 8.7575 13.25 9.4375 C9.96303767 10.23703138 8.53976808 10.53408936 5.25 9.4375 C4.569375 8.4165625 4.569375 8.4165625 3.875 7.375 C2.38056566 5.13186512 2.38056566 5.13186512 -0.4375 5.1875 C-1.5821875 5.31125 -1.5821875 5.31125 -2.75 5.4375 C-2.75 6.4275 -2.75 7.4175 -2.75 8.4375 C-4.4 9.0975 -6.05 9.7575 -7.75 10.4375 C-8.08 9.4475 -8.41 8.4575 -8.75 7.4375 C-6.44539175 2.93802675 -5.20379927 0.60710991 0 0 Z " fill="#29446E" transform="translate(48.75,66.5625)"/>
<path d="M0 0 C0.33 0.99 0.66 1.98 1 3 C-0.32 2.67 -1.64 2.34 -3 2 C-2.01 2 -1.02 2 0 2 C0 1.34 0 0.68 0 0 Z M-12 1 C-10.53273202 4.81489674 -11.56663581 7.29011622 -13 11 C-10.57732914 11.05167527 -10.57732914 11.05167527 -8 10 C-6.13016255 6.52692672 -6.13016255 6.52692672 -5 3 C-4.34 3 -3.68 3 -3 3 C-2.34 4.65 -1.68 6.3 -1 8 C1.31 8.33 3.62 8.66 6 9 C6.33 9.99 6.66 10.98 7 12 C8.32 11.67 9.64 11.34 11 11 C11 11.66 11 12.32 11 13 C6.44642857 13.25297619 6.44642857 13.25297619 4.125 11.9375 C0.88162417 10.5065989 -1.60068508 11.27157537 -5 12 C-5.680625 12.350625 -6.36125 12.70125 -7.0625 13.0625 C-9.74173845 14.3589057 -12.06820212 14.13326354 -15 14 C-16.11329523 10.66011432 -16.01098929 8.3699643 -15 5 C-13.4375 2.6875 -13.4375 2.6875 -12 1 Z " fill="#4D4D4E" transform="translate(36,98)"/>
<path d="M0 0 C2.13093906 1.06546953 3.36587557 2.29159719 5 4 C3.88625 4.309375 3.88625 4.309375 2.75 4.625 C-0.88562462 6.44281231 -2.11400526 8.4375655 -4 12 C-4.33709062 14.75258812 -4.33709062 14.75258812 -4 17 C-3.34 17.33 -2.68 17.66 -2 18 C-0.875 20.0625 -0.875 20.0625 0 22 C-1.98 22.99 -1.98 22.99 -4 24 C-4 23.34 -4 22.68 -4 22 C-4.66 22 -5.32 22 -6 22 C-8.0088583 17.85672976 -8.40215934 14.58461644 -8 10 C-6.25067735 5.30444972 -4.07990188 2.86695808 0 0 Z " fill="#364F73" transform="translate(64,42)"/>
<path d="M0 0 C0.33 0.66 0.66 1.32 1 2 C0.0625 4.125 0.0625 4.125 -1 6 C1.5654594 8.5654594 3.47686668 8.54046087 7 9 C6.4118332 12.02485781 5.75929472 15.01386614 5 18 C-3.19256018 18.4726477 -3.19256018 18.4726477 -6.5625 16.5 C-7.036875 16.005 -7.51125 15.51 -8 15 C-7.67 14.01 -7.34 13.02 -7 12 C-5.515 12.99 -5.515 12.99 -4 14 C-3.67 12.35 -3.34 10.7 -3 9 C-2.01 9.66 -1.02 10.32 0 11 C0 11.99 0 12.98 0 14 C1.65 13.34 3.3 12.68 5 12 C4.071875 11.54625 3.14375 11.0925 2.1875 10.625 C-1 9 -1 9 -4 7 C-3.6875 4.625 -3.6875 4.625 -3 2 C-2.01 1.34 -1.02 0.68 0 0 Z " fill="#4D4F51" transform="translate(95,93)"/>
<path d="M0 0 C2 2 2 2 2 5 C-0.64 4.67 -3.28 4.34 -6 4 C-6.33 5.32 -6.66 6.64 -7 8 C-3.53842554 9.73078723 -1.65921187 10.13561748 2 9 C2 9.99 2 10.98 2 12 C-1 14 -1 14 -4.5625 13.75 C-8 13 -8 13 -10 11 C-10.4375 7.625 -10.4375 7.625 -10 4 C-6.94513459 0.59600711 -4.5793159 -0.74259177 0 0 Z " fill="#2F4564" transform="translate(105,115)"/>
<path d="M0 0 C2.31 0.33 4.62 0.66 7 1 C6.814375 1.5775 6.62875 2.155 6.4375 2.75 C5.95976454 5.20692525 6.24270636 6.64397534 7 9 C6.34 9 5.68 9 5 9 C5 9.66 5 10.32 5 11 C5.66 11 6.32 11 7 11 C7 11.99 7 12.98 7 14 C4.69 14 2.38 14 0 14 C-2.05459372 8.40693931 -2.05459372 5.59306069 0 0 Z " fill="#364B6C" transform="translate(64,115)"/>
<path d="M0 0 C2.31 0.66 4.62 1.32 7 2 C8.125 6.75 8.125 6.75 7 9 C7.39938767 11.09821215 7.39938767 11.09821215 8 13 C6.68 13 5.36 13 4 13 C4 12.34 4 11.68 4 11 C3.34 11 2.68 11 2 11 C2 11.66 2 12.32 2 13 C1.01 13 0.02 13 -1 13 C-1.02696365 11.20841511 -1.04637917 9.41671527 -1.0625 7.625 C-1.07410156 6.62726563 -1.08570312 5.62953125 -1.09765625 4.6015625 C-1 2 -1 2 0 0 Z " fill="#324A71" transform="translate(86,115)"/>
<path d="M0 0 C1.875 1.375 1.875 1.375 2.6875 3.8125 C2.875 6.375 2.875 6.375 1.875 9.375 C1.875 10.695 1.875 12.015 1.875 13.375 C0.555 12.385 -0.765 11.395 -2.125 10.375 C-3.115 11.365 -4.105 12.355 -5.125 13.375 C-6.45130565 9.23029486 -7.10884711 4.34269422 -5.125 0.375 C-2.125 -0.625 -2.125 -0.625 0 0 Z " fill="#355584" transform="translate(40.125,115.625)"/>
<path d="M0 0 C0.66 1.32 1.32 2.64 2 4 C2.66 4 3.32 4 4 4 C4.66 2.68 5.32 1.36 6 0 C6.66 0.33 7.32 0.66 8 1 C9.09771253 5.29105809 8.92311745 8.69211856 8 13 C7.01 13 6.02 13 5 13 C4.87625 12.360625 4.7525 11.72125 4.625 11.0625 C4.41875 10.381875 4.2125 9.70125 4 9 C3.34 8.67 2.68 8.34 2 8 C1.67 9.65 1.34 11.3 1 13 C-0.32 12.67 -1.64 12.34 -3 12 C-2.88601335 10.37419034 -2.75844341 8.74932843 -2.625 7.125 C-2.55539063 6.22007813 -2.48578125 5.31515625 -2.4140625 4.3828125 C-2 2 -2 2 0 0 Z " fill="#304669" transform="translate(111,115)"/>
<path d="M0 0 C0 0.66 0 1.32 0 2 C0.66 2 1.32 2 2 2 C2 2.99 2 3.98 2 5 C2.66 5.33 3.32 5.66 4 6 C3.67 6.66 3.34 7.32 3 8 C1.68 8 0.36 8 -1 8 C-1.33 7.01 -1.66 6.02 -2 5 C-5.00847418 3.77479736 -5.00847418 3.77479736 -8 3 C-8.33 4.32 -8.66 5.64 -9 7 C-10.65 7.33 -12.3 7.66 -14 8 C-13.76073573 4.41103589 -13.60993153 2.57296598 -10.9375 0.0625 C-6.87779606 -1.40590355 -4.22166485 -0.78709006 0 0 Z " fill="#324D7D" transform="translate(156,68)"/>
<path d="M0 0 C0.66 0 1.32 0 2 0 C2.11627503 3.58305992 2.1872736 7.16563417 2.25 10.75 C2.28351563 11.76578125 2.31703125 12.7815625 2.3515625 13.828125 C2.45112665 21.39500069 2.45112665 21.39500069 -0.015625 24.703125 C-0.67046875 25.13109375 -1.3253125 25.5590625 -2 26 C-2.6875 23.6875 -2.6875 23.6875 -3 21 C-1.5625 19.1875 -1.5625 19.1875 0 18 C-0.99 18 -1.98 18 -3 18 C-3.08150744 15.93816367 -3.1394194 13.87538651 -3.1875 11.8125 C-3.22230469 10.66394531 -3.25710937 9.51539063 -3.29296875 8.33203125 C-2.97436317 4.70842376 -2.21947332 2.85360856 0 0 Z " fill="#2D486F" transform="translate(90,149)"/>
<path d="M0 0 C0.66 0 1.32 0 2 0 C5.85286851 7.88462021 7.77944772 14.20090134 7 23 C5.68 23.33 4.36 23.66 3 24 C1.375 22.4375 1.375 22.4375 0 20 C0.8125 16.25 0.8125 16.25 2 13 C2.66 13 3.32 13 4 13 C3.65555119 10.52733235 3.65555119 10.52733235 3 8 C2.34 7.67 1.68 7.34 1 7 C0.59270772 4.67843403 0.25561323 2.3431213 0 0 Z " fill="#385D97" transform="translate(122,86)"/>
<path d="M0 0 C3 2 3 2 4 4 C5.98 4 7.96 4 10 4 C10.66 2.68 11.32 1.36 12 0 C13.32 0.66 14.64 1.32 16 2 C13.10782241 7.54334038 13.10782241 7.54334038 9.953125 8.84375 C7.98799263 9.31761171 5.99395333 9.66767445 4 10 C2.99406757 8.8803014 1.9954151 7.7540588 1 6.625 C0.443125 5.99851563 -0.11375 5.37203125 -0.6875 4.7265625 C-2 3 -2 3 -2 1 C-1.34 0.67 -0.68 0.34 0 0 Z " fill="#3A557E" transform="translate(144,132)"/>
<path d="M0 0 C0.66 0 1.32 0 2 0 C2.83819158 1.62249941 3.6704116 3.24808497 4.5 4.875 C4.9640625 5.77992187 5.428125 6.68484375 5.90625 7.6171875 C7 10 7 10 7 12 C5.68 12 4.36 12 3 12 C2.67 11.34 2.34 10.68 2 10 C1.01 9.67 0.02 9.34 -1 9 C-1.66 10.32 -2.32 11.64 -3 13 C-3.66 12.67 -4.32 12.34 -5 12 C-4.125 5.25 -4.125 5.25 -3 3 C-2.34 3 -1.68 3 -1 3 C-0.67 2.01 -0.34 1.02 0 0 Z " fill="#324B73" transform="translate(77,116)"/>
<path d="M0 0 C2 3 2 3 3 6 C3.66 6.66 4.32 7.32 5 8 C4.67 8.66 4.34 9.32 4 10 C4.39938767 12.09821215 4.39938767 12.09821215 5 14 C4.01 14 3.02 14 2 14 C1.67 14.66 1.34 15.32 1 16 C-0.65 16 -2.3 16 -4 16 C-3.39891424 10.34979382 -1.92471317 5.33835539 0 0 Z " fill="#3763AF" transform="translate(108,93)"/>
<path d="M0 0 C0 0.99 0 1.98 0 3 C-1.65 3 -3.3 3 -5 3 C-5 3.66 -5 4.32 -5 5 C-3.94729537 6.15811388 -3.94729537 6.15811388 -2 7 C-2 7.99 -2 8.98 -2 10 C-1.34 10 -0.68 10 0 10 C-0.33 10.99 -0.66 11.98 -1 13 C-4 14 -4 14 -6.125 13.4375 C-8 12 -8 12 -8.8125 9.25 C-9.00166466 5.97114584 -8.68632186 3.20283535 -8 0 C-2.25 -1.125 -2.25 -1.125 0 0 Z M-4 8 C-3 10 -3 10 -3 10 Z " fill="#405474" transform="translate(53,116)"/>
<path d="M0 0 C1.33333333 0.66666667 2.66666667 1.33333333 4 2 C4.721875 2.309375 5.44375 2.61875 6.1875 2.9375 C8 4 8 4 9 7 C3.06 7.495 3.06 7.495 -3 8 C-3 9.98 -3 11.96 -3 14 C-0.77011716 13.91249445 1.45896005 13.80430939 3.6875 13.6875 C5.54955078 13.60048828 5.54955078 13.60048828 7.44921875 13.51171875 C11.06321199 12.99089024 13.05766393 12.09845383 16 10 C15.11060037 12.22349907 14.39908773 13.69864804 12.46875 15.15625 C8.70319616 16.44321144 5.17282938 15.95027607 1.25 15.625 C0.45722656 15.56828125 -0.33554688 15.5115625 -1.15234375 15.453125 C-3.10231735 15.31216305 -5.05128671 15.1574288 -7 15 C-6.34 12.03 -5.68 9.06 -5 6 C-1.62182575 5.15545644 0.67465243 4.89155081 4 6 C2.68 4.02 1.36 2.04 0 0 Z " fill="#555559" transform="translate(134,96)"/>
<path d="M0 0 C0.33 0.99 0.66 1.98 1 3 C0.01 3.495 0.01 3.495 -1 4 C-1 3.34 -1 2.68 -1 2 C-2.155 2.165 -3.31 2.33 -4.5 2.5 C-7.71840102 2.88105868 -10.85440297 3.01891232 -14.08984375 2.9609375 C-14.80527344 2.94869141 -15.52070313 2.93644531 -16.2578125 2.92382812 C-17.70217951 2.89147223 -19.1463174 2.84605555 -20.58984375 2.78710938 C-22.84810059 2.70393769 -22.84810059 2.70393769 -26 3 C-28.3183128 6.47746919 -28.16962884 7.92890775 -28 12 C-28 12.99 -28 13.98 -28 15 C-29.5 13.9375 -29.5 13.9375 -31 12 C-31.48614073 8.18032287 -31.72412332 5.96955936 -29.375 2.82421875 C-26.31881201 0.47678488 -24.39074495 0.40643226 -20.5625 0.25 C-18.71978516 0.16685547 -18.71978516 0.16685547 -16.83984375 0.08203125 C-11.22444869 -0.03793141 -5.61614872 -0.08396236 0 0 Z " fill="#4D4D4E" transform="translate(161,81)"/>
<path d="M0 0 C3.63 0 7.26 0 11 0 C11.33 0.99 11.66 1.98 12 3 C10.39125 3.2165625 10.39125 3.2165625 8.75 3.4375 C6.08337051 3.83749442 3.58600271 4.27591924 1 5 C1 5.66 1 6.32 1 7 C0.34 7 -0.32 7 -1 7 C-1.268125 8.093125 -1.53625 9.18625 -1.8125 10.3125 C-2.930763 13.7850009 -3.43744207 14.71827034 -6 17 C-5.00481422 10.49200879 -3.60861828 5.5332147 0 0 Z " fill="#4C4C4D" transform="translate(31,81)"/>
<path d="M0 0 C11.88 0 23.76 0 36 0 C36.495 0.99 36.495 0.99 37 2 C33.9317362 2.89749822 31.20730024 3.11711768 28.015625 3.09765625 C27.08105469 3.09443359 26.14648438 3.09121094 25.18359375 3.08789062 C24.21550781 3.07951172 23.24742188 3.07113281 22.25 3.0625 C21.26644531 3.05798828 20.28289062 3.05347656 19.26953125 3.04882812 C16.84629209 3.03706483 14.42317727 3.02062684 12 3 C12 2.67 12 2.34 12 2 C8.04 1.67 4.08 1.34 0 1 C0 0.67 0 0.34 0 0 Z " fill="#415897" transform="translate(96,68)"/>
<path d="M0 0 C0.99 0.33 1.98 0.66 3 1 C3.625 3.875 3.625 3.875 4 7 C1.23776722 9.76223278 -1.20706617 9.57856291 -5 10 C-5.36768802 4.48467967 -5.36768802 4.48467967 -3.625 2.1875 C-2 1 -2 1 0 0 Z " fill="#3C4C64" transform="translate(176,98)"/>
<path d="M0 0 C1.65 0 3.3 0 5 0 C7.45 9.1 7.45 9.1 6 12 C5.01 12 4.02 12 3 12 C3 10.35 3 8.7 3 7 C2.34 6.67 1.68 6.34 1 6 C1.66 5.67 2.32 5.34 3 5 C1.35 4.67 -0.3 4.34 -2 4 C-1.34 2.68 -0.68 1.36 0 0 Z " fill="#33537A" transform="translate(55,116)"/>
<path d="M0 0 C0.625 2.375 0.625 2.375 1 5 C-1 7 -1 7 -3.5 7.25 C-6 7 -6 7 -8 5 C-8 3.68 -8 2.36 -8 1 C-4.93251126 -0.86240388 -3.40254489 -1.2151946 0 0 Z " fill="#405472" transform="translate(45,85)"/>
<path d="M0 0 C0.99 0 1.98 0 3 0 C2.67 0.598125 2.34 1.19625 2 1.8125 C0.79212012 4.05386471 0.79212012 4.05386471 1 7 C-5.26079448 7.43177893 -8.09075703 6.92739438 -13 3 C-11.68 2.34 -10.36 1.68 -9 1 C-8.34 1.66 -7.68 2.32 -7 3 C-4.5 3.41666667 -4.5 3.41666667 -2 3 C-1.34 2.01 -0.68 1.02 0 0 Z " fill="#3F5D8C" transform="translate(87,167)"/>
<path d="M0 0 C1.65 0 3.3 0 5 0 C5.33 1.65 5.66 3.3 6 5 C5.34 5 4.68 5 4 5 C4 6.65 4 8.3 4 10 C3.01 10.495 3.01 10.495 2 11 C2 10.34 2 9.68 2 9 C1.34 9 0.68 9 0 9 C-1.125 2.25 -1.125 2.25 0 0 Z " fill="#3A5277" transform="translate(158,115)"/>
<path d="M0 0 C0.763125 0.66 1.52625 1.32 2.3125 2 C4.84277939 4.29850538 4.84277939 4.29850538 8 4 C7.67 5.65 7.34 7.3 7 9 C2.16743695 8.58578031 0.17320782 6.53586014 -3 3 C-2.01 2.01 -1.02 1.02 0 0 Z " fill="#354B6F" transform="translate(43,132)"/>
<path d="M0 0 C0.66 0 1.32 0 2 0 C2 2.31 2 4.62 2 7 C5.465 6.505 5.465 6.505 9 6 C9.33 7.32 9.66 8.64 10 10 C6.30458414 10.95024979 3.69541586 10.95024979 0 10 C0 6.7 0 3.4 0 0 Z " fill="#3F4145" transform="translate(168,101)"/>
<path d="M0 0 C0.33 0 0.66 0 1 0 C1 3.3 1 6.6 1 10 C0.34 10 -0.32 10 -1 10 C-1.33 12.31 -1.66 14.62 -2 17 C-0.35 16.67 1.3 16.34 3 16 C3 16.66 3 17.32 3 18 C1.00045254 18.04254356 -1.00041636 18.04080783 -3 18 C-4 17 -4 17 -4.3125 13.5 C-4.28492284 8.42580297 -2.29972645 4.43518673 0 0 Z " fill="#375A8E" transform="translate(106,92)"/>
<path d="M0 0 C0.66 0.33 1.32 0.66 2 1 C2.59355614 3.64860427 2.74209269 6.29197322 3 9 C2.01 9.495 2.01 9.495 1 10 C1 9.34 1 8.68 1 8 C-1.475 9.485 -1.475 9.485 -4 11 C-4.66 9.02 -5.32 7.04 -6 5 C-5.01 5 -4.02 5 -3 5 C-2.87625 4.360625 -2.7525 3.72125 -2.625 3.0625 C-2.41875 2.381875 -2.2125 1.70125 -2 1 C-1.34 0.67 -0.68 0.34 0 0 Z M-1 3 C-1.33 4.32 -1.66 5.64 -2 7 C-1.34 6.67 -0.68 6.34 0 6 C-0.33 5.01 -0.66 4.02 -1 3 Z " fill="#365A9C" transform="translate(117,93)"/>
<path d="M0 0 C0.66 0.33 1.32 0.66 2 1 C1.43174347 6.54050113 -0.62886517 11.03715966 -3 16 C-3.33 16 -3.66 16 -4 16 C-4 14.35 -4 12.7 -4 11 C-4.66 10.67 -5.32 10.34 -6 10 C-5.34 10 -4.68 10 -4 10 C-3.896875 9.278125 -3.79375 8.55625 -3.6875 7.8125 C-2.94013068 4.75508007 -1.71954811 2.61670365 0 0 Z " fill="#365778" transform="translate(127,17)"/>
<path d="M0 0 C5.61 0 11.22 0 17 0 C18.43088528 2.86177057 17.59991697 4.93375773 17 8 C15.68 7.67 14.36 7.34 13 7 C13 5.35 13 3.7 13 2 C8.71 1.67 4.42 1.34 0 1 C0 0.67 0 0.34 0 0 Z " fill="#3C5B84" transform="translate(94,144)"/>
<path d="M0 0 C0.66 0 1.32 0 2 0 C2 4.29 2 8.58 2 13 C1.67 13 1.34 13 1 13 C0.67 10.36 0.34 7.72 0 5 C-0.94875 5.020625 -1.8975 5.04125 -2.875 5.0625 C-6 5 -6 5 -8 4 C-8 4.66 -8 5.32 -8 6 C-8.99 5.67 -9.98 5.34 -11 5 C-11 4.01 -11 3.02 -11 2 C-6.94952424 0.64984141 -4.2079832 1.37915002 0 2 C0 1.34 0 0.68 0 0 Z " fill="#515050" transform="translate(151,87)"/>
<path d="M0 0 C0 0.33 0 0.66 0 1 C-5.12583611 1.10251672 -9.94997778 1.03590199 -15 0 C-15 0.66 -15 1.32 -15 2 C-17.91517292 0.92598892 -19.77810176 0.22189824 -22 -2 C-16.05001769 -4.97499116 -6.17054076 -1.51734609 0 0 Z " fill="#283C9E" transform="translate(83,67)"/>
<path d="M0 0 C0.33 0.99 0.66 1.98 1 3 C3.31 3 5.62 3 8 3 C8 3.33 8 3.66 8 4 C3.05 4 -1.9 4 -7 4 C-7 3.01 -7 2.02 -7 1 C-7.66 0.67 -8.32 0.34 -9 0 C-5.93109813 -1.53445094 -3.29905734 -0.54984289 0 0 Z " fill="#216181" transform="translate(119,65)"/>
<path d="M0 0 C2.25 -0.25 2.25 -0.25 5 0 C7.3125 1.875 7.3125 1.875 9 4 C9 4.66 9 5.32 9 6 C9.99 6 10.98 6 12 6 C12 6.66 12 7.32 12 8 C8.71303767 8.79953138 7.28976808 9.09658936 4 8 C2.8125 5.4375 2.8125 5.4375 2 3 C2.66 3 3.32 3 4 3 C4 2.34 4 1.68 4 1 C2.68 0.67 1.36 0.34 0 0 Z " fill="#274B6B" transform="translate(50,68)"/>
<path d="M0 0 C0.66 0 1.32 0 2 0 C2.83819158 1.62249941 3.6704116 3.24808497 4.5 4.875 C4.9640625 5.77992187 5.428125 6.68484375 5.90625 7.6171875 C7 10 7 10 7 12 C5.68 12 4.36 12 3 12 C2 9 2 9 2 6 C1.67 5.34 1.34 4.68 1 4 C0.34 4.66 -0.32 5.32 -1 6 C-1.99 5.67 -2.98 5.34 -4 5 C-3.67 4.34 -3.34 3.68 -3 3 C-2.34 3 -1.68 3 -1 3 C-0.67 2.01 -0.34 1.02 0 0 Z " fill="#304670" transform="translate(77,116)"/>
<path d="M0 0 C3.96 0.33 7.92 0.66 12 1 C12.33 1.99 12.66 2.98 13 4 C14.32 3.67 15.64 3.34 17 3 C17 3.66 17 4.32 17 5 C12.44642857 5.25297619 12.44642857 5.25297619 10.125 3.9375 C6.88162417 2.5065989 4.39931492 3.27157537 1 4 C-1.33588323 4.95584438 -1.33588323 4.95584438 -3 6 C-3.66 5.34 -4.32 4.68 -5 4 C-4.0409375 3.8453125 -4.0409375 3.8453125 -3.0625 3.6875 C-2.381875 3.460625 -1.70125 3.23375 -1 3 C-0.67 2.01 -0.34 1.02 0 0 Z " fill="#3D3F41" transform="translate(30,106)"/>
<path d="M0 0 C0.66 0 1.32 0 2 0 C2.69965443 1.26418246 3.38434763 2.53665402 4.0625 3.8125 C4.63677734 4.87404297 4.63677734 4.87404297 5.22265625 5.95703125 C6 8 6 8 5 11 C2 10 2 10 0.25 7.1875 C-0.98589446 4.03596914 -1.28222189 3.03070628 0 0 Z " fill="#3D5578" transform="translate(71,19)"/>
<path d="M0 0 C2 2 2 2 2 5 C-1.3 5 -4.6 5 -8 5 C-8 4.01 -8 3.02 -8 2 C-4.77626323 -0.14915785 -3.73296326 -0.38286803 0 0 Z " fill="#384D74" transform="translate(105,115)"/>
<path d="M0 0 C3 1 3 1 4 3 C4.99 3.33 5.98 3.66 7 4 C7 5.65 7 7.3 7 9 C2.58110387 7.64978174 0.65654657 5.73884332 -2 2 C-1.34 2 -0.68 2 0 2 C0 1.34 0 0.68 0 0 Z " fill="#405A8C" transform="translate(116,24)"/>
<path d="M0 0 C3 3.36 3 3.36 3 6.125 C1.57671052 8.79366778 -0.19124829 9.1357687 -3 10 C-3.66 9.01 -4.32 8.02 -5 7 C-1.125 1.125 -1.125 1.125 0 0 Z M-1 2 C0 5 0 5 0 5 Z " fill="#333333" transform="translate(63,94)"/>
<path d="M0 0 C2.125 0.9375 2.125 0.9375 4 2 C3.67 3.65 3.34 5.3 3 7 C1.35 6.67 -0.3 6.34 -2 6 C-2 4.35 -2 2.7 -2 1 C-1.34 0.67 -0.68 0.34 0 0 Z " fill="#4A5B71" transform="translate(167,113)"/>
<path d="M0 0 C0.66 0 1.32 0 2 0 C1.48788756 3.58478706 0.97467082 7.16886123 0.4375 10.75 C-0.06670601 13.94897785 -0.06670601 13.94897785 0 17 C-1.32 17 -2.64 17 -4 17 C-3.52294177 14.72872279 -3.04328294 12.45799168 -2.5625 10.1875 C-2.29566406 8.92292969 -2.02882812 7.65835938 -1.75390625 6.35546875 C-1 3 -1 3 0 0 Z " fill="#3B3B3C" transform="translate(51,94)"/>
<path d="M0 0 C3.3 0 6.6 0 10 0 C6.98112756 3.48331435 4.43090471 4.79157144 0 6 C0 4.02 0 2.04 0 0 Z " fill="#3B5F88" transform="translate(124,144)"/>
<path d="M0 0 C5.94 0 11.88 0 18 0 C16.68 0.33 15.36 0.66 14 1 C14 1.66 14 2.32 14 3 C12.22844346 2.88570603 10.45773771 2.75816963 8.6875 2.625 C7.70136719 2.55539063 6.71523437 2.48578125 5.69921875 2.4140625 C3 2 3 2 0 0 Z " fill="#2B5B81" transform="translate(74,65)"/>
<path d="M0 0 C1.98 0.495 1.98 0.495 4 1 C4 1.99 4 2.98 4 4 C4.66 4 5.32 4 6 4 C5.67 4.99 5.34 5.98 5 7 C2 8 2 8 -1 7 C-0.67 4.69 -0.34 2.38 0 0 Z M2 2 C3 4 3 4 3 4 Z " fill="#375884" transform="translate(47,122)"/>
<path d="M0 0 C0.598125 0.350625 1.19625 0.70125 1.8125 1.0625 C1.4825 1.3925 1.1525 1.7225 0.8125 2.0625 C-0.8375 2.0625 -2.4875 2.0625 -4.1875 2.0625 C-3.5275 5.6925 -2.8675 9.3225 -2.1875 13.0625 C-3.1775 13.0625 -4.1675 13.0625 -5.1875 13.0625 C-6.15411363 9.94069599 -6.17738909 7.54166205 -5.75 4.3125 C-5.64816406 3.51328125 -5.54632813 2.7140625 -5.44140625 1.890625 C-5.35761719 1.28734375 -5.27382812 0.6840625 -5.1875 0.0625 C-2.1875 -0.9375 -2.1875 -0.9375 0 0 Z " fill="#2E4267" transform="translate(152.1875,115.9375)"/>
<path d="M0 0 C1.875 0.1875 1.875 0.1875 4 1 C5.25 3.5625 5.25 3.5625 6 6 C5.01 6 4.02 6 3 6 C3 5.34 3 4.68 3 4 C2.34 4 1.68 4 1 4 C1 4.66 1 5.32 1 6 C-0.32 6.33 -1.64 6.66 -3 7 C-2.01 4.69 -1.02 2.38 0 0 Z " fill="#26405D" transform="translate(138,116)"/>
<path d="M0 0 C-0.33 1.32 -0.66 2.64 -1 4 C-1.556875 3.690625 -2.11375 3.38125 -2.6875 3.0625 C-5.12540433 1.94238179 -7.36224186 1.43962636 -10 1 C-10 0.01 -10 -0.98 -10 -2 C-5.57867492 -3.38955931 -3.72488245 -2.66063032 0 0 Z " fill="#334B6A" transform="translate(141,54)"/>
<path d="M0 0 C0.99 0.33 1.98 0.66 3 1 C3 3.97 3 6.94 3 10 C2.34 8.68 1.68 7.36 1 6 C0.34 6 -0.32 6 -1 6 C-1.33 6.66 -1.66 7.32 -2 8 C-2.20086443 4.28400809 -2.1519437 3.22791555 0 0 Z " fill="#1D344F" transform="translate(109,150)"/>
<path d="M0 0 C0.66 0 1.32 0 2 0 C2.33 3.63 2.66 7.26 3 11 C2.01 11.495 2.01 11.495 1 12 C0.67 10.35 0.34 8.7 0 7 C-0.66 7 -1.32 7 -2 7 C-2.125 4.625 -2.125 4.625 -2 2 C-1.34 1.34 -0.68 0.68 0 0 Z " fill="#3E5A78" transform="translate(138,132)"/>
<path d="M0 0 C1.4540625 0.0309375 1.4540625 0.0309375 2.9375 0.0625 C3.5975 1.3825 4.2575 2.7025 4.9375 4.0625 C3.9475 4.0625 2.9575 4.0625 1.9375 4.0625 C1.2775 3.4025 0.6175 2.7425 -0.0625 2.0625 C-1.0525 3.0525 -2.0425 4.0425 -3.0625 5.0625 C-3.625 3.125 -3.625 3.125 -4.0625 1.0625 C-3.0625 0.0625 -3.0625 0.0625 0 0 Z " fill="#304C6A" transform="translate(38.0625,123.9375)"/>
<path d="M0 0 C0.8677564 2.42971792 1.20863003 3.5380335 0.125 5.9375 C-0.24625 6.618125 -0.6175 7.29875 -1 8 C-1.37668344 9.65740715 -1.72057545 11.32345271 -2 13 C-2.66 12.67 -3.32 12.34 -4 12 C-4.50423019 6.70558305 -3.18923033 4.18586481 0 0 Z " fill="#46464B" transform="translate(24,99)"/>
<path d="M0 0 C0.99 0.33 1.98 0.66 3 1 C2.8125 2.875 2.8125 2.875 2 5 C-0.89111788 6.52164099 -2.71823412 7 -6 7 C-5.67 5.68 -5.34 4.36 -5 3 C-4.360625 2.87625 -3.72125 2.7525 -3.0625 2.625 C-2.0415625 2.315625 -2.0415625 2.315625 -1 2 C-0.67 1.34 -0.34 0.68 0 0 Z " fill="#4C4B4C" transform="translate(57,96)"/>
<path d="M0 0 C1.65 0 3.3 0 5 0 C4.67 1.65 4.34 3.3 4 5 C2.35 5.33 0.7 5.66 -1 6 C-0.67 4.02 -0.34 2.04 0 0 Z " fill="#38517A" transform="translate(143,70)"/>
<path d="M0 0 C1.65 0.33 3.3 0.66 5 1 C4.625 2.9375 4.625 2.9375 4 5 C3.01 5.495 3.01 5.495 2 6 C1.01 5.34 0.02 4.68 -1 4 C-0.67 2.68 -0.34 1.36 0 0 Z " fill="#385579" transform="translate(82,40)"/>
<path d="M0 0 C0.99 0 1.98 0 3 0 C3.33 2.31 3.66 4.62 4 7 C2.68 7.33 1.36 7.66 0 8 C-0.98120464 4.94736336 -0.98120464 3.05263664 0 0 Z " fill="#3B4A71" transform="translate(137,68)"/>
<path d="M0 0 C0.28571429 8.57142857 0.28571429 8.57142857 -2 12 C-2.5745952 8.26513121 -3 4.78706732 -3 1 C-1 0 -1 0 0 0 Z " fill="#3E527F" transform="translate(60,48)"/>
<path d="M0 0 C1.65 0 3.3 0 5 0 C4.67 2.31 4.34 4.62 4 7 C3.01 7 2.02 7 1 7 C0.67 4.69 0.34 2.38 0 0 Z " fill="#2E4E72" transform="translate(115,121)"/>
<path d="M0 0 C-0.375 2.4375 -0.375 2.4375 -1 5 C-1.99 5.495 -1.99 5.495 -3 6 C-3 5.01 -3 4.02 -3 3 C-3.99 3.33 -4.98 3.66 -6 4 C-6 2.68 -6 1.36 -6 0 C-2.25 -1.125 -2.25 -1.125 0 0 Z " fill="#3B5A89" transform="translate(155,118)"/>
<path d="M0 0 C1.33333333 0.66666667 2.66666667 1.33333333 4 2 C5.0828125 2.4640625 5.0828125 2.4640625 6.1875 2.9375 C8 4 8 4 9 7 C6.03 7 3.06 7 0 7 C1.32 6.67 2.64 6.34 4 6 C2.68 4.02 1.36 2.04 0 0 Z " fill="#5B5B5E" transform="translate(134,96)"/>
<path d="M0 0 C0.99 0 1.98 0 3 0 C1.5140084 4.59306496 -0.85014682 7.43569245 -4 11 C-4.66 10.34 -5.32 9.68 -6 9 C-5.566875 8.51789063 -5.13375 8.03578125 -4.6875 7.5390625 C-4.130625 6.90742187 -3.57375 6.27578125 -3 5.625 C-2.443125 4.99851562 -1.88625 4.37203125 -1.3125 3.7265625 C0.20172487 2.09610167 0.20172487 2.09610167 0 0 Z " fill="#434746" transform="translate(101,82)"/>
<path d="M0 0 C0 0.66 0 1.32 0 2 C-1.6396875 2.37125 -1.6396875 2.37125 -3.3125 2.75 C-7.05908409 4.02002851 -8.10595266 4.65756352 -10 8 C-10.99 7.67 -11.98 7.34 -13 7 C-12.34 6.67 -11.68 6.34 -11 6 C-10.5359375 4.7625 -10.5359375 4.7625 -10.0625 3.5 C-9.711875 2.675 -9.36125 1.85 -9 1 C-5.8035914 -0.06546953 -3.34252724 -0.07427838 0 0 Z " fill="#3A3A3B" transform="translate(100,81)"/>
<path d="M0 0 C1.32 0 2.64 0 4 0 C4.33 1.32 4.66 2.64 5 4 C3.35 4.33 1.7 4.66 0 5 C-0.5625 3.0625 -0.5625 3.0625 -1 1 C-0.67 0.67 -0.34 0.34 0 0 Z " fill="#3F5D83" transform="translate(114,40)"/>
<path d="M0 0 C1.32 0 2.64 0 4 0 C3.67 0.99 3.34 1.98 3 3 C2.34 3 1.68 3 1 3 C0.67 5.64 0.34 8.28 0 11 C-0.33 11 -0.66 11 -1 11 C-1.02688151 9.35425434 -1.04634123 7.70838587 -1.0625 6.0625 C-1.07410156 5.14597656 -1.08570313 4.22945313 -1.09765625 3.28515625 C-1 1 -1 1 0 0 Z " fill="#434343" transform="translate(169,81)"/>
<path d="M0 0 C0.99 0 1.98 0 3 0 C3 0.66 3 1.32 3 2 C3.66 2 4.32 2 5 2 C5 2.99 5 3.98 5 5 C5.66 5.33 6.32 5.66 7 6 C6.67 6.66 6.34 7.32 6 8 C4.68 8 3.36 8 2 8 C2.33 6.68 2.66 5.36 3 4 C2.01 3.34 1.02 2.68 0 2 C0 1.34 0 0.68 0 0 Z " fill="#2B4263" transform="translate(153,68)"/>
<path d="M0 0 C3.875 1.75 3.875 1.75 5 4 C6.89533342 4.46523063 6.89533342 4.46523063 9.0625 4.625 C10.361875 4.74875 11.66125 4.8725 13 5 C13 5.33 13 5.66 13 6 C4.91111111 6.46666667 4.91111111 6.46666667 1.4375 4.6875 C0 3 0 3 0 0 Z " fill="#3F4043" transform="translate(87,105)"/>
<path d="M0 0 C1.5625 1.1875 1.5625 1.1875 3 3 C2.6875 5.6875 2.6875 5.6875 2 8 C1.67 7.34 1.34 6.68 1 6 C-1.475 7.485 -1.475 7.485 -4 9 C-3.71125 8.443125 -3.4225 7.88625 -3.125 7.3125 C-1.9586747 4.91505355 -0.9660119 2.48403061 0 0 Z " fill="#294CA5" transform="translate(117,95)"/>
<path d="M0 0 C0.66 0 1.32 0 2 0 C2.07654536 4.51617599 2.10228696 8.59085217 1 13 C0.67 13 0.34 13 0 13 C-0.19466332 11.20909747 -0.38051213 9.41723495 -0.5625 7.625 C-0.66691406 6.62726563 -0.77132812 5.62953125 -0.87890625 4.6015625 C-1 2 -1 2 0 0 Z " fill="#354D70" transform="translate(122,144)"/>
<path d="M0 0 C0 1.65 0 3.3 0 5 C0.66 5 1.32 5 2 5 C1.67 5.66 1.34 6.32 1 7 C-0.98 6.01 -2.96 5.02 -5 4 C-5 3.34 -5 2.68 -5 2 C-2 0 -2 0 0 0 Z " fill="#35465D" transform="translate(58,123)"/>
<path d="M0 0 C1.875 1.375 1.875 1.375 2.75 3.875 C2.79125 4.7 2.8325 5.525 2.875 6.375 C2.215 7.035 1.555 7.695 0.875 8.375 C0.545 7.385 0.215 6.395 -0.125 5.375 C0.535 5.375 1.195 5.375 1.875 5.375 C0.6261573 3.7916747 0.6261573 3.7916747 -1.125 2.375 C-2.445 2.375 -3.765 2.375 -5.125 2.375 C-5.125 1.715 -5.125 1.055 -5.125 0.375 C-2.125 -0.625 -2.125 -0.625 0 0 Z " fill="#334766" transform="translate(40.125,115.625)"/>
<path d="M0 0 C0.33 0.66 0.66 1.32 1 2 C0.01 2.33 -0.98 2.66 -2 3 C-2 5.31 -2 7.62 -2 10 C-3.32 9.67 -4.64 9.34 -6 9 C-5.67 8.67 -5.34 8.34 -5 8 C-4.63239269 5.67182036 -4.29758419 3.3381615 -4 1 C-2.68 0.67 -1.36 0.34 0 0 Z " fill="#435165" transform="translate(133,101)"/>
<path d="M0 0 C0.66 0.66 1.32 1.32 2 2 C1.625 4.125 1.625 4.125 1 6 C-0.65 5.67 -2.3 5.34 -4 5 C-3.6875 3.0625 -3.6875 3.0625 -3 1 C-2.01 0.67 -1.02 0.34 0 0 Z " fill="#405D8E" transform="translate(176,100)"/>
<path d="M0 0 C0.66 0 1.32 0 2 0 C2 1.98 2 3.96 2 6 C1.34 5.34 0.68 4.68 0 4 C-0.33 5.65 -0.66 7.3 -1 9 C-2.1875 7.3125 -2.1875 7.3125 -3 5 C-1.75 2.25 -1.75 2.25 0 0 Z " fill="#1F3A57" transform="translate(90,149)"/>
<path d="M0 0 C0.33 0.66 0.66 1.32 1 2 C3.02463255 2.65213292 3.02463255 2.65213292 5 3 C1.86501708 4.85776765 -0.37471432 5.20140476 -4 5 C-3.34 4.01 -2.68 3.02 -2 2 C-1.34 2 -0.68 2 0 2 C0 1.34 0 0.68 0 0 Z " fill="#29405D" transform="translate(134,143)"/>
<path d="M0 0 C0.66 0.99 1.32 1.98 2 3 C5.07921132 3.25660094 7.21136993 3.39431504 10 2 C9.67 2.99 9.34 3.98 9 5 C5.7 5 2.4 5 -1 5 C-0.67 3.35 -0.34 1.7 0 0 Z " fill="#3B5377" transform="translate(101,106)"/>
<path d="M0 0 C0.33 0.99 0.66 1.98 1 3 C1.66 3.33 2.32 3.66 3 4 C1.68 4.99 0.36 5.98 -1 7 C-2.32 6.34 -3.64 5.68 -5 5 C-4.01 5 -3.02 5 -2 5 C-1.7834375 4.0409375 -1.7834375 4.0409375 -1.5625 3.0625 C-1 1 -1 1 0 0 Z " fill="#374B72" transform="translate(137,61)"/>
<path d="M0 0 C2.0625 0.4375 2.0625 0.4375 4 1 C4 1.99 4 2.98 4 4 C2.35 4.66 0.7 5.32 -1 6 C-1.042721 4.33388095 -1.04063832 2.66617115 -1 1 C-0.67 0.67 -0.34 0.34 0 0 Z " fill="#37538C" transform="translate(89,145)"/>
<path d="M0 0 C1.65 0 3.3 0 5 0 C3.95125002 2.62187494 3.35068687 3.79371361 0.875 5.25 C0.25625 5.4975 -0.3625 5.745 -1 6 C-0.67 4.02 -0.34 2.04 0 0 Z " fill="#4B4B4B" transform="translate(85,89)"/>
<path d="M0 0 C0.99 0.33 1.98 0.66 3 1 C3 2.32 3 3.64 3 5 C1.35 4.67 -0.3 4.34 -2 4 C-1.34 2.68 -0.68 1.36 0 0 Z " fill="#3C61A0" transform="translate(41,86)"/>
<path d="M0 0 C1.69752187 0.25245197 3.38471545 0.57645775 5.0625 0.9375 C5.98160156 1.13214844 6.90070313 1.32679687 7.84765625 1.52734375 C8.91306641 1.76130859 8.91306641 1.76130859 10 2 C10 2.33 10 2.66 10 3 C8.54207116 3.05399736 7.08357288 3.09279177 5.625 3.125 C4.81289062 3.14820312 4.00078125 3.17140625 3.1640625 3.1953125 C1 3 1 3 -1 1 C-0.67 0.67 -0.34 0.34 0 0 Z " fill="#3D5487" transform="translate(97,65)"/>
<path d="M0 0 C0.33 0 0.66 0 1 0 C1.625 2.875 1.625 2.875 2 6 C1.34 6.66 0.68 7.32 0 8 C-0.66 7.67 -1.32 7.34 -2 7 C-1.125 1.125 -1.125 1.125 0 0 Z " fill="#2A497C" transform="translate(111,162)"/>
<path d="M0 0 C2 3 2 3 1.625 6.1875 C1.41875 7.115625 1.2125 8.04375 1 9 C0.34 9 -0.32 9 -1 9 C-2.0326802 6.21176345 -2.04509293 5.1322726 -1.0625 2.25 C-0.711875 1.5075 -0.36125 0.765 0 0 Z " fill="#385889" transform="translate(75,154)"/>
<path d="M0 0 C0.66 0 1.32 0 2 0 C2.33 1.32 2.66 2.64 3 4 C1.1875 5.0625 1.1875 5.0625 -1 6 C-1.99 5.67 -2.98 5.34 -4 5 C-3.67 4.34 -3.34 3.68 -3 3 C-2.34 3 -1.68 3 -1 3 C-0.67 2.01 -0.34 1.02 0 0 Z " fill="#30405B" transform="translate(77,116)"/>
<path d="M0 0 C1.65 0 3.3 0 5 0 C4.67 0.99 4.34 1.98 4 3 C2.02 3.33 0.04 3.66 -2 4 C-1.34 2.68 -0.68 1.36 0 0 Z " fill="#3E5073" transform="translate(55,116)"/>
<path d="M0 0 C0.66 0.33 1.32 0.66 2 1 C1.625 3.9375 1.625 3.9375 1 7 C0.01 7.495 0.01 7.495 -1 8 C-1.625 5.6875 -1.625 5.6875 -2 3 C-1.34 2.01 -0.68 1.02 0 0 Z " fill="#31426A" transform="translate(127,17)"/>
<path d="M0 0 C2.3431213 0.25561323 4.67843403 0.59270772 7 1 C7.33 1.66 7.66 2.32 8 3 C5.69 3 3.38 3 1 3 C0.67 2.01 0.34 1.02 0 0 Z " fill="#365D8E" transform="translate(112,171)"/>
<path d="M0 0 C0.99 0.33 1.98 0.66 3 1 C3.6875 3.0625 3.6875 3.0625 4 5 C2.68 5 1.36 5 0 5 C-0.5625 3.0625 -0.5625 3.0625 -1 1 C-0.67 0.67 -0.34 0.34 0 0 Z " fill="#254F6B" transform="translate(90,123)"/>
<path d="M0 0 C0.66 0.66 1.32 1.32 2 2 C1.625 5.625 1.625 5.625 1 9 C-1.14809171 5.77786243 -1.29386153 4.72224599 -1 1 C-0.67 0.67 -0.34 0.34 0 0 Z " fill="#35557C" transform="translate(111,118)"/>
<path d="M0 0 C1.98 0 3.96 0 6 0 C6.33 0.99 6.66 1.98 7 3 C8.32 2.67 9.64 2.34 11 2 C11 2.66 11 3.32 11 4 C7.37739148 4.20125603 5.09994848 3.92410596 2 2 C1.34 1.34 0.68 0.68 0 0 Z " fill="#4A4B4D" transform="translate(36,107)"/>
<path d="M0 0 C1.5 1.0625 1.5 1.0625 3 3 C3.1875 6.6875 3.1875 6.6875 3 10 C1.5 8.9375 1.5 8.9375 0 7 C-0.1875 3.3125 -0.1875 3.3125 0 0 Z " fill="#4E4D4E" transform="translate(46,96)"/>
<path d="M0 0 C1.65 0 3.3 0 5 0 C5.66 1.65 6.32 3.3 7 5 C5.68 5.33 4.36 5.66 3 6 C2.67 5.01 2.34 4.02 2 3 C2.66 3 3.32 3 4 3 C4 2.34 4 1.68 4 1 C2.68 0.67 1.36 0.34 0 0 Z " fill="#3A5273" transform="translate(50,68)"/>
<path d="M0 0 C2.64 0 5.28 0 8 0 C8 0.66 8 1.32 8 2 C5.6875 3.125 5.6875 3.125 3 4 C2.01 3.34 1.02 2.68 0 2 C0 1.34 0 0.68 0 0 Z " fill="#445D8E" transform="translate(64,68)"/>
<path d="M0 0 C0.66 0.33 1.32 0.66 2 1 C0.25 5.875 0.25 5.875 -2 7 C-2.33 5.35 -2.66 3.7 -3 2 C-2.01 1.34 -1.02 0.68 0 0 Z " fill="#1F3F64" transform="translate(90,168)"/>
<path d="M0 0 C1.32 0.66 2.64 1.32 4 2 C3.67 2.66 3.34 3.32 3 4 C1.35 4 -0.3 4 -2 4 C-1.34 2.68 -0.68 1.36 0 0 Z " fill="#2B4770" transform="translate(156,132)"/>
<path d="M0 0 C0.33 0.66 0.66 1.32 1 2 C1.66 2 2.32 2 3 2 C3.33 4.31 3.66 6.62 4 9 C3.34 9 2.68 9 2 9 C1.34 6.03 0.68 3.06 0 0 Z " fill="#515151" transform="translate(147,96)"/>
<path d="M0 0 C2.475 0.99 2.475 0.99 5 2 C4.67 3.32 4.34 4.64 4 6 C1.53721199 4.768606 0.57502313 3.21935077 -1 1 C-0.67 0.67 -0.34 0.34 0 0 Z " fill="#475D8C" transform="translate(128,40)"/>
<path d="M0 0 C0.99 0.33 1.98 0.66 3 1 C1.02 2.32 -0.96 3.64 -3 5 C-3.99 4.34 -4.98 3.68 -6 3 C-5 2 -5 2 -2.4375 1.9375 C-1.2309375 1.9684375 -1.2309375 1.9684375 0 2 C0 1.34 0 0.68 0 0 Z " fill="#3E5D88" transform="translate(94,22)"/>
<path d="" fill="#333333" transform="translate(0,0)"/>
<path d="" fill="#000000" transform="translate(0,0)"/>
<path d="" fill="#000000" transform="translate(0,0)"/>
<path d="" fill="#333366" transform="translate(0,0)"/>
<path d="" fill="#555555" transform="translate(0,0)"/>
<path d="" fill="#000080" transform="translate(0,0)"/>
<path d="" fill="#555555" transform="translate(0,0)"/>
<path d="" fill="#404040" transform="translate(0,0)"/>
<path d="" fill="#808080" transform="translate(0,0)"/>
<path d="" fill="#2E4646" transform="translate(0,0)"/>
<path d="" fill="#808080" transform="translate(0,0)"/>
<path d="" fill="#000000" transform="translate(0,0)"/>
<path d="" fill="#000000" transform="translate(0,0)"/>
<path d="" fill="#808080" transform="translate(0,0)"/>
<path d="" fill="#000000" transform="translate(0,0)"/>
<path d="" fill="#000000" transform="translate(0,0)"/>
<path d="" fill="#404040" transform="translate(0,0)"/>
<path d="" fill="#000080" transform="translate(0,0)"/>
<path d="" fill="#000000" transform="translate(0,0)"/>
</svg>
